# Blender 5.0.1
# www.blender.org
mtllib BaseS4.mtl
o BaseS4
v -8.117928 0.000003 7.924073
v -8.117928 0.622577 7.924073
v -8.117928 -0.000003 -7.924073
v -8.117928 0.622571 -7.924073
v 7.628626 0.000003 7.924073
v 7.628626 0.622577 7.924073
v 7.628626 -0.000003 -7.924073
v 7.628626 0.622571 -7.924073
v -8.117928 0.000003 7.352310
v -8.117928 0.622577 7.352310
v 7.628626 0.000003 7.352310
v 7.628626 0.622577 7.352310
v 5.282545 -0.000003 -7.924073
v 5.282545 0.622571 -7.924073
v 5.282545 0.000003 7.924073
v 5.282545 0.622577 7.924073
v 5.282545 0.622577 7.352310
v 5.282545 0.000003 7.352310
v -8.117928 0.622574 1.943541
v 7.628626 0.000000 1.943541
v -8.117928 0.000000 1.943540
v 7.628626 0.622574 1.943540
v 5.282545 0.000000 1.943540
v 5.282545 0.622574 1.943540
v -8.117928 0.622574 -3.159555
v 7.628626 -0.000000 -3.159555
v -8.117928 -0.000000 -3.159556
v 7.628626 0.622574 -3.159556
v 5.282545 -0.000000 -3.159556
v 5.282545 0.622574 -3.159556
v -8.117928 0.622574 -3.946643
v 7.628626 -0.000000 -3.946643
v -8.117928 -0.000000 -3.946644
v 7.628626 0.622574 -3.946644
v 5.282545 -0.000000 -3.946644
v 5.282545 0.622574 -3.946644
v 7.103469 0.622571 -7.924073
v 7.103469 0.000003 7.924073
v 7.103469 0.622577 7.352310
v 7.103469 -0.000003 -7.924073
v 7.103469 0.622577 7.924073
v 7.103469 0.000003 7.352310
v 7.103469 0.622574 1.943540
v 7.103469 0.000000 1.943541
v 7.103469 -0.000000 -3.159555
v 7.103469 0.622574 -3.159556
v 7.103469 0.622574 -3.946644
v 7.103469 -0.000000 -3.946643
v 1.366581 -0.000003 -7.924073
v 1.366581 0.622577 7.924073
v 1.366581 0.000003 7.352310
v 1.366581 0.622571 -7.924073
v 1.366581 0.000003 7.924073
v 1.366581 0.622577 7.352310
v 1.366581 0.000000 1.943540
v 1.366581 0.622574 1.943540
v 1.366581 0.622574 -3.159556
v 1.366581 -0.000000 -3.159556
v 1.366581 -0.000000 -3.946644
v 1.366581 0.622574 -3.946644
v 3.324563 0.622571 -7.924073
v 3.324563 0.000003 7.924073
v 3.324563 0.622577 7.352310
v 3.324563 0.622574 1.943540
v 3.324563 0.622574 -3.159556
v 3.324563 0.622574 -3.946644
v 3.324563 -0.000003 -7.924073
v 3.324563 0.622577 7.924073
v 3.324563 0.000003 7.352310
v 3.324563 0.000000 1.943540
v 3.324563 -0.000000 -3.159556
v 3.324563 -0.000000 -3.946644
v 4.303554 0.622571 -7.924073
v 4.303554 0.000003 7.924073
v 4.303554 0.622577 7.352310
v 4.303554 0.622574 1.943540
v 4.303554 0.622574 -3.159556
v 4.303554 0.622574 -3.946644
v 4.303554 -0.000003 -7.924073
v 4.303554 0.622577 7.924073
v 4.303554 0.000003 7.352310
v 4.303554 0.000000 1.943540
v 4.303554 -0.000000 -3.159556
v 4.303554 -0.000000 -3.946644
v 2.345572 -0.000003 -7.924073
v 2.345572 0.622577 7.924073
v 2.345572 0.000003 7.352310
v 2.345572 0.000000 1.943540
v 2.345572 -0.000000 -3.159556
v 2.345572 -0.000000 -3.946644
v 2.345572 0.622571 -7.924073
v 2.345572 0.000003 7.924073
v 2.345572 0.622577 7.352310
v 2.345572 0.622574 1.943540
v 2.345572 0.622574 -3.159556
v 2.345572 0.622574 -3.946644
v 6.193007 -0.000003 -7.924073
v 6.193007 0.622577 7.924073
v 6.193007 0.000003 7.352310
v 6.193007 0.000000 1.943540
v 6.193007 -0.000000 -3.159556
v 6.193007 -0.000000 -3.946644
v 6.193007 0.622571 -7.924073
v 6.193007 0.000003 7.924073
v 6.193007 0.622577 7.352310
v 6.193007 0.622574 1.943540
v 6.193007 0.622574 -3.159556
v 6.193007 0.622574 -3.946644
v 4.793050 0.622571 -7.924073
v 4.793050 0.000003 7.924073
v 4.793050 0.622577 7.352310
v 4.793050 0.622574 1.943540
v 4.793050 0.622574 -3.159556
v 4.793050 0.622574 -3.946644
v 4.793050 -0.000003 -7.924073
v 4.793050 0.622577 7.924073
v 4.793050 0.000003 7.352310
v 4.793050 0.000000 1.943540
v 4.793050 -0.000000 -3.159556
v 4.793050 -0.000000 -3.946644
v 5.737776 -0.000003 -7.924073
v 5.737776 0.622577 7.924073
v 5.737776 0.000003 7.352310
v 5.737776 0.000000 1.943540
v 5.737776 -0.000000 -3.159556
v 5.737776 -0.000000 -3.946644
v 5.737776 0.622571 -7.924073
v 5.737776 0.000003 7.924073
v 5.737776 0.622577 7.352310
v 5.737776 0.622574 1.943540
v 5.737776 0.622574 -3.159556
v 5.737776 0.622574 -3.946644
v 6.648238 0.622571 -7.924073
v 6.648238 0.000003 7.924073
v 6.648238 0.622574 1.943540
v 6.648238 0.622574 -3.159556
v 6.648238 0.622574 -3.946644
v 6.648238 -0.000003 -7.924073
v 6.648238 0.622577 7.924073
v 6.648238 0.000003 7.352310
v 6.648238 0.000000 1.943541
v 6.648238 -0.000000 -3.159555
v 6.648238 -0.000000 -3.946643
v 3.814059 -0.000003 -7.924073
v 3.814059 0.622577 7.924073
v 3.814059 0.000003 7.352310
v 3.814059 0.000000 1.943540
v 3.814059 -0.000000 -3.159556
v 3.814059 -0.000000 -3.946644
v 3.814059 0.622571 -7.924073
v 3.814059 0.000003 7.924073
v 3.814059 0.622577 7.352310
v 3.814059 0.622574 1.943540
v 3.814059 0.622574 -3.159556
v 3.814059 0.622574 -3.946644
v 2.835068 0.622571 -7.924073
v 2.835068 0.000003 7.924073
v 2.835068 0.622577 7.352310
v 2.835068 0.622574 1.943540
v 2.835068 0.622574 -3.159556
v 2.835068 0.622574 -3.946644
v 2.835068 -0.000003 -7.924073
v 2.835068 0.622577 7.924073
v 2.835068 0.000003 7.352310
v 2.835068 0.000000 1.943540
v 2.835068 -0.000000 -3.159556
v 2.835068 -0.000000 -3.946644
v 1.855153 -0.000003 -7.924073
v 1.855153 0.622577 7.924073
v 1.855153 0.000003 7.352310
v 1.855153 0.000000 1.943540
v 1.855153 -0.000000 -3.159556
v 1.855153 -0.000000 -3.946644
v 1.855153 0.622571 -7.924073
v 1.855153 0.000003 7.924073
v 1.855153 0.622577 7.352310
v 1.855153 0.622574 1.943540
v 1.855153 0.622574 -3.159556
v 1.855153 0.622574 -3.946644
v -8.117928 0.000000 4.615708
v 7.628626 0.622574 4.615708
v 5.282545 0.000000 4.615708
v 5.282545 0.622574 4.615708
v -8.117928 0.622574 4.615708
v 7.628626 0.000000 4.615708
v 7.103469 0.622574 4.615708
v 7.103469 0.000000 4.615708
v 1.366581 0.000000 4.615708
v 1.366581 0.622574 4.615708
v 3.324563 0.622574 4.615708
v 3.324563 0.000000 4.615708
v 4.303554 0.622574 4.615708
v 4.303554 0.000000 4.615708
v 2.345572 0.000000 4.615708
v 2.345572 0.622574 4.615708
v 6.193007 0.000000 4.615708
v 6.193007 0.622574 4.615708
v 4.793050 0.622574 4.615708
v 4.793050 0.000000 4.615708
v 5.737776 0.000000 4.615708
v 5.737776 0.622574 4.615708
v 6.648238 0.622574 4.615708
v 6.648238 0.000000 4.615708
v 3.814059 0.000000 4.615708
v 3.814059 0.622574 4.615708
v 2.835068 0.622574 4.615708
v 2.835068 0.000000 4.615708
v 1.855153 0.000000 4.615708
v 1.855153 0.622574 4.615708
v -8.117928 0.622574 3.305822
v 7.628626 0.000000 3.305822
v -8.117928 0.000000 3.305822
v 7.628626 0.622574 3.305822
v 5.282545 0.000000 3.305822
v 5.282545 0.622574 3.305822
v 7.103469 0.622574 3.305822
v 7.103469 0.000000 3.305822
v 1.366581 0.000000 3.305822
v 1.366581 0.622574 3.305822
v 3.324563 0.622574 3.305822
v 3.324563 0.000000 3.305822
v 4.303554 0.622574 3.305822
v 4.303554 0.000000 3.305822
v 2.345572 0.000000 3.305822
v 2.345572 0.622574 3.305822
v 6.193007 0.000000 3.305822
v 6.193007 0.622574 3.305822
v 4.793050 0.622574 3.305822
v 4.793050 0.000000 3.305822
v 5.737776 0.000000 3.305822
v 5.737776 0.622574 3.305822
v 6.648238 0.622574 3.305822
v 6.648238 0.000000 3.305822
v 3.814059 0.000000 3.305822
v 3.814059 0.622574 3.305822
v 2.835068 0.622574 3.305822
v 2.835068 0.000000 3.305822
v 1.855153 0.000000 3.305822
v 1.855153 0.622574 3.305822
v -8.117928 0.000000 3.960765
v 7.628626 0.622574 3.960765
v 5.282545 0.000000 3.960765
v 5.282545 0.622574 3.960765
v 7.103469 0.622574 3.960765
v 7.103469 0.000000 3.960765
v 1.366581 0.000000 3.960765
v 1.366581 0.622574 3.960765
v 3.324563 0.622574 3.960765
v 3.324563 0.000000 3.960765
v 4.303554 0.622574 3.960765
v 4.303554 0.000000 3.960765
v 2.345572 0.000000 3.960765
v 2.345572 0.622574 3.960765
v 6.193007 0.000000 3.960765
v 6.193007 0.622574 3.960765
v 4.793050 0.622574 3.960765
v 4.793050 0.000000 3.960765
v 5.737776 0.000000 3.960765
v 5.737776 0.622574 3.960765
v 6.648238 0.622574 3.960765
v 6.648238 0.000000 3.960765
v 3.814059 0.000000 3.960765
v 3.814059 0.622574 3.960765
v 2.835068 0.622574 3.960765
v 2.835068 0.000000 3.960765
v 1.855153 0.000000 3.960765
v 1.855153 0.622574 3.960765
v -8.117928 0.622574 3.960765
v 7.628626 0.000000 3.960765
v -8.117928 0.622574 2.624681
v 7.628626 0.000000 2.624681
v -8.117928 0.000000 2.624681
v 7.628626 0.622574 2.624681
v 5.282545 0.000000 2.624681
v 5.282545 0.622574 2.624681
v 7.103469 0.622574 2.624681
v 7.103469 0.000000 2.624681
v 1.366581 0.000000 2.624681
v 1.366581 0.622574 2.624681
v 3.324563 0.622574 2.624681
v 3.324563 0.000000 2.624681
v 4.303554 0.622574 2.624681
v 4.303554 0.000000 2.624681
v 2.345572 0.000000 2.624681
v 2.345572 0.622574 2.624681
v 6.193007 0.000000 2.624681
v 6.193007 0.622574 2.624681
v 4.793050 0.622574 2.624681
v 4.793050 0.000000 2.624681
v 5.737776 0.000000 2.624681
v 5.737776 0.622574 2.624681
v 6.648238 0.622574 2.624681
v 6.648238 0.000000 2.624681
v 3.814059 0.000000 2.624681
v 3.814059 0.622574 2.624681
v 2.835068 0.622574 2.624681
v 2.835068 0.000000 2.624681
v 1.855153 0.000000 2.624681
v 1.855153 0.622574 2.624681
v -8.117928 0.000000 1.354645
v 7.628626 0.622574 1.354645
v 5.282545 0.000000 1.354645
v 5.282545 0.622574 1.354645
v -8.117928 0.622574 1.354646
v 7.628626 0.000000 1.354646
v 7.103469 0.000000 1.354646
v 7.103469 0.622574 1.354645
v 1.366581 0.622574 1.354645
v 1.366581 0.000000 1.354645
v 3.324563 0.622574 1.354645
v 3.324563 0.000000 1.354645
v 4.303554 0.622574 1.354645
v 4.303554 0.000000 1.354645
v 2.345572 0.000000 1.354645
v 2.345572 0.622574 1.354645
v 6.193007 0.000000 1.354645
v 6.193007 0.622574 1.354645
v 4.793050 0.622574 1.354645
v 4.793050 0.000000 1.354645
v 5.737776 0.000000 1.354645
v 5.737776 0.622574 1.354645
v 6.648238 0.622574 1.354645
v 6.648238 0.000000 1.354646
v 3.814059 0.000000 1.354645
v 3.814059 0.622574 1.354645
v 2.835068 0.622574 1.354645
v 2.835068 0.000000 1.354645
v 1.855153 0.000000 1.354645
v 1.855153 0.622574 1.354645
v -8.117928 0.622574 3.633294
v 7.628626 0.000000 3.633294
v -8.117928 0.000000 3.633294
v 7.628626 0.622574 3.633294
v 5.282545 0.000000 3.633294
v 5.282545 0.622574 3.633294
v 7.103469 0.622574 3.633294
v 7.103469 0.000000 3.633294
v 1.366581 0.000000 3.633294
v 1.366581 0.622574 3.633294
v 3.324563 0.622574 3.633294
v 3.324563 0.000000 3.633294
v 4.303554 0.622574 3.633294
v 4.303554 0.000000 3.633294
v 2.345572 0.000000 3.633294
v 2.345572 0.622574 3.633294
v 6.193007 0.000000 3.633294
v 6.193007 0.622574 3.633294
v 4.793050 0.622574 3.633294
v 4.793050 0.000000 3.633294
v 5.737776 0.000000 3.633294
v 5.737776 0.622574 3.633294
v 6.648238 0.622574 3.633294
v 6.648238 0.000000 3.633294
v 3.814059 0.000000 3.633294
v 3.814059 0.622574 3.633294
v 2.835068 0.622574 3.633294
v 2.835068 0.000000 3.633294
v 1.855153 0.000000 3.633294
v 1.855153 0.622574 3.633294
v -8.117928 0.000000 4.288237
v 7.628626 0.622574 4.288237
v 5.282545 0.000000 4.288237
v 5.282545 0.622574 4.288237
v 7.103469 0.622574 4.288237
v 7.103469 0.000000 4.288237
v 1.366581 0.000000 4.288237
v 1.366581 0.622574 4.288237
v 3.324563 0.622574 4.288237
v 3.324563 0.000000 4.288237
v 4.303554 0.622574 4.288237
v 4.303554 0.000000 4.288237
v 2.345572 0.000000 4.288237
v 2.345572 0.622574 4.288237
v 6.193007 0.000000 4.288237
v 6.193007 0.622574 4.288237
v 4.793050 0.622574 4.288237
v 4.793050 0.000000 4.288237
v 5.737776 0.000000 4.288237
v 5.737776 0.622574 4.288237
v 6.648238 0.622574 4.288237
v 6.648238 0.000000 4.288237
v 3.814059 0.000000 4.288237
v 3.814059 0.622574 4.288237
v 2.835068 0.622574 4.288237
v 2.835068 0.000000 4.288237
v 1.855153 0.000000 4.288237
v 1.855153 0.622574 4.288237
v -8.117928 0.622574 4.288237
v 7.628626 0.000000 4.288237
v -8.117928 0.000000 2.965252
v 7.628626 0.622574 2.965252
v 5.282545 0.000000 2.965252
v 5.282545 0.622574 2.965252
v 7.103469 0.622574 2.965252
v 7.103469 0.000000 2.965252
v 1.366581 0.000000 2.965252
v 1.366581 0.622574 2.965252
v 3.324563 0.622574 2.965252
v 3.324563 0.000000 2.965252
v 4.303554 0.622574 2.965252
v 4.303554 0.000000 2.965252
v 2.345572 0.000000 2.965252
v 2.345572 0.622574 2.965252
v 6.193007 0.000000 2.965252
v 6.193007 0.622574 2.965252
v 4.793050 0.622574 2.965252
v 4.793050 0.000000 2.965252
v 5.737776 0.000000 2.965252
v 5.737776 0.622574 2.965252
v 6.648238 0.622574 2.965252
v 6.648238 0.000000 2.965252
v 3.814059 0.000000 2.965252
v 3.814059 0.622574 2.965252
v 2.835068 0.622574 2.965252
v 2.835068 0.000000 2.965252
v 1.855153 0.000000 2.965252
v 1.855153 0.622574 2.965252
v -8.117928 0.622574 2.965252
v 7.628626 0.000000 2.965252
v -8.117928 0.622574 2.284111
v 7.628626 0.000000 2.284111
v -8.117928 0.000000 2.284111
v 7.628626 0.622574 2.284111
v 5.282545 0.000000 2.284111
v 5.282545 0.622574 2.284111
v 7.103469 0.622574 2.284111
v 7.103469 0.000000 2.284111
v 1.366581 0.000000 2.284111
v 1.366581 0.622574 2.284111
v 3.324563 0.622574 2.284111
v 3.324563 0.000000 2.284111
v 4.303554 0.622574 2.284111
v 4.303554 0.000000 2.284111
v 2.345572 0.000000 2.284111
v 2.345572 0.622574 2.284111
v 6.193007 0.000000 2.284111
v 6.193007 0.622574 2.284111
v 4.793050 0.622574 2.284111
v 4.793050 0.000000 2.284111
v 5.737776 0.000000 2.284111
v 5.737776 0.622574 2.284111
v 6.648238 0.622574 2.284111
v 6.648238 0.000000 2.284111
v 3.814059 0.000000 2.284111
v 3.814059 0.622574 2.284111
v 2.835068 0.622574 2.284111
v 2.835068 0.000000 2.284111
v 1.855153 0.000000 2.284111
v 1.855153 0.622574 2.284111
v -8.117928 0.000000 1.649093
v 7.628626 0.622574 1.649093
v 5.282545 0.000000 1.649093
v 5.282545 0.622574 1.649093
v 7.103469 0.000000 1.649093
v 7.103469 0.622574 1.649093
v 1.366581 0.622574 1.649093
v 1.366581 0.000000 1.649093
v 3.324563 0.622574 1.649093
v 3.324563 0.000000 1.649093
v 4.303554 0.622574 1.649093
v 4.303554 0.000000 1.649093
v 2.345572 0.000000 1.649093
v 2.345572 0.622574 1.649093
v 6.193007 0.000000 1.649093
v 6.193007 0.622574 1.649093
v 4.793050 0.622574 1.649093
v 4.793050 0.000000 1.649093
v 5.737776 0.000000 1.649093
v 5.737776 0.622574 1.649093
v 6.648238 0.622574 1.649093
v 6.648238 0.000000 1.649093
v 3.814059 0.000000 1.649093
v 3.814059 0.622574 1.649093
v 2.835068 0.622574 1.649093
v 2.835068 0.000000 1.649093
v 1.855153 0.000000 1.649093
v 1.855153 0.622574 1.649093
v -8.117928 0.622574 1.649093
v 7.628626 0.000000 1.649093
v -8.117928 0.622574 0.680194
v 7.628626 0.000000 0.680194
v -8.117928 0.000000 0.680194
v 7.628626 0.622574 0.680194
v 5.282545 0.000000 0.680194
v 5.282545 0.622574 0.680194
v 7.103469 0.000000 0.680195
v 7.103469 0.622574 0.680194
v 1.366581 0.622574 0.680194
v 1.366581 0.000000 0.680194
v 3.324563 0.622574 0.680194
v 3.324563 0.000000 0.680194
v 4.303554 0.622574 0.680194
v 4.303554 0.000000 0.680194
v 2.345572 0.000000 0.680194
v 2.345572 0.622574 0.680194
v 6.193007 0.000000 0.680194
v 6.193007 0.622574 0.680194
v 4.793050 0.622574 0.680194
v 4.793050 0.000000 0.680194
v 5.737776 0.000000 0.680194
v 5.737776 0.622574 0.680194
v 6.648238 0.622574 0.680194
v 6.648238 0.000000 0.680195
v 3.814059 0.000000 0.680194
v 3.814059 0.622574 0.680194
v 2.835068 0.622574 0.680194
v 2.835068 0.000000 0.680194
v 1.855153 0.000000 0.680194
v 1.855153 0.622574 0.680194
v -8.117928 0.622574 -0.094464
v 7.628626 -0.000000 -0.094464
v -8.117928 -0.000000 -0.094464
v 7.628626 0.622574 -0.094464
v 5.282545 -0.000000 -0.094464
v 5.282545 0.622574 -0.094464
v 7.103469 -0.000000 -0.094464
v 7.103469 0.622574 -0.094464
v 1.366581 0.622574 -0.094464
v 1.366581 -0.000000 -0.094464
v 3.324563 0.622574 -0.094464
v 3.324563 -0.000000 -0.094464
v 4.303554 0.622574 -0.094464
v 4.303554 -0.000000 -0.094464
v 2.345572 -0.000000 -0.094464
v 2.345572 0.622574 -0.094464
v 6.193007 -0.000000 -0.094464
v 6.193007 0.622574 -0.094464
v 4.793050 0.622574 -0.094464
v 4.793050 -0.000000 -0.094464
v 5.737776 -0.000000 -0.094464
v 5.737776 0.622574 -0.094464
v 6.648238 0.622574 -0.094464
v 6.648238 -0.000000 -0.094464
v 3.814059 -0.000000 -0.094464
v 3.814059 0.622574 -0.094464
v 2.835068 0.622574 -0.094464
v 2.835068 -0.000000 -0.094464
v 1.855153 -0.000000 -0.094464
v 1.855153 0.622574 -0.094464
v -8.117928 0.622574 -0.787565
v 7.628626 -0.000000 -0.787565
v -8.117928 -0.000000 -0.787565
v 7.628626 0.622574 -0.787565
v 5.282545 -0.000000 -0.787565
v 5.282545 0.622574 -0.787565
v 7.103469 -0.000000 -0.787565
v 7.103469 0.622574 -0.787565
v 1.366581 0.622574 -0.787565
v 1.366581 -0.000000 -0.787565
v 3.324563 0.622574 -0.787565
v 3.324563 -0.000000 -0.787565
v 4.303554 0.622574 -0.787565
v 4.303554 -0.000000 -0.787565
v 2.345572 -0.000000 -0.787565
v 2.345572 0.622574 -0.787565
v 6.193007 -0.000000 -0.787565
v 6.193007 0.622574 -0.787565
v 4.793050 0.622574 -0.787565
v 4.793050 -0.000000 -0.787565
v 5.737776 -0.000000 -0.787565
v 5.737776 0.622574 -0.787565
v 6.648238 0.622574 -0.787565
v 6.648238 -0.000000 -0.787565
v 3.814059 -0.000000 -0.787565
v 3.814059 0.622574 -0.787565
v 2.835068 0.622574 -0.787565
v 2.835068 -0.000000 -0.787565
v 1.855153 -0.000000 -0.787565
v 1.855153 0.622574 -0.787565
v -8.117928 0.622574 -1.585831
v 7.628626 -0.000000 -1.585831
v -8.117928 -0.000000 -1.585831
v 7.628626 0.622574 -1.585831
v 5.282545 -0.000000 -1.585831
v 5.282545 0.622574 -1.585831
v 7.103469 -0.000000 -1.585831
v 7.103469 0.622574 -1.585831
v 1.366581 0.622574 -1.585831
v 1.366581 -0.000000 -1.585831
v 3.324563 0.622574 -1.585831
v 3.324563 -0.000000 -1.585831
v 4.303554 0.622574 -1.585831
v 4.303554 -0.000000 -1.585831
v 2.345572 -0.000000 -1.585831
v 2.345572 0.622574 -1.585831
v 6.193007 -0.000000 -1.585831
v 6.193007 0.622574 -1.585831
v 4.793050 0.622574 -1.585831
v 4.793050 -0.000000 -1.585831
v 5.737776 -0.000000 -1.585831
v 5.737776 0.622574 -1.585831
v 6.648238 0.622574 -1.585831
v 6.648238 -0.000000 -1.585831
v 3.814059 -0.000000 -1.585831
v 3.814059 0.622574 -1.585831
v 2.835068 0.622574 -1.585831
v 2.835068 -0.000000 -1.585831
v 1.855153 -0.000000 -1.585831
v 1.855153 0.622574 -1.585831
v -8.117928 0.622574 -2.372693
v 7.628626 -0.000000 -2.372693
v -8.117928 -0.000000 -2.372694
v 7.628626 0.622574 -2.372694
v 5.282545 -0.000000 -2.372694
v 5.282545 0.622574 -2.372694
v 7.103469 -0.000000 -2.372693
v 7.103469 0.622574 -2.372694
v 1.366581 0.622574 -2.372694
v 1.366581 -0.000000 -2.372694
v 3.324563 0.622574 -2.372694
v 3.324563 -0.000000 -2.372694
v 4.303554 0.622574 -2.372694
v 4.303554 -0.000000 -2.372694
v 2.345572 -0.000000 -2.372694
v 2.345572 0.622574 -2.372694
v 6.193007 -0.000000 -2.372694
v 6.193007 0.622574 -2.372694
v 4.793050 0.622574 -2.372694
v 4.793050 -0.000000 -2.372694
v 5.737776 -0.000000 -2.372694
v 5.737776 0.622574 -2.372694
v 6.648238 0.622574 -2.372694
v 6.648238 -0.000000 -2.372693
v 3.814059 -0.000000 -2.372694
v 3.814059 0.622574 -2.372694
v 2.835068 0.622574 -2.372694
v 2.835068 -0.000000 -2.372694
v 1.855153 -0.000000 -2.372694
v 1.855153 0.622574 -2.372694
v -5.082756 -0.000003 -7.924073
v -5.082756 0.622577 7.924073
v -5.082756 0.000003 7.352310
v -5.082756 0.000000 1.943540
v -5.082756 -0.000000 -3.159556
v -5.082756 -0.000000 -3.946644
v -5.082756 0.622571 -7.924073
v -5.082756 0.000003 7.924073
v -5.082756 0.622577 7.352310
v -5.082756 0.622574 1.943541
v -5.082756 0.622574 -3.159555
v -5.082756 0.622574 -3.946643
v -5.082756 0.000000 4.615708
v -5.082756 0.622574 4.615708
v -5.082756 0.622574 3.305822
v -5.082756 0.000000 3.305822
v -5.082756 0.622574 3.960765
v -5.082756 0.000000 3.960765
v -5.082756 0.000000 2.624681
v -5.082756 0.622574 2.624681
v -5.082756 0.000000 1.354645
v -5.082756 0.622574 1.354645
v -5.082756 0.000000 3.633294
v -5.082756 0.622574 3.633294
v -5.082756 0.622574 4.288237
v -5.082756 0.000000 4.288237
v -5.082756 0.000000 2.965252
v -5.082756 0.622574 2.965252
v -5.082756 0.622574 2.284111
v -5.082756 0.000000 2.284111
v -5.082756 0.000000 1.649093
v -5.082756 0.622574 1.649093
v -5.082756 0.622574 0.680194
v -5.082756 0.000000 0.680194
v -5.082756 -0.000000 -0.094464
v -5.082756 0.622574 -0.094464
v -5.082756 0.622574 -0.787565
v -5.082756 -0.000000 -0.787565
v -5.082756 -0.000000 -1.585831
v -5.082756 0.622574 -1.585831
v -5.082756 0.622574 -2.372693
v -5.082756 -0.000000 -2.372694
v -8.117928 0.622571 -7.350741
v 7.628626 -0.000003 -7.350741
v -8.117928 -0.000003 -7.350741
v 7.628626 0.622571 -7.350741
v 5.282545 -0.000003 -7.350741
v 5.282545 0.622571 -7.350741
v 7.103469 -0.000003 -7.350741
v 7.103469 0.622571 -7.350741
v 1.366581 0.622571 -7.350741
v 1.366581 -0.000003 -7.350741
v 3.324563 0.622571 -7.350741
v 3.324563 -0.000003 -7.350741
v 4.303554 0.622571 -7.350741
v 4.303554 -0.000003 -7.350741
v 2.345572 -0.000003 -7.350741
v 2.345572 0.622571 -7.350741
v 6.193007 -0.000003 -7.350741
v 6.193007 0.622571 -7.350741
v 4.793050 0.622571 -7.350741
v 4.793050 -0.000003 -7.350741
v 5.737776 -0.000003 -7.350741
v 5.737776 0.622571 -7.350741
v 6.648238 0.622571 -7.350741
v 6.648238 -0.000003 -7.350741
v 3.814059 -0.000003 -7.350741
v 3.814059 0.622571 -7.350741
v 2.835068 0.622571 -7.350741
v 2.835068 -0.000003 -7.350741
v 1.855153 -0.000003 -7.350741
v 1.855153 0.622571 -7.350741
v -5.082756 -0.000003 -7.350741
v -5.082756 0.622571 -7.350741
v -7.624489 -0.000003 -7.924073
v -7.624489 0.622577 7.924073
v -7.624489 0.000003 7.352310
v -7.624489 0.000000 1.943540
v -7.624489 -0.000000 -3.159556
v -7.624489 -0.000000 -3.946644
v -7.624489 0.000000 4.615708
v -7.624489 0.000000 3.305822
v -7.624489 0.000000 3.960765
v -7.624489 0.000000 2.624681
v -7.624489 0.000000 1.354645
v -7.624489 0.000000 3.633294
v -7.624489 0.000000 4.288237
v -7.624489 0.000000 2.965252
v -7.624489 0.000000 2.284111
v -7.624489 0.000000 1.649093
v -7.624489 0.000000 0.680194
v -7.624489 -0.000000 -0.094464
v -7.624489 -0.000000 -0.787565
v -7.624489 -0.000000 -1.585831
v -7.624489 -0.000000 -2.372694
v -7.624489 0.622571 -7.924073
v -7.624489 0.000003 7.924073
v -7.624489 0.622577 7.352310
v -7.624489 0.622574 1.943541
v -7.624489 0.622574 -3.159555
v -7.624489 0.622574 -3.946643
v -7.624489 0.622574 4.615708
v -7.624489 0.622574 3.305822
v -7.624489 0.622574 3.960765
v -7.624489 0.622574 2.624681
v -7.624489 0.622574 1.354646
v -7.624489 0.622574 3.633294
v -7.624489 0.622574 4.288237
v -7.624489 0.622574 2.965252
v -7.624489 0.622574 2.284111
v -7.624489 0.622574 1.649093
v -7.624489 0.622574 0.680194
v -7.624489 0.622574 -0.094464
v -7.624489 0.622574 -0.787565
v -7.624489 0.622574 -1.585831
v -7.624489 0.622574 -2.372693
v -7.624489 -0.000003 -7.350741
v -7.624489 0.622571 -7.350741
v -4.592617 0.622571 -7.924073
v -4.592617 0.000003 7.924073
v -4.592617 0.622577 7.352310
v -4.592617 0.622574 1.943541
v -4.592617 0.622574 -3.159555
v -4.592617 0.622574 -3.946643
v -4.592617 0.622574 4.615708
v -4.592617 0.622574 3.305822
v -4.592617 0.622574 3.960765
v -4.592617 0.622574 2.624681
v -4.592617 0.622574 1.354645
v -4.592617 0.622574 3.633294
v -4.592617 0.622574 4.288237
v -4.592617 0.622574 2.965252
v -4.592617 0.622574 2.284111
v -4.592617 0.622574 1.649093
v -4.592617 0.622574 0.680194
v -4.592617 0.622574 -0.094464
v -4.592617 0.622574 -0.787565
v -4.592617 0.622574 -1.585831
v -4.592617 0.622574 -2.372693
v -4.592617 -0.000003 -7.924073
v -4.592617 0.622577 7.924073
v -4.592617 0.000003 7.352310
v -4.592617 0.000000 1.943540
v -4.592617 -0.000000 -3.159556
v -4.592617 -0.000000 -3.946644
v -4.592617 0.000000 4.615708
v -4.592617 0.000000 3.305822
v -4.592617 0.000000 3.960765
v -4.592617 0.000000 2.624681
v -4.592617 0.000000 1.354645
v -4.592617 0.000000 3.633294
v -4.592617 0.000000 4.288237
v -4.592617 0.000000 2.965252
v -4.592617 0.000000 2.284111
v -4.592617 0.000000 1.649093
v -4.592617 0.000000 0.680194
v -4.592617 -0.000000 -0.094464
v -4.592617 -0.000000 -0.787565
v -4.592617 -0.000000 -1.585831
v -4.592617 -0.000000 -2.372694
v -4.592617 0.622571 -7.350741
v -4.592617 -0.000003 -7.350741
vn -1.0000 -0.0000 -0.0000
vn -0.0000 -0.0000 -1.0000
vn 1.0000 -0.0000 -0.0000
vn -0.0000 -0.0000 1.0000
vn -0.0000 -1.0000 -0.0000
vn -0.0000 1.0000 -0.0000
vt 0.625000 0.240956
vt 0.375000 0.250000
vt 0.375000 0.240956
vt 0.625000 0.491662
vt 0.375000 0.500000
vt 0.375000 0.491662
vt 0.625000 0.740981
vt 0.375000 0.750000
vt 0.375000 0.740981
vt 0.625000 0.992166
vt 0.375000 1.000000
vt 0.375000 0.992166
vt 0.366662 0.750000
vt 0.366662 0.740981
vt 0.000000 0.173791
vt 0.031336 0.000000
vt 0.031336 0.173791
vt 0.375000 0.697811
vt 0.366662 0.697811
vt 0.625000 0.697811
vt 0.625000 0.000000
vt 0.375000 0.009019
vt 0.375000 0.000000
vt 0.337752 0.697811
vt 0.329981 0.740981
vt 0.329981 0.697811
vt 0.851010 0.173791
vt 0.879920 0.000000
vt 0.879920 0.173791
vt 0.337752 0.740981
vt 0.329981 0.750000
vt 0.625000 0.780020
vt 0.375000 0.787248
vt 0.375000 0.780020
vt 0.625000 0.454981
vt 0.375000 0.462752
vt 0.375000 0.454981
vt 0.851010 0.362188
vt 0.879920 0.343489
vt 0.879920 0.362188
vt 0.337752 0.651014
vt 0.329981 0.655659
vt 0.329981 0.651014
vt 0.375000 0.651014
vt 0.625000 0.655659
vt 0.375000 0.655659
vt 0.366662 0.655659
vt 0.366662 0.651014
vt 0.000000 0.362188
vt 0.031336 0.343489
vt 0.031336 0.362188
vt 0.375000 0.088969
vt 0.625000 0.094341
vt 0.375000 0.094341
vt 0.000000 0.717551
vt 0.031336 0.667566
vt 0.031336 0.717551
vt 0.375000 0.562743
vt 0.366662 0.575159
vt 0.366662 0.562743
vt 0.625000 0.575159
vt 0.375000 0.575159
vt 0.337752 0.562743
vt 0.329981 0.575159
vt 0.329981 0.562743
vt 0.851010 0.717551
vt 0.879920 0.667566
vt 0.879920 0.717551
vt 0.375000 0.162429
vt 0.625000 0.174841
vt 0.375000 0.174841
vt 0.851010 0.933731
vt 0.879920 0.933731
vt 0.337752 0.509044
vt 0.329981 0.509044
vt 0.375000 0.509044
vt 0.625000 0.562743
vt 0.366662 0.509044
vt 0.000000 0.933731
vt 0.031336 0.933731
vt 0.625000 0.187257
vt 0.375000 0.187257
vt 0.266165 0.999051
vt 0.049985 0.970141
vt 0.266165 0.970141
vt 0.966649 0.933731
vt 1.000000 0.717551
vt 1.000000 0.933731
vt 0.049985 0.999051
vt 0.000000 0.970141
vt 0.359435 0.655659
vt 0.359435 0.651014
vt 0.966649 0.362188
vt 1.000000 0.343489
vt 1.000000 0.362188
vt 0.625000 0.750000
vt 0.375000 0.758338
vt 0.966649 0.173791
vt 1.000000 0.000000
vt 1.000000 0.173791
vt 0.359435 0.740981
vt 0.359435 0.697811
vt 0.359435 0.750000
vt 0.625000 0.484435
vt 0.375000 0.484435
vt 0.602323 0.933731
vt 0.633350 0.717551
vt 0.633350 0.933731
vt 0.275581 0.509044
vt 0.180970 0.562743
vt 0.180970 0.509044
vt 0.275581 0.562743
vt 0.180970 0.575159
vt 0.602323 0.717551
vt 0.633350 0.667566
vt 0.602323 0.362188
vt 0.633350 0.343489
vt 0.633350 0.362188
vt 0.275581 0.651014
vt 0.180970 0.655659
vt 0.180970 0.651014
vt 0.625000 0.305970
vt 0.375000 0.400581
vt 0.375000 0.305970
vt 0.275581 0.740981
vt 0.180970 0.750000
vt 0.180970 0.740981
vt 0.275581 0.697811
vt 0.180970 0.697811
vt 0.602323 0.173791
vt 0.633350 0.000000
vt 0.633350 0.173791
vt 0.625000 0.841663
vt 0.375000 0.849419
vt 0.375000 0.841663
vt 0.625000 0.810562
vt 0.375000 0.818333
vt 0.375000 0.810562
vt 0.726666 0.173791
vt 0.757752 0.000000
vt 0.757752 0.173791
vt 0.726666 0.362188
vt 0.757752 0.343489
vt 0.757752 0.362188
vt 0.726666 0.717551
vt 0.757752 0.667566
vt 0.757752 0.717551
vt 0.726666 0.933731
vt 0.757752 0.933731
vt 0.306667 0.509044
vt 0.298895 0.562743
vt 0.298895 0.509044
vt 0.306667 0.562743
vt 0.298895 0.575159
vt 0.306667 0.651014
vt 0.298895 0.655659
vt 0.298895 0.651014
vt 0.625000 0.423895
vt 0.375000 0.431667
vt 0.375000 0.423895
vt 0.306667 0.740981
vt 0.298895 0.750000
vt 0.298895 0.740981
vt 0.306667 0.697811
vt 0.298895 0.697811
vt 0.788838 0.933731
vt 0.819924 0.717551
vt 0.819924 0.933731
vt 0.788838 0.717551
vt 0.819924 0.667566
vt 0.788838 0.362188
vt 0.819924 0.343489
vt 0.819924 0.362188
vt 0.788838 0.173791
vt 0.819924 0.000000
vt 0.819924 0.173791
vt 0.625000 0.795019
vt 0.375000 0.802790
vt 0.375000 0.795019
vt 0.322210 0.509044
vt 0.314438 0.562743
vt 0.314438 0.509044
vt 0.322210 0.562743
vt 0.314438 0.575159
vt 0.322210 0.651014
vt 0.314438 0.655659
vt 0.314438 0.651014
vt 0.625000 0.439438
vt 0.375000 0.447210
vt 0.375000 0.439438
vt 0.322210 0.740981
vt 0.314438 0.750000
vt 0.314438 0.740981
vt 0.322210 0.697811
vt 0.314438 0.697811
vt 0.291124 0.697811
vt 0.283338 0.740981
vt 0.283337 0.697811
vt 0.291124 0.740981
vt 0.283338 0.750000
vt 0.625000 0.408338
vt 0.375000 0.416124
vt 0.375000 0.408338
vt 0.291124 0.651014
vt 0.283338 0.655659
vt 0.283338 0.651014
vt 0.291124 0.562743
vt 0.283338 0.575159
vt 0.283338 0.562743
vt 0.291124 0.509044
vt 0.283338 0.509044
vt 0.625000 0.826105
vt 0.375000 0.833876
vt 0.375000 0.826105
vt 0.664495 0.173791
vt 0.695581 0.000000
vt 0.695581 0.173791
vt 0.664495 0.362188
vt 0.695581 0.343489
vt 0.695581 0.362188
vt 0.664495 0.717551
vt 0.695581 0.667566
vt 0.695581 0.717551
vt 0.664495 0.933731
vt 0.695581 0.933731
vt 0.625000 0.469980
vt 0.375000 0.477207
vt 0.375000 0.469980
vt 0.352207 0.740981
vt 0.344980 0.750000
vt 0.344980 0.740981
vt 0.352207 0.697811
vt 0.344980 0.697811
vt 0.352207 0.651014
vt 0.344980 0.655659
vt 0.344980 0.651014
vt 0.352207 0.562743
vt 0.344980 0.575159
vt 0.344980 0.562743
vt 0.352207 0.509044
vt 0.344980 0.509044
vt 0.908830 0.933731
vt 0.937740 0.717551
vt 0.937740 0.933731
vt 0.908830 0.717551
vt 0.937740 0.667566
vt 0.908830 0.362188
vt 0.937740 0.343489
vt 0.937740 0.362188
vt 0.625000 0.765565
vt 0.375000 0.772793
vt 0.375000 0.765565
vt 0.625000 0.787248
vt 0.851010 0.000000
vt 0.851010 0.343489
vt 0.322210 0.575159
vt 0.322210 0.655659
vt 0.625000 0.447210
vt 0.322210 0.750000
vt 0.337752 0.575159
vt 0.337752 0.655659
vt 0.337752 0.750000
vt 0.625000 0.462752
vt 0.908830 0.343489
vt 0.625000 0.772793
vt 0.908830 0.000000
vt 0.908830 0.173791
vt 0.625000 0.758338
vt 0.966649 0.343489
vt 0.966649 0.717551
vt 0.625000 0.477207
vt 0.352207 0.750000
vt 0.352207 0.655659
vt 0.359435 0.562743
vt 0.352207 0.575159
vt 0.359435 0.509044
vt 0.306667 0.750000
vt 0.625000 0.431667
vt 0.306667 0.655659
vt 0.306667 0.575159
vt 0.788838 0.343489
vt 0.788838 0.000000
vt 0.625000 0.802790
vt 0.726666 0.343489
vt 0.726666 0.000000
vt 0.625000 0.818333
vt 0.291124 0.750000
vt 0.625000 0.416124
vt 0.291124 0.655659
vt 0.291124 0.575159
vt 0.275581 0.575159
vt 0.275581 0.655659
vt 0.625000 0.400581
vt 0.275581 0.750000
vt 0.625000 0.833876
vt 0.664495 0.000000
vt 0.664495 0.343489
vt 0.633350 0.194587
vt 0.664495 0.194587
vt 0.283337 0.692646
vt 0.275581 0.692646
vt 0.298895 0.692646
vt 0.291124 0.692646
vt 0.695581 0.194587
vt 0.726666 0.194587
vt 0.757752 0.194587
vt 0.788838 0.194587
vt 0.314438 0.692646
vt 0.306667 0.692646
vt 0.359435 0.692646
vt 0.352207 0.692646
vt 0.937740 0.194587
vt 0.966649 0.194587
vt 0.879920 0.194587
vt 0.908830 0.194587
vt 0.344980 0.692646
vt 0.337752 0.692646
vt 0.329981 0.692646
vt 0.322210 0.692646
vt 0.819924 0.194587
vt 0.851010 0.194587
vt 0.937740 0.173791
vt 0.602323 0.194587
vt 0.180970 0.692646
vt 0.366662 0.692646
vt 1.000000 0.194587
vt 0.625000 0.009019
vt 0.375000 0.052189
vt 0.625000 0.692646
vt 0.375000 0.692646
vt 0.000000 0.194587
vt 0.031336 0.194587
vt 0.000000 0.278604
vt 0.031336 0.256976
vt 0.031336 0.278604
vt 0.375000 0.671776
vt 0.366662 0.677148
vt 0.366662 0.671776
vt 0.625000 0.671776
vt 0.375000 0.677148
vt 0.337752 0.671776
vt 0.329981 0.677148
vt 0.329981 0.671776
vt 0.851010 0.278604
vt 0.879920 0.256976
vt 0.879920 0.278604
vt 0.966649 0.278604
vt 1.000000 0.256976
vt 1.000000 0.278604
vt 0.359435 0.677148
vt 0.359435 0.671776
vt 0.275581 0.671776
vt 0.180970 0.677148
vt 0.180970 0.671776
vt 0.602323 0.278604
vt 0.633350 0.256976
vt 0.633350 0.278604
vt 0.726666 0.278604
vt 0.757752 0.256976
vt 0.757752 0.278604
vt 0.306667 0.671776
vt 0.298895 0.677148
vt 0.298895 0.671776
vt 0.788838 0.278604
vt 0.819924 0.256976
vt 0.819924 0.278604
vt 0.322210 0.671776
vt 0.314438 0.677148
vt 0.314438 0.671776
vt 0.291124 0.671776
vt 0.283337 0.677148
vt 0.283337 0.671776
vt 0.664495 0.278604
vt 0.695581 0.256976
vt 0.695581 0.278604
vt 0.352207 0.671776
vt 0.344980 0.677148
vt 0.344980 0.671776
vt 0.908830 0.278604
vt 0.937740 0.256976
vt 0.937740 0.278604
vt 0.851010 0.256976
vt 0.322210 0.677148
vt 0.337752 0.677148
vt 0.908830 0.256976
vt 0.966649 0.256976
vt 0.352207 0.677148
vt 0.306667 0.677148
vt 0.788838 0.256976
vt 0.726666 0.256976
vt 0.291124 0.677148
vt 0.275581 0.677148
vt 0.664495 0.256976
vt 0.625000 0.067686
vt 0.375000 0.072852
vt 0.375000 0.067686
vt 0.625000 0.057354
vt 0.375000 0.062520
vt 0.375000 0.057354
vt 0.000000 0.236180
vt 0.031336 0.215383
vt 0.031336 0.236180
vt 0.375000 0.682314
vt 0.366662 0.687480
vt 0.366662 0.682314
vt 0.625000 0.682314
vt 0.375000 0.687480
vt 0.337752 0.682314
vt 0.329981 0.687480
vt 0.329981 0.682314
vt 0.851010 0.236180
vt 0.879920 0.215383
vt 0.879920 0.236180
vt 0.966649 0.236180
vt 1.000000 0.215383
vt 1.000000 0.236180
vt 0.359435 0.687480
vt 0.359435 0.682314
vt 0.275581 0.682314
vt 0.180970 0.687480
vt 0.180970 0.682314
vt 0.602323 0.236180
vt 0.633350 0.215383
vt 0.633350 0.236180
vt 0.726666 0.236180
vt 0.757752 0.215383
vt 0.757752 0.236180
vt 0.306667 0.682314
vt 0.298895 0.687480
vt 0.298895 0.682314
vt 0.788838 0.236180
vt 0.819924 0.215383
vt 0.819924 0.236180
vt 0.322210 0.682314
vt 0.314438 0.687480
vt 0.314438 0.682314
vt 0.291124 0.682314
vt 0.283337 0.687480
vt 0.283337 0.682314
vt 0.664495 0.236180
vt 0.695581 0.215383
vt 0.695581 0.236180
vt 0.352207 0.682314
vt 0.344980 0.687480
vt 0.344980 0.682314
vt 0.908830 0.236180
vt 0.937740 0.215383
vt 0.937740 0.236180
vt 0.851010 0.215383
vt 0.322210 0.687480
vt 0.337752 0.687480
vt 0.908830 0.215383
vt 0.966649 0.215383
vt 0.352207 0.687480
vt 0.306667 0.687480
vt 0.788838 0.215383
vt 0.726666 0.215383
vt 0.291124 0.687480
vt 0.275581 0.687480
vt 0.664495 0.215383
vt 0.633350 0.321861
vt 0.664495 0.300233
vt 0.664495 0.321861
vt 0.283337 0.661031
vt 0.275581 0.666404
vt 0.275581 0.661031
vt 0.298895 0.661031
vt 0.291124 0.666404
vt 0.291124 0.661031
vt 0.695581 0.321861
vt 0.726666 0.300233
vt 0.726666 0.321861
vt 0.757752 0.321861
vt 0.788838 0.300233
vt 0.788838 0.321861
vt 0.314438 0.661031
vt 0.306667 0.666404
vt 0.306667 0.661031
vt 0.359435 0.661031
vt 0.352207 0.666404
vt 0.352207 0.661031
vt 0.937740 0.321861
vt 0.966649 0.300233
vt 0.966649 0.321861
vt 0.879920 0.321861
vt 0.908830 0.300233
vt 0.908830 0.321861
vt 0.344980 0.661031
vt 0.337752 0.666404
vt 0.337752 0.661031
vt 0.329981 0.661031
vt 0.322210 0.666404
vt 0.322210 0.661031
vt 0.819924 0.321861
vt 0.851010 0.300233
vt 0.851010 0.321861
vt 0.937740 0.300233
vt 0.344980 0.666404
vt 0.695581 0.300233
vt 0.283337 0.666404
vt 0.314438 0.666404
vt 0.819924 0.300233
vt 0.298895 0.666404
vt 0.757752 0.300233
vt 0.602323 0.321861
vt 0.633350 0.300233
vt 0.180970 0.666404
vt 0.180970 0.661031
vt 0.366662 0.661031
vt 0.359435 0.666404
vt 1.000000 0.300233
vt 1.000000 0.321861
vt 0.879920 0.300233
vt 0.329981 0.666404
vt 0.625000 0.661031
vt 0.375000 0.666404
vt 0.375000 0.661031
vt 0.366662 0.666404
vt 0.000000 0.321861
vt 0.031336 0.300233
vt 0.031336 0.321861
vt 0.625000 0.078224
vt 0.375000 0.083596
vt 0.375000 0.078224
vt 0.633350 0.423719
vt 0.664495 0.380888
vt 0.664495 0.423719
vt 0.283338 0.635730
vt 0.275581 0.646369
vt 0.275581 0.635730
vt 0.298895 0.635730
vt 0.291124 0.646369
vt 0.291124 0.635730
vt 0.695581 0.423719
vt 0.726666 0.380888
vt 0.726666 0.423719
vt 0.757752 0.423719
vt 0.788838 0.380888
vt 0.788838 0.423719
vt 0.314438 0.635730
vt 0.306667 0.646369
vt 0.306667 0.635730
vt 0.359435 0.635730
vt 0.352207 0.646369
vt 0.352207 0.635730
vt 0.879920 0.423719
vt 0.908830 0.380888
vt 0.908830 0.423719
vt 0.344980 0.635730
vt 0.337752 0.646369
vt 0.337752 0.635730
vt 0.329981 0.635730
vt 0.322210 0.646369
vt 0.322210 0.635730
vt 0.819924 0.423719
vt 0.851010 0.380888
vt 0.851010 0.423719
vt 0.344980 0.646369
vt 0.695581 0.380888
vt 0.283338 0.646369
vt 0.314438 0.646369
vt 0.819924 0.380888
vt 0.298895 0.646369
vt 0.757752 0.380888
vt 0.180970 0.646369
vt 0.180970 0.635730
vt 0.602323 0.423719
vt 0.633350 0.380888
vt 0.966649 0.423719
vt 1.000000 0.380888
vt 1.000000 0.423719
vt 0.366662 0.635730
vt 0.359435 0.646369
vt 0.375000 0.098986
vt 0.625000 0.103631
vt 0.375000 0.103631
vt 0.000000 0.423719
vt 0.031336 0.380887
vt 0.031336 0.423719
vt 0.375000 0.646369
vt 0.366662 0.646369
vt 0.375000 0.635730
vt 0.625000 0.646369
vt 0.329981 0.646369
vt 0.879920 0.380888
vt 0.602323 0.256976
vt 0.625000 0.677148
vt 0.000000 0.256976
vt 0.625000 0.062520
vt 0.625000 0.052189
vt 0.000000 0.215383
vt 0.625000 0.687480
vt 0.602323 0.215383
vt 0.625000 0.072852
vt 0.602323 0.300233
vt 0.625000 0.666404
vt 0.000000 0.300233
vt 0.000000 0.343489
vt 0.602323 0.343489
vt 0.625000 0.083596
vt 0.625000 0.098986
vt 0.937740 0.380888
vt 0.966649 0.380888
vt 0.602323 0.380888
vt 0.000000 0.380887
vt 0.625000 0.651014
vt 0.851010 0.472915
vt 0.879920 0.472915
vt 0.337752 0.623510
vt 0.329981 0.623510
vt 0.625000 0.623510
vt 0.375000 0.623510
vt 0.366662 0.623510
vt 0.000000 0.472915
vt 0.031336 0.472915
vt 0.359435 0.623510
vt 0.966649 0.472915
vt 1.000000 0.472915
vt 0.602323 0.472915
vt 0.633350 0.472915
vt 0.275581 0.623510
vt 0.180970 0.623510
vt 0.726666 0.472915
vt 0.757752 0.472915
vt 0.306667 0.623510
vt 0.298895 0.623510
vt 0.788838 0.472915
vt 0.819924 0.472915
vt 0.322210 0.623510
vt 0.314438 0.623510
vt 0.291124 0.623510
vt 0.283338 0.623510
vt 0.664495 0.472915
vt 0.695581 0.472915
vt 0.352207 0.623510
vt 0.344980 0.623510
vt 0.908830 0.472915
vt 0.937740 0.423719
vt 0.937740 0.472915
vt 0.625000 0.114270
vt 0.375000 0.114270
vt 0.633350 0.516931
vt 0.664495 0.516931
vt 0.283338 0.612576
vt 0.275581 0.612576
vt 0.298895 0.612576
vt 0.291124 0.612576
vt 0.695581 0.516931
vt 0.726666 0.516931
vt 0.757752 0.516931
vt 0.788838 0.516931
vt 0.314438 0.612576
vt 0.306667 0.612576
vt 0.359435 0.612576
vt 0.352207 0.612576
vt 0.879920 0.516931
vt 0.908830 0.516931
vt 0.344980 0.612576
vt 0.337752 0.612576
vt 0.329981 0.612576
vt 0.322210 0.612576
vt 0.819924 0.516931
vt 0.851010 0.516931
vt 0.180970 0.612576
vt 0.602323 0.516931
vt 0.966649 0.516931
vt 1.000000 0.516931
vt 0.366662 0.612576
vt 0.000000 0.516931
vt 0.031336 0.516931
vt 0.375000 0.612577
vt 0.625000 0.612576
vt 0.375000 0.126490
vt 0.851010 0.567625
vt 0.879920 0.567625
vt 0.337752 0.599984
vt 0.329981 0.599984
vt 0.625000 0.599984
vt 0.375000 0.599984
vt 0.366662 0.599984
vt 0.000000 0.567625
vt 0.031336 0.567625
vt 0.359435 0.599984
vt 0.966649 0.567625
vt 1.000000 0.567625
vt 0.602323 0.567625
vt 0.633350 0.567625
vt 0.275581 0.599984
vt 0.180970 0.599984
vt 0.726666 0.567625
vt 0.757752 0.567625
vt 0.306667 0.599984
vt 0.298895 0.599984
vt 0.788838 0.567625
vt 0.819924 0.567625
vt 0.322210 0.599984
vt 0.314438 0.599984
vt 0.291124 0.599984
vt 0.283338 0.599984
vt 0.664495 0.567625
vt 0.695581 0.567625
vt 0.352207 0.599984
vt 0.344980 0.599984
vt 0.908830 0.567625
vt 0.937740 0.516931
vt 0.937740 0.567625
vt 0.625000 0.126490
vt 0.375000 0.137424
vt 0.633350 0.617596
vt 0.664495 0.617596
vt 0.283338 0.587571
vt 0.275581 0.587571
vt 0.298895 0.587571
vt 0.291124 0.587571
vt 0.695581 0.617596
vt 0.726666 0.617596
vt 0.757752 0.617596
vt 0.788838 0.617596
vt 0.314438 0.587571
vt 0.306667 0.587571
vt 0.359435 0.587571
vt 0.352207 0.587571
vt 0.879920 0.617596
vt 0.908830 0.617596
vt 0.344980 0.587571
vt 0.337752 0.587571
vt 0.329981 0.587571
vt 0.322210 0.587571
vt 0.819924 0.617596
vt 0.851010 0.617596
vt 0.180970 0.587571
vt 0.602323 0.617596
vt 0.966649 0.617596
vt 1.000000 0.617596
vt 0.366662 0.587571
vt 0.000000 0.617596
vt 0.031336 0.617596
vt 0.375000 0.587572
vt 0.625000 0.137424
vt 0.375000 0.150016
vt 0.851010 0.667566
vt 0.625000 0.587572
vt 0.000000 0.667566
vt 0.359435 0.575159
vt 0.966649 0.667566
vt 1.000000 0.667566
vt 0.602323 0.667566
vt 0.726666 0.667566
vt 0.788838 0.667566
vt 0.664495 0.667566
vt 0.908830 0.667566
vt 0.937740 0.617596
vt 0.625000 0.162429
vt 0.173188 0.575159
vt 0.132834 0.587571
vt 0.132834 0.575159
vt 0.192751 0.667566
vt 0.223878 0.617596
vt 0.223878 0.667566
vt 0.192751 0.617596
vt 0.223878 0.567625
vt 0.173188 0.587571
vt 0.132834 0.599984
vt 0.173188 0.599984
vt 0.132834 0.612576
vt 0.192751 0.567625
vt 0.223878 0.516931
vt 0.192751 0.516931
vt 0.223878 0.472915
vt 0.173188 0.612576
vt 0.132834 0.623510
vt 0.173188 0.623510
vt 0.132834 0.635730
vt 0.192751 0.472915
vt 0.223878 0.423719
vt 0.192751 0.380888
vt 0.223878 0.362188
vt 0.223878 0.380888
vt 0.173188 0.646369
vt 0.132834 0.651014
vt 0.132834 0.646369
vt 0.173188 0.655659
vt 0.132834 0.661031
vt 0.132834 0.655659
vt 0.192751 0.343489
vt 0.223878 0.321861
vt 0.223878 0.343489
vt 0.192751 0.300233
vt 0.223878 0.278604
vt 0.223878 0.300233
vt 0.173188 0.666404
vt 0.132834 0.671776
vt 0.132834 0.666404
vt 0.173188 0.687480
vt 0.132834 0.692646
vt 0.132834 0.687480
vt 0.192751 0.215383
vt 0.223878 0.194587
vt 0.223878 0.215383
vt 0.192751 0.256976
vt 0.223878 0.236180
vt 0.223878 0.256976
vt 0.173188 0.677148
vt 0.132834 0.682314
vt 0.132834 0.677148
vt 0.192751 0.423719
vt 0.173188 0.635730
vt 0.192751 0.321861
vt 0.173188 0.661031
vt 0.173188 0.682314
vt 0.192751 0.236180
vt 0.173188 0.671776
vt 0.192751 0.278604
vt 0.192751 0.194587
vt 0.223878 0.173791
vt 0.173188 0.692646
vt 0.132834 0.697811
vt 0.173188 0.697811
vt 0.132834 0.740981
vt 0.173188 0.740981
vt 0.132834 0.750000
vt 0.625000 0.257834
vt 0.375000 0.298188
vt 0.375000 0.257834
vt 0.173188 0.651014
vt 0.173188 0.562743
vt 0.132834 0.562743
vt 0.173188 0.509044
vt 0.132834 0.509044
vt 0.192751 0.933731
vt 0.223878 0.717551
vt 0.223878 0.933731
vt 0.192751 0.717551
vt 0.192751 0.362188
vt 0.192751 0.173791
vt 0.223878 0.000000
vt 0.625000 0.944031
vt 0.375000 0.951812
vt 0.375000 0.944031
vt 0.173188 0.500000
vt 0.132834 0.500000
vt 0.633350 0.970141
vt 0.664495 0.970141
vt 0.283338 0.500000
vt 0.275581 0.500000
vt 0.298895 0.500000
vt 0.291124 0.500000
vt 0.695581 0.970141
vt 0.726666 0.970141
vt 0.757752 0.970141
vt 0.788838 0.970141
vt 0.314438 0.500000
vt 0.306667 0.500000
vt 0.359435 0.500000
vt 0.352207 0.500000
vt 0.937740 0.970141
vt 0.966649 0.970141
vt 0.879920 0.970141
vt 0.908830 0.970141
vt 0.344980 0.500000
vt 0.337752 0.500000
vt 0.329981 0.500000
vt 0.322210 0.500000
vt 0.819924 0.970141
vt 0.851010 0.970141
vt 0.180970 0.500000
vt 0.602323 0.970141
vt 1.000000 0.970141
vt 0.366662 0.500000
vt 0.625000 0.500000
vt 0.125000 0.509044
vt 0.125000 0.500000
vt 0.125000 0.562743
vt 0.125000 0.575159
vt 0.125000 0.655659
vt 0.125000 0.651014
vt 0.625000 0.250000
vt 0.125000 0.750000
vt 0.125000 0.740981
vt 0.125000 0.697811
vt 0.125000 0.692646
vt 0.125000 0.677148
vt 0.125000 0.671776
vt 0.125000 0.687480
vt 0.125000 0.682314
vt 0.125000 0.666404
vt 0.125000 0.661031
vt 0.125000 0.646369
vt 0.125000 0.635730
vt 0.125000 0.623510
vt 0.125000 0.612576
vt 0.125000 0.599984
vt 0.125000 0.587571
vt 0.192751 0.000000
vt 0.625000 0.951812
vt 0.223878 0.970141
vt 0.625000 0.849419
vt 0.602323 0.000000
vt 0.173188 0.750000
vt 0.625000 0.298188
vt 0.625000 1.000000
vt -0.000000 0.000000
vt 0.625000 0.088969
vt 0.625000 0.509044
vt 0.000000 0.999051
vt 0.966649 0.000000
vt 0.625000 0.635730
vt 0.625000 0.150016
s 1
usemtl piso
f 672/1/1 3/2/1 674/3/1
f 37/4/2 7/5/2 40/6/2
f 12/7/3 5/8/3 11/9/3
f 705/10/4 1/11/4 726/12/4
f 11/9/5 38/13/5 42/14/5
f 184/15/6 727/16/6 731/17/6
f 185/18/5 42/14/5 187/19/5
f 181/20/3 11/9/3 185/18/3
f 2/21/1 9/22/1 1/23/1
f 182/24/5 117/25/5 199/26/5
f 183/27/6 129/28/6 201/29/6
f 18/30/5 110/31/5 117/25/5
f 122/32/4 15/33/4 128/34/4
f 109/35/2 13/36/2 115/37/2
f 453/38/6 130/39/6 469/40/6
f 452/41/5 118/42/5 467/43/5
f 479/44/3 22/45/3 20/46/3
f 479/44/5 44/47/5 454/48/5
f 478/49/6 728/50/6 740/51/6
f 422/52/1 19/53/1 21/54/1
f 31/55/6 729/56/6 730/57/6
f 32/58/5 45/59/5 48/60/5
f 32/58/3 28/61/3 26/62/3
f 35/63/5 119/64/5 120/65/5
f 36/66/6 131/67/6 132/68/6
f 602/69/1 25/70/1 27/71/1
f 677/72/6 132/68/6 693/73/6
f 676/74/5 120/65/5 691/75/5
f 673/76/3 34/77/3 32/58/3
f 673/76/5 48/60/5 678/78/5
f 672/79/6 730/57/6 747/80/6
f 27/71/1 31/81/1 33/82/1
f 678/83/5 143/84/5 695/85/5
f 679/86/6 34/87/6 675/88/6
f 48/89/5 142/90/5 143/84/5
f 454/48/5 141/91/5 471/92/5
f 455/93/6 22/94/6 451/95/6
f 6/96/4 38/97/4 5/8/4
f 186/98/6 12/99/6 181/100/6
f 187/19/5 140/101/5 203/102/5
f 42/14/5 134/103/5 140/101/5
f 133/104/2 40/6/2 138/105/2
f 680/106/6 179/107/6 701/108/6
f 681/109/5 774/110/5 791/111/5
f 59/112/5 773/113/5 774/110/5
f 60/114/6 178/115/6 179/107/6
f 456/116/6 177/117/6 477/118/6
f 457/119/5 772/120/5 784/121/5
f 748/122/2 49/123/2 769/124/2
f 51/125/5 749/126/5 771/127/5
f 188/128/5 771/127/5 775/129/5
f 189/130/6 176/131/6 209/132/6
f 169/133/4 53/134/4 175/135/4
f 145/136/4 62/137/4 151/138/4
f 190/139/6 152/140/6 205/141/6
f 458/142/6 153/143/6 473/144/6
f 66/145/6 154/146/6 155/147/6
f 682/148/6 155/147/6 697/149/6
f 683/150/5 167/151/5 699/152/5
f 72/153/5 166/154/5 167/151/5
f 459/155/5 165/156/5 475/157/5
f 156/158/2 67/159/2 162/160/2
f 69/161/5 157/162/5 164/163/5
f 191/164/5 164/163/5 207/165/5
f 684/166/6 114/167/6 690/168/6
f 78/169/6 113/170/6 114/167/6
f 460/171/6 112/172/6 466/173/6
f 192/174/6 111/175/6 198/176/6
f 116/177/4 74/178/4 110/179/4
f 685/180/5 149/181/5 696/182/5
f 84/183/5 148/184/5 149/181/5
f 461/185/5 147/186/5 472/187/5
f 150/188/2 79/189/2 144/190/2
f 81/191/5 151/192/5 146/193/5
f 193/194/5 146/193/5 204/195/5
f 194/196/5 170/197/5 208/198/5
f 87/199/5 175/200/5 170/197/5
f 174/201/2 85/202/2 168/203/2
f 462/204/5 171/205/5 476/206/5
f 90/207/5 172/208/5 173/209/5
f 686/210/5 173/209/5 700/211/5
f 163/212/4 92/213/4 157/214/4
f 195/215/6 158/216/6 206/217/6
f 463/218/6 159/219/6 474/220/6
f 96/221/6 160/222/6 161/223/6
f 687/224/6 161/223/6 698/225/6
f 127/226/2 97/227/2 121/228/2
f 99/229/5 128/230/5 123/231/5
f 196/232/5 123/231/5 200/233/5
f 464/234/5 124/235/5 468/236/5
f 102/237/5 125/238/5 126/239/5
f 688/240/5 126/239/5 692/241/5
f 689/242/6 137/243/6 694/244/6
f 108/245/6 136/246/6 137/243/6
f 465/247/6 135/248/6 470/249/6
f 139/250/4 104/251/4 134/252/4
f 16/253/4 110/179/4 15/33/4
f 198/176/6 17/254/6 183/27/6
f 466/173/6 24/255/6 453/38/6
f 690/168/6 36/66/6 677/72/6
f 691/75/5 84/183/5 685/180/5
f 120/65/5 83/256/5 84/183/5
f 467/43/5 82/257/5 461/185/5
f 73/258/2 115/37/2 79/189/2
f 117/25/5 74/259/5 81/191/5
f 199/26/5 81/191/5 193/194/5
f 692/241/5 35/63/5 676/74/5
f 126/239/5 29/260/5 35/63/5
f 468/236/5 23/261/5 452/41/5
f 200/233/5 18/30/5 182/24/5
f 123/231/5 15/262/5 18/30/5
f 14/263/2 121/228/2 13/36/2
f 693/73/6 108/245/6 689/242/6
f 469/40/6 106/264/6 465/247/6
f 98/265/4 128/34/4 104/251/4
f 201/29/6 105/266/6 197/267/6
f 41/268/4 134/252/4 38/97/4
f 470/249/6 43/269/6 455/93/6
f 694/244/6 47/270/6 679/86/6
f 103/271/2 138/105/2 97/227/2
f 140/101/5 104/272/5 99/229/5
f 203/102/5 99/229/5 196/232/5
f 471/92/5 100/273/5 464/234/5
f 143/274/5 101/275/5 102/237/5
f 695/276/5 102/237/5 688/240/5
f 204/195/5 69/161/5 191/164/5
f 146/193/5 62/277/5 69/161/5
f 61/278/2 144/190/2 67/159/2
f 472/187/5 70/279/5 459/155/5
f 149/181/5 71/280/5 72/153/5
f 696/182/5 72/153/5 683/150/5
f 697/149/6 78/169/6 684/166/6
f 473/144/6 76/281/6 460/171/6
f 205/141/6 75/282/6 192/174/6
f 80/283/4 151/138/4 74/178/4
f 698/225/6 66/145/6 682/148/6
f 474/220/6 64/284/6 458/142/6
f 206/217/6 63/285/6 190/139/6
f 68/286/4 157/214/4 62/137/4
f 207/165/5 87/199/5 194/196/5
f 164/163/5 92/287/5 87/199/5
f 91/288/2 162/160/2 85/202/2
f 475/157/5 88/289/5 462/204/5
f 167/151/5 89/290/5 90/207/5
f 699/152/5 90/207/5 686/210/5
f 700/211/5 59/112/5 681/109/5
f 173/209/5 58/291/5 59/112/5
f 476/206/5 55/292/5 457/119/5
f 52/293/2 168/203/2 49/123/2
f 170/197/5 53/294/5 51/125/5
f 208/198/5 51/125/5 188/128/5
f 86/295/4 175/135/4 92/213/4
f 209/132/6 93/296/6 195/215/6
f 477/118/6 94/297/6 463/218/6
f 701/108/6 96/221/6 687/224/6
f 387/298/6 195/215/6 373/299/6
f 386/300/5 188/128/5 366/301/5
f 385/302/5 194/196/5 372/303/5
f 384/304/6 190/139/6 368/305/6
f 383/306/6 192/174/6 370/307/6
f 382/308/5 191/164/5 369/309/5
f 381/310/5 196/232/5 374/311/5
f 380/312/6 186/98/6 364/313/6
f 379/314/6 197/267/6 375/315/6
f 378/316/5 182/24/5 362/317/5
f 377/318/5 193/194/5 371/319/5
f 376/320/6 183/27/6 363/321/6
f 375/315/6 202/322/6 380/312/6
f 374/311/5 200/233/5 378/316/5
f 373/299/6 206/217/6 384/304/6
f 372/303/5 208/198/5 386/300/5
f 371/319/5 204/195/5 382/308/5
f 370/307/6 198/176/6 376/320/6
f 369/309/5 207/165/5 385/302/5
f 368/305/6 205/141/6 383/306/6
f 367/323/6 209/132/6 387/298/6
f 366/301/5 775/129/5 781/324/5
f 365/325/5 203/102/5 381/310/5
f 364/313/6 181/100/6 361/326/6
f 10/327/1 180/328/1 9/22/1
f 363/321/6 201/29/6 379/314/6
f 362/317/5 199/26/5 377/318/5
f 361/329/3 185/18/3 389/330/3
f 389/330/5 187/19/5 365/325/5
f 388/331/6 731/17/6 737/332/6
f 418/333/6 732/334/6 738/335/6
f 419/336/5 217/337/5 395/338/5
f 391/339/3 211/340/3 419/336/3
f 392/341/5 229/342/5 407/343/5
f 393/344/6 231/345/6 409/346/6
f 394/347/6 213/348/6 391/349/6
f 395/338/5 233/350/5 411/351/5
f 396/352/5 776/353/5 782/354/5
f 397/355/6 239/356/6 417/357/6
f 398/358/6 235/359/6 413/360/6
f 399/361/5 237/362/5 415/363/5
f 400/364/6 228/365/6 406/366/6
f 401/367/5 234/368/5 412/369/5
f 402/370/5 238/371/5 416/372/5
f 403/373/6 236/374/6 414/375/6
f 404/376/5 230/377/5 408/378/5
f 405/379/6 232/380/6 410/381/6
f 406/366/6 215/382/6 393/344/6
f 407/343/5 223/383/5 401/367/5
f 408/378/5 214/384/5 392/341/5
f 409/346/6 227/385/6 405/379/6
f 410/381/6 216/386/6 394/347/6
f 411/351/5 226/387/5 404/376/5
f 412/369/5 221/388/5 399/361/5
f 413/360/6 222/389/6 400/364/6
f 414/375/6 220/390/6 398/358/6
f 415/363/5 224/391/5 402/370/5
f 416/372/5 218/392/5 396/352/5
f 417/357/6 225/393/6 403/373/6
f 330/394/1 212/395/1 332/396/1
f 388/397/1 240/398/1 360/399/1
f 330/400/6 733/401/6 736/402/6
f 331/403/5 245/404/5 337/405/5
f 333/406/3 269/407/3 331/403/3
f 334/408/5 257/409/5 349/410/5
f 335/411/6 259/412/6 351/413/6
f 336/414/6 241/415/6 333/416/6
f 337/405/5 261/417/5 353/418/5
f 338/419/5 777/420/5 780/421/5
f 339/422/6 267/423/6 359/424/6
f 340/425/6 263/426/6 355/427/6
f 341/428/5 265/429/5 357/430/5
f 342/431/6 256/432/6 348/433/6
f 343/434/5 262/435/5 354/436/5
f 344/437/5 266/438/5 358/439/5
f 345/440/6 264/441/6 356/442/6
f 346/443/5 258/444/5 350/445/5
f 347/446/6 260/447/6 352/448/6
f 348/433/6 243/449/6 335/411/6
f 349/410/5 251/450/5 343/434/5
f 350/445/5 242/451/5 334/408/5
f 351/413/6 255/452/6 347/446/6
f 352/448/6 244/453/6 336/414/6
f 353/418/5 254/454/5 346/443/5
f 354/436/5 249/455/5 341/428/5
f 355/427/6 250/456/6 342/431/6
f 356/442/6 248/457/6 340/425/6
f 357/430/5 252/458/5 344/437/5
f 358/439/5 246/459/5 338/419/5
f 359/424/6 253/460/6 345/440/6
f 449/461/6 285/462/6 435/463/6
f 448/464/5 278/465/5 428/466/5
f 447/467/5 284/468/5 434/469/5
f 446/470/6 280/471/6 430/472/6
f 445/473/6 282/474/6 432/475/6
f 444/476/5 281/477/5 431/478/5
f 443/479/5 286/480/5 436/481/5
f 442/482/6 276/483/6 426/484/6
f 441/485/6 287/486/6 437/487/6
f 440/488/5 274/489/5 424/490/5
f 439/491/5 283/492/5 433/493/5
f 438/494/6 275/495/6 425/496/6
f 437/487/6 292/497/6 442/482/6
f 436/481/5 290/498/5 440/488/5
f 435/463/6 296/499/6 446/470/6
f 434/469/5 298/500/5 448/464/5
f 433/493/5 294/501/5 444/476/5
f 432/475/6 288/502/6 438/494/6
f 431/478/5 297/503/5 447/467/5
f 430/472/6 295/504/6 445/473/6
f 429/505/6 299/506/6 449/461/6
f 428/466/5 778/507/5 783/508/5
f 427/509/5 293/510/5 443/479/5
f 426/484/6 273/511/6 423/512/6
f 425/496/6 291/513/6 441/485/6
f 424/490/5 289/514/5 439/491/5
f 423/515/3 271/516/3 421/517/3
f 421/517/5 277/518/5 427/509/5
f 420/519/6 734/520/6 739/521/6
f 418/522/1 272/523/1 390/524/1
f 509/525/6 315/526/6 495/527/6
f 508/528/5 309/529/5 489/530/5
f 507/531/5 314/532/5 494/533/5
f 506/534/6 310/535/6 490/536/6
f 505/537/6 312/538/6 492/539/6
f 504/540/5 311/541/5 491/542/5
f 503/543/5 316/544/5 496/545/5
f 501/546/6 317/547/6 497/548/6
f 500/549/5 302/550/5 484/551/5
f 499/552/5 313/553/5 493/554/5
f 498/555/6 303/556/6 485/557/6
f 496/545/5 320/558/5 500/549/5
f 495/527/6 326/559/6 506/534/6
f 494/533/5 328/560/5 508/528/5
f 493/554/5 324/561/5 504/540/5
f 492/539/6 318/562/6 498/555/6
f 491/542/5 327/563/5 507/531/5
f 490/536/6 325/564/6 505/537/6
f 489/530/5 779/565/5 785/566/5
f 488/567/6 329/568/6 509/525/6
f 487/569/6 301/570/6 483/571/6
f 486/572/5 323/573/5 503/543/5
f 450/574/1 304/575/1 300/576/1
f 480/577/6 735/578/6 741/579/6
f 486/572/5 305/580/5 306/581/5
f 481/582/3 301/583/3 305/580/3
f 484/551/5 319/584/5 499/552/5
f 485/557/6 321/585/6 501/546/6
f 239/356/6 345/440/6 225/393/6
f 238/371/5 338/419/5 218/392/5
f 237/362/5 344/437/5 224/391/5
f 236/374/6 340/425/6 220/390/6
f 235/359/6 342/431/6 222/389/6
f 234/368/5 341/428/5 221/388/5
f 233/350/5 346/443/5 226/387/5
f 231/345/6 347/446/6 227/385/6
f 230/377/5 334/408/5 214/384/5
f 229/342/5 343/434/5 223/383/5
f 228/365/6 335/411/6 215/382/6
f 226/387/5 350/445/5 230/377/5
f 225/393/6 356/442/6 236/374/6
f 224/391/5 358/439/5 238/371/5
f 223/383/5 354/436/5 234/368/5
f 222/389/6 348/433/6 228/365/6
f 221/388/5 357/430/5 237/362/5
f 220/390/6 355/427/6 235/359/6
f 219/586/6 359/424/6 239/356/6
f 218/392/5 780/421/5 776/353/5
f 217/337/5 353/418/5 233/350/5
f 216/386/6 333/416/6 213/348/6
f 215/382/6 351/413/6 231/345/6
f 214/384/5 349/410/5 229/342/5
f 213/587/3 331/403/3 211/340/3
f 211/340/5 337/405/5 217/337/5
f 210/588/6 736/402/6 732/334/6
f 268/589/1 332/396/1 240/398/1
f 184/590/1 360/399/1 180/328/1
f 268/591/6 737/332/6 733/401/6
f 269/407/5 365/325/5 245/404/5
f 241/592/3 389/330/3 269/407/3
f 242/451/5 377/318/5 257/409/5
f 243/449/6 379/314/6 259/412/6
f 244/453/6 361/326/6 241/415/6
f 245/404/5 381/310/5 261/417/5
f 246/459/5 781/324/5 777/420/5
f 247/593/6 387/298/6 267/423/6
f 248/457/6 383/306/6 263/426/6
f 249/455/5 385/302/5 265/429/5
f 250/456/6 376/320/6 256/432/6
f 251/450/5 382/308/5 262/435/5
f 252/458/5 386/300/5 266/438/5
f 253/460/6 384/304/6 264/441/6
f 254/454/5 378/316/5 258/444/5
f 256/432/6 363/321/6 243/449/6
f 257/409/5 371/319/5 251/450/5
f 258/444/5 362/317/5 242/451/5
f 259/412/6 375/315/6 255/452/6
f 261/417/5 374/311/5 254/454/5
f 262/435/5 369/309/5 249/455/5
f 263/426/6 370/307/6 250/456/6
f 264/441/6 368/305/6 248/457/6
f 265/429/5 372/303/5 252/458/5
f 266/438/5 366/301/5 246/459/5
f 267/423/6 373/299/6 253/460/6
f 210/594/1 390/524/1 212/395/1
f 299/506/6 403/373/6 285/462/6
f 298/500/5 396/352/5 278/465/5
f 297/503/5 402/370/5 284/468/5
f 296/499/6 398/358/6 280/471/6
f 295/504/6 400/364/6 282/474/6
f 294/501/5 399/361/5 281/477/5
f 293/510/5 404/376/5 286/480/5
f 291/513/6 405/379/6 287/486/6
f 290/498/5 392/341/5 274/489/5
f 289/514/5 401/367/5 283/492/5
f 288/502/6 393/344/6 275/495/6
f 286/480/5 408/378/5 290/498/5
f 285/462/6 414/375/6 296/499/6
f 284/468/5 416/372/5 298/500/5
f 283/492/5 412/369/5 294/501/5
f 282/474/6 406/366/6 288/502/6
f 281/477/5 415/363/5 297/503/5
f 280/471/6 413/360/6 295/504/6
f 279/595/6 417/357/6 299/506/6
f 278/465/5 782/354/5 778/507/5
f 277/518/5 411/351/5 293/510/5
f 276/483/6 391/349/6 273/511/6
f 275/495/6 409/346/6 291/513/6
f 274/489/5 407/343/5 289/514/5
f 273/596/3 419/336/3 271/516/3
f 271/516/5 395/338/5 277/518/5
f 270/597/6 738/335/6 734/520/6
f 19/598/6 739/521/6 728/50/6
f 20/46/5 427/509/5 44/47/5
f 20/46/3 423/515/3 421/517/3
f 23/261/5 439/491/5 118/42/5
f 24/255/6 441/485/6 130/39/6
f 43/269/6 423/512/6 22/94/6
f 44/47/5 443/479/5 141/91/5
f 55/292/5 783/508/5 772/120/5
f 56/599/6 449/461/6 177/117/6
f 64/284/6 445/473/6 153/143/6
f 70/279/5 447/467/5 165/156/5
f 76/281/6 438/494/6 112/172/6
f 82/257/5 444/476/5 147/186/5
f 88/289/5 448/464/5 171/205/5
f 94/297/6 446/470/6 159/219/6
f 100/273/5 440/488/5 124/235/5
f 112/172/6 425/496/6 24/255/6
f 118/42/5 433/493/5 82/257/5
f 124/235/5 424/490/5 23/261/5
f 130/39/6 437/487/6 106/264/6
f 141/91/5 436/481/5 100/273/5
f 147/186/5 431/478/5 70/279/5
f 153/143/6 432/475/6 76/281/6
f 159/219/6 430/472/6 64/284/6
f 165/156/5 434/469/5 88/289/5
f 171/205/5 428/466/5 55/292/5
f 177/117/6 435/463/6 94/297/6
f 270/600/1 422/52/1 272/523/1
f 21/54/1 478/601/1 450/574/1
f 329/568/6 463/218/6 315/526/6
f 328/560/5 457/119/5 309/529/5
f 327/563/5 462/204/5 314/532/5
f 326/559/6 458/142/6 310/535/6
f 325/564/6 460/171/6 312/538/6
f 324/561/5 459/155/5 311/541/5
f 323/573/5 464/234/5 316/544/5
f 322/602/6 455/93/6 307/603/6
f 321/585/6 465/247/6 317/547/6
f 320/558/5 452/41/5 302/550/5
f 319/584/5 461/185/5 313/553/5
f 318/562/6 453/38/6 303/556/6
f 317/547/6 470/249/6 322/602/6
f 316/544/5 468/236/5 320/558/5
f 315/526/6 474/220/6 326/559/6
f 314/532/5 476/206/5 328/560/5
f 313/553/5 472/187/5 324/561/5
f 312/538/6 466/173/6 318/562/6
f 311/541/5 475/157/5 327/563/5
f 310/535/6 473/144/6 325/564/6
f 309/529/5 784/121/5 779/565/5
f 308/604/6 477/118/6 329/568/6
f 307/603/6 451/95/6 301/570/6
f 306/581/5 471/92/5 323/573/5
f 304/605/6 740/51/6 735/578/6
f 305/580/5 454/48/5 306/581/5
f 305/580/3 451/606/3 479/44/3
f 302/550/5 467/43/5 319/584/5
f 303/556/6 469/40/6 321/585/6
f 515/607/6 501/546/6 531/608/6
f 514/609/5 499/552/5 529/610/5
f 513/611/3 481/582/3 511/612/3
f 516/613/5 481/582/5 486/572/5
f 510/614/6 741/579/6 742/615/6
f 516/613/5 503/543/5 533/616/5
f 517/617/6 483/571/6 513/618/6
f 518/619/6 509/525/6 539/620/6
f 519/621/5 785/566/5 786/622/5
f 520/623/6 505/537/6 535/624/6
f 521/625/5 507/531/5 537/626/5
f 522/627/6 498/555/6 528/628/6
f 523/629/5 504/540/5 534/630/5
f 524/631/5 508/528/5 538/632/5
f 525/633/6 506/534/6 536/634/6
f 526/635/5 500/549/5 530/636/5
f 527/637/6 502/638/6 532/639/6
f 528/628/6 485/557/6 515/607/6
f 529/610/5 493/554/5 523/629/5
f 530/636/5 484/551/5 514/609/5
f 531/608/6 497/548/6 527/637/6
f 532/639/6 487/569/6 517/617/6
f 533/616/5 496/545/5 526/635/5
f 534/630/5 491/542/5 521/625/5
f 535/624/6 492/539/6 522/627/6
f 536/634/6 490/536/6 520/623/6
f 537/626/5 494/533/5 524/631/5
f 538/632/5 489/530/5 519/621/5
f 539/620/6 495/527/6 525/633/6
f 300/576/1 480/640/1 482/641/1
f 569/642/6 525/633/6 555/643/6
f 568/644/5 519/621/5 549/645/5
f 567/646/5 524/631/5 554/647/5
f 566/648/6 520/623/6 550/649/6
f 565/650/6 522/627/6 552/651/6
f 564/652/5 521/625/5 551/653/5
f 563/654/5 526/635/5 556/655/5
f 561/656/6 527/637/6 557/657/6
f 560/658/5 514/609/5 544/659/5
f 559/660/5 523/629/5 553/661/5
f 558/662/6 515/607/6 545/663/6
f 556/655/5 530/636/5 560/658/5
f 555/643/6 536/634/6 566/648/6
f 554/647/5 538/632/5 568/644/5
f 553/661/5 534/630/5 564/652/5
f 552/651/6 528/628/6 558/662/6
f 551/653/5 537/626/5 567/646/5
f 550/649/6 535/624/6 565/650/6
f 549/645/5 786/622/5 787/664/5
f 548/665/6 539/620/6 569/642/6
f 547/666/6 513/618/6 543/667/6
f 546/668/5 533/616/5 563/654/5
f 540/669/6 742/615/6 743/670/6
f 541/671/5 516/613/5 546/668/5
f 543/672/3 511/612/3 541/671/3
f 544/659/5 529/610/5 559/660/5
f 545/663/6 531/608/6 561/656/6
f 480/640/1 512/673/1 482/641/1
f 575/674/6 561/656/6 591/675/6
f 574/676/5 559/660/5 589/677/5
f 573/678/3 541/671/3 571/679/3
f 571/679/5 546/668/5 576/680/5
f 570/681/6 743/670/6 744/682/6
f 576/680/5 563/654/5 593/683/5
f 577/684/6 543/667/6 573/685/6
f 578/686/6 569/642/6 599/687/6
f 579/688/5 787/664/5 788/689/5
f 580/690/6 565/650/6 595/691/6
f 581/692/5 567/646/5 597/693/5
f 582/694/6 558/662/6 588/695/6
f 583/696/5 564/652/5 594/697/5
f 584/698/5 568/644/5 598/699/5
f 585/700/6 566/648/6 596/701/6
f 586/702/5 560/658/5 590/703/5
f 587/704/6 562/705/6 592/706/6
f 588/695/6 545/663/6 575/674/6
f 589/677/5 553/661/5 583/696/5
f 590/703/5 544/659/5 574/676/5
f 591/675/6 557/657/6 587/704/6
f 592/706/6 547/666/6 577/684/6
f 593/683/5 556/655/5 586/702/5
f 594/697/5 551/653/5 581/692/5
f 595/691/6 552/651/6 582/694/6
f 596/701/6 550/649/6 580/690/6
f 597/693/5 554/647/5 584/698/5
f 598/699/5 549/645/5 579/688/5
f 599/687/6 555/643/6 585/700/6
f 510/707/1 542/708/1 512/673/1
f 629/709/6 585/700/6 615/710/6
f 628/711/5 579/688/5 609/712/5
f 627/713/5 584/698/5 614/714/5
f 626/715/6 580/690/6 610/716/6
f 625/717/6 582/694/6 612/718/6
f 624/719/5 581/692/5 611/720/5
f 623/721/5 586/702/5 616/722/5
f 621/723/6 587/704/6 617/724/6
f 620/725/5 574/676/5 604/726/5
f 619/727/5 583/696/5 613/728/5
f 618/729/6 575/674/6 605/730/6
f 616/722/5 590/703/5 620/725/5
f 615/710/6 596/701/6 626/715/6
f 614/714/5 598/699/5 628/711/5
f 613/728/5 594/697/5 624/719/5
f 612/718/6 588/695/6 618/729/6
f 611/720/5 597/693/5 627/713/5
f 610/716/6 595/691/6 625/717/6
f 609/712/5 788/689/5 789/731/5
f 608/732/6 599/687/6 629/709/6
f 607/733/6 573/685/6 603/734/6
f 606/735/5 593/683/5 623/721/5
f 600/736/6 744/682/6 745/737/6
f 601/738/5 576/680/5 606/735/5
f 601/738/3 573/678/3 571/679/3
f 604/726/5 589/677/5 619/727/5
f 605/730/6 591/675/6 621/723/6
f 540/739/1 572/740/1 542/708/1
f 30/741/6 621/723/6 131/67/6
f 29/260/5 619/727/5 119/64/5
f 26/62/3 603/742/3 601/738/3
f 26/62/5 606/735/5 45/59/5
f 25/743/6 745/737/6 729/56/6
f 45/59/5 623/721/5 142/744/5
f 46/745/6 603/734/6 28/746/6
f 57/747/6 629/709/6 178/115/6
f 58/291/5 789/731/5 773/113/5
f 65/748/6 625/717/6 154/146/6
f 71/280/5 627/713/5 166/154/5
f 77/749/6 618/729/6 113/170/6
f 83/256/5 624/719/5 148/184/5
f 89/290/5 628/711/5 172/208/5
f 95/750/6 626/715/6 160/222/6
f 101/275/5 620/725/5 125/238/5
f 107/751/6 622/752/6 136/246/6
f 113/170/6 605/730/6 30/741/6
f 119/64/5 613/728/5 83/256/5
f 125/238/5 604/726/5 29/260/5
f 131/67/6 617/724/6 107/751/6
f 136/246/6 607/733/6 46/745/6
f 142/744/5 616/722/5 101/275/5
f 148/184/5 611/720/5 71/280/5
f 154/146/6 612/718/6 77/749/6
f 160/222/6 610/716/6 65/748/6
f 166/154/5 614/714/5 89/290/5
f 172/208/5 609/712/5 58/291/5
f 178/115/6 615/710/6 95/750/6
f 572/740/1 600/753/1 602/69/1
f 634/754/5 724/755/5 708/756/5
f 640/757/6 768/758/6 752/759/6
f 670/760/6 767/761/6 768/758/6
f 671/762/5 723/763/5 724/755/5
f 668/764/5 722/765/5 723/763/5
f 669/766/6 766/767/6 767/761/6
f 666/768/6 765/769/6 766/767/6
f 667/770/5 721/771/5 722/765/5
f 664/772/5 720/773/5 721/771/5
f 665/774/6 764/775/6 765/769/6
f 651/776/6 763/777/6 758/778/6
f 650/779/5 719/780/5 714/781/5
f 633/782/5 718/783/5 707/784/5
f 639/785/6 762/786/6 751/787/6
f 649/788/6 761/789/6 757/790/6
f 648/791/5 717/792/5 713/793/5
f 647/794/5 716/795/5 712/796/5
f 646/797/6 760/798/6 756/799/6
f 644/800/6 759/801/6 755/802/6
f 645/803/5 715/804/5 711/805/5
f 662/806/6 758/778/6 764/775/6
f 663/807/5 714/781/5 720/773/5
f 658/808/6 757/790/6 762/786/6
f 659/809/5 713/793/5 718/783/5
f 652/810/5 712/796/5 715/804/5
f 653/811/6 756/799/6 759/801/6
f 656/812/5 711/805/5 717/792/5
f 657/813/6 755/802/6 761/789/6
f 654/814/6 754/815/6 760/798/6
f 655/816/5 710/817/5 716/795/5
f 642/818/5 706/819/5 710/817/5
f 632/820/5 726/821/5 706/819/5
f 725/822/2 630/823/2 704/824/2
f 660/825/5 707/784/5 719/780/5
f 635/826/5 708/756/5 709/827/5
f 702/828/5 709/827/5 746/829/5
f 703/830/6 753/831/6 790/832/6
f 641/833/6 752/759/6 753/831/6
f 661/834/6 751/787/6 763/777/6
f 643/835/6 750/836/6 754/815/6
f 770/837/4 637/838/4 749/839/4
f 630/840/5 746/829/5 704/841/5
f 174/842/6 687/224/6 91/843/6
f 168/844/5 681/109/5 49/845/5
f 162/846/5 686/210/5 85/847/5
f 156/848/6 682/148/6 61/849/6
f 150/850/6 684/166/6 73/851/6
f 144/852/5 683/150/5 67/853/5
f 138/854/5 688/240/5 97/855/5
f 133/856/6 679/86/6 37/857/6
f 127/858/6 689/242/6 103/859/6
f 121/860/5 676/74/5 13/861/5
f 115/862/5 685/180/5 79/863/5
f 109/864/6 677/72/6 14/865/6
f 103/859/6 694/244/6 133/856/6
f 97/855/5 692/241/5 121/860/5
f 91/843/6 698/225/6 156/848/6
f 85/847/5 700/211/5 168/844/5
f 79/863/5 696/182/5 144/852/5
f 73/851/6 690/168/6 109/864/6
f 67/853/5 699/152/5 162/846/5
f 61/849/6 697/149/6 150/850/6
f 49/845/5 791/111/5 769/866/5
f 52/867/6 701/108/6 174/842/6
f 37/857/6 675/88/6 8/868/6
f 40/869/5 695/276/5 138/854/5
f 7/5/5 678/78/5 40/869/5
f 8/870/3 673/76/3 7/5/3
f 13/861/5 691/75/5 115/862/5
f 14/865/6 693/73/6 127/858/6
f 31/81/1 674/3/1 33/82/1
f 704/841/5 674/871/5 3/872/5
f 746/829/5 33/873/5 674/871/5
f 709/827/5 27/874/5 33/873/5
f 719/780/5 21/875/5 450/876/5
f 4/877/2 704/824/2 3/2/2
f 706/819/5 1/878/5 9/879/5
f 710/817/5 9/879/5 180/880/5
f 716/795/5 180/880/5 360/881/5
f 717/792/5 212/882/5 390/883/5
f 715/804/5 240/884/5 332/885/5
f 718/783/5 272/886/5 422/887/5
f 720/773/5 300/888/5 482/889/5
f 711/805/5 332/885/5 212/882/5
f 712/796/5 360/881/5 240/884/5
f 713/793/5 390/883/5 272/886/5
f 707/784/5 422/887/5 21/875/5
f 714/781/5 450/876/5 300/888/5
f 721/771/5 482/889/5 512/890/5
f 722/765/5 512/890/5 542/891/5
f 723/763/5 542/891/5 572/892/5
f 724/755/5 572/892/5 602/893/5
f 708/756/5 602/893/5 27/874/5
f 729/56/6 670/760/6 640/757/6
f 745/737/6 669/766/6 670/760/6
f 744/682/6 666/768/6 669/766/6
f 743/670/6 665/774/6 666/768/6
f 742/615/6 662/806/6 665/774/6
f 735/578/6 661/834/6 651/776/6
f 728/50/6 658/808/6 639/785/6
f 734/520/6 657/813/6 649/788/6
f 733/401/6 654/814/6 646/797/6
f 732/334/6 653/811/6 644/800/6
f 741/579/6 651/776/6 662/806/6
f 739/521/6 649/788/6 658/808/6
f 736/402/6 646/797/6 653/811/6
f 738/335/6 644/800/6 657/813/6
f 737/332/6 643/835/6 654/814/6
f 747/80/6 641/833/6 703/830/6
f 730/57/6 640/757/6 641/833/6
f 740/51/6 639/785/6 661/834/6
f 731/17/6 638/894/6 643/835/6
f 631/895/4 726/12/4 637/838/4
f 769/866/5 702/828/5 630/840/5
f 748/896/6 680/106/6 52/867/6
f 50/897/4 749/839/4 53/134/4
f 754/815/6 54/898/6 189/130/6
f 763/777/6 56/599/6 456/116/6
f 753/831/6 57/747/6 60/114/6
f 790/832/6 60/114/6 680/106/6
f 760/798/6 189/130/6 367/323/6
f 761/789/6 219/586/6 397/355/6
f 759/801/6 247/593/6 339/422/6
f 762/786/6 279/595/6 429/505/6
f 764/775/6 308/604/6 488/567/6
f 755/802/6 339/422/6 219/586/6
f 756/799/6 367/323/6 247/593/6
f 757/790/6 397/355/6 279/595/6
f 751/787/6 429/505/6 56/599/6
f 758/778/6 456/116/6 308/604/6
f 765/769/6 488/567/6 518/619/6
f 766/767/6 518/619/6 548/665/6
f 767/761/6 548/665/6 578/686/6
f 768/758/6 578/686/6 608/732/6
f 752/759/6 608/732/6 57/747/6
f 773/113/5 671/762/5 634/754/5
f 789/731/5 668/764/5 671/762/5
f 788/689/5 667/770/5 668/764/5
f 787/664/5 664/772/5 667/770/5
f 786/622/5 663/807/5 664/772/5
f 779/565/5 660/825/5 650/779/5
f 772/120/5 659/809/5 633/782/5
f 778/507/5 656/812/5 648/791/5
f 777/420/5 655/816/5 647/794/5
f 776/353/5 652/810/5 645/803/5
f 785/566/5 650/779/5 663/807/5
f 783/508/5 648/791/5 659/809/5
f 780/421/5 647/794/5 652/810/5
f 782/354/5 645/803/5 656/812/5
f 781/324/5 642/818/5 655/816/5
f 775/129/5 632/820/5 642/818/5
f 771/127/5 637/899/5 632/820/5
f 636/900/2 769/124/2 630/823/2
f 784/121/5 633/782/5 660/825/5
f 774/110/5 634/754/5 635/826/5
f 791/111/5 635/826/5 702/828/5
f 672/1/1 4/877/1 3/2/1
f 37/4/2 8/870/2 7/5/2
f 12/7/3 6/96/3 5/8/3
f 705/10/4 2/901/4 1/11/4
f 11/9/5 5/8/5 38/13/5
f 184/15/6 10/902/6 727/16/6
f 185/18/5 11/9/5 42/14/5
f 181/20/3 12/7/3 11/9/3
f 2/21/1 10/327/1 9/22/1
f 182/24/5 18/30/5 117/25/5
f 183/27/6 17/254/6 129/28/6
f 18/30/5 15/262/5 110/31/5
f 122/32/4 16/253/4 15/33/4
f 109/35/2 14/263/2 13/36/2
f 453/38/6 24/255/6 130/39/6
f 452/41/5 23/261/5 118/42/5
f 479/44/3 451/606/3 22/45/3
f 479/44/5 20/46/5 44/47/5
f 478/49/6 19/598/6 728/50/6
f 422/52/1 420/903/1 19/53/1
f 31/55/6 25/743/6 729/56/6
f 32/58/5 26/62/5 45/59/5
f 32/58/3 34/77/3 28/61/3
f 35/63/5 29/260/5 119/64/5
f 36/66/6 30/741/6 131/67/6
f 602/69/1 600/753/1 25/70/1
f 677/72/6 36/66/6 132/68/6
f 676/74/5 35/63/5 120/65/5
f 673/76/3 675/904/3 34/77/3
f 673/76/5 32/58/5 48/60/5
f 672/79/6 31/55/6 730/57/6
f 27/71/1 25/70/1 31/81/1
f 678/83/5 48/89/5 143/84/5
f 679/86/6 47/270/6 34/87/6
f 48/89/5 45/905/5 142/90/5
f 454/48/5 44/47/5 141/91/5
f 455/93/6 43/269/6 22/94/6
f 6/96/4 41/268/4 38/97/4
f 186/98/6 39/906/6 12/99/6
f 187/19/5 42/14/5 140/101/5
f 42/14/5 38/13/5 134/103/5
f 133/104/2 37/4/2 40/6/2
f 680/106/6 60/114/6 179/107/6
f 681/109/5 59/112/5 774/110/5
f 59/112/5 58/291/5 773/113/5
f 60/114/6 57/747/6 178/115/6
f 456/116/6 56/599/6 177/117/6
f 457/119/5 55/292/5 772/120/5
f 748/122/2 52/293/2 49/123/2
f 51/125/5 53/294/5 749/126/5
f 188/128/5 51/125/5 771/127/5
f 189/130/6 54/898/6 176/131/6
f 169/133/4 50/897/4 53/134/4
f 145/136/4 68/286/4 62/137/4
f 190/139/6 63/285/6 152/140/6
f 458/142/6 64/284/6 153/143/6
f 66/145/6 65/748/6 154/146/6
f 682/148/6 66/145/6 155/147/6
f 683/150/5 72/153/5 167/151/5
f 72/153/5 71/280/5 166/154/5
f 459/155/5 70/279/5 165/156/5
f 156/158/2 61/278/2 67/159/2
f 69/161/5 62/277/5 157/162/5
f 191/164/5 69/161/5 164/163/5
f 684/166/6 78/169/6 114/167/6
f 78/169/6 77/749/6 113/170/6
f 460/171/6 76/281/6 112/172/6
f 192/174/6 75/282/6 111/175/6
f 116/177/4 80/283/4 74/178/4
f 685/180/5 84/183/5 149/181/5
f 84/183/5 83/256/5 148/184/5
f 461/185/5 82/257/5 147/186/5
f 150/188/2 73/258/2 79/189/2
f 81/191/5 74/259/5 151/192/5
f 193/194/5 81/191/5 146/193/5
f 194/196/5 87/199/5 170/197/5
f 87/199/5 92/287/5 175/200/5
f 174/201/2 91/288/2 85/202/2
f 462/204/5 88/289/5 171/205/5
f 90/207/5 89/290/5 172/208/5
f 686/210/5 90/207/5 173/209/5
f 163/212/4 86/295/4 92/213/4
f 195/215/6 93/296/6 158/216/6
f 463/218/6 94/297/6 159/219/6
f 96/221/6 95/750/6 160/222/6
f 687/224/6 96/221/6 161/223/6
f 127/226/2 103/271/2 97/227/2
f 99/229/5 104/272/5 128/230/5
f 196/232/5 99/229/5 123/231/5
f 464/234/5 100/273/5 124/235/5
f 102/237/5 101/275/5 125/238/5
f 688/240/5 102/237/5 126/239/5
f 689/242/6 108/245/6 137/243/6
f 108/245/6 107/751/6 136/246/6
f 465/247/6 106/264/6 135/248/6
f 139/250/4 98/265/4 104/251/4
f 16/253/4 116/177/4 110/179/4
f 198/176/6 111/175/6 17/254/6
f 466/173/6 112/172/6 24/255/6
f 690/168/6 114/167/6 36/66/6
f 691/75/5 120/65/5 84/183/5
f 120/65/5 119/64/5 83/256/5
f 467/43/5 118/42/5 82/257/5
f 73/258/2 109/35/2 115/37/2
f 117/25/5 110/31/5 74/259/5
f 199/26/5 117/25/5 81/191/5
f 692/241/5 126/239/5 35/63/5
f 126/239/5 125/238/5 29/260/5
f 468/236/5 124/235/5 23/261/5
f 200/233/5 123/231/5 18/30/5
f 123/231/5 128/230/5 15/262/5
f 14/263/2 127/226/2 121/228/2
f 693/73/6 132/68/6 108/245/6
f 469/40/6 130/39/6 106/264/6
f 98/265/4 122/32/4 128/34/4
f 201/29/6 129/28/6 105/266/6
f 41/268/4 139/250/4 134/252/4
f 470/249/6 135/248/6 43/269/6
f 694/244/6 137/243/6 47/270/6
f 103/271/2 133/104/2 138/105/2
f 140/101/5 134/103/5 104/272/5
f 203/102/5 140/101/5 99/229/5
f 471/92/5 141/91/5 100/273/5
f 143/274/5 142/744/5 101/275/5
f 695/276/5 143/274/5 102/237/5
f 204/195/5 146/193/5 69/161/5
f 146/193/5 151/192/5 62/277/5
f 61/278/2 150/188/2 144/190/2
f 472/187/5 147/186/5 70/279/5
f 149/181/5 148/184/5 71/280/5
f 696/182/5 149/181/5 72/153/5
f 697/149/6 155/147/6 78/169/6
f 473/144/6 153/143/6 76/281/6
f 205/141/6 152/140/6 75/282/6
f 80/283/4 145/136/4 151/138/4
f 698/225/6 161/223/6 66/145/6
f 474/220/6 159/219/6 64/284/6
f 206/217/6 158/216/6 63/285/6
f 68/286/4 163/212/4 157/214/4
f 207/165/5 164/163/5 87/199/5
f 164/163/5 157/162/5 92/287/5
f 91/288/2 156/158/2 162/160/2
f 475/157/5 165/156/5 88/289/5
f 167/151/5 166/154/5 89/290/5
f 699/152/5 167/151/5 90/207/5
f 700/211/5 173/209/5 59/112/5
f 173/209/5 172/208/5 58/291/5
f 476/206/5 171/205/5 55/292/5
f 52/293/2 174/201/2 168/203/2
f 170/197/5 175/200/5 53/294/5
f 208/198/5 170/197/5 51/125/5
f 86/295/4 169/133/4 175/135/4
f 209/132/6 176/131/6 93/296/6
f 477/118/6 177/117/6 94/297/6
f 701/108/6 179/107/6 96/221/6
f 387/298/6 209/132/6 195/215/6
f 386/300/5 208/198/5 188/128/5
f 385/302/5 207/165/5 194/196/5
f 384/304/6 206/217/6 190/139/6
f 383/306/6 205/141/6 192/174/6
f 382/308/5 204/195/5 191/164/5
f 381/310/5 203/102/5 196/232/5
f 380/312/6 202/322/6 186/98/6
f 379/314/6 201/29/6 197/267/6
f 378/316/5 200/233/5 182/24/5
f 377/318/5 199/26/5 193/194/5
f 376/320/6 198/176/6 183/27/6
f 375/315/6 197/267/6 202/322/6
f 374/311/5 196/232/5 200/233/5
f 373/299/6 195/215/6 206/217/6
f 372/303/5 194/196/5 208/198/5
f 371/319/5 193/194/5 204/195/5
f 370/307/6 192/174/6 198/176/6
f 369/309/5 191/164/5 207/165/5
f 368/305/6 190/139/6 205/141/6
f 367/323/6 189/130/6 209/132/6
f 366/301/5 188/128/5 775/129/5
f 365/325/5 187/19/5 203/102/5
f 364/313/6 186/98/6 181/100/6
f 10/327/1 184/590/1 180/328/1
f 363/321/6 183/27/6 201/29/6
f 362/317/5 182/24/5 199/26/5
f 361/329/3 181/20/3 185/18/3
f 389/330/5 185/18/5 187/19/5
f 388/331/6 184/15/6 731/17/6
f 418/333/6 210/588/6 732/334/6
f 419/336/5 211/340/5 217/337/5
f 391/339/3 213/587/3 211/340/3
f 392/341/5 214/384/5 229/342/5
f 393/344/6 215/382/6 231/345/6
f 394/347/6 216/386/6 213/348/6
f 395/338/5 217/337/5 233/350/5
f 396/352/5 218/392/5 776/353/5
f 397/355/6 219/586/6 239/356/6
f 398/358/6 220/390/6 235/359/6
f 399/361/5 221/388/5 237/362/5
f 400/364/6 222/389/6 228/365/6
f 401/367/5 223/383/5 234/368/5
f 402/370/5 224/391/5 238/371/5
f 403/373/6 225/393/6 236/374/6
f 404/376/5 226/387/5 230/377/5
f 405/379/6 227/385/6 232/380/6
f 406/366/6 228/365/6 215/382/6
f 407/343/5 229/342/5 223/383/5
f 408/378/5 230/377/5 214/384/5
f 409/346/6 231/345/6 227/385/6
f 410/381/6 232/380/6 216/386/6
f 411/351/5 233/350/5 226/387/5
f 412/369/5 234/368/5 221/388/5
f 413/360/6 235/359/6 222/389/6
f 414/375/6 236/374/6 220/390/6
f 415/363/5 237/362/5 224/391/5
f 416/372/5 238/371/5 218/392/5
f 417/357/6 239/356/6 225/393/6
f 330/394/1 210/594/1 212/395/1
f 388/397/1 268/589/1 240/398/1
f 330/400/6 268/591/6 733/401/6
f 331/403/5 269/407/5 245/404/5
f 333/406/3 241/592/3 269/407/3
f 334/408/5 242/451/5 257/409/5
f 335/411/6 243/449/6 259/412/6
f 336/414/6 244/453/6 241/415/6
f 337/405/5 245/404/5 261/417/5
f 338/419/5 246/459/5 777/420/5
f 339/422/6 247/593/6 267/423/6
f 340/425/6 248/457/6 263/426/6
f 341/428/5 249/455/5 265/429/5
f 342/431/6 250/456/6 256/432/6
f 343/434/5 251/450/5 262/435/5
f 344/437/5 252/458/5 266/438/5
f 345/440/6 253/460/6 264/441/6
f 346/443/5 254/454/5 258/444/5
f 347/446/6 255/452/6 260/447/6
f 348/433/6 256/432/6 243/449/6
f 349/410/5 257/409/5 251/450/5
f 350/445/5 258/444/5 242/451/5
f 351/413/6 259/412/6 255/452/6
f 352/448/6 260/447/6 244/453/6
f 353/418/5 261/417/5 254/454/5
f 354/436/5 262/435/5 249/455/5
f 355/427/6 263/426/6 250/456/6
f 356/442/6 264/441/6 248/457/6
f 357/430/5 265/429/5 252/458/5
f 358/439/5 266/438/5 246/459/5
f 359/424/6 267/423/6 253/460/6
f 449/461/6 299/506/6 285/462/6
f 448/464/5 298/500/5 278/465/5
f 447/467/5 297/503/5 284/468/5
f 446/470/6 296/499/6 280/471/6
f 445/473/6 295/504/6 282/474/6
f 444/476/5 294/501/5 281/477/5
f 443/479/5 293/510/5 286/480/5
f 442/482/6 292/497/6 276/483/6
f 441/485/6 291/513/6 287/486/6
f 440/488/5 290/498/5 274/489/5
f 439/491/5 289/514/5 283/492/5
f 438/494/6 288/502/6 275/495/6
f 437/487/6 287/486/6 292/497/6
f 436/481/5 286/480/5 290/498/5
f 435/463/6 285/462/6 296/499/6
f 434/469/5 284/468/5 298/500/5
f 433/493/5 283/492/5 294/501/5
f 432/475/6 282/474/6 288/502/6
f 431/478/5 281/477/5 297/503/5
f 430/472/6 280/471/6 295/504/6
f 429/505/6 279/595/6 299/506/6
f 428/466/5 278/465/5 778/507/5
f 427/509/5 277/518/5 293/510/5
f 426/484/6 276/483/6 273/511/6
f 425/496/6 275/495/6 291/513/6
f 424/490/5 274/489/5 289/514/5
f 423/515/3 273/596/3 271/516/3
f 421/517/5 271/516/5 277/518/5
f 420/519/6 270/597/6 734/520/6
f 418/522/1 270/600/1 272/523/1
f 509/525/6 329/568/6 315/526/6
f 508/528/5 328/560/5 309/529/5
f 507/531/5 327/563/5 314/532/5
f 506/534/6 326/559/6 310/535/6
f 505/537/6 325/564/6 312/538/6
f 504/540/5 324/561/5 311/541/5
f 503/543/5 323/573/5 316/544/5
f 501/546/6 321/585/6 317/547/6
f 500/549/5 320/558/5 302/550/5
f 499/552/5 319/584/5 313/553/5
f 498/555/6 318/562/6 303/556/6
f 496/545/5 316/544/5 320/558/5
f 495/527/6 315/526/6 326/559/6
f 494/533/5 314/532/5 328/560/5
f 493/554/5 313/553/5 324/561/5
f 492/539/6 312/538/6 318/562/6
f 491/542/5 311/541/5 327/563/5
f 490/536/6 310/535/6 325/564/6
f 489/530/5 309/529/5 779/565/5
f 488/567/6 308/604/6 329/568/6
f 487/569/6 307/603/6 301/570/6
f 486/572/5 306/581/5 323/573/5
f 450/574/1 478/601/1 304/575/1
f 480/577/6 304/605/6 735/578/6
f 486/572/5 481/582/5 305/580/5
f 481/582/3 483/907/3 301/583/3
f 484/551/5 302/550/5 319/584/5
f 485/557/6 303/556/6 321/585/6
f 239/356/6 359/424/6 345/440/6
f 238/371/5 358/439/5 338/419/5
f 237/362/5 357/430/5 344/437/5
f 236/374/6 356/442/6 340/425/6
f 235/359/6 355/427/6 342/431/6
f 234/368/5 354/436/5 341/428/5
f 233/350/5 353/418/5 346/443/5
f 231/345/6 351/413/6 347/446/6
f 230/377/5 350/445/5 334/408/5
f 229/342/5 349/410/5 343/434/5
f 228/365/6 348/433/6 335/411/6
f 226/387/5 346/443/5 350/445/5
f 225/393/6 345/440/6 356/442/6
f 224/391/5 344/437/5 358/439/5
f 223/383/5 343/434/5 354/436/5
f 222/389/6 342/431/6 348/433/6
f 221/388/5 341/428/5 357/430/5
f 220/390/6 340/425/6 355/427/6
f 219/586/6 339/422/6 359/424/6
f 218/392/5 338/419/5 780/421/5
f 217/337/5 337/405/5 353/418/5
f 216/386/6 336/414/6 333/416/6
f 215/382/6 335/411/6 351/413/6
f 214/384/5 334/408/5 349/410/5
f 213/587/3 333/406/3 331/403/3
f 211/340/5 331/403/5 337/405/5
f 210/588/6 330/400/6 736/402/6
f 268/589/1 330/394/1 332/396/1
f 184/590/1 388/397/1 360/399/1
f 268/591/6 388/331/6 737/332/6
f 269/407/5 389/330/5 365/325/5
f 241/592/3 361/329/3 389/330/3
f 242/451/5 362/317/5 377/318/5
f 243/449/6 363/321/6 379/314/6
f 244/453/6 364/313/6 361/326/6
f 245/404/5 365/325/5 381/310/5
f 246/459/5 366/301/5 781/324/5
f 247/593/6 367/323/6 387/298/6
f 248/457/6 368/305/6 383/306/6
f 249/455/5 369/309/5 385/302/5
f 250/456/6 370/307/6 376/320/6
f 251/450/5 371/319/5 382/308/5
f 252/458/5 372/303/5 386/300/5
f 253/460/6 373/299/6 384/304/6
f 254/454/5 374/311/5 378/316/5
f 256/432/6 376/320/6 363/321/6
f 257/409/5 377/318/5 371/319/5
f 258/444/5 378/316/5 362/317/5
f 259/412/6 379/314/6 375/315/6
f 261/417/5 381/310/5 374/311/5
f 262/435/5 382/308/5 369/309/5
f 263/426/6 383/306/6 370/307/6
f 264/441/6 384/304/6 368/305/6
f 265/429/5 385/302/5 372/303/5
f 266/438/5 386/300/5 366/301/5
f 267/423/6 387/298/6 373/299/6
f 210/594/1 418/522/1 390/524/1
f 299/506/6 417/357/6 403/373/6
f 298/500/5 416/372/5 396/352/5
f 297/503/5 415/363/5 402/370/5
f 296/499/6 414/375/6 398/358/6
f 295/504/6 413/360/6 400/364/6
f 294/501/5 412/369/5 399/361/5
f 293/510/5 411/351/5 404/376/5
f 291/513/6 409/346/6 405/379/6
f 290/498/5 408/378/5 392/341/5
f 289/514/5 407/343/5 401/367/5
f 288/502/6 406/366/6 393/344/6
f 286/480/5 404/376/5 408/378/5
f 285/462/6 403/373/6 414/375/6
f 284/468/5 402/370/5 416/372/5
f 283/492/5 401/367/5 412/369/5
f 282/474/6 400/364/6 406/366/6
f 281/477/5 399/361/5 415/363/5
f 280/471/6 398/358/6 413/360/6
f 279/595/6 397/355/6 417/357/6
f 278/465/5 396/352/5 782/354/5
f 277/518/5 395/338/5 411/351/5
f 276/483/6 394/347/6 391/349/6
f 275/495/6 393/344/6 409/346/6
f 274/489/5 392/341/5 407/343/5
f 273/596/3 391/339/3 419/336/3
f 271/516/5 419/336/5 395/338/5
f 270/597/6 418/333/6 738/335/6
f 19/598/6 420/519/6 739/521/6
f 20/46/5 421/517/5 427/509/5
f 20/46/3 22/45/3 423/515/3
f 23/261/5 424/490/5 439/491/5
f 24/255/6 425/496/6 441/485/6
f 43/269/6 426/484/6 423/512/6
f 44/47/5 427/509/5 443/479/5
f 55/292/5 428/466/5 783/508/5
f 56/599/6 429/505/6 449/461/6
f 64/284/6 430/472/6 445/473/6
f 70/279/5 431/478/5 447/467/5
f 76/281/6 432/475/6 438/494/6
f 82/257/5 433/493/5 444/476/5
f 88/289/5 434/469/5 448/464/5
f 94/297/6 435/463/6 446/470/6
f 100/273/5 436/481/5 440/488/5
f 112/172/6 438/494/6 425/496/6
f 118/42/5 439/491/5 433/493/5
f 124/235/5 440/488/5 424/490/5
f 130/39/6 441/485/6 437/487/6
f 141/91/5 443/479/5 436/481/5
f 147/186/5 444/476/5 431/478/5
f 153/143/6 445/473/6 432/475/6
f 159/219/6 446/470/6 430/472/6
f 165/156/5 447/467/5 434/469/5
f 171/205/5 448/464/5 428/466/5
f 177/117/6 449/461/6 435/463/6
f 270/600/1 420/903/1 422/52/1
f 21/54/1 19/53/1 478/601/1
f 329/568/6 477/118/6 463/218/6
f 328/560/5 476/206/5 457/119/5
f 327/563/5 475/157/5 462/204/5
f 326/559/6 474/220/6 458/142/6
f 325/564/6 473/144/6 460/171/6
f 324/561/5 472/187/5 459/155/5
f 323/573/5 471/92/5 464/234/5
f 322/602/6 470/249/6 455/93/6
f 321/585/6 469/40/6 465/247/6
f 320/558/5 468/236/5 452/41/5
f 319/584/5 467/43/5 461/185/5
f 318/562/6 466/173/6 453/38/6
f 317/547/6 465/247/6 470/249/6
f 316/544/5 464/234/5 468/236/5
f 315/526/6 463/218/6 474/220/6
f 314/532/5 462/204/5 476/206/5
f 313/553/5 461/185/5 472/187/5
f 312/538/6 460/171/6 466/173/6
f 311/541/5 459/155/5 475/157/5
f 310/535/6 458/142/6 473/144/6
f 309/529/5 457/119/5 784/121/5
f 308/604/6 456/116/6 477/118/6
f 307/603/6 455/93/6 451/95/6
f 306/581/5 454/48/5 471/92/5
f 304/605/6 478/49/6 740/51/6
f 305/580/5 479/44/5 454/48/5
f 305/580/3 301/583/3 451/606/3
f 302/550/5 452/41/5 467/43/5
f 303/556/6 453/38/6 469/40/6
f 515/607/6 485/557/6 501/546/6
f 514/609/5 484/551/5 499/552/5
f 513/611/3 483/907/3 481/582/3
f 516/613/5 511/612/5 481/582/5
f 510/614/6 480/577/6 741/579/6
f 516/613/5 486/572/5 503/543/5
f 517/617/6 487/569/6 483/571/6
f 518/619/6 488/567/6 509/525/6
f 519/621/5 489/530/5 785/566/5
f 520/623/6 490/536/6 505/537/6
f 521/625/5 491/542/5 507/531/5
f 522/627/6 492/539/6 498/555/6
f 523/629/5 493/554/5 504/540/5
f 524/631/5 494/533/5 508/528/5
f 525/633/6 495/527/6 506/534/6
f 526/635/5 496/545/5 500/549/5
f 527/637/6 497/548/6 502/638/6
f 528/628/6 498/555/6 485/557/6
f 529/610/5 499/552/5 493/554/5
f 530/636/5 500/549/5 484/551/5
f 531/608/6 501/546/6 497/548/6
f 532/639/6 502/638/6 487/569/6
f 533/616/5 503/543/5 496/545/5
f 534/630/5 504/540/5 491/542/5
f 535/624/6 505/537/6 492/539/6
f 536/634/6 506/534/6 490/536/6
f 537/626/5 507/531/5 494/533/5
f 538/632/5 508/528/5 489/530/5
f 539/620/6 509/525/6 495/527/6
f 300/576/1 304/575/1 480/640/1
f 569/642/6 539/620/6 525/633/6
f 568/644/5 538/632/5 519/621/5
f 567/646/5 537/626/5 524/631/5
f 566/648/6 536/634/6 520/623/6
f 565/650/6 535/624/6 522/627/6
f 564/652/5 534/630/5 521/625/5
f 563/654/5 533/616/5 526/635/5
f 561/656/6 531/608/6 527/637/6
f 560/658/5 530/636/5 514/609/5
f 559/660/5 529/610/5 523/629/5
f 558/662/6 528/628/6 515/607/6
f 556/655/5 526/635/5 530/636/5
f 555/643/6 525/633/6 536/634/6
f 554/647/5 524/631/5 538/632/5
f 553/661/5 523/629/5 534/630/5
f 552/651/6 522/627/6 528/628/6
f 551/653/5 521/625/5 537/626/5
f 550/649/6 520/623/6 535/624/6
f 549/645/5 519/621/5 786/622/5
f 548/665/6 518/619/6 539/620/6
f 547/666/6 517/617/6 513/618/6
f 546/668/5 516/613/5 533/616/5
f 540/669/6 510/614/6 742/615/6
f 541/671/5 511/612/5 516/613/5
f 543/672/3 513/611/3 511/612/3
f 544/659/5 514/609/5 529/610/5
f 545/663/6 515/607/6 531/608/6
f 480/640/1 510/707/1 512/673/1
f 575/674/6 545/663/6 561/656/6
f 574/676/5 544/659/5 559/660/5
f 573/678/3 543/672/3 541/671/3
f 571/679/5 541/671/5 546/668/5
f 570/681/6 540/669/6 743/670/6
f 576/680/5 546/668/5 563/654/5
f 577/684/6 547/666/6 543/667/6
f 578/686/6 548/665/6 569/642/6
f 579/688/5 549/645/5 787/664/5
f 580/690/6 550/649/6 565/650/6
f 581/692/5 551/653/5 567/646/5
f 582/694/6 552/651/6 558/662/6
f 583/696/5 553/661/5 564/652/5
f 584/698/5 554/647/5 568/644/5
f 585/700/6 555/643/6 566/648/6
f 586/702/5 556/655/5 560/658/5
f 587/704/6 557/657/6 562/705/6
f 588/695/6 558/662/6 545/663/6
f 589/677/5 559/660/5 553/661/5
f 590/703/5 560/658/5 544/659/5
f 591/675/6 561/656/6 557/657/6
f 592/706/6 562/705/6 547/666/6
f 593/683/5 563/654/5 556/655/5
f 594/697/5 564/652/5 551/653/5
f 595/691/6 565/650/6 552/651/6
f 596/701/6 566/648/6 550/649/6
f 597/693/5 567/646/5 554/647/5
f 598/699/5 568/644/5 549/645/5
f 599/687/6 569/642/6 555/643/6
f 510/707/1 540/739/1 542/708/1
f 629/709/6 599/687/6 585/700/6
f 628/711/5 598/699/5 579/688/5
f 627/713/5 597/693/5 584/698/5
f 626/715/6 596/701/6 580/690/6
f 625/717/6 595/691/6 582/694/6
f 624/719/5 594/697/5 581/692/5
f 623/721/5 593/683/5 586/702/5
f 621/723/6 591/675/6 587/704/6
f 620/725/5 590/703/5 574/676/5
f 619/727/5 589/677/5 583/696/5
f 618/729/6 588/695/6 575/674/6
f 616/722/5 586/702/5 590/703/5
f 615/710/6 585/700/6 596/701/6
f 614/714/5 584/698/5 598/699/5
f 613/728/5 583/696/5 594/697/5
f 612/718/6 582/694/6 588/695/6
f 611/720/5 581/692/5 597/693/5
f 610/716/6 580/690/6 595/691/6
f 609/712/5 579/688/5 788/689/5
f 608/732/6 578/686/6 599/687/6
f 607/733/6 577/684/6 573/685/6
f 606/735/5 576/680/5 593/683/5
f 600/736/6 570/681/6 744/682/6
f 601/738/5 571/679/5 576/680/5
f 601/738/3 603/742/3 573/678/3
f 604/726/5 574/676/5 589/677/5
f 605/730/6 575/674/6 591/675/6
f 540/739/1 570/908/1 572/740/1
f 30/741/6 605/730/6 621/723/6
f 29/260/5 604/726/5 619/727/5
f 26/62/3 28/61/3 603/742/3
f 26/62/5 601/738/5 606/735/5
f 25/743/6 600/736/6 745/737/6
f 45/59/5 606/735/5 623/721/5
f 46/745/6 607/733/6 603/734/6
f 57/747/6 608/732/6 629/709/6
f 58/291/5 609/712/5 789/731/5
f 65/748/6 610/716/6 625/717/6
f 71/280/5 611/720/5 627/713/5
f 77/749/6 612/718/6 618/729/6
f 83/256/5 613/728/5 624/719/5
f 89/290/5 614/714/5 628/711/5
f 95/750/6 615/710/6 626/715/6
f 101/275/5 616/722/5 620/725/5
f 107/751/6 617/724/6 622/752/6
f 113/170/6 618/729/6 605/730/6
f 119/64/5 619/727/5 613/728/5
f 125/238/5 620/725/5 604/726/5
f 131/67/6 621/723/6 617/724/6
f 136/246/6 622/752/6 607/733/6
f 142/744/5 623/721/5 616/722/5
f 148/184/5 624/719/5 611/720/5
f 154/146/6 625/717/6 612/718/6
f 160/222/6 626/715/6 610/716/6
f 166/154/5 627/713/5 614/714/5
f 172/208/5 628/711/5 609/712/5
f 178/115/6 629/709/6 615/710/6
f 572/740/1 570/908/1 600/753/1
f 634/754/5 671/762/5 724/755/5
f 640/757/6 670/760/6 768/758/6
f 670/760/6 669/766/6 767/761/6
f 671/762/5 668/764/5 723/763/5
f 668/764/5 667/770/5 722/765/5
f 669/766/6 666/768/6 766/767/6
f 666/768/6 665/774/6 765/769/6
f 667/770/5 664/772/5 721/771/5
f 664/772/5 663/807/5 720/773/5
f 665/774/6 662/806/6 764/775/6
f 651/776/6 661/834/6 763/777/6
f 650/779/5 660/825/5 719/780/5
f 633/782/5 659/809/5 718/783/5
f 639/785/6 658/808/6 762/786/6
f 649/788/6 657/813/6 761/789/6
f 648/791/5 656/812/5 717/792/5
f 647/794/5 655/816/5 716/795/5
f 646/797/6 654/814/6 760/798/6
f 644/800/6 653/811/6 759/801/6
f 645/803/5 652/810/5 715/804/5
f 662/806/6 651/776/6 758/778/6
f 663/807/5 650/779/5 714/781/5
f 658/808/6 649/788/6 757/790/6
f 659/809/5 648/791/5 713/793/5
f 652/810/5 647/794/5 712/796/5
f 653/811/6 646/797/6 756/799/6
f 656/812/5 645/803/5 711/805/5
f 657/813/6 644/800/6 755/802/6
f 654/814/6 643/835/6 754/815/6
f 655/816/5 642/818/5 710/817/5
f 642/818/5 632/820/5 706/819/5
f 632/820/5 637/899/5 726/821/5
f 725/822/2 636/900/2 630/823/2
f 660/825/5 633/782/5 707/784/5
f 635/826/5 634/754/5 708/756/5
f 702/828/5 635/826/5 709/827/5
f 703/830/6 641/833/6 753/831/6
f 641/833/6 640/757/6 752/759/6
f 661/834/6 639/785/6 751/787/6
f 643/835/6 638/894/6 750/836/6
f 770/837/4 631/895/4 637/838/4
f 630/840/5 702/828/5 746/829/5
f 174/842/6 701/108/6 687/224/6
f 168/844/5 700/211/5 681/109/5
f 162/846/5 699/152/5 686/210/5
f 156/848/6 698/225/6 682/148/6
f 150/850/6 697/149/6 684/166/6
f 144/852/5 696/182/5 683/150/5
f 138/854/5 695/276/5 688/240/5
f 133/856/6 694/244/6 679/86/6
f 127/858/6 693/73/6 689/242/6
f 121/860/5 692/241/5 676/74/5
f 115/862/5 691/75/5 685/180/5
f 109/864/6 690/168/6 677/72/6
f 103/859/6 689/242/6 694/244/6
f 97/855/5 688/240/5 692/241/5
f 91/843/6 687/224/6 698/225/6
f 85/847/5 686/210/5 700/211/5
f 79/863/5 685/180/5 696/182/5
f 73/851/6 684/166/6 690/168/6
f 67/853/5 683/150/5 699/152/5
f 61/849/6 682/148/6 697/149/6
f 49/845/5 681/109/5 791/111/5
f 52/867/6 680/106/6 701/108/6
f 37/857/6 679/86/6 675/88/6
f 40/869/5 678/78/5 695/276/5
f 7/5/5 673/76/5 678/78/5
f 8/870/3 675/904/3 673/76/3
f 13/861/5 676/74/5 691/75/5
f 14/865/6 677/72/6 693/73/6
f 31/81/1 672/1/1 674/3/1
f 704/841/5 746/829/5 674/871/5
f 746/829/5 709/827/5 33/873/5
f 709/827/5 708/756/5 27/874/5
f 719/780/5 707/784/5 21/875/5
f 4/877/2 725/822/2 704/824/2
f 706/819/5 726/821/5 1/878/5
f 710/817/5 706/819/5 9/879/5
f 716/795/5 710/817/5 180/880/5
f 717/792/5 711/805/5 212/882/5
f 715/804/5 712/796/5 240/884/5
f 718/783/5 713/793/5 272/886/5
f 720/773/5 714/781/5 300/888/5
f 711/805/5 715/804/5 332/885/5
f 712/796/5 716/795/5 360/881/5
f 713/793/5 717/792/5 390/883/5
f 707/784/5 718/783/5 422/887/5
f 714/781/5 719/780/5 450/876/5
f 721/771/5 720/773/5 482/889/5
f 722/765/5 721/771/5 512/890/5
f 723/763/5 722/765/5 542/891/5
f 724/755/5 723/763/5 572/892/5
f 708/756/5 724/755/5 602/893/5
f 729/56/6 745/737/6 670/760/6
f 745/737/6 744/682/6 669/766/6
f 744/682/6 743/670/6 666/768/6
f 743/670/6 742/615/6 665/774/6
f 742/615/6 741/579/6 662/806/6
f 735/578/6 740/51/6 661/834/6
f 728/50/6 739/521/6 658/808/6
f 734/520/6 738/335/6 657/813/6
f 733/401/6 737/332/6 654/814/6
f 732/334/6 736/402/6 653/811/6
f 741/579/6 735/578/6 651/776/6
f 739/521/6 734/520/6 649/788/6
f 736/402/6 733/401/6 646/797/6
f 738/335/6 732/334/6 644/800/6
f 737/332/6 731/17/6 643/835/6
f 747/80/6 730/57/6 641/833/6
f 730/57/6 729/56/6 640/757/6
f 740/51/6 728/50/6 639/785/6
f 731/17/6 727/16/6 638/894/6
f 631/895/4 705/10/4 726/12/4
f 769/866/5 791/111/5 702/828/5
f 748/896/6 790/832/6 680/106/6
f 50/897/4 770/837/4 749/839/4
f 754/815/6 750/836/6 54/898/6
f 763/777/6 751/787/6 56/599/6
f 753/831/6 752/759/6 57/747/6
f 790/832/6 753/831/6 60/114/6
f 760/798/6 754/815/6 189/130/6
f 761/789/6 755/802/6 219/586/6
f 759/801/6 756/799/6 247/593/6
f 762/786/6 757/790/6 279/595/6
f 764/775/6 758/778/6 308/604/6
f 755/802/6 759/801/6 339/422/6
f 756/799/6 760/798/6 367/323/6
f 757/790/6 761/789/6 397/355/6
f 751/787/6 762/786/6 429/505/6
f 758/778/6 763/777/6 456/116/6
f 765/769/6 764/775/6 488/567/6
f 766/767/6 765/769/6 518/619/6
f 767/761/6 766/767/6 548/665/6
f 768/758/6 767/761/6 578/686/6
f 752/759/6 768/758/6 608/732/6
f 773/113/5 789/731/5 671/762/5
f 789/731/5 788/689/5 668/764/5
f 788/689/5 787/664/5 667/770/5
f 787/664/5 786/622/5 664/772/5
f 786/622/5 785/566/5 663/807/5
f 779/565/5 784/121/5 660/825/5
f 772/120/5 783/508/5 659/809/5
f 778/507/5 782/354/5 656/812/5
f 777/420/5 781/324/5 655/816/5
f 776/353/5 780/421/5 652/810/5
f 785/566/5 779/565/5 650/779/5
f 783/508/5 778/507/5 648/791/5
f 780/421/5 777/420/5 647/794/5
f 782/354/5 776/353/5 645/803/5
f 781/324/5 775/129/5 642/818/5
f 775/129/5 771/127/5 632/820/5
f 771/127/5 749/126/5 637/899/5
f 636/900/2 748/122/2 769/124/2
f 784/121/5 772/120/5 633/782/5
f 774/110/5 773/113/5 634/754/5
f 791/111/5 774/110/5 635/826/5
