# Blender 5.0.1
# www.blender.org
mtllib ColumnaS4.mtl
o ColumnaS4
v -8.117928 0.622571 -7.924073
v -5.082756 0.622571 -7.924073
v -8.117928 0.622571 -7.350741
v -5.082756 0.622571 -7.350741
v -7.624489 0.622571 -7.924073
v -8.158872 0.622571 -7.924073
v -8.158872 0.622571 -7.350741
v -8.158872 11.922505 -7.924076
v -8.158872 11.922505 -7.350744
v -7.624489 0.622571 -7.350741
v -4.592617 0.622571 -7.924073
v -4.592617 0.622571 -7.350741
v -8.117928 11.922505 -7.350744
v -8.117928 11.922505 -7.924076
v -7.624489 11.922505 -7.924076
v -7.624489 11.922505 -7.350744
v -5.082756 11.921829 -7.924076
v -5.082756 11.921829 -7.350744
v -4.592617 11.921829 -7.924076
v -4.592617 11.921829 -7.350744
v -7.624489 1.029120 -7.924073
v -5.082756 1.029120 -7.924073
v -5.082756 1.029120 -7.350741
v -7.624489 1.029120 -7.350741
vn -0.0000 -0.0000 1.0000
vn -0.5774 -0.5773 0.5773
vn -0.0000 -0.7071 0.7071
vn -0.5773 -0.5774 -0.5773
vn -0.0000 -0.7071 -0.7071
vn -1.0000 -0.0000 -0.0000
vn 1.0000 -0.0000 -0.0000
vn -0.0000 1.0000 -0.0000
vn -0.0000 -0.0000 -1.0000
vt 0.875000 0.509044
vt 0.625000 0.240956
vt 0.625000 0.250000
vt 0.819031 0.509044
vt 0.826812 0.509044
vt 0.867166 0.500000
vt 0.867166 0.509044
vt 0.875000 0.500000
vt 0.625000 0.257834
vt 0.826812 0.500000
vt 0.819030 0.500000
vt 0.625000 0.298188
vt 0.625000 0.305970
s 1
usemtl madera
f 13/1/1 7/1/2 3/1/3
f 3/2/3 6/3/4 1/3/5
f 7/2/2 8/3/6 6/3/4
f 12/4/1 18/5/1 4/5/1
f 5/6/7 16/7/7 10/7/7
f 4/5/1 24/7/1 10/7/1
f 14/8/8 16/7/8 15/6/8
f 1/3/5 8/3/9 14/3/9
f 1/3/9 15/9/9 5/9/9
f 10/7/1 13/1/1 3/1/1
f 17/10/8 20/4/8 19/11/8
f 2/12/9 19/13/9 11/13/9
f 11/11/7 20/4/7 12/4/7
f 4/5/6 17/10/6 2/10/6
f 21/6/8 23/5/8 22/10/8
f 10/7/6 21/6/6 5/6/6
f 5/9/9 22/12/9 2/12/9
f 2/10/7 23/5/7 4/5/7
f 13/1/1 9/1/1 7/1/2
f 3/2/3 7/2/2 6/3/4
f 7/2/2 9/2/6 8/3/6
f 12/4/1 20/4/1 18/5/1
f 5/6/7 15/6/7 16/7/7
f 4/5/1 23/5/1 24/7/1
f 14/8/8 13/1/8 16/7/8
f 1/3/5 6/3/4 8/3/9
f 1/3/9 14/3/9 15/9/9
f 10/7/1 16/7/1 13/1/1
f 17/10/8 18/5/8 20/4/8
f 2/12/9 17/12/9 19/13/9
f 11/11/7 19/11/7 20/4/7
f 4/5/6 18/5/6 17/10/6
f 21/6/8 24/7/8 23/5/8
f 10/7/6 24/7/6 21/6/6
f 5/9/9 21/9/9 22/12/9
f 2/10/7 22/10/7 23/5/7
