# Blender 5.0.1
# www.blender.org
mtllib ParedPantallaS4.mtl
o ParedPantallaS4
v -3.737031 5.283461 7.293653
v -3.596128 5.142558 7.566741
v -7.208322 5.283457 7.293653
v -7.349225 5.142554 7.566741
v -3.737031 7.600116 7.293653
v -3.596128 7.741019 7.566741
v -7.208322 7.600116 7.293653
v -7.349225 7.741019 7.566741
v -3.596128 5.142558 7.293653
v -7.349225 5.142554 7.293653
v -7.349225 7.741019 7.293653
v -3.596128 7.741019 7.293653
v -3.737031 5.283461 7.333319
v -7.208322 5.283457 7.333319
v -7.208322 7.600116 7.333319
v -3.737031 7.600116 7.333319
v -8.117928 0.622577 7.924073
v 7.628626 0.622577 7.924073
v -8.117928 0.622577 7.352310
v 7.628626 0.622577 7.352310
v 5.282545 0.622577 7.924073
v 5.282545 0.622577 7.352310
v 7.628626 11.933004 7.352307
v 7.628626 11.933004 7.924070
v 5.282545 11.933004 7.924070
v -8.117928 11.933004 7.924070
v -8.117928 11.933004 7.352307
v 5.282545 11.933004 7.352307
v 7.628626 13.050501 7.352307
v 7.628626 13.050501 7.924070
v 5.282545 13.050501 7.924070
v -8.117928 13.050501 7.924070
v -8.117928 13.050501 7.352307
v 5.282545 13.050501 7.352307
v 7.103469 0.622577 7.352310
v 7.103469 0.622577 7.924073
v 7.103469 11.933004 7.352307
v 7.103469 11.933004 7.924070
v 7.103469 13.050501 7.352307
v 7.103469 13.050501 7.924070
v 1.366581 0.622577 7.924073
v 1.366581 0.622577 7.352310
v 1.366581 11.933004 7.924070
v 1.366581 11.933004 7.352307
v 1.366581 13.050501 7.924070
v 1.366581 13.050501 7.352307
v 3.324563 0.622577 7.352310
v 3.324563 11.933004 7.352307
v 3.324563 13.050501 7.352307
v 3.324563 0.622577 7.924073
v 3.324563 11.933004 7.924070
v 3.324563 13.050501 7.924070
v 4.303554 0.622577 7.352310
v 4.303554 11.933004 7.352307
v 4.303554 13.050501 7.352307
v 4.303554 0.622577 7.924073
v 4.303554 11.933004 7.924070
v 4.303554 13.050501 7.924070
v 2.345572 0.622577 7.924073
v 2.345572 11.933004 7.924070
v 2.345572 13.050501 7.924070
v 2.345572 0.622577 7.352310
v 2.345572 11.933004 7.352307
v 2.345572 13.050501 7.352307
v 6.193007 0.622577 7.924073
v 6.193007 11.933004 7.924070
v 6.193007 13.050501 7.924070
v 6.193007 0.622577 7.352310
v 6.193007 11.933004 7.352307
v 6.193007 13.050501 7.352307
v 7.628626 12.192157 7.924070
v 5.282545 12.192157 7.924070
v -8.117928 12.192157 7.924070
v -8.117928 12.192157 7.352307
v 7.628626 12.192157 7.352307
v 5.282545 12.192157 7.352307
v 7.103469 12.192157 7.352307
v 7.103469 12.192157 7.924070
v 1.366581 12.192157 7.924070
v 1.366581 12.192157 7.352307
v 3.324563 12.192157 7.352307
v 3.324563 12.192157 7.924070
v 4.303554 12.192157 7.352307
v 4.303554 12.192157 7.924070
v 2.345572 12.192157 7.924070
v 2.345572 12.192157 7.352307
v 6.193007 12.192157 7.924070
v 6.193007 12.192157 7.352307
v 4.793050 0.622577 7.352310
v 4.793050 11.933004 7.352307
v 4.793050 13.050501 7.352307
v 4.793050 0.622577 7.924073
v 4.793050 11.933004 7.924070
v 4.793050 13.050501 7.924070
v 4.793050 12.192157 7.352307
v 4.793050 12.192157 7.924070
v 5.737776 0.622577 7.924073
v 5.737776 11.933004 7.924070
v 5.737776 13.050501 7.924070
v 5.737776 0.622577 7.352310
v 5.737776 11.933004 7.352307
v 5.737776 13.050501 7.352307
v 5.737776 12.192157 7.924070
v 5.737776 12.192157 7.352307
v 6.648238 0.622577 7.352310
v 6.648238 11.933004 7.352307
v 6.648238 13.050501 7.352307
v 6.648238 0.622577 7.924073
v 6.648238 11.933004 7.924070
v 6.648238 13.050501 7.924070
v 6.648238 12.192157 7.352307
v 6.648238 12.192157 7.924070
v 3.814059 0.622577 7.924073
v 3.814059 11.933004 7.924070
v 3.814059 13.050501 7.924070
v 3.814059 0.622577 7.352310
v 3.814059 11.933004 7.352307
v 3.814059 13.050501 7.352307
v 3.814059 12.192157 7.924070
v 3.814059 12.192157 7.352307
v 2.835068 0.622577 7.352310
v 2.835068 11.933004 7.352307
v 2.835068 13.050501 7.352307
v 2.835068 0.622577 7.924073
v 2.835068 11.933004 7.924070
v 2.835068 13.050501 7.924070
v 2.835068 12.192157 7.352307
v 2.835068 12.192157 7.924070
v 1.855153 0.622577 7.924073
v 1.855153 11.933004 7.924070
v 1.855153 13.050501 7.924070
v 1.855153 0.622577 7.352310
v 1.855153 11.933004 7.352307
v 1.855153 13.050501 7.352307
v 1.855153 12.192157 7.924070
v 1.855153 12.192157 7.352307
v 6.648238 12.774481 7.352307
v 7.103469 12.774481 7.352307
v 6.193007 12.774481 7.352307
v -5.082756 0.622577 7.924073
v -5.082756 11.933004 7.924070
v -5.082756 13.050501 7.924070
v -5.082756 0.622577 7.352310
v -5.082756 11.933004 7.352307
v -5.082756 13.050501 7.352307
v -5.082756 12.192157 7.924070
v -5.082756 12.192157 7.352307
v 7.628626 10.215686 7.352307
v 7.628626 10.215686 7.924070
v -8.117928 10.215686 7.352307
v 5.282545 10.215686 7.352307
v -8.117928 10.215686 7.924070
v 5.282545 10.215686 7.924070
v 7.103469 10.215686 7.924070
v 7.103469 10.215686 7.352307
v 1.366581 10.215686 7.924070
v 1.366581 10.215686 7.352307
v 3.324563 10.215686 7.352307
v 3.324563 10.215686 7.924070
v 4.303554 10.215686 7.352307
v 4.303554 10.215686 7.924070
v 2.345572 10.215686 7.924070
v 2.345572 10.215686 7.352307
v 6.193007 10.215686 7.924070
v 6.193007 10.215686 7.352307
v 4.793050 10.215686 7.352307
v 4.793050 10.215686 7.924070
v 5.737776 10.215686 7.924070
v 5.737776 10.215686 7.352307
v 6.648238 10.215686 7.352307
v 6.648238 10.215686 7.924070
v 3.814059 10.215686 7.924070
v 3.814059 10.215686 7.352307
v 2.835068 10.215686 7.352307
v 2.835068 10.215686 7.924070
v 1.855153 10.215686 7.924070
v 1.855153 10.215686 7.352307
v -5.082756 10.215686 7.924070
v -5.082756 10.215686 7.352307
v -7.624489 0.622577 7.924073
v -7.624489 11.933004 7.924070
v -7.624489 13.050501 7.924070
v -7.624489 12.192157 7.924070
v -7.624489 0.622577 7.352310
v -7.624489 11.933004 7.352307
v -7.624489 13.050501 7.352307
v -7.624489 12.192157 7.352307
v -7.624489 10.215686 7.924070
v -7.624489 10.215686 7.352307
v -4.592617 0.622577 7.352310
v -4.592617 11.933004 7.352307
v -4.592617 13.050501 7.352307
v -4.592617 12.192157 7.352307
v -4.592617 0.622577 7.924073
v -4.592617 11.933004 7.924070
v -4.592617 13.050501 7.924070
v -4.592617 12.192157 7.924070
v -4.592617 10.215686 7.352307
v -4.592617 10.215686 7.924070
v -8.117928 11.933004 7.352307
v -8.117928 10.215686 7.352307
v -7.624489 11.933004 7.352307
v -5.082756 11.933004 7.352307
v -5.082756 10.215686 7.352307
v -7.624489 10.215686 7.352307
v -8.232313 11.933004 7.352307
v -8.232313 10.215686 7.352307
v 5.493192 1.844692 7.328823
v -2.506808 1.844691 7.328823
v 5.493190 9.844692 7.328821
v -2.506809 9.844690 7.328821
vn -0.0000 -1.0000 -0.0000
vn -1.0000 -0.0000 -0.0000
vn -0.0000 1.0000 -0.0000
vn 1.0000 -0.0000 -0.0000
vn -0.7071 0.7071 -0.0000
vn -0.7071 -0.7071 -0.0000
vn -0.0000 -0.0000 1.0000
vn -0.0000 -0.0000 -1.0000
vn 0.7071 -0.7071 -0.0000
vn 0.7071 0.7071 -0.0000
vn -0.8944 -0.0000 0.4472
vn -0.0000 0.4472 0.8944
vn -0.3176 -0.3128 0.8951
vn -0.0000 0.2319 0.9727
vn 0.0191 -0.2540 0.9670
vn -0.0474 -0.7850 0.6177
vt 0.718504 -0.003113
vt 0.294459 0.277153
vt 0.281496 -0.003113
vt 0.705541 0.277153
vt 0.287465 0.593949
vt 0.712535 0.593949
vt 0.282977 0.927757
vt 0.717023 0.927756
vt 0.303641 1.153682
vt -0.138601 1.048468
vt 0.257224 0.941807
vt 1.157548 1.046471
vt -0.123646 0.703159
vt -0.157548 1.046470
vt -0.140876 0.679474
vt 0.261831 0.623143
vt 0.696359 1.153682
vt 1.140876 0.679474
vt 1.002326 0.998283
vt -0.002326 -0.002781
vt 1.002326 -0.002782
vt -0.002326 0.998283
vt 0.625000 0.740981
vt 0.625000 0.750000
vt 0.625000 0.000000
vt 0.625000 0.009019
vt 0.625000 0.758338
vt 0.625000 0.787248
vt 0.625000 0.795019
vt 0.875000 0.740981
vt 0.867166 0.750000
vt 0.867166 0.740981
vt 0.662248 0.740981
vt 0.655020 0.750000
vt 0.655020 0.740981
vt 0.633338 0.740981
vt 0.625000 0.765565
vt 0.625000 0.849419
vt 0.625000 0.944030
vt 0.724419 0.740981
vt 0.716663 0.750000
vt 0.716662 0.740981
vt 0.625000 0.944031
vt 0.693333 0.740981
vt 0.685562 0.750000
vt 0.685562 0.740981
vt 0.625000 0.818333
vt 0.625000 0.826105
vt 0.677790 0.740981
vt 0.670019 0.750000
vt 0.670019 0.740981
vt 0.625000 0.802790
vt 0.625000 0.810562
vt 0.625000 0.833876
vt 0.625000 0.841663
vt 0.708876 0.740981
vt 0.701105 0.750000
vt 0.701105 0.740981
vt 0.625000 0.772793
vt 0.625000 0.780020
vt 0.647793 0.740981
vt 0.640565 0.740981
vt 0.640565 0.750000
vt 0.662248 0.750000
vt 0.647793 0.750000
vt 0.633338 0.750000
vt 0.677790 0.750000
vt 0.693333 0.750000
vt 0.708876 0.750000
vt 0.625000 0.951812
vt 0.625000 0.992166
vt 0.826812 0.740981
vt 0.819031 0.750000
vt 0.819031 0.740981
vt 0.625000 1.000000
vt 0.826812 0.750000
vt 0.724419 0.750000
vt 0.875000 0.750000
vt 0.716663 0.740981
vt 0.677791 0.740981
vt 1.000000 0.000000
vt 0.000000 1.000000
vt 0.000000 0.000000
vt 1.000000 1.000000
s 1
usemtl Negro
f 2/1/1 10/2/1 9/3/1
f 4/4/2 11/5/2 10/2/2
f 8/6/3 12/7/3 11/5/3
f 6/8/4 9/9/4 12/7/4
f 1/10/5 16/11/6 5/11/6
f 8/6/7 2/12/7 6/8/7
f 3/13/8 9/14/8 10/15/8
f 3/13/8 11/5/8 7/16/8
f 7/16/8 12/7/8 5/11/8
f 5/11/8 9/14/8 1/10/8
f 7/16/9 14/13/10 3/13/10
f 5/11/6 15/16/9 7/16/9
f 3/13/10 13/10/5 1/10/5
f 2/1/1 4/4/1 10/2/1
f 4/4/2 8/6/2 11/5/2
f 8/6/3 6/8/3 12/7/3
f 6/8/4 2/17/4 9/9/4
f 1/10/5 13/10/5 16/11/6
f 8/6/7 4/18/7 2/12/7
f 3/13/8 1/10/8 9/14/8
f 3/13/8 10/15/8 11/5/8
f 7/16/8 11/5/8 12/7/8
f 5/11/8 12/7/8 9/14/8
f 7/16/9 15/16/9 14/13/10
f 5/11/6 16/11/6 15/16/9
f 3/13/10 14/13/10 13/10/5
usemtl Material.002
f 15/19/8 13/20/8 14/21/8
f 15/19/8 16/22/8 13/20/8
usemtl madera
f 148/23/4 24/24/4 149/24/4
f 73/25/2 33/26/2 74/26/2
f 71/24/7 40/27/7 78/27/7
f 152/25/2 27/26/11 150/26/11
f 153/28/7 93/29/7 167/29/7
f 149/24/7 38/27/7 154/27/7
f 33/30/3 182/31/3 186/32/3
f 34/33/3 99/34/3 102/35/3
f 75/23/4 30/24/4 71/24/4
f 72/28/7 94/29/7 96/29/7
f 39/36/3 30/24/3 29/23/3
f 154/27/7 109/37/7 171/37/7
f 155/36/8 23/23/8 148/23/8
f 78/27/7 110/37/7 112/37/7
f 79/38/7 196/39/7 197/39/7
f 46/40/3 131/41/3 134/42/3
f 156/38/7 195/43/7 199/43/7
f 49/44/3 115/45/3 118/46/3
f 82/47/7 126/48/7 128/48/7
f 159/47/7 125/48/7 175/48/7
f 55/49/3 94/50/3 91/51/3
f 84/52/7 115/53/7 119/53/7
f 161/52/7 114/53/7 172/53/7
f 162/54/7 130/55/7 176/55/7
f 85/54/7 131/55/7 135/55/7
f 64/56/3 126/57/3 123/58/3
f 87/59/7 99/60/7 103/60/7
f 164/59/7 98/60/7 168/60/7
f 88/61/8 107/62/8 111/62/8
f 70/61/3 110/63/3 107/62/3
f 165/61/8 106/62/8 170/62/8
f 69/61/8 111/62/8 106/62/8
f 66/59/7 103/60/7 98/60/7
f 60/54/7 135/55/7 130/55/7
f 57/52/7 119/53/7 114/53/7
f 51/47/7 128/48/7 125/48/7
f 43/38/7 197/39/7 195/43/7
f 38/27/7 112/37/7 109/37/7
f 37/36/8 75/23/8 23/23/8
f 25/28/7 96/29/7 93/29/7
f 23/23/4 71/24/4 24/24/4
f 24/24/7 78/27/7 38/27/7
f 26/25/2 74/26/2 27/26/11
f 93/29/7 84/52/7 57/52/7
f 91/51/3 31/64/3 34/33/3
f 96/29/7 58/52/7 84/52/7
f 167/29/7 57/52/7 161/52/7
f 98/60/7 72/28/7 25/28/7
f 168/60/7 25/28/7 153/28/7
f 103/60/7 31/28/7 72/28/7
f 102/35/3 67/65/3 70/61/3
f 109/37/7 87/59/7 66/59/7
f 106/62/8 77/36/8 37/36/8
f 170/62/8 37/36/8 155/36/8
f 107/62/3 40/66/3 39/36/3
f 112/37/7 67/59/7 87/59/7
f 171/37/7 66/59/7 164/59/7
f 114/53/7 82/47/7 51/47/7
f 172/53/7 51/47/7 159/47/7
f 119/53/7 52/47/7 82/47/7
f 118/46/3 58/67/3 55/49/3
f 125/48/7 85/54/7 60/54/7
f 123/58/3 52/68/3 49/44/3
f 175/48/7 60/54/7 162/54/7
f 128/48/7 61/54/7 85/54/7
f 130/55/7 79/38/7 43/38/7
f 135/55/7 45/38/7 79/38/7
f 176/55/7 43/38/7 156/38/7
f 134/42/3 61/69/3 64/56/3
f 35/36/7 137/62/7 105/62/7
f 105/62/7 139/61/7 68/61/7
f 141/70/7 183/71/7 181/71/7
f 178/70/7 181/71/7 188/71/7
f 146/70/7 182/71/7 183/71/7
f 145/72/3 196/73/3 192/74/3
f 140/70/7 188/71/7 180/71/7
f 129/55/7 156/38/7 41/38/7
f 124/48/7 162/54/7 59/54/7
f 113/53/7 159/47/7 50/47/7
f 108/37/7 164/59/7 65/59/7
f 105/62/8 155/36/8 35/36/8
f 97/60/7 153/28/7 21/28/7
f 92/29/7 161/52/7 56/52/7
f 68/61/8 170/62/8 105/62/8
f 65/59/7 168/60/7 97/60/7
f 59/54/7 176/55/7 129/55/7
f 56/52/7 172/53/7 113/53/7
f 50/47/7 175/48/7 124/48/7
f 41/38/7 199/43/7 194/43/7
f 35/36/8 148/23/8 20/23/8
f 36/27/7 171/37/7 108/37/7
f 18/24/7 154/27/7 36/27/7
f 21/28/7 167/29/7 92/29/7
f 17/25/2 150/26/11 19/26/2
f 20/23/4 149/24/4 18/24/4
s 0
f 189/32/7 201/30/7 205/32/7
f 144/72/7 204/72/7 203/72/7
f 27/30/7 202/32/7 200/30/7
f 185/32/7 203/72/7 202/32/7
f 150/26/11 200/26/12 201/26/7
f 179/72/7 205/32/7 204/72/7
s 1
f 180/71/7 152/75/7 17/75/7
f 183/71/7 32/75/7 73/75/7
f 188/71/7 26/75/7 152/75/7
f 181/71/7 73/75/7 26/75/7
f 186/32/3 142/76/3 145/72/3
f 194/43/7 178/70/7 140/70/7
f 192/74/3 45/77/3 46/40/3
f 195/43/7 146/70/7 141/70/7
f 199/43/7 141/70/7 178/70/7
f 197/39/7 142/70/7 146/70/7
f 200/26/12 207/26/13 201/26/14
f 148/23/4 23/23/4 24/24/4
f 73/25/2 32/25/2 33/26/2
f 71/24/7 30/24/7 40/27/7
f 152/25/2 26/25/2 27/26/11
f 153/28/7 25/28/7 93/29/7
f 149/24/7 24/24/7 38/27/7
f 33/30/3 32/78/3 182/31/3
f 34/33/3 31/64/3 99/34/3
f 75/23/4 29/23/4 30/24/4
f 72/28/7 31/28/7 94/29/7
f 39/36/3 40/66/3 30/24/3
f 154/27/7 38/27/7 109/37/7
f 155/36/8 37/36/8 23/23/8
f 78/27/7 40/27/7 110/37/7
f 79/38/7 45/38/7 196/39/7
f 46/40/3 45/77/3 131/41/3
f 156/38/7 43/38/7 195/43/7
f 49/44/3 52/68/3 115/45/3
f 82/47/7 52/47/7 126/48/7
f 159/47/7 51/47/7 125/48/7
f 55/49/3 58/67/3 94/50/3
f 84/52/7 58/52/7 115/53/7
f 161/52/7 57/52/7 114/53/7
f 162/54/7 60/54/7 130/55/7
f 85/54/7 61/54/7 131/55/7
f 64/56/3 61/69/3 126/57/3
f 87/59/7 67/59/7 99/60/7
f 164/59/7 66/59/7 98/60/7
f 88/61/8 70/61/8 107/62/8
f 70/61/3 67/65/3 110/63/3
f 165/61/8 69/61/8 106/62/8
f 69/61/8 88/61/8 111/62/8
f 66/59/7 87/59/7 103/60/7
f 60/54/7 85/54/7 135/55/7
f 57/52/7 84/52/7 119/53/7
f 51/47/7 82/47/7 128/48/7
f 43/38/7 79/38/7 197/39/7
f 38/27/7 78/27/7 112/37/7
f 37/36/8 77/36/8 75/23/8
f 25/28/7 72/28/7 96/29/7
f 23/23/4 75/23/4 71/24/4
f 24/24/7 71/24/7 78/27/7
f 26/25/2 73/25/2 74/26/2
f 93/29/7 96/29/7 84/52/7
f 91/51/3 94/50/3 31/64/3
f 96/29/7 94/29/7 58/52/7
f 167/29/7 93/29/7 57/52/7
f 98/60/7 103/60/7 72/28/7
f 168/60/7 98/60/7 25/28/7
f 103/60/7 99/60/7 31/28/7
f 102/35/3 99/34/3 67/65/3
f 109/37/7 112/37/7 87/59/7
f 106/62/8 111/62/8 77/36/8
f 170/62/8 106/62/8 37/36/8
f 107/62/3 110/63/3 40/66/3
f 112/37/7 110/37/7 67/59/7
f 171/37/7 109/37/7 66/59/7
f 114/53/7 119/53/7 82/47/7
f 172/53/7 114/53/7 51/47/7
f 119/53/7 115/53/7 52/47/7
f 118/46/3 115/45/3 58/67/3
f 125/48/7 128/48/7 85/54/7
f 123/58/3 126/57/3 52/68/3
f 175/48/7 125/48/7 60/54/7
f 128/48/7 126/48/7 61/54/7
f 130/55/7 135/55/7 79/38/7
f 135/55/7 131/55/7 45/38/7
f 176/55/7 130/55/7 43/38/7
f 134/42/3 131/41/3 61/69/3
f 35/36/7 138/36/7 137/62/7
f 105/62/7 137/62/7 139/61/7
f 141/70/7 146/70/7 183/71/7
f 178/70/7 141/70/7 181/71/7
f 146/70/7 142/70/7 182/71/7
f 145/72/3 142/76/3 196/73/3
f 140/70/7 178/70/7 188/71/7
f 129/55/7 176/55/7 156/38/7
f 124/48/7 175/48/7 162/54/7
f 113/53/7 172/53/7 159/47/7
f 108/37/7 171/37/7 164/59/7
f 105/62/8 170/62/8 155/36/8
f 97/60/7 168/60/7 153/28/7
f 92/29/7 167/29/7 161/52/7
f 68/61/8 165/61/8 170/62/8
f 65/59/7 164/59/7 168/60/7
f 59/54/7 162/54/7 176/55/7
f 56/52/7 161/52/7 172/53/7
f 50/47/7 159/47/7 175/48/7
f 41/38/7 156/38/7 199/43/7
f 35/36/8 155/36/8 148/23/8
f 36/27/7 154/27/7 171/37/7
f 18/24/7 149/24/7 154/27/7
f 21/28/7 153/28/7 167/29/7
f 17/25/2 152/25/2 150/26/11
f 20/23/4 148/23/4 149/24/4
s 0
f 189/32/7 150/30/7 201/30/7
f 144/72/7 179/72/7 204/72/7
f 27/30/7 185/32/7 202/32/7
f 185/32/7 144/72/7 203/72/7
f 150/26/11 27/26/7 200/26/12
f 179/72/7 189/32/7 205/32/7
s 1
f 180/71/7 188/71/7 152/75/7
f 183/71/7 182/71/7 32/75/7
f 188/71/7 181/71/7 26/75/7
f 181/71/7 183/71/7 73/75/7
f 186/32/3 182/31/3 142/76/3
f 194/43/7 199/43/7 178/70/7
f 192/74/3 196/73/3 45/77/3
f 195/43/7 197/39/7 146/70/7
f 199/43/7 195/43/7 141/70/7
f 197/39/7 196/39/7 142/70/7
f 200/26/15 206/26/7 207/26/16
usemtl fondo
f 151/33/8 101/35/8 169/35/8
f 74/30/8 186/32/8 187/32/8
f 76/33/8 102/35/8 104/35/8
f 80/40/8 134/42/8 136/42/8
f 157/40/8 133/79/8 177/79/8
f 158/44/8 117/46/8 173/46/8
f 81/44/8 118/46/8 120/46/8
f 83/80/8 91/51/8 95/51/8
f 160/80/8 90/51/8 166/51/8
f 163/56/8 122/58/8 174/58/8
f 86/56/8 123/58/8 127/58/8
f 63/56/8 127/58/8 122/58/8
f 54/49/8 95/51/8 90/51/8
f 48/44/8 120/46/8 117/46/8
f 44/40/8 136/42/8 133/79/8
f 28/33/8 104/35/8 101/35/8
f 27/30/8 187/32/8 185/32/8
f 90/51/8 76/33/8 28/33/8
f 166/51/8 28/33/8 151/33/8
f 101/35/8 88/61/8 69/61/8
f 169/35/8 69/61/8 165/61/8
f 117/46/8 83/80/8 54/49/8
f 173/46/8 54/49/8 160/80/8
f 122/58/8 81/44/8 48/44/8
f 174/58/8 48/44/8 158/44/8
f 133/79/8 86/56/8 63/56/8
f 177/79/8 63/56/8 163/56/8
f 144/72/8 193/74/8 191/74/8
f 147/72/8 192/74/8 193/74/8
f 179/72/8 191/74/8 198/74/8
f 143/72/8 198/74/8 190/74/8
f 132/79/8 163/56/8 62/56/8
f 121/58/8 158/44/8 47/44/8
f 116/46/8 160/80/8 53/49/8
f 100/35/8 165/61/8 68/61/8
f 89/51/8 151/33/8 22/33/8
f 62/56/8 174/58/8 121/58/8
f 53/49/8 166/51/8 89/51/8
f 47/44/8 173/46/8 116/46/8
f 42/40/8 177/79/8 132/79/8
f 22/33/8 169/35/8 100/35/8
f 19/30/8 189/32/8 184/32/8
f 184/32/8 179/72/8 143/72/8
f 185/32/8 147/72/8 144/72/8
f 187/32/8 145/72/8 147/72/8
f 190/74/8 157/40/8 42/40/8
f 198/74/8 44/40/8 157/40/8
f 193/74/8 46/40/8 80/40/8
f 191/74/8 80/40/8 44/40/8
f 151/33/8 28/33/8 101/35/8
f 74/30/8 33/30/8 186/32/8
f 76/33/8 34/33/8 102/35/8
f 80/40/8 46/40/8 134/42/8
f 157/40/8 44/40/8 133/79/8
f 158/44/8 48/44/8 117/46/8
f 81/44/8 49/44/8 118/46/8
f 83/80/8 55/49/8 91/51/8
f 160/80/8 54/49/8 90/51/8
f 163/56/8 63/56/8 122/58/8
f 86/56/8 64/56/8 123/58/8
f 63/56/8 86/56/8 127/58/8
f 54/49/8 83/80/8 95/51/8
f 48/44/8 81/44/8 120/46/8
f 44/40/8 80/40/8 136/42/8
f 28/33/8 76/33/8 104/35/8
f 27/30/8 74/30/8 187/32/8
f 90/51/8 95/51/8 76/33/8
f 166/51/8 90/51/8 28/33/8
f 101/35/8 104/35/8 88/61/8
f 169/35/8 101/35/8 69/61/8
f 117/46/8 120/46/8 83/80/8
f 173/46/8 117/46/8 54/49/8
f 122/58/8 127/58/8 81/44/8
f 174/58/8 122/58/8 48/44/8
f 133/79/8 136/42/8 86/56/8
f 177/79/8 133/79/8 63/56/8
f 144/72/8 147/72/8 193/74/8
f 147/72/8 145/72/8 192/74/8
f 179/72/8 144/72/8 191/74/8
f 143/72/8 179/72/8 198/74/8
f 132/79/8 177/79/8 163/56/8
f 121/58/8 174/58/8 158/44/8
f 116/46/8 173/46/8 160/80/8
f 100/35/8 169/35/8 165/61/8
f 89/51/8 166/51/8 151/33/8
f 62/56/8 163/56/8 174/58/8
f 53/49/8 160/80/8 166/51/8
f 47/44/8 158/44/8 173/46/8
f 42/40/8 157/40/8 177/79/8
f 22/33/8 151/33/8 169/35/8
f 19/30/8 150/30/8 189/32/8
f 184/32/8 189/32/8 179/72/8
f 185/32/8 187/32/8 147/72/8
f 187/32/8 186/32/8 145/72/8
f 190/74/8 198/74/8 157/40/8
f 198/74/8 191/74/8 44/40/8
f 193/74/8 192/74/8 46/40/8
f 191/74/8 193/74/8 80/40/8
usemtl Material.001
f 209/81/8 210/82/8 208/83/8
f 209/81/8 211/84/8 210/82/8
