# Blender 5.0.1
# www.blender.org
mtllib ParedTechoS4.mtl
o ParedTechoS4
v 7.628626 0.622574 -3.159556
v 5.282545 0.622574 -3.159556
v 7.628626 0.622574 -3.946644
v 5.282545 0.622574 -3.946644
v 7.628626 13.050501 7.352307
v 5.282545 13.050501 7.352307
v 7.103469 0.622577 7.352310
v 7.103469 0.622574 1.943540
v 7.103469 0.622574 -3.159556
v 7.103469 0.622574 -3.946644
v 7.103469 13.050501 7.352307
v 3.324563 0.622574 -3.159556
v 3.324563 0.622574 -3.946644
v 3.324563 13.050501 7.352307
v 4.303554 0.622574 -3.159556
v 4.303554 0.622574 -3.946644
v 4.303554 13.050501 7.352307
v 2.345572 0.622574 -3.159556
v 2.345572 0.622574 -3.946644
v 2.345572 13.050501 7.352307
v 6.193007 0.622577 7.352310
v 6.193007 0.622574 1.943540
v 6.193007 0.622574 -3.159556
v 6.193007 0.622574 -3.946644
v 6.193007 13.050501 7.352307
v 7.628626 12.192157 7.352307
v 5.282545 12.192157 7.352307
v 7.103469 12.192157 7.352307
v 3.324563 12.192157 7.352307
v 4.303554 12.192157 7.352307
v 2.345572 12.192157 7.352307
v 6.193007 12.192157 7.352307
v 4.793050 0.622574 -3.159556
v 4.793050 0.622574 -3.946644
v 4.793050 13.050501 7.352307
v 4.793050 12.192157 7.352307
v 5.737776 0.622574 -3.159556
v 5.737776 0.622574 -3.946644
v 5.737776 13.050501 7.352307
v 5.737776 12.192157 7.352307
v 6.648238 0.622574 1.943540
v 3.814059 0.622574 -3.159556
v 3.814059 0.622574 -3.946644
v 3.814059 13.050501 7.352307
v 3.814059 12.192157 7.352307
v 2.835068 0.622574 -3.159556
v 2.835068 0.622574 -3.946644
v 2.835068 13.050501 7.352307
v 2.835068 12.192157 7.352307
v 1.855153 0.622574 -3.159556
v 1.855153 0.622574 -3.946644
v 1.855153 13.050501 7.352307
v 1.855153 12.192157 7.352307
v 1.855153 13.050498 -4.025850
v 2.345572 13.050498 -4.025850
v 2.345572 12.192154 -4.025850
v 1.855153 12.192154 -4.025850
v 2.835068 13.050498 -3.991987
v 3.324563 13.050498 -3.991987
v 3.324563 12.192154 -3.991987
v 2.835068 12.192154 -3.991987
v 3.814059 13.050498 -3.991987
v 4.303554 13.050498 -3.991987
v 4.303554 12.192154 -3.991987
v 3.814059 12.192154 -3.991987
v 4.793050 13.050498 -3.924260
v 5.282545 13.050498 -3.924260
v 5.282545 12.192154 -3.924260
v 4.793050 12.192154 -3.924260
v 5.737776 13.050498 -3.958123
v 6.193007 13.050498 -3.958123
v 6.193007 12.192154 -3.958123
v 5.737776 12.192154 -3.958123
v 7.103469 12.930841 -3.159559
v 7.103469 12.930841 -3.946647
v 5.737776 12.919103 -3.159559
v 6.193007 12.919103 -3.159559
v 5.737776 12.919103 -3.946647
v 6.193007 12.919103 -3.946647
v 5.282545 12.909640 -3.946647
v 5.282545 12.909640 -3.159559
v 4.793050 12.909640 -3.159559
v 4.793050 12.909640 -3.946647
v 3.814059 12.925098 -3.159559
v 4.303554 12.925098 -3.159559
v 3.814059 12.925098 -3.946647
v 4.303554 12.925098 -3.946647
v 2.835068 12.921571 -3.159559
v 3.324563 12.921571 -3.159559
v 2.835068 12.921571 -3.946647
v 3.324563 12.921571 -3.946647
v 1.855153 12.982232 -3.159559
v 2.345572 12.982232 -3.159559
v 1.855153 12.982232 -3.946647
v 2.345572 12.982232 -3.946647
v 7.103469 0.622574 4.615708
v 6.193007 0.622574 4.615708
v 6.648238 0.622574 4.615708
v 6.648238 12.774481 7.352307
v 7.103469 12.774481 7.352307
v 7.103469 12.774478 4.615705
v 6.193007 12.774478 4.615705
v 6.193007 12.774481 7.352307
v 6.648238 12.774478 4.615705
v 7.103469 0.622574 3.305822
v 6.193007 0.622574 3.305822
v 6.648238 0.622574 3.305822
v 7.103469 0.622574 3.960765
v 6.193007 0.622574 3.960765
v 6.648238 0.622574 3.960765
v 7.103469 0.622574 2.624681
v 6.193007 0.622574 2.624681
v 6.648238 0.622574 2.624681
v 7.103469 0.622574 1.354645
v 6.193007 0.622574 1.354645
v 6.648238 0.622574 1.354645
v 7.103469 0.622574 3.633294
v 6.193007 0.622574 3.633294
v 6.648238 0.622574 3.633294
v 7.103469 0.622574 4.288237
v 6.193007 0.622574 4.288237
v 6.648238 0.622574 4.288237
v 7.103469 0.622574 2.965252
v 6.193007 0.622574 2.965252
v 6.648238 0.622574 2.965252
v 7.103469 0.622574 2.284111
v 6.193007 0.622574 2.284111
v 6.648238 0.622574 2.284111
v 6.193007 12.245790 3.960762
v 6.648238 12.245790 3.960762
v 7.103469 12.245790 3.960762
v 7.103469 12.245790 4.288234
v 6.193007 12.245790 4.288234
v 6.648238 12.245790 4.288234
v 6.193007 12.271459 3.305819
v 6.648238 12.271459 3.305819
v 7.103469 12.271459 3.305819
v 7.103469 12.271459 3.633291
v 6.193007 12.271459 3.633291
v 6.648238 12.271459 3.633291
v 6.648238 12.273435 2.624678
v 7.103469 12.273435 2.624678
v 6.193007 12.273435 2.624678
v 7.103469 12.273435 2.965249
v 6.193007 12.273435 2.965249
v 6.648238 12.273435 2.965249
v 6.648238 12.268388 1.943537
v 7.103469 12.268388 1.943537
v 6.193007 12.268388 1.943537
v 7.103469 12.268388 2.284108
v 6.193007 12.268388 2.284108
v 6.648238 12.268388 2.284108
v 7.103469 0.622574 0.680194
v 6.193007 0.622574 0.680194
v 6.648238 0.622574 0.680194
v 7.103469 0.622574 -0.094464
v 6.193007 0.622574 -0.094464
v 6.648238 0.622574 -0.094464
v 7.103469 0.622574 -0.787565
v 6.193007 0.622574 -0.787565
v 6.648238 0.622574 -0.787565
v 7.103469 0.622574 -1.585831
v 6.193007 0.622574 -1.585831
v 6.648238 0.622574 -1.585831
v 7.103469 0.622574 -2.372694
v 6.193007 0.622574 -2.372694
v 6.648238 0.622574 -2.372694
v 7.103469 1.068925 0.680194
v 7.103469 1.068925 1.354645
v 6.193007 1.068925 0.680194
v 6.193007 1.068925 1.354645
v 6.648238 1.068925 0.680194
v 6.648238 1.068925 1.354645
v 7.103469 1.077857 -0.787565
v 7.103469 1.077857 -0.094464
v 6.193007 1.077857 -0.787565
v 6.193007 1.077857 -0.094464
v 6.648238 1.077857 -0.787565
v 6.648238 1.077857 -0.094464
v 7.103469 1.167014 -2.372694
v 7.103469 1.167014 -1.585831
v 6.193007 1.167014 -2.372694
v 6.193007 1.167014 -1.585831
v 6.648238 1.167014 -2.372694
v 6.648238 1.167014 -1.585831
v 7.103469 13.050498 -3.898226
v 7.628626 13.050498 -3.898226
v 7.628626 12.192154 -3.898226
v 7.103469 12.192154 -3.898226
v 7.628626 13.026169 -3.946647
v 7.628626 13.026169 -3.159559
v 7.103469 13.026169 -3.159559
v 7.103469 13.026169 -3.946647
v 5.086386 10.215683 -3.912029
v 5.086386 11.933001 -3.912029
v 2.401317 11.933001 -3.912029
v 2.401317 10.215683 -3.912029
v 2.401317 11.933001 -3.912029
v 2.401317 10.215683 -3.912029
v 5.086386 11.933001 -3.912029
v 5.086386 10.215683 -3.912029
vn -0.0000 1.0000 -0.0000
vn -0.0000 -0.0000 -1.0000
vn -0.0000 -0.0000 1.0000
vn -0.0000 -1.0000 -0.0000
vn -1.0000 -0.0000 -0.0000
vn 1.0000 -0.0000 -0.0000
vt 0.485926 0.248844
vt 0.956271 0.270799
vt 0.485926 0.270798
vt 0.000000 0.956519
vt 0.518551 0.978474
vt 0.000000 0.978474
vt 0.640565 0.697811
vt 0.633338 0.697811
vt 0.662248 0.575159
vt 0.670019 0.575159
vt 0.486999 0.076126
vt 0.958432 0.096591
vt 0.486999 0.096591
vt 0.655020 0.740981
vt 0.647793 0.740981
vt 0.647793 0.575159
vt 0.655020 0.575159
vt 0.647793 0.697811
vt 0.486870 0.193220
vt 0.961135 0.213684
vt 0.486870 0.213684
vt 0.000000 0.756108
vt 0.514325 0.789013
vt 0.000000 0.789013
vt 0.000000 0.442085
vt 0.474265 0.477970
vt 0.000000 0.477970
vt 0.693334 0.575159
vt 0.701105 0.575159
vt 0.516714 0.618528
vt 0.000000 0.585623
vt 0.516714 0.585623
vt 0.486870 0.152253
vt 0.962551 0.172756
vt 0.486870 0.172756
vt 0.487081 0.041071
vt 0.522966 0.061574
vt 0.487081 0.061574
vt 0.716662 0.740981
vt 0.708876 0.740981
vt -0.000000 0.304506
vt 0.475681 0.340390
vt -0.000000 0.340390
vt 0.475681 0.376275
vt -0.000000 0.376275
vt 0.518550 0.396739
vt 0.554435 0.417203
vt 0.518550 0.417203
vt 0.961135 0.193220
vt 0.701105 0.740981
vt 0.693333 0.740981
vt 0.474265 0.513854
vt 0.000000 0.513854
vt 0.554435 0.437667
vt 0.518550 0.437667
vt 0.474265 0.549739
vt -0.000000 0.549738
vt -0.000000 0.549739
vt 0.474265 0.585623
vt 0.685562 0.740981
vt 0.677791 0.740981
vt 0.518550 0.376275
vt 0.554435 0.396739
vt -0.000000 0.887729
vt 0.471433 0.923614
vt -0.000000 0.923614
vt 0.471433 0.887729
vt 0.942867 0.923614
vt 0.670019 0.740981
vt 0.662248 0.740981
vt 0.522966 0.041071
vt 0.558850 0.060103
vt 0.522966 0.060103
vt 0.959848 0.115622
vt 0.486999 0.115622
vt 0.000000 0.651434
vt 0.472849 0.687318
vt 0.000000 0.687318
vt 0.472849 0.723202
vt 0.000000 0.723202
vt 0.514565 0.756108
vt 0.514565 0.723202
vt 0.655020 0.562743
vt 0.647793 0.562743
vt 0.514074 0.956519
vt 0.514074 0.923614
vt 0.472849 0.651434
vt 0.986924 0.684339
vt 0.472849 0.684339
vt 0.485926 0.270799
vt 1.000000 0.289830
vt 0.485926 0.289830
vt 0.670019 0.562743
vt 0.662248 0.562743
vt 0.485926 0.228379
vt 0.999604 0.248844
vt 0.485926 0.248843
vt 0.986528 0.720223
vt 0.986528 0.687318
vt 0.474265 0.442085
vt 0.987944 0.474991
vt 0.474265 0.474991
vt 0.685562 0.562743
vt 0.677791 0.575159
vt 0.677791 0.562743
vt 0.475681 0.325009
vt 0.990006 0.345473
vt 0.475681 0.345473
vt 0.514325 0.821918
vt 0.990006 0.365937
vt 0.475681 0.365937
vt 0.701105 0.562743
vt 0.693334 0.562743
vt 0.514178 0.854824
vt 0.000000 0.821918
vt 0.514178 0.821918
vt 0.514178 0.998938
vt -0.000000 0.998938
vt 0.000000 0.854824
vt 0.514178 0.887729
vt 0.716663 0.562743
vt 0.708876 0.575159
vt 0.708876 0.562743
vt 0.000000 0.618528
vt 0.516714 0.651434
vt 0.475681 0.304506
vt 0.992394 0.325009
vt 0.716663 0.575159
vt 0.640565 0.740981
vt 0.633338 0.740981
vt 0.640565 0.635730
vt 0.633338 0.635730
vt -0.000000 0.095158
vt 0.486999 0.114190
vt -0.000000 0.114190
vt -0.000000 0.133221
vt 0.486999 0.152253
vt -0.000000 0.152253
vt 0.973007 0.027381
vt 0.487081 0.013690
vt 0.973007 0.013690
vt -0.000000 0.228379
vt 0.485926 0.247411
vt -0.000000 0.247411
vt -0.000000 0.019032
vt 0.487081 0.038063
vt -0.000000 0.038063
vt -0.000000 0.057095
vt 0.487081 0.076126
vt -0.000000 0.076126
vt 0.973741 0.227922
vt 0.973741 0.213684
vt 0.486870 0.171285
vt -0.000000 0.171285
vt 0.554435 0.389965
vt 0.573466 0.376275
vt 0.573466 0.389965
vt 0.592498 0.376275
vt 0.592498 0.389965
vt 0.487081 0.027381
vt 0.973007 0.041071
vt -0.000000 0.266443
vt 0.485926 0.285474
vt -0.000000 0.285474
vt 0.485926 0.266443
vt 0.485926 0.304506
vt 0.573466 0.403656
vt 0.592498 0.403656
vt 0.554435 0.403656
vt 0.973997 0.143551
vt 0.486999 0.129860
vt 0.973997 0.129860
vt 0.487081 0.000000
vt 0.974080 0.013690
vt 0.486999 0.133221
vt 0.486999 0.095158
vt 0.544176 0.075812
vt 0.563208 0.061574
vt 0.563208 0.075812
vt 0.525145 0.075812
vt 0.544176 0.061574
vt 0.961346 0.582953
vt 0.474265 0.568714
vt 0.961346 0.568714
vt 0.973007 0.304068
vt 0.485926 0.304068
vt -0.000000 0.000000
vt 0.487081 0.019032
vt 0.487081 0.057095
vt 0.487081 0.075812
vt 0.506113 0.061574
vt 0.506113 0.075812
vt 0.525145 0.061574
vt 0.973869 0.129860
vt 0.486870 0.190316
vt -0.000000 0.190316
vt -0.000000 0.209348
vt 0.486870 0.228379
vt 0.486870 0.209348
vt 0.647793 0.623510
vt 0.647793 0.612576
vt 0.640565 0.612576
vt 0.633338 0.612576
vt 0.647793 0.587571
vt 0.640565 0.587571
vt 0.640565 0.599984
vt 0.647793 0.599984
vt 0.633338 0.646369
vt 0.647793 0.635730
vt 0.640565 0.646369
vt 0.647793 0.646369
vt 0.633338 0.623510
vt 0.640565 0.623510
vt 0.633338 0.599984
vt 0.633338 0.587571
vt 0.625000 0.740981
vt 0.944610 0.510875
vt 0.474265 0.510875
vt 0.944610 0.546760
vt 0.474265 0.546759
vt 0.633338 0.562743
vt 0.625000 0.575159
vt 0.625000 0.562743
vt 0.518550 0.409180
vt 0.000000 0.409180
vt 0.518550 0.442085
vt 0.474265 0.546760
vt 0.992815 0.568715
vt 0.826812 0.740981
vt 0.956271 0.248844
vt 0.518551 0.956519
vt 0.958432 0.076127
vt 0.514325 0.756108
vt 0.962551 0.152253
vt 0.961135 0.172756
vt 0.554435 0.376275
vt 0.942867 0.887729
vt 0.558850 0.041071
vt 0.959848 0.096591
vt 0.986924 0.651434
vt 1.000000 0.270799
vt 0.999604 0.228379
vt 0.472849 0.720223
vt 0.987944 0.442085
vt 0.685562 0.575159
vt 0.990006 0.325009
vt 0.514178 0.978474
vt 0.992394 0.304506
vt 0.486870 0.227922
vt 0.486999 0.143551
vt 0.974080 0.000000
vt 0.486999 0.076127
vt 0.474265 0.582953
vt 0.973007 0.289830
vt 0.973869 0.115622
vt 0.944610 0.474991
vt 0.633338 0.575159
vt 0.992815 0.546760
vt 0.266165 0.998487
vt 0.308997 0.970141
vt 0.308997 0.998487
vt 0.266165 0.970141
s 1
usemtl madera
f 5/1/1 186/2/1 11/3/1
f 10/4/2 190/5/2 3/6/2
f 98/7/2 101/8/2 96/8/2
f 2/9/3 82/10/3 33/10/3
f 6/11/1 66/12/1 35/13/1
f 40/14/4 72/15/4 32/15/4
f 23/16/3 76/17/3 37/17/3
f 21/15/5 102/18/5 97/18/5
f 17/19/1 62/20/1 44/21/1
f 42/22/5 86/23/5 43/24/5
f 48/25/5 61/26/5 49/27/5
f 12/28/3 88/29/3 46/29/3
f 19/30/6 93/31/6 18/32/6
f 20/33/1 54/34/1 52/35/1
f 57/36/2 55/37/2 56/38/2
f 53/39/4 56/40/4 31/40/4
f 31/41/6 55/42/6 20/43/6
f 52/43/5 57/44/5 53/45/5
f 61/46/2 59/47/2 60/48/2
f 14/35/1 58/49/1 48/19/1
f 49/50/4 60/51/4 29/51/4
f 29/27/6 59/52/6 14/53/6
f 65/48/2 63/54/2 64/55/2
f 30/53/6 63/56/6 17/57/6
f 44/58/5 65/59/5 45/31/5
f 45/60/4 64/61/4 30/61/4
f 69/62/2 67/63/2 68/46/2
f 35/64/5 69/65/5 36/66/5
f 27/67/6 67/68/6 6/65/6
f 36/69/4 68/70/4 27/70/4
f 73/71/2 71/72/2 72/73/2
f 25/13/1 70/74/1 39/75/1
f 32/76/6 71/77/6 25/78/6
f 39/78/5 73/79/5 40/80/5
f 10/81/6 74/80/6 9/82/6
f 78/83/1 77/16/1 79/84/1
f 24/85/6 77/66/6 23/86/6
f 37/87/5 78/88/5 38/89/5
f 38/90/2 79/91/2 24/92/2
f 83/93/1 81/9/1 80/94/1
f 34/95/2 80/96/2 4/97/2
f 4/98/6 81/77/6 2/99/6
f 33/100/5 83/101/5 34/102/5
f 86/103/1 85/104/1 87/105/1
f 43/106/2 87/107/2 16/108/2
f 16/109/6 85/24/6 15/23/6
f 15/108/3 84/110/3 42/111/3
f 90/112/1 89/28/1 91/113/1
f 13/114/6 89/115/6 12/116/6
f 47/6/2 91/117/2 13/118/2
f 46/119/5 90/120/5 47/64/5
f 94/121/1 93/122/1 95/123/1
f 50/124/5 94/125/5 51/76/5
f 51/126/2 95/127/2 19/106/2
f 18/122/3 92/128/3 50/128/3
f 102/18/1 99/129/1 104/7/1
f 104/7/1 100/130/1 101/8/1
f 97/18/2 104/7/2 98/7/2
f 96/8/6 100/130/6 7/130/6
f 155/131/2 168/132/2 153/132/2
f 107/133/2 137/134/2 105/135/2
f 119/136/3 139/137/3 118/138/3
f 108/139/6 132/140/6 120/141/6
f 120/142/3 134/143/3 122/144/3
f 113/145/2 142/146/2 111/147/2
f 125/148/3 145/149/3 124/150/3
f 8/151/6 150/21/6 126/152/6
f 126/138/3 152/153/3 128/154/3
f 129/155/1 134/156/1 130/157/1
f 130/157/1 132/158/1 131/159/1
f 121/160/5 129/161/5 109/36/5
f 109/162/2 130/163/2 110/164/2
f 122/144/3 133/165/3 121/162/3
f 110/164/2 131/166/2 108/41/2
f 136/167/1 138/159/1 137/168/1
f 135/169/1 140/157/1 136/167/1
f 105/170/6 138/171/6 117/172/6
f 118/173/5 135/174/5 106/140/5
f 117/135/3 140/175/3 119/136/3
f 106/150/2 136/176/2 107/133/2
f 141/177/1 144/178/1 142/179/1
f 143/180/1 146/181/1 141/177/1
f 111/182/6 144/183/6 123/184/6
f 124/92/5 143/185/5 112/186/5
f 112/187/2 141/188/2 113/145/2
f 123/147/3 146/189/3 125/148/3
f 149/190/1 152/191/1 147/192/1
f 147/192/1 150/193/1 148/180/1
f 127/75/5 149/194/5 22/171/5
f 128/154/3 151/195/3 127/196/3
f 41/197/2 148/198/2 8/142/2
f 22/196/2 147/199/2 41/197/2
f 157/200/5 176/201/5 160/201/5
f 161/202/2 174/203/2 159/203/2
f 166/204/2 184/205/2 167/205/2
f 164/206/3 183/207/3 163/207/3
f 172/131/1 169/208/1 168/132/1
f 170/209/1 173/210/1 172/131/1
f 114/208/3 173/210/3 116/210/3
f 116/210/3 171/211/3 115/211/3
f 153/132/6 169/208/6 114/208/6
f 154/209/2 172/131/2 155/131/2
f 178/202/1 175/212/1 174/203/1
f 176/201/1 179/213/1 178/202/1
f 156/212/3 179/213/3 158/213/3
f 158/213/3 177/200/3 157/200/3
f 160/201/2 178/202/2 161/202/2
f 159/203/6 175/212/6 156/212/6
f 184/205/1 181/214/1 180/215/1
f 182/204/1 185/206/1 184/205/1
f 165/215/6 181/214/6 162/214/6
f 167/205/2 180/215/2 165/215/2
f 163/207/5 182/204/5 166/204/5
f 162/214/3 185/206/3 164/206/3
f 189/130/2 187/216/2 188/216/2
f 26/102/6 187/217/6 5/218/6
f 11/218/5 189/219/5 28/220/5
f 28/130/4 188/216/4 26/216/4
f 193/221/1 191/222/1 190/223/1
f 9/45/5 193/224/5 10/225/5
f 3/226/6 191/225/6 1/224/6
f 1/227/3 192/228/3 9/183/3
s 0
f 196/229/3 200/229/3 198/229/3
f 194/229/3 199/229/3 201/229/3
f 197/229/3 198/229/3 199/229/3
s 1
f 197/229/3 195/229/3 196/229/3
f 5/1/1 187/230/1 186/2/1
f 10/4/2 193/231/2 190/5/2
f 98/7/2 104/7/2 101/8/2
f 2/9/3 81/9/3 82/10/3
f 6/11/1 67/232/1 66/12/1
f 40/14/4 73/14/4 72/15/4
f 23/16/3 77/16/3 76/17/3
f 21/15/5 103/15/5 102/18/5
f 17/19/1 63/49/1 62/20/1
f 42/22/5 84/233/5 86/23/5
f 48/25/5 58/100/5 61/26/5
f 12/28/3 89/28/3 88/29/3
f 19/30/6 95/124/6 93/31/6
f 20/33/1 55/234/1 54/34/1
f 57/36/2 54/71/2 55/37/2
f 53/39/4 57/39/4 56/40/4
f 31/41/6 56/126/6 55/42/6
f 52/43/5 54/42/5 57/44/5
f 61/46/2 58/63/2 59/47/2
f 14/35/1 59/235/1 58/49/1
f 49/50/4 61/50/4 60/51/4
f 29/27/6 60/26/6 59/52/6
f 65/48/2 62/47/2 63/54/2
f 30/53/6 64/52/6 63/56/6
f 44/58/5 62/56/5 65/59/5
f 45/60/4 65/60/4 64/61/4
f 69/62/2 66/236/2 67/63/2
f 35/64/5 66/67/5 69/65/5
f 27/67/6 68/237/6 67/68/6
f 36/69/4 69/69/4 68/70/4
f 73/71/2 70/238/2 71/72/2
f 25/13/1 71/239/1 70/74/1
f 32/76/6 72/87/6 71/77/6
f 39/78/5 70/77/5 73/79/5
f 10/81/6 75/22/6 74/80/6
f 78/83/1 76/17/1 77/16/1
f 24/85/6 79/4/6 77/66/6
f 37/87/5 76/240/5 78/88/5
f 38/90/2 78/241/2 79/91/2
f 83/93/1 82/10/1 81/9/1
f 34/95/2 83/242/2 80/96/2
f 4/98/6 80/243/6 81/77/6
f 33/100/5 82/244/5 83/101/5
f 86/103/1 84/245/1 85/104/1
f 43/106/2 86/246/2 87/107/2
f 16/109/6 87/115/6 85/24/6
f 15/108/3 85/107/3 84/110/3
f 90/112/1 88/29/1 89/28/1
f 13/114/6 91/119/6 89/115/6
f 47/6/2 90/247/2 91/117/2
f 46/119/5 88/114/5 90/120/5
f 94/121/1 92/128/1 93/122/1
f 50/124/5 92/30/5 94/125/5
f 51/126/2 94/248/2 95/127/2
f 18/122/3 93/122/3 92/128/3
f 102/18/1 103/15/1 99/129/1
f 104/7/1 99/129/1 100/130/1
f 97/18/2 102/18/2 104/7/2
f 96/8/6 101/8/6 100/130/6
f 155/131/2 172/131/2 168/132/2
f 107/133/2 136/176/2 137/134/2
f 119/136/3 140/175/3 139/137/3
f 108/139/6 131/160/6 132/140/6
f 120/142/3 132/95/3 134/143/3
f 113/145/2 141/188/2 142/146/2
f 125/148/3 146/189/3 145/149/3
f 8/151/6 148/249/6 150/21/6
f 126/138/3 150/33/3 152/153/3
f 129/155/1 133/236/1 134/156/1
f 130/157/1 134/156/1 132/158/1
f 121/160/5 133/139/5 129/161/5
f 109/162/2 129/165/2 130/163/2
f 122/144/3 134/143/3 133/165/3
f 110/164/2 130/163/2 131/166/2
f 136/167/1 140/157/1 138/159/1
f 135/169/1 139/155/1 140/157/1
f 105/170/6 137/250/6 138/171/6
f 118/173/5 139/251/5 135/174/5
f 117/135/3 138/134/3 140/175/3
f 106/150/2 135/252/2 136/176/2
f 141/177/1 146/181/1 144/178/1
f 143/180/1 145/193/1 146/181/1
f 111/182/6 142/253/6 144/183/6
f 124/92/5 145/254/5 143/185/5
f 112/187/2 143/173/2 141/188/2
f 123/147/3 144/146/3 146/189/3
f 149/190/1 151/38/1 152/191/1
f 147/192/1 152/191/1 150/193/1
f 127/75/5 151/255/5 149/194/5
f 128/154/3 152/153/3 151/195/3
f 41/197/2 147/199/2 148/198/2
f 22/196/2 149/195/2 147/199/2
f 157/200/5 177/200/5 176/201/5
f 161/202/2 178/202/2 174/203/2
f 166/204/2 182/204/2 184/205/2
f 164/206/3 185/206/3 183/207/3
f 172/131/1 173/210/1 169/208/1
f 170/209/1 171/211/1 173/210/1
f 114/208/3 169/208/3 173/210/3
f 116/210/3 173/210/3 171/211/3
f 153/132/6 168/132/6 169/208/6
f 154/209/2 170/209/2 172/131/2
f 178/202/1 179/213/1 175/212/1
f 176/201/1 177/200/1 179/213/1
f 156/212/3 175/212/3 179/213/3
f 158/213/3 179/213/3 177/200/3
f 160/201/2 176/201/2 178/202/2
f 159/203/6 174/203/6 175/212/6
f 184/205/1 185/206/1 181/214/1
f 182/204/1 183/207/1 185/206/1
f 165/215/6 180/215/6 181/214/6
f 167/205/2 184/205/2 180/215/2
f 163/207/5 183/207/5 182/204/5
f 162/214/3 181/214/3 185/206/3
f 189/130/2 186/130/2 187/216/2
f 26/102/6 188/256/6 187/217/6
f 11/218/5 186/217/5 189/219/5
f 28/130/4 189/130/4 188/216/4
f 193/221/1 192/257/1 191/222/1
f 9/45/5 192/62/5 193/224/5
f 3/226/6 190/25/6 191/225/6
f 1/227/3 191/258/3 192/228/3
s 0
f 196/229/3 195/229/3 200/229/3
f 194/229/3 197/229/3 199/229/3
f 197/229/3 196/229/3 198/229/3
s 1
f 197/229/3 194/229/3 195/229/3
usemtl piso
f 115/259/5 170/260/5 154/261/5
f 115/259/5 171/262/5 170/260/5
