# Blender 5.0.1
# www.blender.org
mtllib TechoS4.mtl
o TechoS4
v -8.117928 10.215680 -7.862778
v -8.117928 11.932998 -7.862778
v 5.086386 10.215680 -7.862778
v 5.086386 11.932998 -7.862778
v 5.086386 11.933001 -5.252462
v 5.086386 10.215683 -5.252462
v 5.086386 10.215683 -3.912029
v 5.086386 11.933001 -3.912029
v -7.624489 11.932998 -7.862778
v -7.624489 10.215680 -7.862778
v -8.158872 11.922505 -7.924076
v -8.158872 11.922505 -7.350744
v -8.117928 11.922505 -7.350744
v -8.117928 11.922505 -7.924076
v -8.117928 11.933004 7.352307
v -8.117928 10.215686 7.352307
v -7.624489 11.933004 7.352307
v -5.082756 11.933004 7.352307
v -5.082756 10.215686 7.352307
v -7.624489 11.933001 -3.912029
v -5.082756 11.933001 -3.912029
v -8.117928 11.933001 -3.912029
v -5.082756 11.932998 -7.862778
v -5.082756 11.933001 -5.252462
v -7.624489 11.932998 -7.862778
v 5.086386 11.933001 -5.252462
v 2.401317 11.933001 -5.252462
v -5.082756 10.215680 -7.862778
v 2.401317 11.932998 -7.862778
v 2.401317 11.933001 -3.912029
v 2.401317 10.215683 -3.912029
v 5.086386 11.933001 -3.912029
v -5.082756 10.215683 -3.912029
v 5.086386 10.215683 -5.252462
v 2.401317 10.215683 -5.252462
v 5.086386 10.215683 -3.912029
v -5.082756 10.215683 -5.252462
v 2.401317 10.215680 -7.862778
v -7.624489 10.215680 -7.862778
v -7.624489 10.215686 7.352307
v -8.117928 10.215683 -3.912029
v -7.624489 10.215683 -3.912029
v -8.117928 10.215683 -5.252462
v -7.624489 10.215683 -5.252462
v -8.117928 11.933001 -5.252462
v -7.624489 11.933001 -5.252462
v -8.117928 10.215680 -7.862778
v -8.117928 11.932998 -7.862778
v 5.086386 10.215680 -7.862778
v 5.086386 11.932998 -7.862778
v -8.232313 11.933004 7.352307
v -8.232313 10.215686 7.352307
v -8.232313 11.933001 -3.912029
v -8.232313 10.215683 -3.912029
v -8.232313 10.215683 -5.252462
v -8.232313 11.933001 -5.252462
v -8.232313 10.215680 -7.862778
v -8.232313 11.932998 -7.862778
v -5.082756 11.932998 -7.862778
v -7.624489 11.932998 -7.862778
v -5.082756 10.215680 -7.862778
v -7.624489 10.215680 -7.862778
v -5.082756 11.932998 -8.262735
v -5.082756 10.215680 -8.262735
v 2.401317 11.932998 -8.262735
v 2.401317 10.215680 -8.262735
v 5.086386 10.215680 -8.262735
v 5.086386 11.932998 -8.262735
v -5.082756 11.932998 -8.262735
v -7.624489 11.932998 -8.262735
v -5.082756 10.215680 -8.262735
v -7.624489 10.215680 -8.262735
v -8.233981 11.932998 -7.862778
v -8.233981 10.215680 -7.862778
v -8.233981 11.932998 -8.262735
v -8.233981 10.215680 -8.262735
vn -0.0000 -0.0000 -1.0000
vn -0.0000 -0.0000 1.0000
vn -0.0000 1.0000 -0.0000
vn -0.0000 -0.0000 -0.0000
vn -0.0000 -0.7071 -0.7071
vn -0.0000 0.7071 -0.7071
vn -0.0001 0.5547 0.8320
vn -0.0000 0.5547 0.8320
vn -0.5774 -0.5774 0.5773
vn -0.0000 -0.5547 0.8320
vn -0.5773 0.5774 0.5774
vn -0.4082 0.4083 0.8165
vn 0.4082 -0.4083 0.8165
vn 0.4082 0.4083 0.8165
vn -0.4082 -0.4083 0.8165
vn -0.5773 -0.5774 -0.5774
vn 0.5773 0.5774 -0.5774
vn 0.4082 0.4082 0.8165
vn 0.4082 0.4084 0.8165
vn -0.4082 -0.4084 0.8164
vn -0.4081 0.4083 0.8165
vn -0.5774 0.5774 -0.5773
vn -0.5775 -0.5773 -0.5773
vn 0.5774 -0.5773 -0.5774
vn 1.0000 -0.0000 -0.0000
vn -0.0000 -1.0000 -0.0000
vn 0.7071 -0.7071 -0.0000
vn 0.7071 0.7071 -0.0000
vn -1.0000 -0.0000 -0.0000
vn -0.6177 -0.5674 0.5446
vn -0.2522 0.9670 0.0355
vn -0.2319 -0.9727 -0.0000
vn -0.3231 -0.8951 0.3071
vt 0.875000 0.740981
vt 0.867166 0.740981
vt 0.875000 0.500000
vt 0.875000 0.509044
vt 0.826812 0.740981
vt 0.597977 0.181696
vt 0.690036 0.242262
vt 0.597977 0.242262
vt 0.550703 0.181696
vt 0.000000 0.004034
vt 0.397265 0.021436
vt 0.000000 0.021436
vt 0.444539 0.004034
vt 0.536598 0.021436
vt 0.444539 0.021436
vt -0.000000 0.828357
vt 0.397265 0.917998
vt -0.000000 0.917998
vt 0.444539 0.935400
vt 0.397265 0.939434
vt 0.397265 0.935400
vt 0.550703 0.000000
vt 0.947968 0.060566
vt 0.550703 0.060566
vt 0.444539 0.828357
vt 0.536598 0.917998
vt 0.444539 0.917998
vt 0.444539 0.564413
vt 0.536598 0.469717
vt 0.536598 0.564413
vt 0.536598 0.935400
vt 0.444539 0.939434
vt 0.947968 0.000000
vt 0.995242 0.060566
vt 0.397265 0.828357
vt 0.397265 0.004034
vt 0.611269 0.378312
vt 0.550703 0.392418
vt 0.550703 0.378312
vt 0.444539 0.469717
vt 0.397265 0.375022
vt 0.444539 0.375022
vt 0.536598 0.375022
vt 0.536598 0.111077
vt 0.444539 0.111077
vt 0.550703 0.121131
vt 0.814648 0.181697
vt 0.550703 0.181697
vt 0.640344 0.350101
vt 0.550703 0.364207
vt 0.550703 0.350101
vt 0.536598 0.828357
vt 0.397265 0.469717
vt 0.611269 0.302828
vt 0.611269 0.350101
vt 0.397265 0.111077
vt -0.000000 0.935400
vt 0.000000 0.111077
vt -0.000000 0.939434
vt 0.397265 1.000000
vt -0.000000 1.000000
vt 0.444539 0.939435
vt 0.536598 1.000000
vt 0.444539 1.000000
vt 0.397265 0.939435
vt 0.536598 0.000000
vt 0.536598 0.004034
vt 0.397265 0.000000
vt 0.444539 0.000000
vt 0.550703 0.375022
vt 0.645399 0.121131
vt 0.645399 0.060566
vt 0.909344 0.121131
vt 0.909344 0.060566
vt 0.640344 0.242262
vt 0.550703 0.302828
vt 0.550703 0.242262
vt 0.550703 0.469717
vt 0.661839 0.364207
vt 0.572199 0.378312
vt 0.572199 0.364207
vt 0.550703 0.564413
vt 0.550703 0.828357
vt 0.611269 0.392418
vt 0.550703 0.406523
vt 0.640344 0.364207
vt 0.661839 0.302828
vt 0.640344 0.302828
vt 0.690036 0.181697
vt 0.536598 0.939434
vt 0.995242 0.000000
vt 0.814648 0.121131
vt 0.397265 0.564413
vt 0.536598 0.939435
vt -0.000000 0.000000
vt 0.550703 0.111077
vt 0.661839 0.378312
vt 0.611269 0.406523
vt 0.661839 0.350101
vt 0.661839 0.242262
s 1
usemtl madera
f 1/1/1 9/2/2 10/2/1
f 14/3/3 12/4/3 13/4/3
s 0
f 10/2/2 25/2/2 39/2/2
f 1/1/2 39/2/2 47/1/2
f 8/5/4 26/5/4 32/5/4
f 5/5/4 50/5/4 26/5/4
f 4/5/2 49/5/2 50/5/2
f 3/5/4 34/5/4 49/5/4
f 9/2/2 48/1/2 25/2/2
f 6/5/4 36/5/4 34/5/4
f 2/1/2 47/1/2 48/1/2
s 1
f 47/1/5 58/1/6 48/1/6
s 0
f 39/2/2 60/2/7 62/2/2
s 1
f 60/2/8 74/2/9 62/2/10
f 1/1/1 2/1/1 9/2/2
f 14/3/3 11/3/3 12/4/3
s 0
f 10/2/2 9/2/2 25/2/2
f 1/1/2 10/2/2 39/2/2
f 8/5/4 5/5/4 26/5/4
f 5/5/4 4/5/4 50/5/4
f 4/5/2 3/5/2 49/5/2
f 3/5/4 6/5/4 34/5/4
f 9/2/2 2/1/2 48/1/2
f 6/5/4 7/5/4 36/5/4
f 2/1/2 1/1/2 47/1/2
s 1
f 47/1/5 57/1/5 58/1/6
s 0
f 39/2/2 25/2/2 60/2/8
s 1
f 60/2/8 73/2/11 74/2/9
s 0
usemtl beige
f 23/5/12 61/5/13 59/5/2
f 25/2/2 59/5/14 60/2/2
f 28/5/15 62/2/10 61/5/2
s 1
f 23/5/12 64/5/16 28/5/15
f 61/5/13 69/5/17 59/5/18
s 0
f 23/5/12 28/5/2 61/5/13
f 25/2/2 23/5/2 59/5/19
f 28/5/20 39/2/2 62/2/10
s 1
f 23/5/21 63/5/22 64/5/23
f 61/5/13 71/5/24 69/5/17
usemtl fondo
f 6/6/25 4/7/25 5/8/25
f 5/8/25 7/9/25 6/6/25
f 16/10/26 42/11/26 40/12/26
f 43/13/26 39/14/26 44/15/26
f 18/16/3 20/17/3 17/18/3
f 45/19/3 53/20/3 22/21/3
f 19/22/25 21/23/25 18/24/25
f 24/25/3 25/26/3 46/27/3
f 27/28/3 50/29/3 29/30/3
f 48/31/6 56/32/3 45/19/3
f 33/33/25 24/34/25 21/23/25
f 21/35/3 46/27/3 20/17/3
f 41/36/26 44/15/26 42/11/26
f 49/37/27 68/38/28 50/39/28
f 34/40/26 31/41/26 35/42/26
f 38/43/26 34/40/26 35/42/26
f 28/44/26 35/42/26 37/45/26
f 37/46/2 27/47/2 24/48/2
f 62/49/10 71/50/24 61/51/13
f 24/25/3 29/30/3 23/52/3
f 27/28/3 32/53/3 26/40/3
f 35/51/29 30/54/29 27/55/29
f 42/11/26 37/45/26 33/56/26
f 20/17/3 45/19/3 22/21/3
f 46/27/3 48/31/3 45/19/3
f 17/18/3 22/21/3 15/57/3
f 44/15/26 28/44/26 37/45/26
f 40/12/26 33/56/26 19/58/26
f 51/59/29 54/60/29 52/61/30
f 56/62/29 57/63/29 55/64/29
f 53/65/29 55/64/29 54/60/29
f 43/13/26 57/66/5 47/67/5
f 22/21/3 51/59/3 15/57/31
f 16/10/32 54/68/26 41/36/26
f 41/36/26 55/69/26 43/13/26
f 28/44/15 66/70/26 38/43/26
f 65/71/1 67/24/1 66/72/1
f 63/73/22 66/72/1 64/74/23
f 72/75/5 69/76/17 71/77/24
f 38/43/26 67/78/27 49/29/27
f 59/79/18 70/80/6 60/81/8
f 50/29/28 65/82/3 29/30/3
f 29/30/3 63/83/22 23/52/21
f 73/84/11 76/85/16 74/38/9
f 70/80/6 73/50/11 60/81/8
f 62/49/10 76/79/16 72/86/5
f 72/75/5 75/87/22 70/88/6
f 6/6/25 3/89/25 4/7/25
f 5/8/25 8/77/25 7/9/25
f 16/10/26 41/36/26 42/11/26
f 43/13/26 47/67/26 39/14/26
f 18/16/3 21/35/3 20/17/3
f 45/19/3 56/32/3 53/20/3
f 19/22/25 33/33/25 21/23/25
f 24/25/3 23/52/3 25/26/3
f 27/28/3 26/40/3 50/29/3
f 48/31/6 58/90/6 56/32/3
f 33/33/25 37/91/25 24/34/25
f 21/35/3 24/25/3 46/27/3
f 41/36/26 43/13/26 44/15/26
f 49/37/27 67/84/27 68/38/28
f 34/40/26 36/53/26 31/41/26
f 38/43/26 49/29/26 34/40/26
f 28/44/26 38/43/26 35/42/26
f 37/46/2 35/92/2 27/47/2
f 62/49/10 72/86/5 71/50/24
f 24/25/3 27/28/3 29/30/3
f 27/28/3 30/93/3 32/53/3
f 35/51/29 31/76/29 30/54/29
f 42/11/26 44/15/26 37/45/26
f 20/17/3 46/27/3 45/19/3
f 46/27/3 25/26/3 48/31/3
f 17/18/3 20/17/3 22/21/3
f 44/15/26 39/14/26 28/44/26
f 40/12/26 42/11/26 33/56/26
f 51/59/29 53/65/29 54/60/29
f 56/62/29 58/94/29 57/63/29
f 53/65/29 56/62/29 55/64/29
f 43/13/26 55/69/26 57/66/5
f 22/21/3 53/20/3 51/59/3
f 16/10/32 52/95/33 54/68/26
f 41/36/26 54/68/26 55/69/26
f 28/44/15 64/96/16 66/70/26
f 65/71/1 68/46/1 67/24/1
f 63/73/22 65/71/1 66/72/1
f 72/75/5 70/88/6 69/76/17
f 38/43/26 66/70/26 67/78/27
f 59/79/18 69/97/17 70/80/6
f 50/29/28 68/78/28 65/82/3
f 29/30/3 65/82/3 63/83/22
f 73/84/11 75/98/22 76/85/16
f 70/80/6 75/39/22 73/50/11
f 62/49/10 74/99/9 76/79/16
f 72/75/5 76/100/16 75/87/22
