# Blender 5.0.1
# www.blender.org
mtllib BaseS3.mtl
o BaseS3
v -7.868104 0.000003 7.994498
v -7.868104 0.620663 7.994498
v -7.868104 -0.000003 -7.902413
v -7.868104 0.620657 -7.902413
v 7.931276 0.000003 7.994498
v 7.931276 0.620663 7.994498
v 7.931276 -0.000003 -7.902413
v 7.931276 0.620657 -7.902413
v 0.031586 -0.000003 -7.902413
v 0.031586 0.620657 -7.902413
v 0.031586 0.000003 7.994498
v 0.031586 0.620663 7.994498
v -7.868104 0.000000 0.046042
v -7.868104 0.620660 0.046042
v 7.931276 0.000000 0.046042
v 7.931276 0.620660 0.046042
v 0.031586 0.620660 0.046042
v 0.031586 0.000000 0.046042
v -7.868104 0.620660 -3.928186
v 7.931276 -0.000000 -3.928186
v -7.868104 -0.000000 -3.928186
v 7.931276 0.620660 -3.928186
v 0.031586 0.620660 -3.928186
v 0.031586 -0.000000 -3.928186
v -7.868104 0.620660 -5.915299
v 7.931276 -0.000000 -5.915299
v -7.868104 -0.000000 -5.915299
v 7.931276 0.620660 -5.915299
v 0.031586 0.620660 -5.915299
v 0.031586 -0.000000 -5.915299
v -7.868104 0.620657 -6.908856
v 7.931276 -0.000003 -6.908856
v -7.868104 -0.000003 -6.908856
v 7.931276 0.620657 -6.908856
v 0.031586 0.620657 -6.908856
v 0.031586 -0.000003 -6.908856
v -7.868104 0.620657 -7.405635
v 7.931276 -0.000003 -7.405635
v -7.868104 -0.000003 -7.405635
v 7.931276 0.620657 -7.405635
v 0.031586 0.620657 -7.405635
v 0.031586 -0.000003 -7.405635
v -3.918259 -0.000003 -7.902413
v -3.918259 0.620663 7.994498
v -3.918259 0.620657 -7.902413
v -3.918259 0.000003 7.994498
v -3.918259 0.000000 0.046042
v -3.918259 0.620660 0.046042
v -3.918259 0.620660 -3.928186
v -3.918259 -0.000000 -3.928186
v -3.918259 -0.000000 -5.915299
v -3.918259 0.620660 -5.915299
v -3.918259 0.620657 -6.908856
v -3.918259 -0.000003 -6.908856
v -3.918259 -0.000003 -7.405635
v -3.918259 0.620657 -7.405635
v -5.893181 -0.000003 -7.902413
v -5.893181 0.620663 7.994498
v -5.893181 0.000000 0.046042
v -5.893181 -0.000000 -3.928186
v -5.893181 -0.000000 -5.915299
v -5.893181 -0.000003 -6.908856
v -5.893181 -0.000003 -7.405635
v -5.893181 0.620657 -7.902413
v -5.893181 0.000003 7.994498
v -5.893181 0.620660 0.046042
v -5.893181 0.620660 -3.928186
v -5.893181 0.620660 -5.915299
v -5.893181 0.620657 -6.908856
v -5.893181 0.620657 -7.405635
v -6.880642 -0.000003 -7.902413
v -6.880642 0.620663 7.994498
v -6.880642 0.000000 0.046042
v -6.880642 -0.000000 -3.928186
v -6.880642 -0.000000 -5.915299
v -6.880642 -0.000003 -6.908856
v -6.880642 -0.000003 -7.405635
v -6.880642 0.620657 -7.902413
v -6.880642 0.000003 7.994498
v -6.880642 0.620660 0.046042
v -6.880642 0.620660 -3.928186
v -6.880642 0.620660 -5.915299
v -6.880642 0.620657 -6.908856
v -6.880642 0.620657 -7.405635
v -7.374373 -0.000003 -7.902413
v -7.374373 0.620663 7.994498
v -7.374373 0.000000 0.046042
v -7.374373 -0.000000 -3.928186
v -7.374373 -0.000000 -5.915299
v -7.374373 -0.000003 -6.908856
v -7.374373 -0.000003 -7.405635
v -7.374373 0.620657 -7.902413
v -7.374373 0.000003 7.994498
v -7.374373 0.620660 0.046042
v -7.374373 0.620660 -3.928186
v -7.374373 0.620660 -5.915299
v -7.374373 0.620657 -6.908856
v -7.374373 0.620657 -7.405635
v 3.981431 0.620657 -7.902413
v 3.981431 0.000003 7.994498
v 3.981431 -0.000003 -7.902413
v 3.981431 0.620663 7.994498
v 3.981431 0.620660 0.046042
v 3.981431 0.000000 0.046042
v 3.981431 -0.000000 -3.928186
v 3.981431 0.620660 -3.928186
v 3.981431 0.620660 -5.915299
v 3.981431 -0.000000 -5.915299
v 3.981431 -0.000003 -6.908856
v 3.981431 0.620657 -6.908856
v 3.981431 0.620657 -7.405635
v 3.981431 -0.000003 -7.405635
v -7.868104 0.000000 4.020270
v 7.931276 0.620660 4.020270
v 0.031586 0.620660 4.020270
v 0.031586 0.000000 4.020270
v -7.868104 0.620660 4.020270
v 7.931276 0.000000 4.020270
v -3.918259 0.000000 4.020270
v -3.918259 0.620660 4.020270
v -5.893181 0.000000 4.020270
v -5.893181 0.620660 4.020270
v -6.880642 0.000000 4.020270
v -6.880642 0.620660 4.020270
v -7.374373 0.000000 4.020270
v -7.374373 0.620660 4.020270
v 3.981431 0.620660 4.020270
v 3.981431 0.000000 4.020270
v -7.868104 0.000000 6.007384
v 7.931276 0.620660 6.007384
v 0.031586 0.620660 6.007384
v 0.031586 0.000000 6.007384
v -3.918259 0.000000 6.007384
v -3.918259 0.620660 6.007384
v -5.893181 0.000000 6.007384
v -5.893181 0.620660 6.007384
v -6.880642 0.000000 6.007384
v -6.880642 0.620660 6.007384
v -7.374373 0.000000 6.007384
v -7.374373 0.620660 6.007384
v 3.981431 0.620660 6.007384
v 3.981431 0.000000 6.007384
v -7.868104 0.620660 6.007384
v 7.931276 0.000000 6.007384
v -7.868104 0.000003 7.000941
v 7.931276 0.620663 7.000941
v 0.031586 0.620663 7.000941
v 0.031586 0.000003 7.000941
v -3.918259 0.000003 7.000941
v -3.918259 0.620663 7.000941
v -5.893181 0.000003 7.000941
v -5.893181 0.620663 7.000941
v -6.880642 0.000003 7.000941
v -6.880642 0.620663 7.000941
v -7.374373 0.000003 7.000941
v -7.374373 0.620663 7.000941
v 3.981431 0.620663 7.000941
v 3.981431 0.000003 7.000941
v -7.868104 0.620663 7.000941
v 7.931276 0.000003 7.000941
v -7.868104 0.000003 7.497720
v 7.931276 0.620663 7.497720
v 0.031586 0.620663 7.497720
v 0.031586 0.000003 7.497720
v -3.918259 0.000003 7.497720
v -3.918259 0.620663 7.497720
v -5.893181 0.000003 7.497720
v -5.893181 0.620663 7.497720
v -6.880642 0.000003 7.497720
v -6.880642 0.620663 7.497720
v -7.374373 0.000003 7.497720
v -7.374373 0.620663 7.497720
v 3.981431 0.620663 7.497720
v 3.981431 0.000003 7.497720
v -7.868104 0.620663 7.497720
v 7.931276 0.000003 7.497720
v -4.643703 0.000003 7.994498
v -4.643703 0.620663 7.994498
v -4.709641 0.620663 7.497720
v 5.916855 0.620657 -7.902413
v 5.916855 0.000003 7.994498
v 5.916855 0.620660 0.046042
v 5.916855 0.620660 -3.928186
v 5.916855 0.620660 -5.915299
v 5.916855 0.620657 -6.908856
v 5.916855 0.620657 -7.405635
v 5.916855 -0.000003 -7.902413
v 5.916855 0.620663 7.994498
v 5.916855 0.000000 0.046042
v 5.916855 -0.000000 -3.928186
v 5.916855 -0.000000 -5.915299
v 5.916855 -0.000003 -6.908856
v 5.916855 -0.000003 -7.405635
v 5.916855 0.620660 4.020270
v 5.916855 0.000000 4.020270
v 5.916855 0.620660 6.007384
v 5.916855 0.000000 6.007384
v 5.916855 0.620663 7.000941
v 5.916855 0.000003 7.000941
v 5.916855 0.620663 7.497720
v 5.916855 0.000003 7.497720
v 4.949143 -0.000003 -7.902413
v 4.949143 0.620663 7.994498
v 4.949143 0.000000 0.046042
v 4.949143 -0.000000 -3.928186
v 4.949143 -0.000000 -5.915299
v 4.949143 -0.000003 -6.908856
v 4.949143 -0.000003 -7.405635
v 4.949143 0.000000 4.020270
v 4.949143 0.000000 6.007384
v 4.949143 0.000003 7.000941
v 4.949143 0.000003 7.497720
v 4.949143 0.620657 -7.902413
v 4.949143 0.000003 7.994498
v 4.949143 0.620660 0.046042
v 4.949143 0.620660 -3.928186
v 4.949143 0.620660 -5.915299
v 4.949143 0.620657 -6.908856
v 4.949143 0.620657 -7.405635
v 4.949143 0.620660 4.020270
v 4.949143 0.620660 6.007384
v 4.949143 0.620663 7.000941
v 4.949143 0.620663 7.497720
v 6.904696 0.620657 -7.902413
v 6.904696 0.000003 7.994498
v 6.904696 0.620660 0.046042
v 6.904696 0.620660 -3.928186
v 6.904696 0.620660 -5.915299
v 6.904696 0.620657 -6.908856
v 6.904696 0.620657 -7.405635
v 6.904696 0.620660 4.020270
v 6.904696 0.620660 6.007384
v 6.904696 0.620663 7.000941
v 6.904696 0.620663 7.497720
v 6.904696 -0.000003 -7.902413
v 6.904696 0.620663 7.994498
v 6.904696 0.000000 0.046042
v 6.904696 -0.000000 -3.928186
v 6.904696 -0.000000 -5.915299
v 6.904696 -0.000003 -6.908856
v 6.904696 -0.000003 -7.405635
v 6.904696 0.000000 4.020270
v 6.904696 0.000000 6.007384
v 6.904696 0.000003 7.000941
v 6.904696 0.000003 7.497720
v 7.417986 0.620657 -7.902413
v 7.417986 0.000003 7.994498
v 7.417986 0.620660 0.046042
v 7.417986 0.620660 -3.928186
v 7.417986 0.620660 -5.915299
v 7.417986 0.620657 -6.908856
v 7.417986 0.620657 -7.405635
v 7.417986 0.620660 4.020270
v 7.417986 0.620660 6.007384
v 7.417986 0.620663 7.000941
v 7.417986 0.620663 7.497720
v 7.417986 -0.000003 -7.902413
v 7.417986 0.620663 7.994498
v 7.417986 0.000000 0.046042
v 7.417986 -0.000000 -3.928186
v 7.417986 -0.000000 -5.915299
v 7.417986 -0.000003 -6.908856
v 7.417986 -0.000003 -7.405635
v 7.417986 0.000000 4.020270
v 7.417986 0.000000 6.007384
v 7.417986 0.000003 7.000941
v 7.417986 0.000003 7.497720
v 6.410776 -0.000003 -7.902413
v 6.410776 0.620663 7.994498
v 6.410776 0.000000 0.046042
v 6.410776 -0.000000 -3.928186
v 6.410776 -0.000000 -5.915299
v 6.410776 -0.000003 -6.908856
v 6.410776 -0.000003 -7.405635
v 6.410776 0.000000 4.020270
v 6.410776 0.000000 6.007384
v 6.410776 0.000003 7.000941
v 6.410776 0.000003 7.497720
v 6.410776 0.620657 -7.902413
v 6.410776 0.000003 7.994498
v 6.410776 0.620660 0.046042
v 6.410776 0.620660 -3.928186
v 6.410776 0.620660 -5.915299
v 6.410776 0.620657 -6.908856
v 6.410776 0.620657 -7.405635
v 6.410776 0.620660 4.020270
v 6.410776 0.620660 6.007384
v 6.410776 0.620663 7.000941
v 6.410776 0.620663 7.497720
v 5.432999 0.620657 -7.902413
v 5.432999 0.000003 7.994498
v 5.432999 0.620660 0.046042
v 5.432999 0.620660 -3.928186
v 5.432999 0.620660 -5.915299
v 5.432999 0.620657 -6.908856
v 5.432999 0.620657 -7.405635
v 5.432999 0.620660 4.020270
v 5.432999 0.620660 6.007384
v 5.432999 0.620663 7.000941
v 5.432999 0.620663 7.497720
v 5.432999 -0.000003 -7.902413
v 5.432999 0.620663 7.994498
v 5.432999 0.000000 0.046042
v 5.432999 -0.000000 -3.928186
v 5.432999 -0.000000 -5.915299
v 5.432999 -0.000003 -6.908856
v 5.432999 -0.000003 -7.405635
v 5.432999 0.000000 4.020270
v 5.432999 0.000000 6.007384
v 5.432999 0.000003 7.000941
v 5.432999 0.000003 7.497720
v 4.465287 -0.000003 -7.902413
v 4.465287 0.620663 7.994498
v 4.465287 0.000000 0.046042
v 4.465287 -0.000000 -3.928186
v 4.465287 -0.000000 -5.915299
v 4.465287 -0.000003 -6.908856
v 4.465287 -0.000003 -7.405635
v 4.465287 0.000000 4.020270
v 4.465287 0.000000 6.007384
v 4.465287 0.000003 7.000941
v 4.465287 0.000003 7.497720
v 4.465287 0.620657 -7.902413
v 4.465287 0.000003 7.994498
v 4.465287 0.620660 0.046042
v 4.465287 0.620660 -3.928186
v 4.465287 0.620660 -5.915299
v 4.465287 0.620657 -6.908856
v 4.465287 0.620657 -7.405635
v 4.465287 0.620660 4.020270
v 4.465287 0.620660 6.007384
v 4.465287 0.620663 7.000941
v 4.465287 0.620663 7.497720
v 4.465287 0.620660 -6.595309
v 4.949143 0.620660 -6.595309
v 5.432999 0.620660 -6.663824
v 5.916855 0.620660 -6.663824
v 6.410776 0.620660 -6.527266
v 6.904696 0.620660 -6.527266
v 7.417986 0.620660 -6.643053
v 7.931276 0.620660 -6.643053
v 7.931276 14.978801 -6.643056
v 7.417986 0.620660 -6.558394
v 7.931276 0.620660 -6.558394
v 5.432999 0.620660 -6.579165
v 5.916855 0.620660 -6.579165
vn -0.0000 1.0000 -0.0000
vn -1.0000 -0.0000 -0.0000
vn -0.0000 -0.0000 -1.0000
vn 1.0000 -0.0000 -0.0000
vn -0.0000 -0.0000 1.0000
vn -0.0000 -1.0000 -0.0000
vt 0.602058 0.748764
vt 0.611799 0.826217
vt 0.602058 0.826217
vt 0.378005 0.748764
vt 0.455936 0.826217
vt 0.378005 0.826217
vt 0.339039 0.748764
vt 0.339039 0.826217
vt 0.319556 0.748764
vt 0.319556 0.826217
vt 0.309815 0.748764
vt 0.309815 0.826217
vt 0.309815 0.671310
vt 0.319557 0.671310
vt 0.339039 0.671310
vt 0.378005 0.671310
vt 0.455936 0.748764
vt 0.602058 0.671310
vt 0.611799 0.748764
vt 0.309815 0.632583
vt 0.319557 0.632583
vt 0.339040 0.632583
vt 0.378005 0.632583
vt 0.455936 0.671310
vt 0.309815 0.613220
vt 0.319557 0.613220
vt 0.339040 0.613220
vt 0.378005 0.613220
vt 0.455937 0.632583
vt 0.309815 0.603538
vt 0.319557 0.603538
vt 0.339040 0.603538
vt 0.378005 0.603538
vt 0.455937 0.613220
vt 0.319556 0.835706
vt 0.309815 0.835706
vt 0.339039 0.835706
vt 0.378005 0.835706
vt 0.455936 0.835706
vt 0.611799 0.835705
vt 0.602058 0.835705
vt 0.533867 0.835706
vt 0.455937 0.603538
vt 0.533868 0.613220
vt 0.533868 0.632583
vt 0.533868 0.671310
vt 0.533868 0.748764
vt 0.533868 0.826217
vt 0.572833 0.835706
vt 0.533868 0.603538
vt 0.572834 0.613220
vt 0.572834 0.632583
vt 0.572834 0.671310
vt 0.572833 0.748764
vt 0.572833 0.826217
vt 0.592316 0.835706
vt 0.572834 0.603538
vt 0.592317 0.613220
vt 0.592317 0.632583
vt 0.592316 0.671310
vt 0.592316 0.748764
vt 0.592316 0.826217
vt 0.592317 0.603538
vt 0.602058 0.613220
vt 0.602058 0.632583
vt 0.602058 0.655792
vt 0.592316 0.864170
vt 0.602057 0.873855
vt 0.592316 0.873855
vt 0.572833 0.864170
vt 0.572833 0.873855
vt 0.533867 0.864170
vt 0.533867 0.873855
vt 0.455936 0.864170
vt 0.455936 0.873855
vt 0.602057 0.864170
vt 0.611799 0.873855
vt 0.378005 0.864170
vt 0.378005 0.873855
vt 0.339039 0.864170
vt 0.339039 0.873855
vt 0.319556 0.864170
vt 0.319556 0.873855
vt 0.309815 0.864170
vt 0.309815 0.873855
vt 0.592316 0.845194
vt 0.602057 0.854682
vt 0.592316 0.854682
vt 0.572833 0.845194
vt 0.572833 0.854682
vt 0.533867 0.845194
vt 0.533867 0.854682
vt 0.455936 0.845194
vt 0.455936 0.854682
vt 0.602057 0.845194
vt 0.611799 0.854682
vt 0.378005 0.845194
vt 0.378005 0.854682
vt 0.339039 0.845194
vt 0.339039 0.854682
vt 0.319556 0.845194
vt 0.319556 0.854682
vt 0.309815 0.845194
vt 0.309815 0.854682
vt 0.309815 0.883541
vt 0.319556 0.893606
vt 0.309815 0.893606
vt 0.319556 0.883541
vt 0.339039 0.893606
vt 0.339039 0.883541
vt 0.378005 0.893606
vt 0.378005 0.883541
vt 0.455936 0.893606
vt 0.602057 0.883541
vt 0.611799 0.893606
vt 0.602057 0.893606
vt 0.455936 0.883541
vt 0.533867 0.893606
vt 0.533867 0.883541
vt 0.572833 0.893606
vt 0.572833 0.883541
vt 0.592316 0.893606
vt 0.592316 0.883541
vt 0.602057 0.903671
vt 0.592316 0.903671
vt 0.572833 0.903671
vt 0.533867 0.903671
vt 0.455936 0.903671
vt 0.611799 0.903671
vt 0.378005 0.903671
vt 0.339039 0.903671
vt 0.319556 0.903671
vt 0.611799 0.883541
vt 0.611799 0.864170
vt 0.611799 0.845194
vt 0.611799 0.671310
vt 0.602058 0.603538
vt 0.405393 0.335844
vt 0.396370 0.346677
vt 0.396370 0.335844
vt 0.391902 0.360217
vt 0.384440 0.346681
vt 0.391902 0.346681
vt 0.375416 0.357513
vt 0.384440 0.357513
vt 0.185879 0.361061
vt 0.166667 0.412642
vt 0.166667 0.361061
vt 0.166667 0.010834
vt 0.174129 0.000000
vt 0.174129 0.010834
vt 0.281518 0.010834
vt 0.338944 0.000000
vt 0.338944 0.010834
vt 0.556717 0.686876
vt 0.499291 0.673341
vt 0.556717 0.673341
vt 0.556717 0.360217
vt 0.499291 0.346681
vt 0.556717 0.346681
vt 0.281518 0.260011
vt 0.338944 0.173341
vt 0.338944 0.260011
vt 0.166667 0.260011
vt 0.174129 0.173341
vt 0.174129 0.260011
vt 0.375416 0.606651
vt 0.384440 0.519994
vt 0.384440 0.606651
vt 0.405393 0.086669
vt 0.396370 0.173339
vt 0.396370 0.086669
vt 0.375416 0.649979
vt 0.384440 0.649979
vt 0.166667 0.303346
vt 0.174129 0.303346
vt 0.281518 0.303346
vt 0.338944 0.303346
vt 0.405393 0.173339
vt 0.396370 0.260008
vt 0.281518 0.325014
vt 0.338944 0.325014
vt 0.166667 0.325014
vt 0.174129 0.325014
vt 0.375416 0.671643
vt 0.384440 0.671643
vt 0.405393 0.260008
vt 0.396370 0.303343
vt 0.375416 0.682475
vt 0.384440 0.682475
vt 0.166667 0.335848
vt 0.174129 0.335848
vt 0.281518 0.335848
vt 0.338944 0.335848
vt 0.405393 0.303343
vt 0.396370 0.325010
vt 0.281518 0.346681
vt 0.338944 0.346681
vt 0.166667 0.346681
vt 0.174129 0.346681
vt 0.375416 0.693307
vt 0.384440 0.693307
vt 0.405393 0.325010
vt 0.367657 0.335848
vt 0.367657 0.346681
vt 0.367657 0.325014
vt 0.367657 0.303346
vt 0.367657 0.260011
vt 0.367657 0.173341
vt 0.585430 0.360217
vt 0.585430 0.346681
vt 0.349491 0.000000
vt 0.367657 0.000000
vt 0.499291 0.686876
vt 0.441865 0.673341
vt 0.367657 0.010834
vt 0.382013 0.000000
vt 0.382013 0.010834
vt 0.599786 0.360217
vt 0.599786 0.346681
vt 0.382013 0.173341
vt 0.382013 0.260011
vt 0.382013 0.303346
vt 0.382013 0.325014
vt 0.382013 0.335848
vt 0.382013 0.346681
vt 0.185879 -0.000000
vt 0.166667 0.075787
vt 0.166667 -0.000000
vt 0.389192 0.335848
vt 0.389192 0.346681
vt 0.389192 0.325014
vt 0.389192 0.303346
vt 0.389192 0.260011
vt 0.389191 0.173341
vt 0.606964 0.360217
vt 0.606964 0.346681
vt 0.389191 0.000000
vt 0.389191 0.010834
vt 0.185879 0.206321
vt 0.166667 0.309481
vt 0.166667 0.206321
vt 0.166667 0.534951
vt 0.189591 0.500352
vt 0.189591 0.534951
vt 0.614143 0.360217
vt 0.614143 0.346681
vt 0.396370 0.173341
vt 0.396370 0.260011
vt 0.396370 0.303346
vt 0.396370 0.325014
vt 0.396370 0.335848
vt 0.396370 0.346681
vt 0.185879 0.309481
vt 0.224092 0.346681
vt 0.224092 0.335848
vt 0.224092 0.325014
vt 0.224092 0.303346
vt 0.224092 0.260011
vt 0.281518 0.173341
vt 0.563751 0.686876
vt 0.563751 0.673341
vt 0.224092 0.010834
vt 0.281518 0.000000
vt 0.499291 0.360217
vt 0.441865 0.346681
vt 0.224092 0.173341
vt 0.281518 0.086670
vt 0.396370 0.086670
vt 0.389191 0.086670
vt 0.382013 0.086670
vt 0.367657 0.086670
vt 0.405393 0.043335
vt 0.396370 0.043335
vt 0.338944 0.086670
vt 0.166667 0.173341
vt 0.174129 0.086670
vt 0.375416 0.519994
vt 0.384440 0.433338
vt 0.405394 0.021667
vt 0.396370 0.021667
vt 0.224092 0.086670
vt 0.281518 0.043335
vt 0.389191 0.043335
vt 0.382013 0.043335
vt 0.367657 0.043335
vt 0.338944 0.043335
vt 0.166667 0.086670
vt 0.174129 0.043335
vt 0.375416 0.433338
vt 0.384440 0.390010
vt 0.405394 0.010834
vt 0.396370 0.010834
vt 0.224092 0.043335
vt 0.281518 0.021668
vt 0.396370 0.021668
vt 0.389191 0.021668
vt 0.382013 0.021668
vt 0.367657 0.021668
vt 0.338944 0.021668
vt 0.166667 0.043335
vt 0.174129 0.021668
vt 0.375416 0.390010
vt 0.384440 0.368345
vt 0.405394 0.000000
vt 0.396370 0.000000
vt 0.224092 0.021668
vt 0.166667 0.021668
vt 0.375416 0.368345
vt 0.185879 0.075787
vt 0.195954 0.021668
vt 0.202988 0.010834
vt 0.202988 0.021668
vt 0.195954 0.043335
vt 0.202988 0.043335
vt 0.195954 0.086670
vt 0.202988 0.086670
vt 0.195954 0.173341
vt 0.202988 0.173341
vt 0.592036 0.686876
vt 0.584855 0.673341
vt 0.592036 0.673341
vt 0.195954 0.346681
vt 0.202988 0.335848
vt 0.202988 0.346681
vt 0.195954 0.335848
vt 0.202988 0.325014
vt 0.195954 0.325014
vt 0.202988 0.303346
vt 0.195954 0.303346
vt 0.202988 0.260011
vt 0.195954 0.260011
vt 0.195954 0.010834
vt 0.202988 0.000000
vt 0.420761 0.360217
vt 0.413727 0.346681
vt 0.420761 0.346681
vt 0.434831 0.360217
vt 0.427796 0.346681
vt 0.434831 0.346681
vt 0.210023 0.010834
vt 0.217058 0.000000
vt 0.217058 0.010834
vt 0.210023 0.260011
vt 0.217058 0.173341
vt 0.217058 0.260011
vt 0.210023 0.303346
vt 0.217058 0.303346
vt 0.210023 0.325014
vt 0.217058 0.325014
vt 0.210023 0.335848
vt 0.217058 0.335848
vt 0.210023 0.346681
vt 0.217058 0.346681
vt 0.210023 0.173341
vt 0.217058 0.086670
vt 0.210023 0.086670
vt 0.217058 0.043335
vt 0.210023 0.043335
vt 0.217058 0.021668
vt 0.210023 0.021668
vt 0.577821 0.686876
vt 0.570786 0.673341
vt 0.577821 0.673341
vt 0.606680 0.686876
vt 0.599217 0.673341
vt 0.606680 0.673341
vt 0.181592 0.021668
vt 0.188773 0.010834
vt 0.188773 0.021668
vt 0.181592 0.043335
vt 0.188773 0.043335
vt 0.181592 0.086670
vt 0.188773 0.086670
vt 0.181592 0.173341
vt 0.188773 0.173341
vt 0.181592 0.346681
vt 0.188773 0.335848
vt 0.188773 0.346681
vt 0.181592 0.335848
vt 0.188773 0.325014
vt 0.181592 0.325014
vt 0.188773 0.303346
vt 0.181592 0.303346
vt 0.188773 0.260011
vt 0.181592 0.260011
vt 0.181592 0.010834
vt 0.188773 0.000000
vt 0.406546 0.360217
vt 0.399365 0.346681
vt 0.406546 0.346681
vt 0.614143 0.686876
vt 0.614143 0.673341
vt 0.181592 0.000000
vt 0.399365 0.360217
vt 0.413727 0.360217
vt 0.195954 0.000000
vt 0.599217 0.686876
vt 0.584855 0.686876
vt 0.427796 0.360217
vt 0.210023 0.000000
vt 0.224092 0.000000
vt 0.441865 0.360217
vt 0.570786 0.686876
vt 0.166667 0.915298
vt 0.375416 0.913452
vt 0.375416 0.915298
vt 0.405393 0.346677
vt 0.384440 0.360217
vt 0.375416 0.346681
vt 0.185879 0.412642
vt 0.441865 0.686876
vt 0.166667 0.500352
vt 0.309815 0.903671
vt 0.862447 0.084970
vt 0.846557 0.075482
vt 0.862447 0.075482
vt 0.862763 0.075482
vt 0.848217 0.065994
vt 0.862763 0.065994
vt 0.863781 0.065994
vt 0.846557 0.056308
vt 0.863781 0.056308
vt 0.863171 0.056308
vt 0.848217 0.046243
vt 0.863171 0.046243
vt 0.848217 0.056308
vt 0.846557 0.046243
vt 0.848217 0.075482
vt 0.846557 0.065994
vt 0.846557 0.084970
s 1
usemtl Piso.002
f 163/1/1 102/2/1 173/3/1
f 23/4/1 103/5/1 106/6/1
f 29/7/1 106/6/1 107/8/1
f 35/9/1 107/8/1 110/10/1
f 41/11/1 110/10/1 111/12/1
f 56/13/1 35/9/1 41/11/1
f 53/14/1 29/7/1 35/9/1
f 52/15/1 23/4/1 29/7/1
f 49/16/1 17/17/1 23/4/1
f 166/18/1 12/19/1 163/1/1
f 70/20/1 53/14/1 56/13/1
f 69/21/1 52/15/1 53/14/1
f 68/22/1 49/16/1 52/15/1
f 67/23/1 48/24/1 49/16/1
f 84/25/1 69/21/1 70/20/1
f 83/26/1 68/22/1 69/21/1
f 82/27/1 67/23/1 68/22/1
f 81/28/1 66/29/1 67/23/1
f 98/30/1 83/26/1 84/25/1
f 97/31/1 82/27/1 83/26/1
f 96/32/1 81/28/1 82/27/1
f 95/33/1 80/34/1 81/28/1
f 111/12/1 328/35/1 329/36/1
f 110/10/1 327/37/1 328/35/1
f 107/8/1 326/38/1 327/37/1
f 106/6/1 325/39/1 326/38/1
f 173/3/1 313/40/1 333/41/1
f 103/5/1 330/42/1 325/39/1
f 94/43/1 124/44/1 80/34/1
f 80/34/1 122/45/1 66/29/1
f 66/29/1 120/46/1 48/24/1
f 48/24/1 115/47/1 17/17/1
f 17/17/1 127/48/1 103/5/1
f 127/48/1 331/49/1 330/42/1
f 126/50/1 138/51/1 124/44/1
f 124/44/1 136/52/1 122/45/1
f 122/45/1 134/53/1 120/46/1
f 120/46/1 131/54/1 115/47/1
f 115/47/1 141/55/1 127/48/1
f 141/55/1 332/56/1 331/49/1
f 140/57/1 154/58/1 138/51/1
f 138/51/1 152/59/1 136/52/1
f 136/52/1 150/60/1 134/53/1
f 134/53/1 147/61/1 131/54/1
f 131/54/1 157/62/1 141/55/1
f 157/62/1 333/41/1 332/56/1
f 156/63/1 170/64/1 154/58/1
f 154/58/1 168/65/1 152/59/1
f 152/59/1 179/66/1 166/18/1
f 150/60/1 163/1/1 147/61/1
f 147/61/1 173/3/1 157/62/1
f 198/67/1 289/68/1 288/69/1
f 196/70/1 288/69/1 287/71/1
f 194/72/1 287/71/1 286/73/1
f 182/74/1 286/73/1 281/75/1
f 200/76/1 269/77/1 289/68/1
f 183/78/1 281/75/1 282/79/1
f 184/80/1 282/79/1 283/81/1
f 185/82/1 283/81/1 284/83/1
f 186/84/1 284/83/1 285/85/1
f 222/86/1 300/87/1 299/88/1
f 221/89/1 299/88/1 298/90/1
f 220/91/1 298/90/1 297/92/1
f 215/93/1 297/92/1 292/94/1
f 223/95/1 302/96/1 300/87/1
f 216/97/1 292/94/1 293/98/1
f 217/99/1 293/98/1 294/100/1
f 218/101/1 294/100/1 295/102/1
f 219/103/1 295/102/1 296/104/1
f 230/105/1 251/106/1 252/107/1
f 229/108/1 250/109/1 251/106/1
f 228/110/1 249/111/1 250/109/1
f 227/112/1 248/113/1 249/111/1
f 234/114/1 258/115/1 256/116/1
f 226/117/1 253/118/1 248/113/1
f 231/119/1 254/120/1 253/118/1
f 232/121/1 255/122/1 254/120/1
f 233/123/1 256/116/1 255/122/1
f 255/122/1 162/124/1 146/125/1
f 254/120/1 146/125/1 130/126/1
f 253/118/1 130/126/1 114/127/1
f 248/113/1 114/127/1 16/128/1
f 256/116/1 6/129/1 162/124/1
f 249/111/1 16/128/1 22/130/1
f 250/109/1 22/130/1 28/131/1
f 251/106/1 28/131/1 34/132/1
f 284/83/1 228/110/1 229/108/1
f 283/81/1 227/112/1 228/110/1
f 282/79/1 226/117/1 227/112/1
f 289/68/1 236/133/1 234/114/1
f 281/75/1 231/119/1 226/117/1
f 287/71/1 233/123/1 232/121/1
f 288/69/1 234/114/1 233/123/1
f 295/102/1 184/80/1 185/82/1
f 294/100/1 183/78/1 184/80/1
f 293/98/1 182/74/1 183/78/1
f 300/87/1 188/134/1 200/76/1
f 292/94/1 194/72/1 182/74/1
f 297/92/1 196/70/1 194/72/1
f 299/88/1 200/76/1 198/67/1
f 332/56/1 223/95/1 222/86/1
f 331/49/1 222/86/1 221/89/1
f 330/42/1 221/89/1 220/91/1
f 325/39/1 220/91/1 215/93/1
f 333/41/1 203/135/1 223/95/1
f 326/38/1 215/93/1 216/97/1
f 327/37/1 216/97/1 217/99/1
f 328/35/1 217/99/1 218/101/1
f 163/1/1 12/19/1 102/2/1
f 23/4/1 17/17/1 103/5/1
f 29/7/1 23/4/1 106/6/1
f 35/9/1 29/7/1 107/8/1
f 41/11/1 35/9/1 110/10/1
f 56/13/1 53/14/1 35/9/1
f 53/14/1 52/15/1 29/7/1
f 52/15/1 49/16/1 23/4/1
f 49/16/1 48/24/1 17/17/1
f 166/18/1 44/136/1 12/19/1
f 70/20/1 69/21/1 53/14/1
f 69/21/1 68/22/1 52/15/1
f 68/22/1 67/23/1 49/16/1
f 67/23/1 66/29/1 48/24/1
f 84/25/1 83/26/1 69/21/1
f 83/26/1 82/27/1 68/22/1
f 82/27/1 81/28/1 67/23/1
f 81/28/1 80/34/1 66/29/1
f 98/30/1 97/31/1 83/26/1
f 97/31/1 96/32/1 82/27/1
f 96/32/1 95/33/1 81/28/1
f 95/33/1 94/43/1 80/34/1
f 111/12/1 110/10/1 328/35/1
f 110/10/1 107/8/1 327/37/1
f 107/8/1 106/6/1 326/38/1
f 106/6/1 103/5/1 325/39/1
f 173/3/1 102/2/1 313/40/1
f 103/5/1 127/48/1 330/42/1
f 94/43/1 126/50/1 124/44/1
f 80/34/1 124/44/1 122/45/1
f 66/29/1 122/45/1 120/46/1
f 48/24/1 120/46/1 115/47/1
f 17/17/1 115/47/1 127/48/1
f 127/48/1 141/55/1 331/49/1
f 126/50/1 140/57/1 138/51/1
f 124/44/1 138/51/1 136/52/1
f 122/45/1 136/52/1 134/53/1
f 120/46/1 134/53/1 131/54/1
f 115/47/1 131/54/1 141/55/1
f 141/55/1 157/62/1 332/56/1
f 140/57/1 156/63/1 154/58/1
f 138/51/1 154/58/1 152/59/1
f 136/52/1 152/59/1 150/60/1
f 134/53/1 150/60/1 147/61/1
f 131/54/1 147/61/1 157/62/1
f 157/62/1 173/3/1 333/41/1
f 156/63/1 172/137/1 170/64/1
f 154/58/1 170/64/1 168/65/1
f 166/18/1 150/60/1 152/59/1
f 152/59/1 168/65/1 179/66/1
f 150/60/1 166/18/1 163/1/1
f 147/61/1 163/1/1 173/3/1
f 198/67/1 200/76/1 289/68/1
f 196/70/1 198/67/1 288/69/1
f 194/72/1 196/70/1 287/71/1
f 182/74/1 194/72/1 286/73/1
f 200/76/1 188/134/1 269/77/1
f 183/78/1 182/74/1 281/75/1
f 184/80/1 183/78/1 282/79/1
f 185/82/1 184/80/1 283/81/1
f 186/84/1 185/82/1 284/83/1
f 222/86/1 223/95/1 300/87/1
f 221/89/1 222/86/1 299/88/1
f 220/91/1 221/89/1 298/90/1
f 215/93/1 220/91/1 297/92/1
f 223/95/1 203/135/1 302/96/1
f 216/97/1 215/93/1 292/94/1
f 217/99/1 216/97/1 293/98/1
f 218/101/1 217/99/1 294/100/1
f 219/103/1 218/101/1 295/102/1
f 230/105/1 229/108/1 251/106/1
f 229/108/1 228/110/1 250/109/1
f 228/110/1 227/112/1 249/111/1
f 227/112/1 226/117/1 248/113/1
f 234/114/1 236/133/1 258/115/1
f 226/117/1 231/119/1 253/118/1
f 231/119/1 232/121/1 254/120/1
f 232/121/1 233/123/1 255/122/1
f 233/123/1 234/114/1 256/116/1
f 255/122/1 256/116/1 162/124/1
f 254/120/1 255/122/1 146/125/1
f 253/118/1 254/120/1 130/126/1
f 248/113/1 253/118/1 114/127/1
f 256/116/1 258/115/1 6/129/1
f 249/111/1 248/113/1 16/128/1
f 250/109/1 249/111/1 22/130/1
f 251/106/1 250/109/1 28/131/1
f 284/83/1 283/81/1 228/110/1
f 283/81/1 282/79/1 227/112/1
f 282/79/1 281/75/1 226/117/1
f 289/68/1 269/77/1 236/133/1
f 281/75/1 286/73/1 231/119/1
f 287/71/1 288/69/1 233/123/1
f 288/69/1 289/68/1 234/114/1
f 295/102/1 294/100/1 184/80/1
f 294/100/1 293/98/1 183/78/1
f 293/98/1 292/94/1 182/74/1
f 300/87/1 302/96/1 188/134/1
f 292/94/1 297/92/1 194/72/1
f 297/92/1 298/90/1 196/70/1
f 299/88/1 300/87/1 200/76/1
f 332/56/1 333/41/1 223/95/1
f 331/49/1 332/56/1 222/86/1
f 330/42/1 331/49/1 221/89/1
f 325/39/1 330/42/1 220/91/1
f 333/41/1 313/40/1 203/135/1
f 326/38/1 325/39/1 215/93/1
f 327/37/1 326/38/1 216/97/1
f 328/35/1 327/37/1 217/99/1
usemtl Madera_Chocolate.001
f 37/138/2 3/139/2 39/140/2
f 246/141/3 7/142/3 257/143/3
f 162/144/4 5/142/4 176/145/4
f 86/146/5 1/147/5 93/148/5
f 176/149/6 247/150/6 267/151/6
f 164/152/6 46/153/6 165/154/6
f 102/155/5 11/156/5 100/157/5
f 45/158/3 9/159/3 43/160/3
f 24/161/6 47/162/6 50/163/6
f 20/164/6 259/165/6 260/166/6
f 22/167/4 15/168/4 20/169/4
f 117/170/2 13/171/2 113/172/2
f 28/173/4 20/169/4 26/174/4
f 26/175/6 260/166/6 261/176/6
f 30/177/6 50/163/6 51/178/6
f 14/179/2 21/180/2 13/171/2
f 36/181/6 51/178/6 54/182/6
f 32/183/6 261/176/6 262/184/6
f 34/185/4 26/174/4 32/186/4
f 19/187/2 27/188/2 21/180/2
f 40/189/4 32/186/4 38/190/4
f 38/191/6 262/184/6 263/192/6
f 42/193/6 54/182/6 55/194/6
f 25/195/2 33/196/2 27/188/2
f 9/197/6 55/194/6 43/198/6
f 7/199/6 263/192/6 257/200/6
f 8/201/4 38/190/4 7/202/4
f 31/203/2 39/140/2 33/196/2
f 43/198/6 63/204/6 57/205/6
f 55/194/6 62/206/6 63/204/6
f 54/182/6 61/207/6 62/206/6
f 51/178/6 60/208/6 61/207/6
f 50/163/6 59/209/6 60/208/6
f 64/210/3 43/160/3 57/211/3
f 165/154/6 177/212/6 65/213/6
f 12/214/5 46/215/5 11/156/5
f 167/216/6 79/217/6 169/218/6
f 78/219/3 57/211/3 71/220/3
f 60/208/6 73/221/6 74/222/6
f 61/207/6 74/222/6 75/223/6
f 62/206/6 75/223/6 76/224/6
f 63/204/6 76/224/6 77/225/6
f 57/205/6 77/225/6 71/226/6
f 44/227/5 177/228/5 46/229/5
f 71/226/6 91/230/6 85/231/6
f 77/225/6 90/232/6 91/230/6
f 76/224/6 89/233/6 90/232/6
f 75/223/6 88/234/6 89/233/6
f 74/222/6 87/235/6 88/234/6
f 92/236/3 71/220/3 85/237/3
f 169/218/6 93/238/6 171/239/6
f 58/240/5 79/241/5 65/242/5
f 171/243/6 1/244/6 161/245/6
f 4/246/3 85/237/3 3/247/3
f 88/234/6 13/248/6 21/249/6
f 89/233/6 21/249/6 27/250/6
f 90/232/6 27/250/6 33/251/6
f 91/230/6 33/251/6 39/252/6
f 85/231/6 39/252/6 3/253/6
f 72/254/5 93/148/5 79/241/5
f 101/255/6 42/193/6 9/197/6
f 112/256/6 36/181/6 42/193/6
f 109/257/6 30/177/6 36/181/6
f 108/258/6 24/161/6 30/177/6
f 105/259/6 18/260/6 24/161/6
f 313/261/5 100/157/5 324/262/5
f 174/263/6 11/264/6 164/152/6
f 10/265/3 101/266/3 9/159/3
f 104/267/6 116/268/6 18/260/6
f 87/235/6 113/269/6 13/248/6
f 73/221/6 125/270/6 87/235/6
f 59/209/6 123/271/6 73/221/6
f 47/162/6 121/272/6 59/209/6
f 143/273/2 113/172/2 129/274/2
f 18/260/6 119/275/6 47/162/6
f 15/276/6 264/277/6 259/165/6
f 16/278/4 118/279/4 15/168/4
f 159/280/2 129/274/2 145/281/2
f 128/282/6 132/283/6 116/268/6
f 125/270/6 129/274/6 113/269/6
f 123/271/6 139/284/6 125/270/6
f 121/272/6 137/285/6 123/271/6
f 119/275/6 135/286/6 121/272/6
f 116/268/6 133/287/6 119/275/6
f 118/288/6 265/289/6 264/277/6
f 114/290/4 144/291/4 118/279/4
f 175/292/2 145/281/2 161/293/2
f 142/294/6 148/295/6 132/283/6
f 139/284/6 145/296/6 129/274/6
f 137/285/6 155/297/6 139/284/6
f 135/286/6 153/298/6 137/285/6
f 133/287/6 151/299/6 135/286/6
f 132/283/6 149/300/6 133/287/6
f 144/301/6 266/302/6 265/289/6
f 130/303/4 160/304/4 144/291/4
f 2/305/2 161/293/2 1/306/2
f 158/307/6 164/152/6 148/295/6
f 155/297/6 161/293/6 145/296/6
f 153/298/6 171/239/6 155/297/6
f 151/299/6 169/218/6 153/298/6
f 149/300/6 167/216/6 151/299/6
f 148/295/6 165/154/6 149/300/6
f 160/308/6 267/151/6 266/302/6
f 146/309/4 176/145/4 160/304/4
f 178/310/5 65/242/5 177/228/5
f 199/311/6 311/312/6 310/313/6
f 197/314/6 310/313/6 309/315/6
f 195/316/6 309/315/6 308/317/6
f 189/318/6 308/317/6 303/319/6
f 269/320/5 181/321/5 280/322/5
f 187/323/6 307/324/6 301/325/6
f 193/326/6 306/327/6 307/324/6
f 192/328/6 305/329/6 306/327/6
f 191/330/6 304/331/6 305/329/6
f 190/332/6 303/319/6 304/331/6
f 201/333/6 291/334/6 311/312/6
f 290/335/3 187/336/3 301/337/3
f 323/338/3 202/339/3 312/340/3
f 212/341/6 324/342/6 322/343/6
f 205/344/6 314/345/6 315/346/6
f 206/347/6 315/346/6 316/348/6
f 207/349/6 316/348/6 317/350/6
f 208/351/6 317/350/6 318/352/6
f 202/353/6 318/352/6 312/354/6
f 204/355/6 319/356/6 314/345/6
f 209/357/6 320/358/6 319/356/6
f 210/359/6 321/360/6 320/358/6
f 211/361/6 322/343/6 321/360/6
f 302/362/5 214/363/5 291/364/5
f 258/365/5 225/366/5 247/367/5
f 244/368/6 278/369/6 277/370/6
f 243/371/6 277/370/6 276/372/6
f 242/373/6 276/372/6 275/374/6
f 237/375/6 275/374/6 270/376/6
f 235/377/6 274/378/6 268/379/6
f 241/380/6 273/381/6 274/378/6
f 240/382/6 272/383/6 273/381/6
f 239/384/6 271/385/6 272/383/6
f 238/386/6 270/376/6 271/385/6
f 245/387/6 280/388/6 278/369/6
f 279/389/3 235/390/3 268/391/3
f 6/392/5 247/367/5 5/393/5
f 266/302/6 245/387/6 244/368/6
f 265/289/6 244/368/6 243/371/6
f 264/277/6 243/371/6 242/373/6
f 259/165/6 242/373/6 237/375/6
f 257/200/6 241/380/6 235/377/6
f 263/192/6 240/382/6 241/380/6
f 262/184/6 239/384/6 240/382/6
f 261/176/6 238/386/6 239/384/6
f 260/166/6 237/375/6 238/386/6
f 267/151/6 225/394/6 245/387/6
f 224/395/3 257/143/3 235/390/3
f 180/396/3 268/391/3 187/336/3
f 278/369/6 181/397/6 201/333/6
f 271/385/6 189/318/6 190/332/6
f 272/383/6 190/332/6 191/330/6
f 273/381/6 191/330/6 192/328/6
f 274/378/6 192/328/6 193/326/6
f 268/379/6 193/326/6 187/323/6
f 270/376/6 195/316/6 189/318/6
f 275/374/6 197/314/6 195/316/6
f 276/372/6 199/311/6 197/314/6
f 277/370/6 201/333/6 199/311/6
f 236/398/5 280/322/5 225/366/5
f 188/399/5 291/364/5 181/321/5
f 213/400/3 301/337/3 202/339/3
f 311/312/6 214/401/6 212/341/6
f 304/331/6 204/355/6 205/344/6
f 305/329/6 205/344/6 206/347/6
f 306/327/6 206/347/6 207/349/6
f 307/324/6 207/349/6 208/351/6
f 301/325/6 208/351/6 202/353/6
f 303/319/6 209/357/6 204/355/6
f 308/317/6 210/359/6 209/357/6
f 309/315/6 211/361/6 210/359/6
f 310/313/6 212/341/6 211/361/6
f 321/360/6 174/263/6 158/307/6
f 320/358/6 158/307/6 142/294/6
f 319/356/6 142/294/6 128/282/6
f 314/345/6 128/282/6 104/267/6
f 312/354/6 112/256/6 101/255/6
f 318/352/6 109/257/6 112/256/6
f 317/350/6 108/258/6 109/257/6
f 316/348/6 105/259/6 108/258/6
f 315/346/6 104/267/6 105/259/6
f 322/343/6 100/402/6 174/263/6
f 99/403/3 312/340/3 101/266/3
f 203/404/5 324/262/5 214/363/5
f 342/405/4 344/406/4 341/407/4
f 37/138/2 4/408/2 3/139/2
f 246/141/3 8/409/3 7/142/3
f 162/144/4 6/410/4 5/142/4
f 86/146/5 2/411/5 1/147/5
f 176/149/6 5/229/6 247/150/6
f 164/152/6 11/264/6 46/153/6
f 102/155/5 12/214/5 11/156/5
f 45/158/3 10/265/3 9/159/3
f 24/161/6 18/260/6 47/162/6
f 20/164/6 15/276/6 259/165/6
f 22/167/4 16/278/4 15/168/4
f 117/170/2 14/179/2 13/171/2
f 28/173/4 22/167/4 20/169/4
f 26/175/6 20/164/6 260/166/6
f 30/177/6 24/161/6 50/163/6
f 14/179/2 19/187/2 21/180/2
f 36/181/6 30/177/6 51/178/6
f 32/183/6 26/175/6 261/176/6
f 34/185/4 28/173/4 26/174/4
f 19/187/2 25/195/2 27/188/2
f 40/189/4 34/185/4 32/186/4
f 38/191/6 32/183/6 262/184/6
f 42/193/6 36/181/6 54/182/6
f 25/195/2 31/203/2 33/196/2
f 9/197/6 42/193/6 55/194/6
f 7/199/6 38/191/6 263/192/6
f 8/201/4 40/189/4 38/190/4
f 31/203/2 37/138/2 39/140/2
f 43/198/6 55/194/6 63/204/6
f 55/194/6 54/182/6 62/206/6
f 54/182/6 51/178/6 61/207/6
f 51/178/6 50/163/6 60/208/6
f 50/163/6 47/162/6 59/209/6
f 64/210/3 45/158/3 43/160/3
f 65/213/6 167/216/6 165/154/6
f 165/154/6 46/153/6 177/212/6
f 12/214/5 44/412/5 46/215/5
f 167/216/6 65/213/6 79/217/6
f 78/219/3 64/210/3 57/211/3
f 60/208/6 59/209/6 73/221/6
f 61/207/6 60/208/6 74/222/6
f 62/206/6 61/207/6 75/223/6
f 63/204/6 62/206/6 76/224/6
f 57/205/6 63/204/6 77/225/6
f 44/227/5 178/310/5 177/228/5
f 71/226/6 77/225/6 91/230/6
f 77/225/6 76/224/6 90/232/6
f 76/224/6 75/223/6 89/233/6
f 75/223/6 74/222/6 88/234/6
f 74/222/6 73/221/6 87/235/6
f 92/236/3 78/219/3 71/220/3
f 169/218/6 79/217/6 93/238/6
f 58/240/5 72/254/5 79/241/5
f 171/243/6 93/413/6 1/244/6
f 4/246/3 92/236/3 85/237/3
f 88/234/6 87/235/6 13/248/6
f 89/233/6 88/234/6 21/249/6
f 90/232/6 89/233/6 27/250/6
f 91/230/6 90/232/6 33/251/6
f 85/231/6 91/230/6 39/252/6
f 72/254/5 86/146/5 93/148/5
f 101/255/6 112/256/6 42/193/6
f 112/256/6 109/257/6 36/181/6
f 109/257/6 108/258/6 30/177/6
f 108/258/6 105/259/6 24/161/6
f 105/259/6 104/267/6 18/260/6
f 313/261/5 102/155/5 100/157/5
f 174/263/6 100/402/6 11/264/6
f 10/265/3 99/403/3 101/266/3
f 104/267/6 128/282/6 116/268/6
f 87/235/6 125/270/6 113/269/6
f 73/221/6 123/271/6 125/270/6
f 59/209/6 121/272/6 123/271/6
f 47/162/6 119/275/6 121/272/6
f 143/273/2 117/170/2 113/172/2
f 18/260/6 116/268/6 119/275/6
f 15/276/6 118/288/6 264/277/6
f 16/278/4 114/290/4 118/279/4
f 159/280/2 143/273/2 129/274/2
f 128/282/6 142/294/6 132/283/6
f 125/270/6 139/284/6 129/274/6
f 123/271/6 137/285/6 139/284/6
f 121/272/6 135/286/6 137/285/6
f 119/275/6 133/287/6 135/286/6
f 116/268/6 132/283/6 133/287/6
f 118/288/6 144/301/6 265/289/6
f 114/290/4 130/303/4 144/291/4
f 175/292/2 159/280/2 145/281/2
f 142/294/6 158/307/6 148/295/6
f 139/284/6 155/297/6 145/296/6
f 137/285/6 153/298/6 155/297/6
f 135/286/6 151/299/6 153/298/6
f 133/287/6 149/300/6 151/299/6
f 132/283/6 148/295/6 149/300/6
f 144/301/6 160/308/6 266/302/6
f 130/303/4 146/309/4 160/304/4
f 2/305/2 175/292/2 161/293/2
f 158/307/6 174/263/6 164/152/6
f 155/297/6 171/239/6 161/293/6
f 153/298/6 169/218/6 171/239/6
f 151/299/6 167/216/6 169/218/6
f 149/300/6 165/154/6 167/216/6
f 148/295/6 164/152/6 165/154/6
f 160/308/6 176/149/6 267/151/6
f 146/309/4 162/144/4 176/145/4
f 178/310/5 58/240/5 65/242/5
f 199/311/6 201/333/6 311/312/6
f 197/314/6 199/311/6 310/313/6
f 195/316/6 197/314/6 309/315/6
f 189/318/6 195/316/6 308/317/6
f 269/320/5 188/399/5 181/321/5
f 187/323/6 193/326/6 307/324/6
f 193/326/6 192/328/6 306/327/6
f 192/328/6 191/330/6 305/329/6
f 191/330/6 190/332/6 304/331/6
f 190/332/6 189/318/6 303/319/6
f 201/333/6 181/397/6 291/334/6
f 290/335/3 180/396/3 187/336/3
f 323/338/3 213/400/3 202/339/3
f 212/341/6 214/401/6 324/342/6
f 205/344/6 204/355/6 314/345/6
f 206/347/6 205/344/6 315/346/6
f 207/349/6 206/347/6 316/348/6
f 208/351/6 207/349/6 317/350/6
f 202/353/6 208/351/6 318/352/6
f 204/355/6 209/357/6 319/356/6
f 209/357/6 210/359/6 320/358/6
f 210/359/6 211/361/6 321/360/6
f 211/361/6 212/341/6 322/343/6
f 302/362/5 203/404/5 214/363/5
f 258/365/5 236/398/5 225/366/5
f 244/368/6 245/387/6 278/369/6
f 243/371/6 244/368/6 277/370/6
f 242/373/6 243/371/6 276/372/6
f 237/375/6 242/373/6 275/374/6
f 235/377/6 241/380/6 274/378/6
f 241/380/6 240/382/6 273/381/6
f 240/382/6 239/384/6 272/383/6
f 239/384/6 238/386/6 271/385/6
f 238/386/6 237/375/6 270/376/6
f 245/387/6 225/394/6 280/388/6
f 279/389/3 224/395/3 235/390/3
f 6/392/5 258/365/5 247/367/5
f 266/302/6 267/151/6 245/387/6
f 265/289/6 266/302/6 244/368/6
f 264/277/6 265/289/6 243/371/6
f 259/165/6 264/277/6 242/373/6
f 257/200/6 263/192/6 241/380/6
f 263/192/6 262/184/6 240/382/6
f 262/184/6 261/176/6 239/384/6
f 261/176/6 260/166/6 238/386/6
f 260/166/6 259/165/6 237/375/6
f 267/151/6 247/150/6 225/394/6
f 224/395/3 246/141/3 257/143/3
f 180/396/3 279/389/3 268/391/3
f 278/369/6 280/388/6 181/397/6
f 271/385/6 270/376/6 189/318/6
f 272/383/6 271/385/6 190/332/6
f 273/381/6 272/383/6 191/330/6
f 274/378/6 273/381/6 192/328/6
f 268/379/6 274/378/6 193/326/6
f 270/376/6 275/374/6 195/316/6
f 275/374/6 276/372/6 197/314/6
f 276/372/6 277/370/6 199/311/6
f 277/370/6 278/369/6 201/333/6
f 236/398/5 269/320/5 280/322/5
f 188/399/5 302/362/5 291/364/5
f 213/400/3 290/335/3 301/337/3
f 311/312/6 291/334/6 214/401/6
f 304/331/6 303/319/6 204/355/6
f 305/329/6 304/331/6 205/344/6
f 306/327/6 305/329/6 206/347/6
f 307/324/6 306/327/6 207/349/6
f 301/325/6 307/324/6 208/351/6
f 303/319/6 308/317/6 209/357/6
f 308/317/6 309/315/6 210/359/6
f 309/315/6 310/313/6 211/361/6
f 310/313/6 311/312/6 212/341/6
f 321/360/6 322/343/6 174/263/6
f 320/358/6 321/360/6 158/307/6
f 319/356/6 320/358/6 142/294/6
f 314/345/6 319/356/6 128/282/6
f 312/354/6 318/352/6 112/256/6
f 318/352/6 317/350/6 109/257/6
f 317/350/6 316/348/6 108/258/6
f 316/348/6 315/346/6 105/259/6
f 315/346/6 314/345/6 104/267/6
f 322/343/6 324/342/6 100/402/6
f 99/403/3 323/338/3 312/340/3
f 203/404/5 313/261/5 324/262/5
usemtl Blanco
f 252/107/1 34/132/1 40/414/1
f 285/85/1 229/108/1 230/105/1
f 286/73/1 232/121/1 231/119/1
f 296/104/1 185/82/1 186/84/1
f 298/90/1 198/67/1 196/70/1
f 329/36/1 218/101/1 219/103/1
f 219/415/6 334/416/6 329/417/6
f 186/418/6 336/419/6 296/420/6
f 230/421/6 338/422/6 285/423/6
f 40/424/6 340/425/6 252/426/6
f 341/427/6 343/428/6 340/425/6
f 337/429/6 345/430/6 336/419/6
f 252/107/1 251/106/1 34/132/1
f 285/85/1 284/83/1 229/108/1
f 286/73/1 287/71/1 232/121/1
f 296/104/1 295/102/1 185/82/1
f 298/90/1 299/88/1 198/67/1
f 329/36/1 328/35/1 218/101/1
f 219/415/6 335/431/6 334/416/6
f 186/418/6 337/429/6 336/419/6
f 230/421/6 339/430/6 338/422/6
f 40/424/6 341/427/6 340/425/6
f 341/427/6 344/422/6 343/428/6
f 337/429/6 346/416/6 345/430/6
