# Blender 5.0.1
# www.blender.org
mtllib ColumFrontS3.mtl
o ColumFrontS3
v -3.918259 10.556461 7.497717
v -4.635161 11.029217 7.497717
v -4.644901 11.059049 7.497717
v -7.868104 7.799735 7.497717
v -7.374373 7.799735 7.497717
v -7.868104 4.210196 7.497717
v -5.893181 11.093894 7.994495
v -5.893181 11.109495 7.994495
v -5.893181 11.077357 7.497717
v -6.880642 11.070018 7.497717
v -4.635161 11.029217 7.497717
v -4.753902 11.030507 7.497717
v -4.748598 11.033558 7.497717
v -4.702805 11.059898 7.497717
v -4.644901 11.059049 7.497717
v -6.880642 11.082319 7.497717
v -6.252377 11.074688 7.497717
v -5.877153 11.061511 7.490350
v -7.868104 0.620663 7.994498
v -3.918259 0.620663 7.994498
v -5.893181 0.620663 7.994498
v -6.880642 0.620663 7.994498
v -7.374373 0.620663 7.994498
v -7.374373 0.620663 7.000941
v -3.918259 0.620663 7.497720
v -5.893181 0.620663 7.497720
v -6.880642 0.620663 7.497720
v -7.374373 0.620663 7.497720
v -7.868104 0.620663 7.497720
v -7.374373 14.978806 7.994495
v -7.868104 14.978806 7.994495
v -3.918259 14.978806 7.497717
v -3.918259 14.978806 7.994495
v -5.893181 14.978806 7.994495
v -5.893181 14.978806 7.497717
v -6.880642 14.978806 7.994495
v -6.880642 14.978806 7.497717
v -7.374373 14.978806 7.497717
v -7.868104 14.978806 7.497717
v -7.868104 11.998816 7.497717
v -7.374373 11.998816 7.497717
v -3.918259 11.977582 7.994495
v -3.918259 11.985296 7.497717
v -7.374373 1.959836 7.497720
v -7.868104 7.799735 7.497717
v -7.868104 7.799735 7.994495
v -7.062629 11.093894 7.994495
v -6.880642 11.093894 7.994495
v -7.374373 7.799735 7.994495
v -3.918259 11.093894 7.994495
v -3.918259 6.302979 7.497717
v -3.918259 6.299120 7.994495
v -3.918259 9.121850 7.994495
v -3.918259 9.127626 7.497717
v -3.918259 10.549716 7.994495
v -3.918259 10.556461 7.497717
v -6.880642 11.389271 7.497717
v -7.868104 11.389271 7.994495
v -6.880642 11.389271 7.994495
v -7.868104 11.389271 7.497717
v -5.893181 11.389271 7.497717
v -7.374373 11.389271 7.994495
v -7.374373 11.389271 7.497717
v -5.893181 11.389271 7.994495
v -7.868104 4.210196 7.497717
v -7.374373 4.210196 7.994495
v -7.374373 4.210196 7.497717
v -7.374373 11.093894 7.994495
v -7.868104 4.210196 7.994495
v -7.868104 11.093894 7.994495
v -7.868104 9.914473 7.994495
v -3.918259 9.931760 7.994495
v -7.374373 11.124259 7.994495
v -7.868104 11.129180 7.994495
v -7.374373 9.916634 7.994495
v -7.868104 2.007626 7.994498
v -5.893181 2.007627 7.994498
v -3.918259 2.007626 7.994498
v -7.374373 2.007627 7.994498
v -6.880642 2.007626 7.994498
v -4.569149 9.928585 7.994495
v -4.643703 2.007627 7.994498
v -4.643703 14.978806 7.994495
v -4.643703 0.620663 7.994498
v -4.569149 11.093893 7.994495
v -5.893181 11.093894 7.994495
v -6.880642 11.119339 7.994495
v -5.893181 11.109495 7.994495
v -6.880642 11.049356 7.497717
v -5.893181 11.042886 7.497717
v -5.893181 11.077357 7.497717
v -6.880642 11.070018 7.497717
v -4.635161 11.029217 7.497717
v -4.753902 11.030507 7.497717
v -4.644901 11.059049 7.497717
v -7.409063 11.124605 7.994495
v -4.709641 0.620663 7.497720
v -3.918259 4.214802 7.497717
v -4.683935 4.213017 7.497717
v -3.918259 4.082727 7.994495
v -5.893181 1.959836 7.497720
v -7.868104 1.959836 7.497720
v -6.880642 11.082319 7.497717
v -7.217644 11.086373 7.497717
v -6.252377 11.074688 7.497717
v -3.918259 1.961555 7.497720
v -6.880642 1.959836 7.497720
v -4.700050 1.960889 7.497720
v -5.903393 1.963720 7.515909
v -7.384585 1.963720 7.515909
v -6.890854 1.963719 7.515909
v -4.653914 1.963719 7.515909
v -7.381978 7.674006 7.485929
v -7.381978 4.084469 7.485929
v -7.381978 10.968163 7.485927
v -7.381978 9.790906 7.485927
v -7.381978 1.881899 7.485930
v -4.650431 9.923012 7.535751
v -4.710633 2.002050 7.495751
v -4.650431 11.088320 7.535751
v -7.046601 11.045910 7.490350
v -7.358345 11.045910 7.490350
v -4.627675 11.045909 7.490350
v -5.877153 11.045910 7.490350
v -6.864614 11.071355 7.490350
v -5.877153 11.061511 7.490350
vn -0.0000 -0.0000 -1.0000
vn -0.0106 -0.0033 -0.9999
vn 0.9995 -0.0000 0.0318
vn -0.0000 -0.0000 1.0000
vn -1.0000 -0.0000 -0.0000
vn 1.0000 -0.0000 -0.0000
vn -0.0000 0.9958 -0.0914
vn 0.9999 -0.0000 -0.0150
vn -0.9846 0.0001 0.1746
vn -0.9847 -0.0000 0.1745
vn -0.9855 0.0047 0.1697
vn -0.9909 0.0070 0.1344
vn -0.9849 0.0092 0.1727
vn -0.9911 0.0069 0.1329
vn 0.0099 0.9955 -0.0944
vn -0.1378 0.9856 -0.0982
vn -0.0000 -0.9955 0.0948
vn -0.0000 -0.9955 0.0947
vn -0.9909 0.0070 0.1345
vn -0.0000 1.0000 -0.0000
vt 0.818273 0.300133
vt 0.827544 0.286075
vt 0.828129 0.285884
vt 0.680236 0.441573
vt 0.680534 0.439360
vt 0.680525 0.441254
vt 0.614175 0.672835
vt 0.619081 0.673341
vt 0.614143 0.673341
vt 0.614143 0.335816
vt 0.648934 0.335816
vt 0.648934 0.351967
vt 0.680703 0.400420
vt 0.680278 0.437862
vt 0.680249 0.437688
vt 0.827569 0.283747
vt 0.827629 0.283851
vt 0.828585 0.242043
vt 0.828435 0.254362
vt 0.828344 0.242043
vt 0.683726 0.335816
vt 0.718517 0.351967
vt 0.683726 0.351967
vt 0.519212 0.309481
vt 0.630323 0.361061
vt 0.519212 0.361061
vt 0.683726 0.368118
vt 0.718517 0.400420
vt 0.683726 0.400420
vt 0.561955 0.000000
vt 0.614143 0.010834
vt 0.561955 0.010834
vt 0.718517 0.368118
vt 0.627139 0.578081
vt 0.648962 0.553034
vt 0.648979 0.578081
vt 0.185879 0.075787
vt 0.228811 0.206321
vt 0.185879 0.206321
vt 0.187440 0.900240
vt 0.166779 0.889408
vt 0.179627 0.889408
vt 0.630323 0.412642
vt 0.519212 0.412642
vt 0.519212 0.206321
vt 0.630323 0.309481
vt 0.614143 0.609737
vt 0.724425 0.625888
vt 0.614143 0.625888
vt 0.510069 0.067999
vt 0.630323 0.206321
vt 0.296990 0.361061
vt 0.408101 0.412642
vt 0.296990 0.412642
vt 0.614143 0.481175
vt 0.627123 0.513477
vt 0.614143 0.513477
vt 0.457581 0.000000
vt 0.509768 0.010834
vt 0.457581 0.010834
vt 0.398796 0.915832
vt 0.391618 0.915940
vt 0.391618 0.915277
vt 0.312399 0.900240
vt 0.281560 0.889408
vt 0.311729 0.889408
vt 0.249280 0.900240
vt 0.208298 0.889408
vt 0.249336 0.889408
vt 0.208214 0.900240
vt 0.187538 0.889408
vt 0.196522 0.889408
vt 0.396150 0.915277
vt 0.408101 0.361061
vt 0.473561 0.412642
vt 0.557661 0.000000
vt 0.558174 0.000000
vt 0.391113 0.915947
vt 0.510069 0.412642
vt 0.511020 0.364685
vt 0.511161 0.412642
vt 0.185879 0.361061
vt 0.228811 0.309481
vt 0.228811 0.361061
vt 0.425558 0.000000
vt 0.424863 0.010834
vt 0.228811 0.412642
vt 0.185879 0.412642
vt 0.185879 0.309481
vt 0.511009 0.361061
vt 0.510857 0.309481
vt 0.473628 0.361061
vt 0.689503 0.465024
vt 0.398796 0.915277
vt 0.413152 0.915618
vt 0.474096 0.000000
vt 0.493224 0.000000
vt 0.228811 -0.000000
vt 0.228811 0.075787
vt 0.361651 -0.000000
vt 0.449026 -0.000000
vt 0.537423 0.000000
vt 0.630323 0.000000
vt 0.680677 0.388670
vt 0.680369 0.400420
vt 0.614143 0.552193
vt 0.279640 0.900240
vt 0.710446 0.578081
vt 0.696597 0.578081
vt 0.680790 0.357094
vt 0.680751 0.368118
vt 0.614143 0.578081
vt 0.627133 0.552507
vt 0.635828 0.647844
vt 0.653843 0.658293
vt 0.635677 0.658293
vt 0.614293 0.647844
vt 0.621321 0.658293
vt 0.614143 0.658293
vt 0.621472 0.647844
vt 0.662036 0.625888
vt 0.633087 0.636974
vt 0.631259 0.625888
vt 0.714223 0.625888
vt 0.663864 0.636974
vt 0.746246 0.625888
vt 0.716051 0.636974
vt 0.615971 0.636974
vt 0.729385 0.636975
vt 0.746246 0.646970
vt 0.729304 0.646971
vt 0.614224 0.636974
vt 0.614143 0.647844
vt 0.631146 0.673348
vt 0.617020 0.684349
vt 0.616790 0.673341
vt 0.614373 0.684355
vt 0.614143 0.673348
vt 0.633393 0.658293
vt 0.614994 0.669289
vt 0.619035 0.684355
vt 0.614359 0.694542
vt 0.614143 0.684355
vt 0.718517 0.335816
vt 0.614143 0.000000
vt 0.166667 0.900240
vt 0.724425 0.609737
vt 0.510552 0.206321
vt 0.630323 0.075787
vt 0.627123 0.481175
vt 0.509768 0.000000
vt 0.331894 0.889408
vt 0.331894 0.900240
vt 0.540514 0.000000
vt 0.510069 0.361061
vt 0.405394 0.010834
vt 0.405394 0.000000
vt 0.718517 0.465024
vt 0.675654 0.465024
vt 0.413152 0.915277
vt 0.510069 0.000000
vt 0.473998 0.067999
vt 0.185879 -0.000000
vt 0.293044 -0.000000
vt 0.669219 0.578081
vt 0.715028 0.554630
vt 0.653994 0.647844
vt 0.748074 0.636974
vt 0.746327 0.636974
vt 0.631376 0.684355
vt 0.633159 0.669289
vt 0.619251 0.694542
vt 0.317535 0.970996
vt 0.315719 0.957382
vt 0.323439 0.963323
vt 0.341152 0.940304
vt 0.348373 0.914945
vt 0.357048 0.903671
vt 0.329343 0.955650
vt 0.333432 0.934363
vt 0.321623 0.949709
vt 0.038727 0.821082
vt 0.064690 0.821082
vt 0.038727 0.821387
vt 0.649700 0.222679
vt 0.693828 0.232361
vt 0.649700 0.232361
vt 0.827939 0.242043
vt 0.828488 0.261406
vt 0.623439 0.222679
vt 0.623439 0.232361
vt 0.621540 0.532932
vt 0.621540 0.309815
vt 0.631281 0.309815
vt 0.309815 0.965055
vt 0.364769 0.909612
vt 0.693828 0.222679
vt 0.827812 0.261406
s 1
usemtl Madera_Chocolate.001
f 11/4/1 14/5/2 15/6/1
f 7/7/3 18/8/3 8/9/3
f 6/10/1 4/11/1 5/12/1
f 15/6/1 14/5/2 9/13/4
f 9/13/1 13/14/1 12/15/1
f 11/4/1 13/14/1 14/5/2
f 60/21/1 38/22/1 63/23/1
f 59/24/4 30/25/4 62/26/4
f 57/27/1 35/28/1 61/29/1
f 58/30/5 39/31/5 60/32/5
f 63/23/1 37/33/1 57/27/1
f 106/34/1 99/35/1 98/36/1
f 84/37/4 77/38/4 21/39/4
f 56/40/6 42/41/6 50/42/6
f 62/26/4 31/43/4 58/44/4
f 64/45/4 36/46/4 59/24/4
f 28/47/4 40/48/4 29/49/4
f 85/50/4 34/51/4 64/45/4
f 66/52/4 46/53/4 69/54/4
f 27/55/1 101/56/1 26/57/1
f 69/58/5 45/59/5 65/60/5
f 87/61/4 73/62/4 68/63/4
f 106/64/6 100/65/6 78/66/6
f 51/67/6 53/68/6 52/69/6
f 54/70/6 55/71/6 72/72/6
f 68/63/4 47/73/4 87/61/4
f 49/74/4 71/75/4 46/53/4
f 70/76/5 74/77/5 60/32/5
f 96/78/4 68/63/4 73/62/4
f 70/79/4 96/80/4 74/81/4
f 23/82/4 80/83/4 79/84/4
f 76/85/5 65/60/5 102/86/5
f 23/82/4 76/87/4 19/88/4
f 21/39/4 80/83/4 22/89/4
f 73/90/4 59/24/4 62/26/4
f 87/91/4 64/45/4 59/24/4
f 75/92/4 70/79/4 71/75/4
f 95/6/1 61/29/1 43/93/1
f 48/94/4 88/95/4 87/61/4
f 85/50/4 72/96/4 55/97/4
f 96/80/4 62/26/4 58/44/4
f 79/84/4 69/54/4 76/87/4
f 84/37/4 78/98/4 82/99/4
f 82/99/4 52/100/4 53/101/4
f 85/50/4 42/102/4 33/103/4
f 105/104/1 57/27/1 61/29/1
f 91/13/1 94/15/1 90/105/1
f 101/56/1 97/106/1 26/57/1
f 98/107/6 52/69/6 100/65/6
f 99/35/1 56/108/1 54/109/1
f 104/110/1 57/27/1 103/111/1
f 25/112/1 108/113/1 106/34/1
f 77/114/7 112/115/7 109/116/7
f 79/117/7 111/118/7 110/119/7
f 80/120/7 109/116/7 111/118/7
f 49/121/8 116/122/8 75/123/8
f 66/124/8 113/125/8 49/121/8
f 79/126/8 114/127/8 66/124/8
f 75/123/8 115/128/8 68/49/8
f 81/129/9 120/130/10 118/131/11
f 82/132/12 118/131/13 119/133/14
f 88/134/15 125/135/15 87/136/15
f 87/136/16 121/137/16 47/138/16
f 86/139/17 123/140/17 85/119/17
f 47/141/18 122/142/18 121/143/18
f 60/21/1 39/144/1 38/22/1
f 59/24/4 36/46/4 30/25/4
f 57/27/1 37/33/1 35/28/1
f 58/30/5 31/145/5 39/31/5
f 63/23/1 38/22/1 37/33/1
f 106/34/1 108/113/1 99/35/1
f 84/37/4 82/99/4 77/38/4
f 50/42/6 55/71/6 56/40/6
f 56/40/6 43/146/6 42/41/6
f 62/26/4 30/25/4 31/43/4
f 64/45/4 34/51/4 36/46/4
f 28/47/4 41/147/4 40/48/4
f 64/45/4 88/148/4 85/50/4
f 85/50/4 83/149/4 34/51/4
f 66/52/4 49/74/4 46/53/4
f 27/55/1 107/150/1 101/56/1
f 69/58/5 46/151/5 45/59/5
f 78/66/6 20/152/6 25/153/6
f 106/64/6 98/107/6 100/65/6
f 78/66/6 25/153/6 106/64/6
f 51/67/6 54/70/6 53/68/6
f 72/72/6 53/68/6 54/70/6
f 54/70/6 56/40/6 55/71/6
f 49/74/4 75/92/4 71/75/4
f 60/32/5 45/59/5 46/151/5
f 60/32/5 46/151/5 71/154/5
f 74/77/5 58/30/5 60/32/5
f 60/32/5 71/154/5 70/76/5
f 70/79/4 68/155/4 96/80/4
f 45/11/1 60/21/1 63/23/1
f 23/82/4 22/89/4 80/83/4
f 102/86/5 29/156/5 19/157/5
f 76/85/5 69/58/5 65/60/5
f 102/86/5 19/157/5 76/85/5
f 23/82/4 79/84/4 76/87/4
f 21/39/4 77/38/4 80/83/4
f 73/90/4 87/91/4 59/24/4
f 87/91/4 88/148/4 64/45/4
f 75/92/4 68/155/4 70/79/4
f 61/29/1 35/28/1 32/158/1
f 95/6/1 91/13/1 61/29/1
f 43/93/1 56/159/1 95/6/1
f 61/29/1 32/158/1 43/93/1
f 48/94/4 86/160/4 88/95/4
f 55/97/4 50/161/4 85/50/4
f 85/50/4 81/162/4 72/96/4
f 58/44/4 74/81/4 96/80/4
f 96/80/4 73/90/4 62/26/4
f 79/84/4 66/52/4 69/54/4
f 84/37/4 20/163/4 78/98/4
f 72/96/4 81/162/4 82/99/4
f 82/99/4 78/98/4 100/164/4
f 82/99/4 100/164/4 52/100/4
f 53/101/4 72/96/4 82/99/4
f 33/103/4 83/149/4 85/50/4
f 85/50/4 50/161/4 42/102/4
f 61/29/1 91/13/1 105/104/1
f 105/104/1 103/111/1 57/27/1
f 101/56/1 108/113/1 97/106/1
f 98/107/6 51/67/6 52/69/6
f 51/165/1 98/36/1 99/35/1
f 99/35/1 93/166/1 56/108/1
f 54/109/1 51/165/1 99/35/1
f 104/110/1 63/23/1 57/27/1
f 25/112/1 97/106/1 108/113/1
f 77/114/7 82/167/7 112/115/7
f 79/117/7 80/120/7 111/118/7
f 80/120/7 77/114/7 109/116/7
f 49/121/8 113/125/8 116/122/8
f 66/124/8 114/127/8 113/125/8
f 79/126/8 117/168/8 114/127/8
f 75/123/8 116/122/8 115/128/8
f 81/129/9 85/169/10 120/130/10
f 82/132/19 81/129/9 118/131/11
f 88/134/15 126/170/15 125/135/15
f 87/136/16 125/135/16 121/137/16
f 86/139/17 124/171/17 123/140/17
f 47/141/17 68/172/17 122/142/17
usemtl Blanco
f 1/1/1 2/2/1 3/3/1
f 12/16/1 13/17/1 11/2/1
f 16/18/1 17/19/1 10/20/1
f 39/173/20 30/174/20 38/175/20
f 35/176/20 83/177/20 33/178/20
f 37/179/20 34/180/20 35/176/20
f 38/175/20 36/181/20 37/179/20
f 86/182/4 85/183/4 88/184/4
f 102/185/1 67/186/1 44/187/1
f 89/188/1 105/19/1 91/189/1
f 29/190/1 44/187/1 28/191/1
f 41/192/6 28/193/6 24/194/6
f 39/173/20 31/195/20 30/174/20
f 33/178/20 32/196/20 35/176/20
f 35/176/20 34/180/20 83/177/20
f 37/179/20 36/181/20 34/180/20
f 38/175/20 30/174/20 36/181/20
f 102/185/1 65/197/1 67/186/1
f 91/189/1 90/198/1 89/188/1
f 89/188/1 92/20/1 105/19/1
f 29/190/1 102/185/1 44/187/1
