# Blender 5.0.1
# www.blender.org
mtllib MostradorS3.mtl
o MostradorS3
v 1.701462 0.432269 7.413224
v 1.701462 5.312615 7.413224
v 1.701462 0.432266 5.132647
v 1.701462 5.312615 5.132647
v 7.278612 0.432269 7.413224
v 7.278612 5.312615 7.413224
v 7.278612 0.432266 5.132647
v 7.278612 5.312615 5.132647
v 4.490037 0.432266 5.132647
v 4.490037 5.312615 5.132647
v 4.490037 0.432269 7.413224
v 4.490037 5.312615 7.413224
v 5.884324 5.312615 5.132647
v 5.884324 0.432269 7.413224
v 5.884324 0.432266 5.132647
v 5.884324 5.312615 7.413224
v 5.187181 0.432266 5.132647
v 5.187181 5.312615 7.413224
v 5.187181 5.312615 5.132647
v 5.187181 0.432269 7.413224
v 4.838609 0.432266 5.132647
v 4.838609 5.312615 7.413224
v 4.838609 5.312615 5.132647
v 4.838609 0.432269 7.413224
v 5.884324 5.312615 2.146070
v 7.278612 5.312615 2.146070
v 7.278612 0.432266 2.146070
v 5.187181 5.312615 2.146070
v 5.884324 0.432266 2.146070
v 5.187181 0.432266 2.146070
v 4.838609 5.312615 2.146070
v 4.838609 0.432266 2.146070
vn -1.0000 -0.0000 -0.0000
vn -0.0000 1.0000 -0.0000
vn 1.0000 -0.0000 -0.0000
vn -0.0000 -0.0000 1.0000
vn -0.0000 -1.0000 -0.0000
vn -0.0000 -0.0000 -1.0000
vt 0.403962 0.768307
vt 0.166667 0.934638
vt 0.166667 0.768307
vt 0.437842 0.166331
vt 0.370048 0.384154
vt 0.370048 0.166331
vt 0.437842 0.522274
vt 0.675137 0.355942
vt 0.675137 0.522274
vt 0.573429 0.355942
vt 0.437842 0.000000
vt 0.573429 0.000000
vt 0.166667 0.550485
vt 0.234460 0.384154
vt 0.234460 0.550485
vt 0.166667 0.166331
vt 0.302254 0.000000
vt 0.302254 0.166331
vt 0.319203 0.000000
vt 0.319203 0.166331
vt 0.302254 0.550485
vt 0.437842 0.384154
vt 0.437842 0.550485
vt 0.590378 0.355942
vt 0.590378 0.000000
vt 0.833333 0.355942
vt 0.675137 0.661014
vt 0.709017 0.355942
vt 0.641223 0.000000
vt 0.709017 0.000000
vt 0.268357 0.384154
vt 0.268357 0.550485
vt 0.336151 0.384154
vt 0.336151 0.166331
vt 0.285306 0.384154
vt 0.285306 0.550485
vt 0.641223 0.355942
vt 0.607326 0.000000
vt 0.370048 0.000000
vt 0.302254 0.384154
vt 0.833333 0.661014
vt 0.675137 0.699148
vt 0.607326 0.355942
vt 0.336151 0.000000
vt 0.833333 0.813550
vt 0.675137 0.966087
vt 0.675137 0.813550
vt 0.833333 0.737283
vt 0.675137 0.737283
vt 0.833333 0.699149
vt 0.675137 0.699149
vt 0.268357 0.768307
vt 0.675137 0.740096
vt 0.437842 0.957918
vt 0.437842 0.740096
vt 0.319203 0.384154
vt 0.234460 0.768307
vt 0.403962 0.934638
vt 0.437842 0.355942
vt 0.166667 0.384154
vt 0.166667 0.000000
vt 0.833333 0.699148
vt 0.833333 0.966087
vt 0.285306 0.768307
vt 0.675137 0.957918
s 1
usemtl Chocolate_Madera
f 2/1/1 3/2/1 1/3/1
f 8/4/2 25/5/2 13/6/2
f 8/7/3 5/8/3 7/9/3
f 12/10/4 1/11/4 11/12/4
f 7/13/5 14/14/5 15/15/5
f 4/16/2 12/17/2 10/18/2
f 10/18/2 22/19/2 23/20/2
f 9/21/5 1/22/5 3/23/5
f 22/24/4 11/12/4 24/25/4
f 4/26/6 9/27/6 3/8/6
f 6/28/4 14/29/4 5/30/4
f 13/6/2 6/11/2 8/4/2
f 15/15/5 20/31/5 17/32/5
f 13/6/2 28/33/2 19/34/2
f 15/15/5 27/3/5 7/13/5
f 17/32/5 24/35/5 21/36/5
f 16/37/4 20/38/4 14/29/4
f 19/34/2 16/39/2 13/6/2
f 21/36/5 11/40/5 9/21/5
f 10/41/6 21/42/6 9/27/6
f 18/43/4 24/25/4 20/38/4
f 23/20/2 18/44/2 19/34/2
f 25/45/6 27/46/6 29/47/6
f 28/48/6 29/47/6 30/49/6
f 31/50/6 30/49/6 32/51/6
f 21/36/5 30/52/5 17/32/5
f 23/53/1 32/54/1 21/55/1
f 19/34/2 31/56/2 23/20/2
f 17/32/5 29/57/5 15/15/5
f 7/9/3 26/55/3 8/7/3
f 2/1/1 4/58/1 3/2/1
f 8/4/2 26/22/2 25/5/2
f 8/7/3 6/59/3 5/8/3
f 12/10/4 2/59/4 1/11/4
f 7/13/5 5/60/5 14/14/5
f 4/16/2 2/61/2 12/17/2
f 10/18/2 12/17/2 22/19/2
f 9/21/5 11/40/5 1/22/5
f 22/24/4 12/10/4 11/12/4
f 4/26/6 10/41/6 9/27/6
f 6/28/4 16/37/4 14/29/4
f 13/6/2 16/39/2 6/11/2
f 15/15/5 14/14/5 20/31/5
f 13/6/2 25/5/2 28/33/2
f 15/15/5 29/57/5 27/3/5
f 17/32/5 20/31/5 24/35/5
f 16/37/4 18/43/4 20/38/4
f 19/34/2 18/44/2 16/39/2
f 21/36/5 24/35/5 11/40/5
f 10/41/6 23/62/6 21/42/6
f 18/43/4 22/24/4 24/25/4
f 23/20/2 22/19/2 18/44/2
f 25/45/6 26/63/6 27/46/6
f 28/48/6 25/45/6 29/47/6
f 31/50/6 28/48/6 30/49/6
f 21/36/5 32/64/5 30/52/5
f 23/53/1 31/65/1 32/54/1
f 19/34/2 28/33/2 31/56/2
f 17/32/5 30/52/5 29/57/5
f 7/9/3 27/53/3 26/55/3
