# Blender 5.0.1
# www.blender.org
mtllib ParedTraseraS3.mtl
o ParedTraseraS3
v -4.736983 4.946405 -7.765495
v -4.736983 4.954187 -6.893239
v -4.736983 10.013820 -7.620030
v -4.736983 10.021602 -6.747771
v 2.275101 4.946405 -7.765495
v 2.275101 4.954187 -6.893239
v 2.275101 10.013820 -7.620030
v 2.275101 10.021602 -6.747771
v -4.736983 9.664042 -7.630071
v -4.736983 9.671824 -6.757812
v 2.275101 9.664042 -7.630071
v 2.275101 9.671824 -6.757812
v -4.736983 5.419350 -7.751918
v 2.275101 5.427132 -6.879662
v -4.736983 5.427132 -6.879662
v 2.275101 5.419350 -7.751918
v -4.285326 10.013820 -7.620030
v -4.285326 10.021602 -6.747771
v -4.285326 4.946405 -7.765495
v -4.285326 4.954187 -6.893239
v -4.285326 9.671824 -6.757812
v -4.285326 9.664042 -7.630071
v -4.285326 5.427132 -6.879662
v -4.285326 5.419350 -7.751918
v 1.909496 10.021602 -6.747771
v 1.909496 4.946405 -7.765495
v 1.909496 9.671824 -6.757812
v 1.909496 5.427132 -6.879662
v 1.909496 10.013820 -7.620030
v 1.909496 4.954187 -6.893239
v 1.909496 9.664042 -7.630071
v 1.909496 5.419350 -7.751918
v -4.285326 9.694780 -7.557611
v -4.285326 5.450089 -7.679461
v 1.909496 9.694780 -7.557611
v 1.909496 5.450089 -7.679461
v 1.760120 5.595397 -7.405635
v 1.475994 5.768744 -7.160470
v -4.136187 5.595397 -7.405634
v -3.852061 5.768743 -7.160470
v 1.760120 9.544201 -7.405638
v 1.475994 9.370854 -7.160470
v -4.136187 9.544201 -7.405637
v -3.852061 9.370854 -7.160470
v 7.931276 0.620657 -7.902413
v 0.031586 0.620657 -7.902413
v 7.931276 0.620657 -7.405635
v 0.031586 0.620657 -7.405635
v -3.918259 0.620657 -7.902413
v -3.918259 0.620657 -7.405635
v -5.893181 0.620657 -7.902413
v -5.893181 0.620657 -7.405635
v -6.880642 0.620657 -7.902413
v -6.880642 0.620657 -7.405635
v -7.374373 0.620657 -7.902413
v -7.374373 0.620657 -7.405635
v 3.981431 0.620657 -7.902413
v 3.981431 0.620657 -7.405635
v 3.981431 14.978801 -7.902416
v 7.931276 14.978801 -7.902416
v 7.931276 14.978801 -7.405638
v 3.981431 14.978801 -7.405638
v -7.868104 11.998810 -7.902416
v -3.918259 11.998810 -7.902416
v 0.031586 11.998810 -7.902416
v 0.031586 11.998810 -7.405638
v -3.918259 11.998810 -7.405638
v -5.893181 11.998810 -7.902416
v -5.893181 11.998810 -7.405638
v -6.880642 11.998810 -7.902416
v -6.880642 11.998810 -7.405638
v -7.374373 11.998810 -7.902416
v -7.374373 11.998810 -7.405638
v 3.981431 11.998810 -7.902416
v 3.981431 11.998810 -7.405638
v 5.916855 0.620657 -7.902413
v 5.916855 0.620657 -7.405635
v 5.916855 14.978801 -7.902416
v 5.916855 14.978801 -7.405638
v 4.949143 0.620657 -7.902413
v 4.949143 0.620657 -7.405635
v 4.949143 14.978801 -7.902416
v 4.949143 14.978801 -7.405638
v 6.904696 0.620657 -7.902413
v 6.904696 0.620657 -7.405635
v 6.904696 14.978801 -7.902416
v 6.904696 14.978801 -7.405638
v 7.417986 0.620657 -7.902413
v 7.417986 0.620657 -7.405635
v 7.417986 14.978801 -7.902416
v 7.417986 14.978801 -7.405638
v 6.410776 0.620657 -7.902413
v 6.410776 0.620657 -7.405635
v 6.410776 14.978801 -7.902416
v 6.410776 14.978801 -7.405638
v 5.432999 0.620657 -7.902413
v 5.432999 0.620657 -7.405635
v 5.432999 14.978801 -7.902416
v 5.432999 14.978801 -7.405638
v 4.465287 0.620657 -7.902413
v 4.465287 0.620657 -7.405635
v 4.465287 14.978801 -7.902416
v 4.465287 14.978801 -7.405638
v 4.465287 0.620660 -6.595309
v 4.949143 0.620660 -6.595309
v 4.465287 14.978801 -6.595312
v 4.949143 14.978801 -6.595312
v 5.432999 0.620660 -6.663824
v 5.916855 0.620660 -6.663824
v 5.432999 14.978801 -6.663827
v 5.916855 14.978801 -6.663827
v 6.410776 0.620660 -6.527266
v 6.904696 0.620660 -6.527266
v 6.410776 14.978801 -6.527269
v 6.904696 14.978801 -6.527269
v 7.417986 0.620660 -6.643053
v 7.931276 0.620660 -6.643053
v 7.417986 14.978801 -6.643056
v 7.931276 14.978801 -6.643056
v 7.417986 0.620660 -6.558394
v 7.931276 0.620660 -6.558394
v 7.417986 14.978801 -6.558397
v 7.931276 14.978801 -6.558397
v 5.432999 0.620660 -6.579165
v 5.916855 0.620660 -6.579165
v 5.432999 14.978801 -6.579168
v 5.916855 14.978801 -6.579168
vn -0.0000 -1.0000 0.0089
vn -0.0000 0.0287 -0.9996
vn -0.0000 -0.0000 1.0000
vn -1.0000 -0.0000 -0.0000
vn -0.0000 1.0000 -0.0089
vn 1.0000 -0.0000 -0.0000
vn -0.0000 -0.0287 0.9996
vn -0.0000 -0.9996 -0.0287
vn -0.0000 0.9996 0.0287
vn -0.0000 -0.8165 0.5773
vn -0.6533 -0.0000 0.7571
vn -0.0000 0.8165 0.5773
vn 0.6533 -0.0000 0.7571
vn -0.0000 -0.0000 -1.0000
vn -0.0000 1.0000 -0.0000
vt 0.623750 0.989557
vt 0.376250 1.001957
vt 0.376250 0.989557
vt 0.376250 0.791491
vt 0.363345 0.809457
vt 0.363345 0.791491
vt 0.376250 0.616957
vt 0.363345 0.630244
vt 0.363345 0.616957
vt 0.376250 0.630244
vt 0.144692 0.630244
vt 0.128750 0.791490
vt 0.128750 0.630244
vt 0.144692 0.616957
vt 0.128750 0.616957
vt 0.144692 0.791491
vt 0.128750 0.809457
vt 0.144692 0.809457
vt -0.004900 1.012812
vt 1.004900 -0.028328
vt 1.004900 1.012812
vt 0.623750 1.001957
vt 0.376250 0.809457
vt -0.004900 -0.028329
vt 0.625000 0.232744
vt 0.375000 0.250000
vt 0.375000 0.232744
vt 0.625000 0.486965
vt 0.375000 0.486965
vt 0.625000 0.750000
vt 0.875000 0.726668
vt 0.858897 0.750000
vt 0.858897 0.726668
vt 0.875000 0.500000
vt 0.858897 0.517256
vt 0.858897 0.500000
vt 0.625000 0.517256
vt 0.625000 0.023333
vt 0.375000 0.023333
vt 0.625000 0.000000
vt 0.375000 0.000000
vt 0.875000 0.517256
vt 0.625000 0.726668
vt 0.638035 0.517256
vt 0.638035 0.500000
vt 0.638035 0.750000
vt 0.638035 0.726668
vt 0.625000 0.763035
vt 0.375000 0.763035
vt 0.625000 0.250000
vt 0.375000 0.266103
vt 0.625000 0.500000
vt 0.625000 0.266103
vt 0.375000 0.500000
vt 0.375000 0.750000
vt 0.625000 1.000000
vt 0.375000 1.000000
vt 0.125000 0.750000
vt 0.125000 0.500000
vt 0.875000 0.750000
vt 0.585430 0.360217
vt 0.556717 0.608353
vt 0.556717 0.360217
vt -0.000000 0.948323
vt 0.281553 0.933369
vt 0.281553 0.948323
vt 0.317293 0.723294
vt 0.324328 0.712461
vt 0.324328 0.723294
vt 0.441865 0.360217
vt 0.434831 0.673341
vt 0.434831 0.360217
vt 0.833333 0.500352
vt 0.166667 0.465753
vt 0.833333 0.465753
vt 0.499291 0.608353
vt 0.499291 0.360217
vt 0.728999 0.335816
vt 0.786424 0.324983
vt 0.786424 0.335816
vt 0.614148 0.335816
vt 0.621326 0.324983
vt 0.621326 0.335816
vt 0.671573 0.335816
vt 0.728998 0.324983
vt 0.642861 0.335816
vt 0.671573 0.324983
vt 0.628504 0.335816
vt 0.642860 0.324983
vt 0.628504 0.324983
vt 0.441865 0.608353
vt 0.599786 0.360217
vt 0.585430 0.608353
vt 0.606964 0.360217
vt 0.599786 0.608353
vt 0.413727 0.360217
vt 0.406546 0.673341
vt 0.406546 0.360217
vt 0.345432 0.723294
vt 0.352612 0.712461
vt 0.352612 0.723294
vt 0.698502 0.919877
vt 0.980055 0.905331
vt 0.980055 0.919877
vt 0.331362 0.694791
vt 0.331362 0.712461
vt 0.427796 0.360217
vt 0.420761 0.673341
vt 0.420761 0.360217
vt 0.331362 0.723294
vt 0.338397 0.712461
vt 0.338397 0.723294
vt 0.359793 0.723294
vt 0.367256 0.712461
vt 0.367256 0.723294
vt 0.399365 0.360217
vt 0.391902 0.673341
vt 0.391902 0.360217
vt 0.359793 0.693307
vt 0.359793 0.712461
vt 0.384440 0.673341
vt 0.384440 0.360217
vt 0.374718 0.712461
vt 0.374718 0.723294
vt 0.399365 0.673341
vt 0.345431 0.712461
vt 0.413727 0.673341
vt 0.427796 0.673341
vt 0.614143 0.578081
vt 0.753309 0.593909
vt 0.614143 0.593909
vt 0.311727 0.309614
vt 0.593280 0.293724
vt 0.593280 0.309613
vt 0.698502 0.935766
vt 0.980055 0.935766
vt -0.000000 0.964529
vt 0.281553 0.949983
vt 0.281553 0.964529
vt 0.345431 0.696285
vt 0.698502 0.955193
vt 0.980055 0.964878
vt 0.698502 0.964878
vt -0.000000 0.914486
vt 0.281553 0.897262
vt 0.281553 0.914486
vt 0.000000 0.931709
vt 0.281553 0.931709
vt 0.833333 0.412642
vt 0.374718 0.695832
vt 0.281553 0.974595
vt -0.000000 0.974595
vt 0.367256 0.695832
vt 0.374718 0.693986
vt 0.753309 0.609737
vt 0.614143 0.609737
vt 0.338397 0.696285
vt 0.345431 0.694439
vt 0.166667 0.917144
vt 0.375416 0.915298
vt 0.375416 0.917144
vt 0.000000 0.933370
vt 0.317293 0.712461
vt 0.441865 0.673341
vt 0.166667 0.500352
vt 0.606964 0.608353
vt 0.698502 0.905331
vt 0.324327 0.694791
vt 0.352612 0.693307
vt 0.753309 0.578081
vt 0.311727 0.293724
vt 0.000000 0.949983
vt 0.980055 0.955193
vt 0.000000 0.897262
vt 0.166667 0.915298
vt 0.166667 0.913452
vt 0.375416 0.913452
vt 0.166667 0.412642
vt 0.281553 0.964530
vt 0.367255 0.693986
vt 0.338396 0.694439
vt 0.623439 0.212998
vt 0.846557 0.222679
vt 0.623439 0.222679
vt 0.623439 0.193634
vt 0.846557 0.212998
vt 0.623439 0.154907
vt 0.846557 0.193634
vt 0.623439 -0.000000
vt 0.846557 0.077454
vt 0.623439 0.077454
vt 0.223117 0.984336
vt 0.223117 0.974595
vt 0.846557 0.154907
vt 0.621540 0.591633
vt 0.903093 0.601698
vt 0.621540 0.601698
vt 0.698502 0.945507
vt 0.980055 0.974366
vt 0.698502 0.974366
vt 0.621540 0.300327
vt 0.903092 0.309815
vt 0.621540 0.309815
vt 0.980055 0.945507
vt 0.846557 0.000000
vt 0.000000 0.984336
vt 0.903093 0.591633
vt 0.903092 0.300327
s 1
usemtl pantalla
f 20/1/1 1/2/1 19/3/1
f 16/4/2 26/5/2 32/6/2
f 7/7/2 31/8/2 29/9/2
f 11/10/2 32/6/2 31/8/2
f 22/11/2 13/12/2 9/13/2
f 17/14/2 9/13/2 3/15/2
f 24/16/2 1/17/2 13/12/2
f 31/8/2 24/16/2 22/11/2
f 29/9/2 22/11/2 17/14/2
f 32/6/2 19/18/2 24/16/2
f 44/19/3 38/20/3 42/21/3
f 20/1/1 2/22/1 1/2/1
f 16/4/2 5/23/2 26/5/2
f 7/7/2 11/10/2 31/8/2
f 11/10/2 16/4/2 32/6/2
f 22/11/2 24/16/2 13/12/2
f 17/14/2 22/11/2 9/13/2
f 24/16/2 19/18/2 1/17/2
f 31/8/2 32/6/2 24/16/2
f 29/9/2 31/8/2 22/11/2
f 32/6/2 26/5/2 19/18/2
f 44/19/3 40/24/3 38/20/3
usemtl negro
f 10/25/4 3/26/4 9/27/4
f 25/28/5 7/7/5 29/29/5
f 16/4/6 6/30/6 5/23/6
f 15/31/7 20/32/7 23/33/7
f 4/34/7 21/35/7 18/36/7
f 7/7/6 12/37/6 11/10/6
f 15/38/4 9/27/4 13/39/4
f 2/40/4 13/39/4 1/41/4
f 10/42/7 23/33/7 21/35/7
f 11/10/6 14/43/6 16/4/6
f 23/33/6 33/35/6 21/35/6
f 18/36/7 27/44/7 25/45/7
f 23/33/7 30/46/7 28/47/7
f 30/48/1 19/3/1 26/49/1
f 4/50/5 17/51/5 3/26/5
f 6/30/1 26/49/1 5/23/1
f 28/47/7 6/30/7 14/43/7
f 25/45/7 12/37/7 8/52/7
f 27/44/7 14/43/7 12/37/7
f 18/53/5 29/29/5 17/51/5
f 33/35/7 36/47/7 35/44/7
f 21/35/8 35/44/8 27/44/8
f 28/47/4 35/44/4 36/47/4
f 28/47/9 34/33/9 23/33/9
f 37/41/10 40/50/10 39/26/10
f 40/50/11 43/54/11 39/26/11
f 44/52/12 41/55/12 43/54/12
f 41/55/13 38/56/13 37/57/13
f 43/54/14 37/58/14 39/59/14
f 10/25/4 4/50/4 3/26/4
f 25/28/5 8/52/5 7/7/5
f 16/4/6 14/43/6 6/30/6
f 15/31/7 2/60/7 20/32/7
f 4/34/7 10/42/7 21/35/7
f 7/7/6 8/52/6 12/37/6
f 15/38/4 10/25/4 9/27/4
f 2/40/4 15/38/4 13/39/4
f 10/42/7 15/31/7 23/33/7
f 11/10/6 12/37/6 14/43/6
f 23/33/6 34/33/6 33/35/6
f 18/36/7 21/35/7 27/44/7
f 23/33/7 20/32/7 30/46/7
f 30/48/1 20/1/1 19/3/1
f 4/50/5 18/53/5 17/51/5
f 6/30/1 30/48/1 26/49/1
f 28/47/7 30/46/7 6/30/7
f 25/45/7 27/44/7 12/37/7
f 27/44/7 28/47/7 14/43/7
f 18/53/5 25/28/5 29/29/5
f 33/35/7 34/33/7 36/47/7
f 21/35/8 33/35/8 35/44/8
f 28/47/4 27/44/4 35/44/4
f 28/47/9 36/47/9 34/33/9
f 37/41/10 38/40/10 40/50/10
f 40/50/11 44/52/11 43/54/11
f 44/52/12 42/30/12 41/55/12
f 41/55/13 42/30/13 38/56/13
f 43/54/14 41/55/14 37/58/14
usemtl Madera_Chocolate.001
f 51/61/14 64/62/14 49/63/14
f 89/64/4 118/65/4 91/66/4
f 59/67/15 103/68/15 102/69/15
f 57/70/14 102/71/14 100/72/14
f 45/73/6 61/74/6 47/75/6
f 49/63/14 65/76/14 46/77/14
f 65/78/15 75/79/15 74/80/15
f 63/81/15 73/82/15 72/83/15
f 64/84/15 66/85/15 65/78/15
f 68/86/15 67/87/15 64/84/15
f 70/88/15 69/89/15 68/86/15
f 72/83/15 71/90/15 70/88/15
f 46/77/14 74/91/14 57/70/14
f 53/92/14 68/93/14 51/61/14
f 55/94/14 70/95/14 53/92/14
f 76/96/14 94/97/14 92/98/14
f 78/99/15 95/100/15 94/101/15
f 79/102/6 109/103/6 77/104/6
f 103/68/15 107/105/15 83/106/15
f 80/107/14 98/108/14 96/109/14
f 82/110/15 99/111/15 98/112/15
f 86/113/15 91/114/15 90/115/15
f 84/116/14 90/117/14 88/118/14
f 95/100/15 115/119/15 87/120/15
f 88/118/14 60/121/14 45/122/14
f 90/115/15 61/123/15 60/124/15
f 94/101/15 87/120/15 86/113/15
f 92/98/14 86/125/14 84/116/14
f 98/112/15 79/126/15 78/99/15
f 96/109/14 78/127/14 76/96/14
f 100/72/14 82/128/14 80/107/14
f 102/69/15 83/106/15 82/110/15
f 105/129/3 106/130/3 104/131/3
f 101/132/4 106/133/4 103/134/4
f 83/135/6 105/104/6 81/136/6
f 97/137/4 110/138/4 99/139/4
f 99/111/15 111/140/15 79/126/15
f 113/141/3 114/142/3 112/143/3
f 93/144/4 114/145/4 95/146/4
f 87/147/6 113/146/6 85/148/6
f 61/74/6 117/149/6 47/75/6
f 91/114/15 119/150/15 61/123/15
f 121/137/3 122/151/3 120/152/3
f 118/153/15 123/154/15 119/150/15
f 125/131/3 126/155/3 124/156/3
f 110/157/15 127/158/15 111/140/15
f 111/159/6 125/160/6 109/161/6
f 51/61/14 68/93/14 64/62/14
f 89/64/4 116/162/4 118/65/4
f 59/67/15 62/163/15 103/68/15
f 57/70/14 59/164/14 102/71/14
f 45/73/6 60/165/6 61/74/6
f 49/63/14 64/62/14 65/76/14
f 65/78/15 66/85/15 75/79/15
f 64/84/15 67/87/15 66/85/15
f 68/86/15 69/89/15 67/87/15
f 70/88/15 71/90/15 69/89/15
f 72/83/15 73/82/15 71/90/15
f 46/77/14 65/76/14 74/91/14
f 53/92/14 70/95/14 68/93/14
f 55/94/14 72/166/14 70/95/14
f 76/96/14 78/127/14 94/97/14
f 78/99/15 79/126/15 95/100/15
f 79/102/6 111/167/6 109/103/6
f 103/68/15 106/168/15 107/105/15
f 80/107/14 82/128/14 98/108/14
f 82/110/15 83/106/15 99/111/15
f 86/113/15 87/120/15 91/114/15
f 84/116/14 86/125/14 90/117/14
f 95/100/15 114/169/15 115/119/15
f 88/118/14 90/117/14 60/121/14
f 90/115/15 91/114/15 61/123/15
f 94/101/15 95/100/15 87/120/15
f 92/98/14 94/97/14 86/125/14
f 98/112/15 99/111/15 79/126/15
f 96/109/14 98/108/14 78/127/14
f 100/72/14 102/71/14 82/128/14
f 102/69/15 103/68/15 83/106/15
f 105/129/3 107/170/3 106/130/3
f 101/132/4 104/171/4 106/133/4
f 83/135/6 107/102/6 105/104/6
f 97/137/4 108/172/4 110/138/4
f 99/111/15 110/157/15 111/140/15
f 113/141/3 115/173/3 114/142/3
f 93/144/4 112/174/4 114/145/4
f 87/147/6 115/144/6 113/146/6
f 119/175/6 123/176/6 121/177/6
f 61/74/6 119/178/6 117/149/6
f 91/114/15 118/153/15 119/150/15
f 121/137/3 123/179/3 122/151/3
f 118/153/15 122/180/15 123/154/15
f 125/131/3 127/130/3 126/155/3
f 110/157/15 126/181/15 127/158/15
f 111/159/6 127/175/6 125/160/6
usemtl Blanco
f 54/182/3 73/183/3 56/184/3
f 52/185/3 71/186/3 54/182/3
f 50/187/3 69/188/3 52/185/3
f 58/189/3 66/190/3 48/191/3
f 57/192/6 75/152/6 58/193/6
f 48/191/3 67/194/3 50/187/3
f 89/195/3 87/196/3 85/197/3
f 93/198/3 79/173/3 77/141/3
f 97/143/3 83/199/3 81/200/3
f 101/201/3 62/202/3 58/203/3
f 108/172/4 126/66/4 110/138/4
f 116/162/4 122/148/4 118/65/4
f 54/182/3 71/186/3 73/183/3
f 52/185/3 69/188/3 71/186/3
f 58/135/4 62/136/4 59/204/4
f 50/187/3 67/194/3 69/188/3
f 58/189/3 75/205/3 66/190/3
f 57/192/6 74/206/6 75/152/6
f 48/191/3 66/190/3 67/194/3
f 89/195/3 91/207/3 87/196/3
f 93/198/3 95/204/3 79/173/3
f 97/143/3 99/142/3 83/199/3
f 101/201/3 103/208/3 62/202/3
f 108/172/4 124/64/4 126/66/4
f 116/162/4 120/147/4 122/148/4
