# Blender 5.0.1
# www.blender.org
mtllib ParedDerS3.mtl
o ParedDerS3
v -7.300669 4.649151 5.859664
v -6.307978 4.649151 5.859664
v -7.300669 4.852273 5.859664
v -6.307978 4.852273 5.859664
v -7.300670 4.649151 2.303831
v -6.307978 4.649151 2.303831
v -7.300670 4.852270 2.303831
v -6.307978 4.852270 2.303831
v -7.374374 3.371526 6.147612
v -6.926119 3.371526 6.147612
v -7.374374 10.209659 6.147609
v -6.926119 10.209659 6.147609
v -7.374374 3.371526 2.062587
v -6.926119 3.371526 2.062587
v -7.374374 10.209659 2.062584
v -6.926119 10.209659 2.062584
v -7.374374 3.371526 0.698518
v -6.926119 3.371526 0.698518
v -7.374374 10.209659 0.698515
v -6.926119 10.209659 0.698515
v -7.374374 3.371526 -3.386507
v -6.926119 3.371526 -3.386507
v -7.374374 10.209659 -3.386510
v -6.926119 10.209659 -3.386510
v -7.300669 8.891071 5.871336
v -6.307978 8.891071 5.871336
v -7.300669 9.094191 5.871336
v -6.307978 9.094191 5.871336
v -7.300670 8.891071 2.315500
v -6.307978 8.891071 2.315500
v -7.300670 9.094191 2.315500
v -6.307978 9.094191 2.315500
v -7.300669 7.792685 5.877451
v -6.307978 7.792685 5.877451
v -7.300669 7.995801 5.877451
v -6.307978 7.995801 5.877451
v -7.300670 7.792682 2.321619
v -6.307978 7.792682 2.321619
v -7.300670 7.995801 2.321616
v -6.307978 7.995801 2.321616
v -7.300669 6.748857 5.878404
v -6.307978 6.748857 5.878404
v -7.300669 6.951975 5.878404
v -6.307978 6.951975 5.878404
v -7.300670 6.748856 2.322567
v -6.307978 6.748856 2.322567
v -7.300670 6.951975 2.322567
v -6.307978 6.951975 2.322567
v -7.300669 5.838686 5.832932
v -6.307978 5.838686 5.832932
v -7.300669 6.041803 5.832932
v -6.307978 6.041803 5.832932
v -7.300670 5.838684 2.277097
v -6.307978 5.838684 2.277097
v -7.300670 6.041803 2.277097
v -6.307978 6.041803 2.277097
v -7.868104 0.620657 -7.902413
v -7.868104 0.620660 0.046042
v -7.868104 0.620660 -3.928186
v -7.868104 0.620660 -5.915299
v -7.868104 0.620657 -6.908856
v -7.868104 0.620657 -7.405635
v -7.374373 0.620657 -7.902413
v -7.374373 0.620660 0.046042
v -7.374373 0.620660 -3.928186
v -7.374373 0.620660 -5.915299
v -7.374373 0.620657 -6.908856
v -7.374373 0.620657 -7.405635
v -7.868104 0.620660 4.020270
v -7.374373 0.620660 4.020270
v -7.374373 0.620660 6.007384
v -7.868104 0.620660 6.007384
v -7.374373 0.620663 7.000941
v -7.868104 0.620663 7.000941
v -7.868104 0.620663 7.497720
v -7.868104 11.998810 -7.405638
v -7.868104 11.998810 -7.902416
v -7.868104 11.998813 4.020267
v -7.868104 11.998813 0.046039
v -7.868104 11.998813 -3.928189
v -7.868104 11.998813 -5.915302
v -7.868104 11.998810 -6.908859
v -7.374373 11.998810 -7.902416
v -7.374373 11.998810 -7.405638
v -7.374373 11.998813 0.046039
v -7.374373 11.998813 -3.928189
v -7.374373 11.998813 -5.915302
v -7.374373 11.998810 -6.908859
v -7.868104 11.998813 6.007381
v -7.374373 11.998813 4.020267
v -7.374373 11.998813 6.007381
v -7.868104 11.998816 7.000938
v -7.374373 11.998816 7.000938
v -7.868104 11.998816 7.497717
v -7.374373 11.998816 7.497717
v -7.374373 11.006579 6.007381
v -7.374373 10.963588 6.007381
v -7.374373 10.897674 4.020267
v -7.374373 10.870872 4.020267
v -7.374373 11.009945 7.000938
v -7.374373 11.061032 7.000938
v -7.374373 11.680781 7.000938
v -7.374373 11.998816 6.733750
v -7.374373 10.715403 0.730984
vn -0.0000 -0.0000 1.0000
vn -0.0000 1.0000 -0.0000
vn -0.0000 -0.0000 -1.0000
vn -0.0000 -1.0000 -0.0000
vn -1.0000 -0.0000 -0.0000
vn 1.0000 -0.0000 -0.0000
vt 0.761119 0.837517
vt 0.668061 0.866079
vt 0.668061 0.837517
vt 0.388889 0.628138
vt 0.611111 0.837517
vt 0.388889 0.837517
vt 0.481946 0.866079
vt 0.575004 0.837517
vt 0.575004 0.866079
vt 0.388889 0.837518
vt 0.166667 0.628138
vt 0.833333 0.418759
vt 0.611111 0.461601
vt 0.611111 0.418759
vt 0.611111 0.504443
vt 0.833333 0.461601
vt 0.833333 0.504443
vt 0.761119 0.866079
vt 0.611111 0.628138
vt 0.481946 0.837517
vt 0.166667 0.837518
vt 0.549809 0.000000
vt 0.520675 0.666667
vt 0.520675 0.000000
vt 0.608078 0.000000
vt 0.578944 0.398259
vt 0.578944 0.000000
vt 0.549809 0.666667
vt 0.578944 0.666667
vt 0.578944 0.796519
vt 0.608078 0.398259
vt 0.608078 0.796519
vt 0.343671 1.000000
vt 0.343671 -0.000000
vt 0.166667 1.000000
vt 0.520675 1.000000
vt 0.166667 -0.000000
vt 0.166667 0.858666
vt 0.486081 0.929333
vt 0.166667 0.929333
vt 0.357481 1.000000
vt 0.805496 0.929333
vt 0.486081 0.858666
vt 0.805496 0.858666
vt 0.548296 1.000000
vt 0.357481 0.929333
vt 0.548296 0.929333
vt 0.645788 0.429333
vt 0.645788 -0.000000
vt 0.166667 0.429333
vt 0.645788 0.858666
vt 0.388889 0.209379
vt 0.388889 0.418758
vt 0.388889 0.866079
vt 0.388889 0.418759
vt 0.166667 0.209380
vt 0.611111 0.547285
vt 0.611111 0.590127
vt 0.833333 0.547285
vt 0.833333 0.590127
vt 0.611111 0.209379
vt 0.166667 0.418759
vt 0.538897 0.880359
vt 0.445839 0.908921
vt 0.445839 0.880359
vt 0.166667 0.908921
vt 0.259724 0.880359
vt 0.259724 0.908921
vt 0.833333 0.209379
vt 0.611111 0.000000
vt 0.833333 -0.000000
vt 0.611111 0.632969
vt 0.611111 0.675811
vt 0.833333 0.632969
vt 0.833333 0.675811
vt 0.538897 0.908921
vt 0.166667 0.880359
vt 0.631954 0.880359
vt 0.388889 -0.000000
vt 0.352782 0.880359
vt 0.352782 0.908921
vt 0.833333 0.718653
vt 0.611111 0.761495
vt 0.611111 0.718653
vt 0.631954 0.908921
vt 0.166667 0.209379
vt 0.833333 0.761495
vt 0.725012 0.880359
vt 0.611111 0.804337
vt 0.388889 0.880359
vt 0.725012 0.908921
vt 0.833333 0.804337
vt 0.166667 0.837517
vt 0.405393 0.303343
vt 0.570817 0.325010
vt 0.405393 0.325010
vt 0.405393 0.335844
vt 0.570817 0.346677
vt 0.405393 0.346677
vt 0.570817 0.335844
vt 0.614147 0.249154
vt 0.621323 0.162492
vt 0.621325 0.249154
vt 0.614147 0.292485
vt 0.621325 0.292485
vt 0.614148 0.314151
vt 0.621326 0.314151
vt 0.614148 0.324983
vt 0.621326 0.324983
vt 0.614145 0.162492
vt 0.621322 0.075829
vt 0.614144 0.075829
vt 0.621321 0.032498
vt 0.614143 0.032498
vt 0.621321 0.010833
vt 0.621321 0.016659
vt 0.614143 0.010833
vt 0.621321 0.000000
vt 0.405393 0.260008
vt 0.570817 0.303343
vt 0.405393 0.043335
vt 0.570817 0.086669
vt 0.405393 0.086669
vt 0.405393 0.173339
vt 0.570817 0.260008
vt 0.405394 0.021667
vt 0.570817 0.043335
vt 0.570817 0.173339
vt 0.614143 0.360217
vt 0.606964 0.608353
vt 0.606964 0.360217
vt 0.405394 0.010834
vt 0.570817 0.021667
vt 0.614148 0.335816
vt 0.614143 0.000000
vt 0.614143 0.608353
vt 0.570817 0.010834
vt 0.650763 0.309815
vt 0.689727 0.510814
vt 0.650763 0.512632
vt 0.845583 0.309815
vt 0.767655 0.532932
vt 0.767655 0.309815
vt 0.884547 0.309815
vt 0.845583 0.532932
vt 0.631281 0.514543
vt 0.631281 0.526696
vt 0.621540 0.532932
vt 0.754224 0.507765
vt 0.904029 0.309815
vt 0.884547 0.532932
vt 0.631281 0.309815
vt 0.631281 0.513541
vt 0.913770 0.309815
vt 0.904029 0.532932
vt 0.689727 0.511340
vt 0.650763 0.513475
vt 0.636520 0.532932
vt 0.631281 0.532932
vt 0.689727 0.532932
vt 0.650763 0.532932
vt 0.689727 0.309815
vt 0.913770 0.532932
s 1
usemtl Material.003
f 2/1/1 3/2/1 1/3/1
f 4/4/2 7/5/2 3/6/2
f 8/7/3 5/8/3 7/9/3
f 6/10/4 1/11/4 5/4/4
f 7/12/5 1/13/5 3/14/5
f 4/15/6 6/16/6 8/17/6
f 2/1/1 4/18/1 3/2/1
f 4/4/2 8/19/2 7/5/2
f 8/7/3 6/20/3 5/8/3
f 6/10/4 2/21/4 1/11/4
f 7/12/5 5/16/5 1/13/5
f 4/15/6 2/13/6 6/16/6
f 26/3/1 27/9/1 25/8/1
f 28/52/2 31/14/2 27/53/2
f 32/54/3 29/20/3 31/7/3
f 30/55/4 25/56/4 29/52/4
f 31/17/5 25/57/5 27/15/5
f 28/58/6 30/59/6 32/60/6
f 26/3/1 28/2/1 27/9/1
f 28/52/2 32/61/2 31/14/2
f 32/54/3 30/6/3 29/20/3
f 30/55/4 26/62/4 25/56/4
f 31/17/5 29/59/5 25/57/5
f 28/58/6 26/57/6 30/59/6
f 34/63/1 35/64/1 33/65/1
f 36/61/2 39/12/2 35/14/2
f 40/66/3 37/67/3 39/68/3
f 38/69/4 33/70/4 37/71/4
f 39/60/5 33/72/5 35/58/5
f 36/73/6 38/74/6 40/75/6
f 34/63/1 36/76/1 35/64/1
f 36/61/2 40/69/2 39/12/2
f 40/66/3 38/77/3 37/67/3
f 38/69/4 34/61/4 33/70/4
f 39/60/5 37/74/5 33/72/5
f 36/73/6 34/72/6 38/74/6
f 42/78/1 43/76/1 41/63/1
f 44/79/2 47/61/2 43/52/2
f 48/68/3 45/80/3 47/81/3
f 46/52/4 41/37/4 45/79/4
f 47/82/5 41/83/5 43/84/5
f 44/84/6 46/75/6 48/82/6
f 42/78/1 44/85/1 43/76/1
f 44/79/2 48/70/2 47/61/2
f 48/68/3 46/67/3 45/80/3
f 46/52/4 42/86/4 41/37/4
f 47/82/5 45/87/5 41/83/5
f 44/84/6 42/73/6 46/75/6
f 50/88/1 51/85/1 49/78/1
f 52/62/2 55/4/2 51/11/2
f 56/81/3 53/65/3 55/64/3
f 54/19/4 49/55/4 53/14/4
f 55/87/5 49/89/5 51/83/5
f 52/77/6 54/6/6 56/90/6
f 50/88/1 52/91/1 51/85/1
f 52/62/2 56/55/2 55/4/2
f 56/81/3 54/80/3 53/65/3
f 54/19/4 50/4/4 49/55/4
f 55/87/5 53/92/5 49/89/5
f 52/77/6 50/93/6 54/6/6
usemtl Material.002
f 10/22/1 11/23/1 9/24/1
f 12/25/2 15/26/2 11/27/2
f 16/28/3 13/27/3 15/29/3
f 14/30/4 9/31/4 13/32/4
f 15/24/5 9/33/5 11/34/5
f 12/35/6 14/34/6 16/33/6
f 10/22/1 12/28/1 11/23/1
f 12/25/2 16/31/2 15/26/2
f 16/28/3 14/22/3 13/27/3
f 14/30/4 10/26/4 9/31/4
f 15/24/5 13/36/5 9/33/5
f 12/35/6 10/37/6 14/34/6
usemtl Material.001
f 18/38/1 19/39/1 17/40/1
f 20/40/2 23/41/2 19/35/2
f 24/42/3 21/43/3 23/44/3
f 22/45/4 17/46/4 21/47/4
f 23/48/5 17/37/5 19/49/5
f 20/50/6 22/51/6 24/38/6
f 18/38/1 20/43/1 19/39/1
f 20/40/2 24/46/2 23/41/2
f 24/42/3 22/39/3 21/43/3
f 22/45/4 18/41/4 17/46/4
f 23/48/5 21/50/5 17/37/5
f 20/50/6 18/48/6 22/51/6
usemtl Madera_Chocolate.001
f 60/94/5 82/95/5 61/96/5
f 62/97/5 77/98/5 57/99/5
f 61/96/5 76/100/5 62/97/5
f 80/101/2 85/102/2 86/103/2
f 81/104/2 86/103/2 87/105/2
f 82/106/2 87/105/2 88/107/2
f 76/108/2 88/107/2 84/109/2
f 79/110/2 90/111/2 85/102/2
f 78/112/2 91/113/2 90/111/2
f 89/114/2 93/115/2 103/116/2
f 92/117/2 95/118/2 93/115/2
f 59/119/5 81/120/5 60/94/5
f 72/121/5 78/122/5 69/123/5
f 58/124/5 80/125/5 59/119/5
f 74/126/5 89/127/5 72/121/5
f 69/123/5 79/128/5 58/124/5
f 57/129/3 83/130/3 63/131/3
f 75/132/5 92/133/5 74/126/5
f 60/94/5 81/120/5 82/95/5
f 62/97/5 76/100/5 77/98/5
f 61/96/5 82/95/5 76/100/5
f 80/101/2 79/110/2 85/102/2
f 81/104/2 80/101/2 86/103/2
f 82/106/2 81/104/2 87/105/2
f 76/108/2 82/106/2 88/107/2
f 77/134/2 76/108/2 84/109/2
f 79/110/2 78/112/2 90/111/2
f 78/112/2 89/114/2 91/113/2
f 103/116/2 91/113/2 89/114/2
f 89/114/2 92/117/2 93/115/2
f 92/117/2 94/135/2 95/118/2
f 59/119/5 80/125/5 81/120/5
f 72/121/5 89/127/5 78/122/5
f 58/124/5 79/128/5 80/125/5
f 74/126/5 92/133/5 89/127/5
f 69/123/5 78/122/5 79/128/5
f 57/129/3 77/136/3 83/130/3
f 75/132/5 94/137/5 92/133/5
usemtl Blanco
f 71/138/6 99/139/6 97/140/6
f 65/141/6 85/142/6 64/143/6
f 66/144/6 86/145/6 65/141/6
f 101/146/6 102/147/6 95/148/6
f 64/143/6 85/142/6 104/149/6
f 67/150/6 87/151/6 66/144/6
f 73/152/6 97/140/6 100/153/6
f 68/154/6 88/155/6 67/150/6
f 99/139/6 104/149/6 98/156/6
f 100/153/6 96/157/6 101/146/6
f 96/157/6 103/158/6 102/147/6
f 102/147/6 103/158/6 93/159/6
f 97/140/6 98/156/6 96/157/6
f 96/157/6 90/160/6 91/161/6
f 71/138/6 70/162/6 99/139/6
f 65/141/6 86/145/6 85/142/6
f 66/144/6 87/151/6 86/145/6
f 95/148/6 73/152/6 100/153/6
f 102/147/6 93/159/6 95/148/6
f 95/148/6 100/153/6 101/146/6
f 99/139/6 70/162/6 64/143/6
f 85/142/6 90/160/6 98/156/6
f 104/149/6 99/139/6 64/143/6
f 85/142/6 98/156/6 104/149/6
f 67/150/6 88/155/6 87/151/6
f 73/152/6 71/138/6 97/140/6
f 68/154/6 84/163/6 88/155/6
f 100/153/6 97/140/6 96/157/6
f 102/147/6 101/146/6 96/157/6
f 96/157/6 91/161/6 103/158/6
f 97/140/6 99/139/6 98/156/6
f 96/157/6 98/156/6 90/160/6
