# Blender 5.0.1
# www.blender.org
mtllib TechoS3.mtl
o TechoS3
v -2.091507 14.425000 5.019777
v -2.091507 12.550000 5.019777
v 2.942234 14.425000 -4.859495
v 2.942235 12.550000 -4.859496
v -3.372534 12.529778 6.637796
v -3.085140 12.529778 6.785201
v -3.372534 14.427697 6.637796
v -3.085140 14.427697 6.785201
v 3.073889 12.529776 -5.930767
v 3.361283 12.529776 -5.783363
v 3.073889 14.427694 -5.930767
v 3.361283 14.427694 -5.783363
v -3.918259 14.978806 7.497717
v -3.918259 14.978806 7.994495
v -3.918259 11.977582 7.994495
v -3.918259 11.985296 7.497717
v 3.979637 14.972126 -7.899519
v 3.979637 14.972126 -7.403997
v 3.979637 11.970901 -7.403997
v 3.979637 11.978616 -7.899519
vn 0.8910 -0.0000 0.4540
vn -0.4564 -0.0000 0.8898
vn -0.0000 1.0000 -0.0000
vn 0.4564 -0.0000 -0.8898
vn -0.0000 -1.0000 -0.0000
vn -0.8898 -0.0000 -0.4564
vn 0.8898 -0.0000 0.4564
vn -0.0311 -0.9994 -0.0155
vn -0.0312 -0.9994 -0.0156
vn 0.0008 1.0000 -0.0000
vn 1.0000 -0.0000 -0.0000
vt 0.000000 0.288732
vt 1.000000 0.798880
vt 0.000000 0.798880
vt 1.000000 0.288732
vt 1.750000 -4.500000
vt -0.750000 -2.000000
vt -0.750000 -4.500000
vt 1.750000 0.500000
vt -0.750000 0.500000
vt -0.750000 3.000000
vt 1.750000 3.000000
vt -0.750000 5.500000
vt -3.250000 3.000000
vt -3.250000 0.500000
vt 4.250000 0.500000
vt 1.750000 -2.000000
vt 1.750000 5.500000
vt 4.250000 3.000000
vt 0.166767 0.000000
vt 0.833233 0.390143
vt 0.166667 0.390144
vt 0.354966 0.906846
vt 0.170473 0.900240
vt 0.358782 0.900240
vt 0.170483 0.913452
vt 0.354968 0.906846
vt 0.358774 0.913435
vt 0.316284 0.791484
vt 0.166685 0.889408
vt 0.166667 0.791484
vt 0.833333 0.000000
vt 0.166667 0.906829
vt 0.316302 0.889408
vt 0.924991 0.836054
vt 0.915250 0.894751
vt 0.915274 0.835899
s 1
usemtl Material.008
f 2/1/1 3/2/1 1/3/1
f 2/1/1 4/4/1 3/2/1
usemtl Chocolate
f 6/5/2 7/6/2 5/7/2
f 7/6/3 12/8/3 11/9/3
f 12/8/4 9/10/4 11/9/4
f 10/11/5 5/12/5 9/10/5
f 11/9/6 5/13/6 7/14/6
f 8/15/7 10/11/7 12/8/7
f 6/5/2 8/16/2 7/6/2
f 7/6/3 8/16/3 12/8/3
f 12/8/4 10/11/4 9/10/4
f 10/11/5 6/17/5 5/12/5
f 11/9/6 9/10/6 5/13/6
f 8/15/7 6/18/7 10/11/7
usemtl Madera_Chocolate.001
f 15/19/7 18/20/7 14/21/7
f 16/22/8 19/23/9 15/24/8
f 13/25/10 18/26/10 17/27/10
f 16/28/6 17/29/6 20/30/6
f 15/19/7 19/31/7 18/20/7
f 16/22/8 20/32/9 19/23/9
f 16/28/6 13/33/6 17/29/6
usemtl Blanco
f 20/34/11 18/35/11 19/36/11
