# Blender 5.0.1
# www.blender.org
mtllib Pelota.mtl
o Pelota_OpenGl
v 0.006030 -0.038487 -0.065290
v 0.010933 -0.060512 -0.043851
v -0.004005 -0.063732 -0.040342
v -0.016995 -0.043492 -0.060013
v 0.030397 -0.008402 -0.069360
v 0.032436 -0.032384 -0.060647
v 0.009376 -0.037734 -0.065333
v 0.004058 -0.014467 -0.074708
v 0.002443 -0.073172 0.016850
v 0.010950 -0.073196 0.012439
v 0.008213 -0.071708 0.020901
v 0.018144 -0.071797 0.012057
v 0.021708 -0.070775 0.012296
v 0.023758 -0.068211 0.020694
v 0.017766 -0.069548 0.022206
v -0.025625 -0.020983 -0.068644
v -0.031482 0.005079 -0.069224
v -0.005211 0.010871 -0.075246
v 0.000656 -0.015231 -0.074665
v 0.018091 -0.072601 -0.005834
v 0.018165 -0.072744 -0.003034
v 0.014619 -0.073542 -0.002987
v 0.014555 -0.073396 -0.005787
v 0.034536 -0.066393 -0.006644
v 0.020600 -0.072094 -0.003062
v 0.020981 -0.071793 -0.006204
v 0.031003 -0.067375 -0.012005
v -0.019313 -0.067079 -0.028859
v -0.027758 -0.068527 -0.015496
v -0.051684 -0.050490 -0.023734
v -0.038798 -0.048174 -0.044236
v -0.036510 -0.047708 -0.046337
v -0.047856 -0.025689 -0.053157
v -0.025625 -0.020983 -0.068644
v -0.016995 -0.043492 -0.060013
v 0.018239 -0.072521 0.006240
v 0.020672 -0.071872 0.006199
v 0.021102 -0.071420 0.009316
v 0.018207 -0.072243 0.009031
v -0.027486 -0.067692 0.019201
v -0.018834 -0.065607 0.032344
v -0.038082 -0.045979 0.047098
v -0.051287 -0.049272 0.026935
v -0.064942 -0.028908 -0.027529
v -0.070801 -0.002841 -0.028109
v -0.056169 -0.000023 -0.051530
v -0.050288 -0.026186 -0.050948
v -0.027486 -0.067692 0.019201
v -0.002869 -0.074452 0.009782
v 0.000693 -0.073597 0.015147
v -0.018834 -0.065607 0.032344
v -0.030833 -0.068857 0.003793
v -0.004311 -0.074941 0.003517
v -0.002869 -0.074452 0.009782
v -0.027486 -0.067692 0.019201
v -0.003350 -0.061718 0.043412
v 0.008213 -0.071708 0.020901
v 0.014248 -0.070340 0.022253
v 0.011639 -0.058339 0.046529
v 0.010780 -0.073712 -0.009084
v 0.002210 -0.073898 -0.013356
v 0.007912 -0.072633 -0.017560
v -0.050288 -0.026186 -0.050948
v -0.038798 -0.048174 -0.044236
v -0.051684 -0.050490 -0.023734
v -0.064942 -0.028908 -0.027529
v 0.052199 -0.027773 -0.047483
v 0.043103 -0.053097 -0.031820
v 0.029846 -0.056120 -0.040780
v 0.032436 -0.032384 -0.060647
v -0.016038 -0.040553 0.062287
v -0.003350 -0.061718 0.043412
v 0.011639 -0.058339 0.046529
v 0.007063 -0.035309 0.066958
v -0.049474 -0.023691 0.052924
v -0.055354 0.002471 0.052342
v -0.070350 -0.001462 0.029317
v -0.064491 -0.027529 0.029897
v -0.056329 -0.050992 0.003266
v -0.030833 -0.068857 0.003793
v -0.027486 -0.067692 0.019201
v -0.051287 -0.049272 0.026935
v -0.070254 -0.029450 0.002884
v -0.056329 -0.050992 0.003266
v -0.051287 -0.049272 0.026935
v -0.064491 -0.027529 0.029897
v -0.002994 -0.074835 -0.006150
v 0.012129 -0.074000 -0.002951
v 0.012456 -0.073999 -0.000017
v -0.004337 -0.075021 0.000154
v -0.035775 -0.045416 0.049129
v -0.016554 -0.065053 0.034457
v -0.003350 -0.061718 0.043412
v -0.016038 -0.040553 0.062287
v 0.001828 -0.011630 0.075287
v -0.004039 0.014471 0.074706
v -0.030397 0.008406 0.069381
v -0.024540 -0.017654 0.069961
v -0.004311 -0.074941 0.003517
v 0.012482 -0.073918 0.003376
v 0.012202 -0.073777 0.006311
v -0.002869 -0.074452 0.009782
v -0.064942 -0.028908 -0.027529
v -0.051684 -0.050490 -0.023734
v -0.056354 -0.051069 0.000067
v -0.070279 -0.029528 -0.000368
v 0.031212 -0.066732 0.014741
v 0.021102 -0.071420 0.009316
v 0.020672 -0.071872 0.006199
v 0.034660 -0.066010 0.009285
v -0.016554 -0.065053 0.034457
v 0.002443 -0.073172 0.016850
v 0.008213 -0.071708 0.020901
v -0.003350 -0.061718 0.043412
v -0.064491 -0.027529 0.029897
v -0.051287 -0.049272 0.026935
v -0.038082 -0.045979 0.047098
v -0.049474 -0.023691 0.052924
v 0.018239 -0.072521 0.006240
v 0.018207 -0.072243 0.009031
v 0.014670 -0.073039 0.009078
v 0.014690 -0.073320 0.006287
v 0.043622 -0.051521 0.033649
v 0.052955 -0.025478 0.047931
v 0.033389 -0.029446 0.061616
v 0.030499 -0.054106 0.042956
v -0.047022 -0.023093 0.055059
v -0.035775 -0.045416 0.049129
v -0.016038 -0.040553 0.062287
v -0.024540 -0.017654 0.069961
v -0.002869 -0.074452 0.009782
v 0.012202 -0.073777 0.006311
v 0.011698 -0.073535 0.009441
v 0.000693 -0.073597 0.015147
v 0.015606 -0.057446 0.046475
v 0.017766 -0.069548 0.022206
v 0.023758 -0.068211 0.020694
v 0.030499 -0.054106 0.042956
v 0.054235 -0.049316 0.018112
v 0.034660 -0.066010 0.009285
v 0.036013 -0.065870 0.002983
v 0.057366 -0.049023 0.002627
v 0.010409 -0.034556 0.066912
v 0.015606 -0.057446 0.046475
v 0.030499 -0.054106 0.042956
v 0.033389 -0.029446 0.061616
v 0.005229 -0.010866 0.075240
v 0.010409 -0.034556 0.066912
v 0.033389 -0.029446 0.061616
v 0.031477 -0.005075 0.069198
v 0.068043 -0.022457 0.025340
v 0.054235 -0.049316 0.018112
v 0.057366 -0.049023 0.002627
v 0.072731 -0.021990 0.001560
v 0.047846 0.025677 0.053114
v 0.025622 0.020976 0.068618
v 0.031477 -0.005075 0.069198
v 0.053723 -0.000470 0.053696
v -0.024540 -0.017654 0.069961
v -0.016038 -0.040553 0.062287
v 0.007063 -0.035309 0.066958
v 0.001828 -0.011630 0.075287
v 0.055227 -0.025011 0.045839
v 0.045864 -0.051059 0.031477
v 0.054235 -0.049316 0.018112
v 0.068043 -0.022457 0.025340
v 0.076089 0.003413 0.000950
v 0.070225 0.029504 0.000370
v 0.064895 0.028886 0.027508
v 0.070749 0.002840 0.028087
v 0.029254 -0.067814 -0.013710
v 0.021541 -0.071292 -0.009226
v 0.023458 -0.069136 -0.017763
v 0.031477 -0.005075 0.069198
v 0.025622 0.020976 0.068618
v -0.000637 0.015234 0.074659
v 0.005229 -0.010866 0.075240
v 0.052955 -0.025478 0.047931
v 0.053723 -0.000470 0.053696
v 0.031477 -0.005075 0.069198
v 0.033389 -0.029446 0.061616
v 0.070749 0.002840 0.028087
v 0.064895 0.028886 0.027508
v 0.050261 0.026170 0.050914
v 0.056138 0.000025 0.051496
v 0.053965 -0.050149 -0.016567
v 0.034536 -0.066393 -0.006644
v 0.031003 -0.067375 -0.012005
v 0.045388 -0.052529 -0.029702
v 0.057337 -0.049114 -0.001164
v 0.035987 -0.065950 -0.000378
v 0.034536 -0.066393 -0.006644
v 0.053965 -0.050149 -0.016567
v 0.067649 -0.023673 -0.025292
v 0.053965 -0.050149 -0.016567
v 0.045388 -0.052529 -0.029702
v 0.054516 -0.027204 -0.045443
v 0.021708 -0.070775 0.012296
v 0.029493 -0.067087 0.016490
v 0.023758 -0.068211 0.020694
v 0.056138 0.000025 0.051496
v 0.055227 -0.025011 0.045839
v 0.068043 -0.022457 0.025340
v 0.070749 0.002840 0.028087
v 0.017981 -0.072300 -0.008884
v 0.014449 -0.073094 -0.008837
v 0.013926 -0.071334 -0.019069
v 0.017443 -0.070542 -0.019115
v -0.019313 -0.067079 -0.028859
v -0.038798 -0.048174 -0.044236
v -0.036510 -0.047708 -0.046337
v -0.017058 -0.066626 -0.031037
v 0.072707 -0.022067 -0.001637
v 0.057337 -0.049114 -0.001164
v 0.053965 -0.050149 -0.016567
v 0.067649 -0.023673 -0.025292
v 0.076064 0.003335 -0.002299
v 0.072707 -0.022067 -0.001637
v 0.067649 -0.023673 -0.025292
v 0.070303 0.001463 -0.029291
v 0.034660 -0.066010 0.009285
v 0.020672 -0.071872 0.006199
v 0.020405 -0.072135 0.003271
v 0.036013 -0.065870 0.002983
v 0.014449 -0.073094 -0.008837
v 0.010780 -0.073712 -0.009084
v 0.007912 -0.072633 -0.017560
v 0.013926 -0.071334 -0.019069
v 0.035987 -0.065950 -0.000378
v 0.020378 -0.072217 -0.000121
v 0.020600 -0.072094 -0.003062
v 0.034536 -0.066393 -0.006644
v 0.070749 0.002840 0.028087
v 0.068043 -0.022457 0.025340
v 0.072731 -0.021990 0.001560
v 0.076089 0.003413 0.000950
v 0.021541 -0.071292 -0.009226
v 0.017981 -0.072300 -0.008884
v 0.017443 -0.070542 -0.019115
v 0.023458 -0.069136 -0.017763
v 0.043103 -0.053097 -0.031820
v 0.029254 -0.067814 -0.013710
v 0.023458 -0.069136 -0.017763
v 0.029846 -0.056120 -0.040780
v 0.070303 0.001463 -0.029291
v 0.067649 -0.023673 -0.025292
v 0.054516 -0.027204 -0.045443
v 0.055329 -0.002468 -0.052309
v 0.052867 -0.003070 -0.054454
v 0.052199 -0.027773 -0.047483
v 0.032436 -0.032384 -0.060647
v 0.030397 -0.008402 -0.069360
v -0.019313 -0.067079 -0.028859
v 0.000484 -0.074241 -0.011604
v -0.002994 -0.074835 -0.006150
v -0.027758 -0.068527 -0.015496
v 0.029493 -0.067087 0.016490
v 0.043622 -0.051521 0.033649
v 0.030499 -0.054106 0.042956
v 0.023758 -0.068211 0.020694
v 0.011577 -0.073908 -0.006080
v 0.014555 -0.073396 -0.005787
v 0.014619 -0.073542 -0.002987
v 0.012129 -0.074000 -0.002951
v 0.000656 -0.015231 -0.074665
v 0.006030 -0.038487 -0.065290
v -0.016995 -0.043492 -0.060013
v -0.025625 -0.020983 -0.068644
v 0.010933 -0.060512 -0.043851
v 0.013926 -0.071334 -0.019069
v 0.007912 -0.072633 -0.017560
v -0.004005 -0.063732 -0.040342
v -0.051684 -0.050490 -0.023734
v -0.027758 -0.068527 -0.015496
v -0.030863 -0.068948 -0.000000
v -0.056354 -0.051069 0.000067
v 0.046989 0.023078 -0.055036
v 0.052867 -0.003070 -0.054454
v 0.030397 -0.008402 -0.069360
v 0.024541 0.017651 -0.069940
v -0.027758 -0.068527 -0.015496
v -0.002994 -0.074835 -0.006150
v -0.004337 -0.075021 0.000154
v -0.030863 -0.068948 -0.000000
v 0.012129 -0.074000 -0.002951
v 0.014619 -0.073542 -0.002987
v 0.014890 -0.073544 -0.000050
v 0.012456 -0.073999 -0.000017
v 0.010950 -0.073196 0.012439
v 0.014612 -0.072592 0.012104
v 0.014248 -0.070340 0.022253
v 0.008213 -0.071708 0.020901
v 0.000484 -0.074241 -0.011604
v 0.011577 -0.073908 -0.006080
v 0.012129 -0.074000 -0.002951
v -0.002994 -0.074835 -0.006150
v 0.018165 -0.072744 -0.003034
v 0.020600 -0.072094 -0.003062
v 0.020378 -0.072217 -0.000121
v 0.017995 -0.072845 -0.000091
v 0.018165 -0.072744 -0.003034
v 0.018091 -0.072601 -0.005834
v 0.020981 -0.071793 -0.006204
v 0.020600 -0.072094 -0.003062
v 0.012482 -0.073918 0.003376
v 0.014915 -0.073462 0.003349
v 0.014690 -0.073320 0.006287
v 0.012202 -0.073777 0.006311
v 0.045864 -0.051059 0.031477
v 0.031212 -0.066732 0.014741
v 0.034660 -0.066010 0.009285
v 0.054235 -0.049316 0.018112
v 0.018024 -0.072763 0.003308
v 0.020405 -0.072135 0.003271
v 0.020672 -0.071872 0.006199
v 0.018239 -0.072521 0.006240
v 0.014915 -0.073462 0.003349
v 0.014890 -0.073544 -0.000050
v 0.017995 -0.072845 -0.000091
v 0.018024 -0.072763 0.003308
v 0.013926 -0.071334 -0.019069
v 0.010933 -0.060512 -0.043851
v 0.014901 -0.059619 -0.043902
v 0.017443 -0.070542 -0.019115
v 0.006030 -0.038487 -0.065290
v 0.000656 -0.015231 -0.074665
v 0.004058 -0.014467 -0.074708
v 0.009376 -0.037734 -0.065333
v -0.030833 -0.068857 0.003793
v -0.056329 -0.050992 0.003266
v -0.056354 -0.051069 0.000067
v -0.030863 -0.068948 -0.000000
v -0.004311 -0.074941 0.003517
v -0.030833 -0.068857 0.003793
v -0.030863 -0.068948 -0.000000
v -0.004337 -0.075021 0.000154
v -0.056329 -0.050992 0.003266
v -0.070254 -0.029450 0.002884
v -0.070279 -0.029528 -0.000368
v -0.056354 -0.051069 0.000067
v 0.015606 -0.057446 0.046475
v 0.010409 -0.034556 0.066912
v 0.007063 -0.035309 0.066958
v 0.011639 -0.058339 0.046529
v 0.017766 -0.069548 0.022206
v 0.015606 -0.057446 0.046475
v 0.011639 -0.058339 0.046529
v 0.014248 -0.070340 0.022253
v 0.010409 -0.034556 0.066912
v 0.005229 -0.010866 0.075240
v 0.001828 -0.011630 0.075287
v 0.007063 -0.035309 0.066958
v 0.057337 -0.049114 -0.001164
v 0.072707 -0.022067 -0.001637
v 0.072731 -0.021990 0.001560
v 0.057366 -0.049023 0.002627
v 0.035987 -0.065950 -0.000378
v 0.057337 -0.049114 -0.001164
v 0.057366 -0.049023 0.002627
v 0.036013 -0.065870 0.002983
v 0.072707 -0.022067 -0.001637
v 0.076064 0.003335 -0.002299
v 0.076089 0.003413 0.000950
v 0.072731 -0.021990 0.001560
v 0.070199 0.029426 -0.002880
v 0.070225 0.029504 0.000370
v 0.076089 0.003413 0.000950
v 0.076064 0.003335 -0.002299
v 0.029846 -0.056120 -0.040780
v 0.014901 -0.059619 -0.043902
v 0.009376 -0.037734 -0.065333
v 0.032436 -0.032384 -0.060647
v 0.014612 -0.072592 0.012104
v 0.018144 -0.071797 0.012057
v 0.017766 -0.069548 0.022206
v 0.014248 -0.070340 0.022253
v 0.012482 -0.073918 0.003376
v -0.004311 -0.074941 0.003517
v -0.004337 -0.075021 0.000154
v 0.012456 -0.073999 -0.000017
v 0.020378 -0.072217 -0.000121
v 0.035987 -0.065950 -0.000378
v 0.036013 -0.065870 0.002983
v 0.020405 -0.072135 0.003271
v 0.014915 -0.073462 0.003349
v 0.012482 -0.073918 0.003376
v 0.012456 -0.073999 -0.000017
v 0.014890 -0.073544 -0.000050
v 0.020405 -0.072135 0.003271
v 0.018024 -0.072763 0.003308
v 0.017995 -0.072845 -0.000091
v 0.020378 -0.072217 -0.000121
v 0.018165 -0.072744 -0.003034
v 0.017995 -0.072845 -0.000091
v 0.014890 -0.073544 -0.000050
v 0.014619 -0.073542 -0.002987
v 0.018024 -0.072763 0.003308
v 0.018239 -0.072521 0.006240
v 0.014690 -0.073320 0.006287
v 0.014915 -0.073462 0.003349
v 0.012202 -0.073777 0.006311
v 0.014690 -0.073320 0.006287
v 0.014670 -0.073039 0.009078
v 0.011698 -0.073535 0.009441
v 0.029846 -0.056120 -0.040780
v 0.023458 -0.069136 -0.017763
v 0.017443 -0.070542 -0.019115
v 0.014901 -0.059619 -0.043902
v 0.000484 -0.074241 -0.011604
v -0.019313 -0.067079 -0.028859
v -0.017058 -0.066626 -0.031037
v 0.002210 -0.073898 -0.013356
v -0.038798 -0.048174 -0.044236
v -0.050288 -0.026186 -0.050948
v -0.047856 -0.025689 -0.053157
v -0.036510 -0.047708 -0.046337
v 0.004058 -0.014467 -0.074708
v -0.001809 0.011635 -0.075289
v 0.024541 0.017651 -0.069940
v 0.030397 -0.008402 -0.069360
v -0.038082 -0.045979 0.047098
v -0.018834 -0.065607 0.032344
v -0.016554 -0.065053 0.034457
v -0.035775 -0.045416 0.049129
v -0.018834 -0.065607 0.032344
v 0.000693 -0.073597 0.015147
v 0.002443 -0.073172 0.016850
v -0.016554 -0.065053 0.034457
v -0.049474 -0.023691 0.052924
v -0.038082 -0.045979 0.047098
v -0.035775 -0.045416 0.049129
v -0.047022 -0.023093 0.055059
v 0.045864 -0.051059 0.031477
v 0.055227 -0.025011 0.045839
v 0.052955 -0.025478 0.047931
v 0.043622 -0.051521 0.033649
v 0.031212 -0.066732 0.014741
v 0.045864 -0.051059 0.031477
v 0.043622 -0.051521 0.033649
v 0.029493 -0.067087 0.016490
v 0.055227 -0.025011 0.045839
v 0.056138 0.000025 0.051496
v 0.053723 -0.000470 0.053696
v 0.052955 -0.025478 0.047931
v 0.050261 0.026170 0.050914
v 0.047846 0.025677 0.053114
v 0.053723 -0.000470 0.053696
v 0.056138 0.000025 0.051496
v 0.054516 -0.027204 -0.045443
v 0.045388 -0.052529 -0.029702
v 0.043103 -0.053097 -0.031820
v 0.052199 -0.027773 -0.047483
v 0.045388 -0.052529 -0.029702
v 0.031003 -0.067375 -0.012005
v 0.029254 -0.067814 -0.013710
v 0.043103 -0.053097 -0.031820
v 0.055329 -0.002468 -0.052309
v 0.054516 -0.027204 -0.045443
v 0.052199 -0.027773 -0.047483
v 0.052867 -0.003070 -0.054454
v -0.017058 -0.066626 -0.031037
v -0.036510 -0.047708 -0.046337
v -0.016995 -0.043492 -0.060013
v -0.004005 -0.063732 -0.040342
v 0.018207 -0.072243 0.009031
v 0.021102 -0.071420 0.009316
v 0.021708 -0.070775 0.012296
v 0.018144 -0.071797 0.012057
v 0.014555 -0.073396 -0.005787
v 0.011577 -0.073908 -0.006080
v 0.010780 -0.073712 -0.009084
v 0.014449 -0.073094 -0.008837
v 0.020981 -0.071793 -0.006204
v 0.018091 -0.072601 -0.005834
v 0.017981 -0.072300 -0.008884
v 0.021541 -0.071292 -0.009226
v 0.011577 -0.073908 -0.006080
v 0.000484 -0.074241 -0.011604
v 0.002210 -0.073898 -0.013356
v 0.010780 -0.073712 -0.009084
v 0.021102 -0.071420 0.009316
v 0.031212 -0.066732 0.014741
v 0.029493 -0.067087 0.016490
v 0.021708 -0.070775 0.012296
v 0.031003 -0.067375 -0.012005
v 0.020981 -0.071793 -0.006204
v 0.021541 -0.071292 -0.009226
v 0.029254 -0.067814 -0.013710
v 0.000693 -0.073597 0.015147
v 0.011698 -0.073535 0.009441
v 0.010950 -0.073196 0.012439
v 0.002443 -0.073172 0.016850
v 0.018091 -0.072601 -0.005834
v 0.014555 -0.073396 -0.005787
v 0.014449 -0.073094 -0.008837
v 0.017981 -0.072300 -0.008884
v 0.014670 -0.073039 0.009078
v 0.018207 -0.072243 0.009031
v 0.018144 -0.071797 0.012057
v 0.014612 -0.072592 0.012104
v 0.011698 -0.073535 0.009441
v 0.014670 -0.073039 0.009078
v 0.014612 -0.072592 0.012104
v 0.010950 -0.073196 0.012439
v -0.004005 -0.063732 -0.040342
v 0.007912 -0.072633 -0.017560
v 0.002210 -0.073898 -0.013356
v -0.017058 -0.066626 -0.031037
v 0.010933 -0.060512 -0.043851
v 0.006030 -0.038487 -0.065290
v 0.009376 -0.037734 -0.065333
v 0.014901 -0.059619 -0.043902
v -0.053737 0.000475 -0.053739
v -0.031482 0.005079 -0.069224
v -0.025625 -0.020983 -0.068644
v -0.047856 -0.025689 -0.053157
v 0.052867 -0.003070 -0.054454
v 0.046989 0.023078 -0.055036
v 0.049452 0.023679 -0.052891
v 0.055329 -0.002468 -0.052309
v -0.047022 -0.023093 0.055059
v -0.052903 0.003070 0.054477
v -0.055354 0.002471 0.052342
v -0.049474 -0.023691 0.052924
v -0.000637 0.015234 0.074659
v -0.004039 0.014471 0.074706
v 0.001828 -0.011630 0.075287
v 0.005229 -0.010866 0.075240
v -0.076123 -0.003336 0.002303
v -0.076149 -0.003414 -0.000949
v -0.070279 -0.029528 -0.000368
v -0.070254 -0.029450 0.002884
v -0.070279 -0.029528 -0.000368
v -0.076149 -0.003414 -0.000949
v -0.070801 -0.002841 -0.028109
v -0.064942 -0.028908 -0.027529
v 0.070199 0.029426 -0.002880
v 0.076064 0.003335 -0.002299
v 0.070303 0.001463 -0.029291
v 0.064448 0.027509 -0.029871
v -0.056169 -0.000023 -0.051530
v -0.053737 0.000475 -0.053739
v -0.047856 -0.025689 -0.053157
v -0.050288 -0.026186 -0.050948
v 0.055329 -0.002468 -0.052309
v 0.049452 0.023679 -0.052891
v 0.064448 0.027509 -0.029871
v 0.070303 0.001463 -0.029291
v -0.052903 0.003070 0.054477
v -0.047022 -0.023093 0.055059
v -0.024540 -0.017654 0.069961
v -0.030397 0.008406 0.069381
v -0.064491 -0.027529 0.029897
v -0.070350 -0.001462 0.029317
v -0.076123 -0.003336 0.002303
v -0.070254 -0.029450 0.002884
v -0.010390 0.034564 -0.066916
v -0.033392 0.029460 -0.061636
v -0.030496 0.054124 -0.042964
v -0.015583 0.057456 -0.046476
v 0.024541 0.017651 -0.069940
v -0.001809 0.011635 -0.075289
v -0.007043 0.035315 -0.066959
v 0.016043 0.040545 -0.062270
v -0.029250 0.067826 0.013712
v -0.023447 0.069144 0.017767
v -0.021529 0.071300 0.009223
v -0.014424 0.073098 0.008832
v -0.013901 0.071336 0.019071
v -0.007899 0.072627 0.017560
v -0.010768 0.073710 0.009081
v -0.014646 0.073043 -0.009075
v -0.018183 0.072251 -0.009029
v -0.018214 0.072529 -0.006238
v -0.014667 0.073323 -0.006284
v 0.002881 0.074438 -0.009778
v -0.000681 0.073587 -0.015142
v -0.011685 0.073534 -0.009438
v -0.012188 0.073777 -0.006308
v -0.045873 0.051084 -0.031489
v -0.055252 0.025029 -0.045865
v -0.068085 0.022477 -0.025357
v -0.054252 0.049345 -0.018119
v -0.052965 0.025498 -0.047966
v -0.033392 0.029460 -0.061636
v -0.031482 0.005079 -0.069224
v -0.053737 0.000475 -0.053739
v -0.014593 0.073546 0.002989
v -0.014530 0.073399 0.005790
v -0.011564 0.073906 0.006082
v -0.012116 0.073999 0.002953
v -0.053980 0.050177 0.016578
v -0.067687 0.023692 0.025312
v -0.054536 0.027221 0.045469
v -0.045393 0.052552 0.029715
v -0.053980 0.050177 0.016578
v -0.045393 0.052552 0.029715
v -0.030997 0.067390 0.012010
v -0.034532 0.066411 0.006648
v -0.057357 0.049145 0.001167
v -0.053980 0.050177 0.016578
v -0.034532 0.066411 0.006648
v -0.035984 0.065970 0.000381
v -0.029840 0.056132 0.040789
v -0.014876 0.059623 0.043904
v -0.017420 0.070548 0.019118
v -0.023447 0.069144 0.017767
v -0.021699 0.070782 -0.012300
v -0.023748 0.068222 -0.020694
v -0.029483 0.067103 -0.016493
v -0.056169 -0.000023 -0.051530
v -0.070801 -0.002841 -0.028109
v -0.068085 0.022477 -0.025357
v -0.055252 0.025029 -0.045865
v 0.035754 0.045393 -0.049111
v 0.016043 0.040545 -0.062270
v 0.003361 0.061710 -0.043402
v 0.016551 0.065031 -0.034448
v -0.032434 0.032394 0.060664
v -0.009356 0.037737 0.065332
v -0.014876 0.059623 0.043904
v -0.029840 0.056132 0.040789
v -0.072755 0.022087 0.001640
v -0.067687 0.023692 0.025312
v -0.053980 0.050177 0.016578
v -0.057357 0.049145 0.001167
v -0.076123 -0.003336 0.002303
v -0.070350 -0.001462 0.029317
v -0.067687 0.023692 0.025312
v -0.072755 0.022087 0.001640
v -0.034656 0.066029 -0.009284
v -0.036010 0.065890 -0.002982
v -0.020393 0.072142 -0.003269
v -0.020660 0.071879 -0.006197
v -0.052229 0.027786 0.047500
v -0.032434 0.032394 0.060664
v -0.029840 0.056132 0.040789
v -0.043115 0.053116 0.031827
v -0.035984 0.065970 0.000381
v -0.034532 0.066411 0.006648
v -0.020588 0.072101 0.003065
v -0.020366 0.072223 0.000124
v -0.070801 -0.002841 -0.028109
v -0.076149 -0.003414 -0.000949
v -0.072780 0.022010 -0.001559
v -0.068085 0.022477 -0.025357
v -0.000472 0.074228 0.011604
v 0.003005 0.074820 0.006151
v -0.012116 0.073999 0.002953
v -0.011564 0.073906 0.006082
v -0.043115 0.053116 0.031827
v -0.029840 0.056132 0.040789
v -0.023447 0.069144 0.017767
v -0.029250 0.067826 0.013712
v -0.070350 -0.001462 0.029317
v -0.055354 0.002471 0.052342
v -0.054536 0.027221 0.045469
v -0.067687 0.023692 0.025312
v -0.014593 0.073546 0.002989
v -0.018142 0.072751 0.003036
v -0.018067 0.072607 0.005837
v -0.014530 0.073399 0.005790
v 0.017071 0.066602 0.031021
v 0.004015 0.063718 0.040334
v 0.016998 0.043478 0.059993
v 0.036510 0.047684 0.046303
v -0.052903 0.003070 0.054477
v -0.030397 0.008406 0.069381
v -0.032434 0.032394 0.060664
v -0.052229 0.027786 0.047500
v -0.034532 0.066411 0.006648
v -0.030997 0.067390 0.012010
v -0.020969 0.071800 0.006207
v -0.020588 0.072101 0.003065
v -0.010908 0.060512 0.043850
v 0.004015 0.063718 0.040334
v -0.007899 0.072627 0.017560
v -0.013901 0.071336 0.019071
v 0.027755 0.068492 0.015490
v 0.030857 0.068912 0.000002
v 0.004348 0.075005 -0.000152
v 0.003005 0.074820 0.006151
v -0.006009 0.038487 0.065286
v 0.016998 0.043478 0.059993
v 0.004015 0.063718 0.040334
v -0.010908 0.060512 0.043850
v -0.000637 0.015234 0.074659
v 0.025622 0.020976 0.068618
v 0.016998 0.043478 0.059993
v -0.006009 0.038487 0.065286
v 0.051654 0.050453 0.023718
v 0.056318 0.051030 -0.000065
v 0.030857 0.068912 0.000002
v 0.027755 0.068492 0.015490
v -0.030397 0.008406 0.069381
v -0.004039 0.014471 0.074706
v -0.009356 0.037737 0.065332
v -0.032434 0.032394 0.060664
v 0.038783 0.048146 0.044211
v 0.051654 0.050453 0.023718
v 0.027755 0.068492 0.015490
v 0.019316 0.067052 0.028849
v -0.002434 0.073162 -0.016848
v -0.008200 0.071705 -0.020897
v -0.010935 0.073193 -0.012441
v 0.036510 0.047684 0.046303
v 0.016998 0.043478 0.059993
v 0.025622 0.020976 0.068618
v 0.047846 0.025677 0.053114
v 0.027484 0.067661 -0.019189
v 0.018839 0.065585 -0.032330
v -0.000681 0.073587 -0.015142
v 0.002881 0.074438 -0.009778
v 0.030828 0.068821 -0.003789
v 0.027484 0.067661 -0.019189
v 0.002881 0.074438 -0.009778
v 0.004322 0.074924 -0.003513
v 0.051260 0.049239 -0.026914
v 0.038072 0.045956 -0.047071
v 0.018839 0.065585 -0.032330
v 0.027484 0.067661 -0.019189
v -0.010768 0.073710 0.009081
v -0.007899 0.072627 0.017560
v -0.002194 0.073887 0.013353
v 0.050261 0.026170 0.050914
v 0.064895 0.028886 0.027508
v 0.051654 0.050453 0.023718
v 0.038783 0.048146 0.044211
v -0.014588 0.072595 -0.012108
v -0.014224 0.070345 -0.022250
v -0.017743 0.069557 -0.022205
v -0.018121 0.071804 -0.012062
v -0.045873 0.051084 -0.031489
v -0.043620 0.051547 -0.033667
v -0.052965 0.025498 -0.047966
v -0.055252 0.025029 -0.045865
v 0.056294 0.050954 -0.003262
v 0.051260 0.049239 -0.026914
v 0.027484 0.067661 -0.019189
v 0.030828 0.068821 -0.003789
v 0.070199 0.029426 -0.002880
v 0.064448 0.027509 -0.029871
v 0.051260 0.049239 -0.026914
v 0.056294 0.050954 -0.003262
v 0.003005 0.074820 0.006151
v 0.004348 0.075005 -0.000152
v -0.012442 0.073998 0.000019
v -0.012116 0.073999 0.002953
v -0.018121 0.071804 -0.012062
v -0.017743 0.069557 -0.022205
v -0.023748 0.068222 -0.020694
v -0.021699 0.070782 -0.012300
v 0.004322 0.074924 -0.003513
v 0.002881 0.074438 -0.009778
v -0.012188 0.073777 -0.006308
v -0.012469 0.073917 -0.003373
v 0.064895 0.028886 0.027508
v 0.070225 0.029504 0.000370
v 0.056318 0.051030 -0.000065
v 0.051654 0.050453 0.023718
v -0.010935 0.073193 -0.012441
v -0.008200 0.071705 -0.020897
v -0.014224 0.070345 -0.022250
v -0.014588 0.072595 -0.012108
v 0.016551 0.065031 -0.034448
v 0.003361 0.061710 -0.043402
v -0.008200 0.071705 -0.020897
v -0.002434 0.073162 -0.016848
v 0.064448 0.027509 -0.029871
v 0.049452 0.023679 -0.052891
v 0.038072 0.045956 -0.047071
v 0.051260 0.049239 -0.026914
v 0.046989 0.023078 -0.055036
v 0.024541 0.017651 -0.069940
v 0.016043 0.040545 -0.062270
v 0.035754 0.045393 -0.049111
v -0.045873 0.051084 -0.031489
v -0.054252 0.049345 -0.018119
v -0.034656 0.066029 -0.009284
v -0.031206 0.066749 -0.014742
v -0.002194 0.073887 0.013353
v -0.007899 0.072627 0.017560
v 0.004015 0.063718 0.040334
v 0.017071 0.066602 0.031021
v -0.021091 0.071427 -0.009315
v -0.020660 0.071879 -0.006197
v -0.018214 0.072529 -0.006238
v -0.018183 0.072251 -0.009029
v -0.005211 0.010871 -0.075246
v -0.031482 0.005079 -0.069224
v -0.033392 0.029460 -0.061636
v -0.010390 0.034564 -0.066916
v -0.015583 0.057456 -0.046476
v -0.030496 0.054124 -0.042964
v -0.023748 0.068222 -0.020694
v -0.017743 0.069557 -0.022205
v -0.068085 0.022477 -0.025357
v -0.072780 0.022010 -0.001559
v -0.057387 0.049054 -0.002626
v -0.054252 0.049345 -0.018119
v -0.054252 0.049345 -0.018119
v -0.057387 0.049054 -0.002626
v -0.036010 0.065890 -0.002982
v -0.034656 0.066029 -0.009284
v -0.020660 0.071879 -0.006197
v -0.020393 0.072142 -0.003269
v -0.017997 0.072770 -0.003306
v -0.018214 0.072529 -0.006238
v -0.021529 0.071300 0.009223
v -0.023447 0.069144 0.017767
v -0.017420 0.070548 0.019118
v -0.017957 0.072307 0.008879
v -0.031206 0.066749 -0.014742
v -0.034656 0.066029 -0.009284
v -0.020660 0.071879 -0.006197
v -0.021091 0.071427 -0.009315
v -0.014667 0.073323 -0.006284
v -0.014892 0.073466 -0.003346
v -0.012469 0.073917 -0.003373
v -0.012188 0.073777 -0.006308
v -0.014667 0.073323 -0.006284
v -0.012188 0.073777 -0.006308
v -0.011685 0.073534 -0.009438
v -0.014646 0.073043 -0.009075
v -0.020366 0.072223 0.000124
v -0.020588 0.072101 0.003065
v -0.018142 0.072751 0.003036
v -0.017973 0.072851 0.000093
v 0.019316 0.067052 0.028849
v 0.027755 0.068492 0.015490
v 0.003005 0.074820 0.006151
v -0.000472 0.074228 0.011604
v -0.014863 0.073548 0.000052
v -0.014593 0.073546 0.002989
v -0.012116 0.073999 0.002953
v -0.012442 0.073998 0.000019
v -0.017973 0.072851 0.000093
v -0.014863 0.073548 0.000052
v -0.014892 0.073466 -0.003346
v -0.017997 0.072770 -0.003306
v -0.017743 0.069557 -0.022205
v -0.014224 0.070345 -0.022250
v -0.011614 0.058345 -0.046528
v -0.015583 0.057456 -0.046476
v -0.010390 0.034564 -0.066916
v -0.007043 0.035315 -0.066959
v -0.001809 0.011635 -0.075289
v -0.005211 0.010871 -0.075246
v -0.057357 0.049145 0.001167
v -0.057387 0.049054 -0.002626
v -0.072780 0.022010 -0.001559
v -0.072755 0.022087 0.001640
v -0.035984 0.065970 0.000381
v -0.036010 0.065890 -0.002982
v -0.057387 0.049054 -0.002626
v -0.057357 0.049145 0.001167
v -0.072755 0.022087 0.001640
v -0.072780 0.022010 -0.001559
v -0.076149 -0.003414 -0.000949
v -0.076123 -0.003336 0.002303
v -0.010908 0.060512 0.043850
v -0.014876 0.059623 0.043904
v -0.009356 0.037737 0.065332
v -0.006009 0.038487 0.065286
v -0.013901 0.071336 0.019071
v -0.017420 0.070548 0.019118
v -0.014876 0.059623 0.043904
v -0.010908 0.060512 0.043850
v -0.006009 0.038487 0.065286
v -0.009356 0.037737 0.065332
v -0.004039 0.014471 0.074706
v -0.000637 0.015234 0.074659
v 0.030828 0.068821 -0.003789
v 0.030857 0.068912 0.000002
v 0.056318 0.051030 -0.000065
v 0.056294 0.050954 -0.003262
v 0.004322 0.074924 -0.003513
v 0.004348 0.075005 -0.000152
v 0.030857 0.068912 0.000002
v 0.030828 0.068821 -0.003789
v 0.056294 0.050954 -0.003262
v 0.056318 0.051030 -0.000065
v 0.070225 0.029504 0.000370
v 0.070199 0.029426 -0.002880
v 0.003361 0.061710 -0.043402
v 0.016043 0.040545 -0.062270
v -0.007043 0.035315 -0.066959
v -0.011614 0.058345 -0.046528
v -0.017957 0.072307 0.008879
v -0.017420 0.070548 0.019118
v -0.013901 0.071336 0.019071
v -0.014424 0.073098 0.008832
v -0.020366 0.072223 0.000124
v -0.020393 0.072142 -0.003269
v -0.036010 0.065890 -0.002982
v -0.035984 0.065970 0.000381
v -0.012469 0.073917 -0.003373
v -0.012442 0.073998 0.000019
v 0.004348 0.075005 -0.000152
v 0.004322 0.074924 -0.003513
v -0.017973 0.072851 0.000093
v -0.017997 0.072770 -0.003306
v -0.020393 0.072142 -0.003269
v -0.020366 0.072223 0.000124
v -0.012442 0.073998 0.000019
v -0.012469 0.073917 -0.003373
v -0.014892 0.073466 -0.003346
v -0.014863 0.073548 0.000052
v -0.014667 0.073323 -0.006284
v -0.018214 0.072529 -0.006238
v -0.017997 0.072770 -0.003306
v -0.014892 0.073466 -0.003346
v -0.014863 0.073548 0.000052
v -0.017973 0.072851 0.000093
v -0.018142 0.072751 0.003036
v -0.014593 0.073546 0.002989
v -0.020588 0.072101 0.003065
v -0.020969 0.071800 0.006207
v -0.018067 0.072607 0.005837
v -0.018142 0.072751 0.003036
v 0.003361 0.061710 -0.043402
v -0.011614 0.058345 -0.046528
v -0.014224 0.070345 -0.022250
v -0.008200 0.071705 -0.020897
v -0.031206 0.066749 -0.014742
v -0.029483 0.067103 -0.016493
v -0.043620 0.051547 -0.033667
v -0.045873 0.051084 -0.031489
v -0.055252 0.025029 -0.045865
v -0.052965 0.025498 -0.047966
v -0.053737 0.000475 -0.053739
v -0.056169 -0.000023 -0.051530
v -0.054536 0.027221 0.045469
v -0.052229 0.027786 0.047500
v -0.043115 0.053116 0.031827
v -0.045393 0.052552 0.029715
v -0.045393 0.052552 0.029715
v -0.043115 0.053116 0.031827
v -0.029250 0.067826 0.013712
v -0.030997 0.067390 0.012010
v -0.055354 0.002471 0.052342
v -0.052903 0.003070 0.054477
v -0.052229 0.027786 0.047500
v -0.054536 0.027221 0.045469
v 0.019316 0.067052 0.028849
v 0.017071 0.066602 0.031021
v 0.036510 0.047684 0.046303
v 0.038783 0.048146 0.044211
v -0.000472 0.074228 0.011604
v -0.002194 0.073887 0.013353
v 0.017071 0.066602 0.031021
v 0.019316 0.067052 0.028849
v 0.038783 0.048146 0.044211
v 0.036510 0.047684 0.046303
v 0.047846 0.025677 0.053114
v 0.050261 0.026170 0.050914
v 0.038072 0.045956 -0.047071
v 0.035754 0.045393 -0.049111
v 0.016551 0.065031 -0.034448
v 0.018839 0.065585 -0.032330
v 0.018839 0.065585 -0.032330
v 0.016551 0.065031 -0.034448
v -0.002434 0.073162 -0.016848
v -0.000681 0.073587 -0.015142
v 0.049452 0.023679 -0.052891
v 0.046989 0.023078 -0.055036
v 0.035754 0.045393 -0.049111
v 0.038072 0.045956 -0.047071
v -0.043620 0.051547 -0.033667
v -0.030496 0.054124 -0.042964
v -0.033392 0.029460 -0.061636
v -0.052965 0.025498 -0.047966
v -0.014530 0.073399 0.005790
v -0.014424 0.073098 0.008832
v -0.010768 0.073710 0.009081
v -0.011564 0.073906 0.006082
v -0.018183 0.072251 -0.009029
v -0.018121 0.071804 -0.012062
v -0.021699 0.070782 -0.012300
v -0.021091 0.071427 -0.009315
v -0.011685 0.073534 -0.009438
v -0.010935 0.073193 -0.012441
v -0.014588 0.072595 -0.012108
v -0.014646 0.073043 -0.009075
v -0.021091 0.071427 -0.009315
v -0.021699 0.070782 -0.012300
v -0.029483 0.067103 -0.016493
v -0.031206 0.066749 -0.014742
v -0.011564 0.073906 0.006082
v -0.010768 0.073710 0.009081
v -0.002194 0.073887 0.013353
v -0.000472 0.074228 0.011604
v -0.000681 0.073587 -0.015142
v -0.002434 0.073162 -0.016848
v -0.010935 0.073193 -0.012441
v -0.011685 0.073534 -0.009438
v -0.030997 0.067390 0.012010
v -0.029250 0.067826 0.013712
v -0.021529 0.071300 0.009223
v -0.020969 0.071800 0.006207
v -0.014646 0.073043 -0.009075
v -0.014588 0.072595 -0.012108
v -0.018121 0.071804 -0.012062
v -0.018183 0.072251 -0.009029
v -0.018067 0.072607 0.005837
v -0.017957 0.072307 0.008879
v -0.014424 0.073098 0.008832
v -0.014530 0.073399 0.005790
v -0.020969 0.071800 0.006207
v -0.021529 0.071300 0.009223
v -0.017957 0.072307 0.008879
v -0.018067 0.072607 0.005837
v -0.030496 0.054124 -0.042964
v -0.043620 0.051547 -0.033667
v -0.029483 0.067103 -0.016493
v -0.023748 0.068222 -0.020694
v -0.015583 0.057456 -0.046476
v -0.011614 0.058345 -0.046528
v -0.007043 0.035315 -0.066959
v -0.010390 0.034564 -0.066916
v -0.005211 0.010871 -0.075246
v -0.001809 0.011635 -0.075289
v 0.004058 -0.014467 -0.074708
v 0.000656 -0.015231 -0.074665
vn -0.0134 -0.7001 -0.7140
vn -0.0136 -0.7001 -0.7139
vn -0.0135 -0.7001 -0.7140
vn -0.0135 -0.7001 -0.7139
vn 0.2576 -0.3102 -0.9151
vn 0.2573 -0.3106 -0.9151
vn 0.2579 -0.3098 -0.9152
vn 0.1033 -0.9734 0.2045
vn 0.2614 -0.9398 0.2203
vn 0.2613 -0.9398 0.2204
vn 0.2614 -0.9397 0.2203
vn -0.2085 -0.0686 -0.9756
vn 0.2185 -0.9742 -0.0558
vn 0.3676 -0.9279 -0.0622
vn 0.3676 -0.9279 -0.0619
vn -0.4685 -0.7960 -0.3833
vn -0.4685 -0.7959 -0.3835
vn -0.4685 -0.7958 -0.3837
vn -0.4685 -0.7958 -0.3836
vn -0.4386 -0.4639 -0.7697
vn -0.4386 -0.4640 -0.7696
vn 0.2608 -0.9601 0.1010
vn 0.2607 -0.9601 0.1011
vn 0.2606 -0.9601 0.1012
vn -0.4620 -0.7763 0.4288
vn -0.4622 -0.7763 0.4286
vn -0.4625 -0.7762 0.4285
vn -0.4621 -0.7763 0.4287
vn -0.8208 -0.1964 -0.5364
vn -0.1624 -0.9523 0.2584
vn -0.1624 -0.9523 0.2585
vn -0.1624 -0.9523 0.2582
vn -0.1623 -0.9522 0.2588
vn -0.2199 -0.9678 0.1224
vn -0.2197 -0.9679 0.1217
vn -0.2199 -0.9678 0.1223
vn 0.1049 -0.8874 0.4488
vn 0.1051 -0.8874 0.4489
vn 0.1050 -0.8874 0.4489
vn 0.1005 -0.9821 -0.1591
vn -0.6978 -0.5161 -0.4967
vn -0.6979 -0.5161 -0.4967
vn -0.6976 -0.5162 -0.4968
vn 0.5438 -0.5731 -0.6130
vn 0.5432 -0.5736 -0.6131
vn 0.5434 -0.5735 -0.6131
vn 0.5433 -0.5735 -0.6131
vn -0.0021 -0.6651 0.7468
vn -0.0021 -0.6650 0.7468
vn -0.0022 -0.6652 0.7467
vn -0.8122 -0.1701 0.5580
vn -0.5658 -0.8044 0.1810
vn -0.5658 -0.8045 0.1809
vn -0.5657 -0.8045 0.1808
vn -0.8221 -0.5279 0.2132
vn -0.8221 -0.5279 0.2133
vn -0.8221 -0.5280 0.2132
vn 0.0593 -0.9982 -0.0134
vn 0.0594 -0.9981 -0.0135
vn -0.2509 -0.7244 0.6421
vn -0.2509 -0.7243 0.6422
vn -0.2508 -0.7241 0.6424
vn -0.1932 -0.0216 0.9809
vn 0.0599 -0.9964 0.0605
vn 0.0599 -0.9964 0.0604
vn 0.0599 -0.9964 0.0606
vn -0.8251 -0.5373 -0.1747
vn -0.8253 -0.5370 -0.1744
vn 0.3688 -0.9240 0.1009
vn 0.3689 -0.9240 0.1007
vn 0.3687 -0.9241 0.1011
vn -0.0342 -0.9204 0.3894
vn -0.0342 -0.9204 0.3895
vn -0.6897 -0.4914 0.5318
vn -0.6897 -0.4915 0.5317
vn -0.6897 -0.4913 0.5319
vn 0.2197 -0.9705 0.0991
vn 0.5531 -0.5435 0.6314
vn 0.5529 -0.5437 0.6315
vn -0.4263 -0.4262 0.7979
vn -0.4262 -0.4260 0.7981
vn -0.4262 -0.4261 0.7980
vn 0.0649 -0.9924 0.1049
vn 0.0649 -0.9924 0.1047
vn 0.0650 -0.9923 0.1050
vn 0.2965 -0.8443 0.4464
vn 0.2966 -0.8443 0.4464
vn 0.2965 -0.8443 0.4463
vn 0.6160 -0.7798 0.1113
vn 0.6160 -0.7798 0.1112
vn 0.6161 -0.7798 0.1112
vn 0.3059 -0.5957 0.7427
vn 0.3057 -0.5959 0.7426
vn 0.3056 -0.5959 0.7426
vn 0.3058 -0.5958 0.7426
vn 0.2719 -0.2660 0.9248
vn 0.2717 -0.2664 0.9248
vn 0.2722 -0.2656 0.9249
vn 0.8600 -0.4840 0.1620
vn 0.8600 -0.4839 0.1621
vn 0.8599 -0.4840 0.1618
vn 0.8600 -0.4839 0.1620
vn 0.5462 0.1411 0.8257
vn -0.1079 -0.3514 0.9300
vn -0.1077 -0.3510 0.9302
vn -0.1081 -0.3517 0.9298
vn 0.7607 -0.5013 0.4124
vn 0.7606 -0.5013 0.4125
vn 0.7607 -0.5014 0.4122
vn 0.7607 -0.5014 0.4121
vn 0.9564 0.2193 0.1928
vn 0.3258 -0.9315 -0.1621
vn 0.2094 0.0688 0.9754
vn 0.5880 -0.1983 0.7841
vn 0.5879 -0.1984 0.7842
vn 0.8210 0.1965 0.5361
vn 0.5573 -0.8009 -0.2191
vn 0.5574 -0.8009 -0.2188
vn 0.5572 -0.8009 -0.2194
vn 0.5573 -0.8009 -0.2192
vn 0.6145 -0.7845 -0.0834
vn 0.6145 -0.7845 -0.0833
vn 0.7543 -0.5210 -0.3995
vn 0.7542 -0.5210 -0.3996
vn 0.7544 -0.5209 -0.3995
vn 0.7543 -0.5209 -0.3995
vn 0.3286 -0.9227 0.2015
vn 0.8469 -0.1462 0.5112
vn 0.8470 -0.1463 0.5111
vn 0.8469 -0.1461 0.5113
vn 0.2139 -0.9608 -0.1763
vn -0.3399 -0.7782 -0.5281
vn -0.3398 -0.7782 -0.5282
vn -0.3398 -0.7782 -0.5281
vn 0.8574 -0.4916 -0.1519
vn 0.8577 -0.4913 -0.1515
vn 0.8575 -0.4915 -0.1518
vn 0.8575 -0.4916 -0.1518
vn 0.9710 -0.1338 -0.1982
vn 0.9711 -0.1335 -0.1980
vn 0.3740 -0.9257 0.0564
vn 0.3740 -0.9257 0.0563
vn 0.1687 -0.9695 -0.1777
vn 0.1688 -0.9695 -0.1778
vn 0.1688 -0.9695 -0.1777
vn 0.3734 -0.9275 -0.0176
vn 0.3734 -0.9275 -0.0175
vn 0.3735 -0.9275 -0.0177
vn 0.9740 -0.1245 0.1893
vn 0.9740 -0.1247 0.1890
vn 0.9740 -0.1242 0.1896
vn 0.2582 -0.9494 -0.1790
vn 0.2583 -0.9493 -0.1790
vn 0.4291 -0.8325 -0.3503
vn 0.4292 -0.8325 -0.3503
vn 0.8390 -0.1709 -0.5167
vn 0.8390 -0.1708 -0.5166
vn 0.8389 -0.1710 -0.5167
vn 0.5758 -0.2360 -0.7828
vn 0.5759 -0.2359 -0.7828
vn 0.5758 -0.2359 -0.7828
vn -0.1662 -0.9635 -0.2097
vn -0.1664 -0.9635 -0.2095
vn 0.4348 -0.8149 0.3832
vn 0.4349 -0.8149 0.3832
vn 0.1771 -0.9825 -0.0579
vn 0.1769 -0.9825 -0.0577
vn 0.1770 -0.9825 -0.0578
vn -0.1223 -0.3956 -0.9103
vn -0.1222 -0.3955 -0.9103
vn -0.1224 -0.3957 -0.9102
vn 0.0983 -0.9080 -0.4073
vn 0.0984 -0.9080 -0.4073
vn 0.0985 -0.9080 -0.4073
vn -0.5681 -0.8121 -0.1332
vn -0.5682 -0.8121 -0.1332
vn -0.5685 -0.8119 -0.1327
vn -0.5682 -0.8121 -0.1331
vn 0.5332 0.1012 -0.8399
vn -0.2214 -0.9725 -0.0723
vn -0.2216 -0.9725 -0.0720
vn -0.2215 -0.9725 -0.0723
vn 0.1820 -0.9831 -0.0185
vn 0.1822 -0.9831 -0.0187
vn 0.1819 -0.9831 -0.0184
vn 0.1720 -0.9599 0.2215
vn 0.1719 -0.9599 0.2216
vn 0.0638 -0.9963 -0.0581
vn 0.0636 -0.9963 -0.0579
vn 0.0639 -0.9963 -0.0582
vn 0.2561 -0.9664 -0.0196
vn 0.2562 -0.9664 -0.0197
vn 0.2560 -0.9665 -0.0196
vn 0.2596 -0.9639 -0.0587
vn 0.2595 -0.9640 -0.0588
vn 0.2593 -0.9640 -0.0590
vn 0.2594 -0.9640 -0.0589
vn 0.1825 -0.9812 0.0631
vn 0.1827 -0.9811 0.0630
vn 0.1829 -0.9811 0.0629
vn 0.1828 -0.9811 0.0629
vn 0.5609 -0.7896 0.2488
vn 0.5610 -0.7896 0.2487
vn 0.5608 -0.7897 0.2489
vn 0.5607 -0.7897 0.2490
vn 0.2569 -0.9645 0.0619
vn 0.2568 -0.9645 0.0621
vn 0.2566 -0.9645 0.0622
vn 0.2567 -0.9645 0.0621
vn 0.2198 -0.9753 0.0217
vn 0.1949 -0.8900 -0.4122
vn 0.0689 -0.3593 -0.9307
vn -0.5740 -0.8185 0.0242
vn -0.2232 -0.9744 0.0252
vn -0.8398 -0.5425 0.0196
vn 0.1538 -0.6384 0.7542
vn 0.2016 -0.8692 0.4514
vn 0.0835 -0.3142 0.9457
vn 0.8695 -0.4940 0.0051
vn 0.6195 -0.7849 0.0140
vn 0.9914 -0.1311 -0.0045
vn 0.9756 0.2190 -0.0128
vn 0.2942 -0.6308 -0.7180
vn 0.2943 -0.6309 -0.7179
vn 0.2943 -0.6308 -0.7179
vn 0.2170 -0.9513 0.2189
vn 0.0610 -0.9979 0.0235
vn 0.3728 -0.9277 0.0194
vn 0.1842 -0.9826 0.0222
vn 0.1843 -0.9826 0.0222
vn 0.2550 -0.9667 0.0213
vn 0.2549 -0.9667 0.0213
vn 0.2550 -0.9667 0.0212
vn 0.2193 -0.9754 -0.0206
vn 0.2199 -0.9734 0.0641
vn 0.1782 -0.9787 0.1021
vn 0.1782 -0.9787 0.1022
vn 0.1781 -0.9787 0.1024
vn 0.2898 -0.8649 -0.4098
vn 0.2898 -0.8649 -0.4099
vn 0.2900 -0.8649 -0.4098
vn -0.0941 -0.9529 -0.2884
vn -0.0940 -0.9529 -0.2885
vn -0.5319 -0.4887 -0.6916
vn -0.5320 -0.4887 -0.6915
vn 0.1941 0.0218 -0.9807
vn -0.3316 -0.7519 0.5698
vn -0.3317 -0.7519 0.5697
vn -0.0893 -0.9379 0.3352
vn -0.0894 -0.9379 0.3351
vn -0.0893 -0.9379 0.3353
vn -0.5213 -0.4549 0.7220
vn -0.5213 -0.4549 0.7221
vn -0.5212 -0.4548 0.7221
vn 0.6360 -0.5344 0.5567
vn 0.6359 -0.5344 0.5568
vn 0.6358 -0.5344 0.5568
vn 0.4908 -0.8074 0.3274
vn 0.4907 -0.8075 0.3275
vn 0.6840 -0.1841 0.7058
vn 0.6841 -0.1840 0.7058
vn 0.6842 -0.1840 0.7057
vn 0.6463 0.1619 0.7457
vn 0.6270 -0.5609 -0.5406
vn 0.6271 -0.5609 -0.5406
vn 0.6271 -0.5609 -0.5405
vn 0.4856 -0.8225 -0.2961
vn 0.4857 -0.8225 -0.2960
vn 0.6726 -0.2181 -0.7072
vn 0.6726 -0.2181 -0.7071
vn -0.2605 -0.7541 -0.6029
vn -0.2606 -0.7542 -0.6028
vn -0.2607 -0.7542 -0.6027
vn 0.2604 -0.9539 0.1495
vn 0.2603 -0.9539 0.1496
vn 0.2604 -0.9538 0.1495
vn 0.1754 -0.9787 -0.1070
vn 0.1751 -0.9787 -0.1067
vn 0.1750 -0.9788 -0.1065
vn 0.1750 -0.9788 -0.1066
vn 0.2583 -0.9600 -0.1078
vn 0.2583 -0.9600 -0.1077
vn 0.2584 -0.9600 -0.1078
vn 0.0748 -0.9924 -0.0977
vn 0.0751 -0.9923 -0.0981
vn 0.0750 -0.9924 -0.0980
vn 0.3568 -0.9236 0.1404
vn 0.3566 -0.9236 0.1407
vn 0.3567 -0.9236 0.1406
vn 0.3569 -0.9235 0.1403
vn 0.3548 -0.9294 -0.1017
vn 0.3549 -0.9294 -0.1013
vn 0.3549 -0.9294 -0.1014
vn 0.3548 -0.9294 -0.1018
vn 0.0767 -0.9865 0.1443
vn 0.0766 -0.9866 0.1440
vn 0.0767 -0.9866 0.1440
vn 0.0767 -0.9865 0.1444
vn 0.2171 -0.9706 -0.1037
vn 0.2190 -0.9646 0.1467
vn 0.2191 -0.9646 0.1466
vn 0.1774 -0.9726 0.1504
vn 0.1771 -0.9726 0.1506
vn 0.1770 -0.9726 0.1508
vn 0.1771 -0.9726 0.1507
vn -0.0400 -0.9380 -0.3442
vn -0.0399 -0.9380 -0.3442
vn -0.0401 -0.9380 -0.3442
vn 0.1423 -0.6740 -0.7249
vn -0.5456 -0.1410 -0.8261
vn 0.6340 0.1255 -0.7631
vn -0.6340 -0.1255 0.7631
vn 0.0083 0.0241 0.9997
vn -0.9756 -0.2190 0.0129
vn -0.9564 -0.2193 -0.1929
vn 0.9532 0.2094 -0.2180
vn -0.6453 -0.1617 -0.7466
vn 0.8125 0.1702 -0.5576
vn -0.5326 -0.1010 0.8404
vn -0.9532 -0.2094 0.2182
vn -0.3045 0.5960 -0.7430
vn -0.3049 0.5962 -0.7427
vn -0.3047 0.5961 -0.7429
vn -0.3048 0.5961 -0.7428
vn 0.1088 0.3515 -0.9298
vn 0.1084 0.3517 -0.9298
vn 0.1093 0.3513 -0.9299
vn -0.3249 0.9317 0.1621
vn -0.1678 0.9696 0.1779
vn -0.1679 0.9696 0.1779
vn -0.2187 0.9708 -0.0991
vn -0.2186 0.9708 -0.0991
vn -0.0640 0.9924 -0.1047
vn -0.0641 0.9924 -0.1048
vn -0.0640 0.9925 -0.1046
vn -0.0643 0.9924 -0.1050
vn -0.7603 0.5020 -0.4123
vn -0.7602 0.5019 -0.4125
vn -0.7602 0.5019 -0.4126
vn -0.5875 0.1986 -0.7845
vn -0.5875 0.1987 -0.7845
vn -0.5871 0.1983 -0.7849
vn -0.1760 0.9827 0.0578
vn -0.1762 0.9827 0.0576
vn -0.1759 0.9827 0.0579
vn -0.1758 0.9827 0.0579
vn -0.7538 0.5215 0.3999
vn -0.7540 0.5213 0.3997
vn -0.7537 0.5215 0.3999
vn -0.7539 0.5213 0.3997
vn -0.5567 0.8013 0.2193
vn -0.5565 0.8014 0.2195
vn -0.5569 0.8012 0.2192
vn -0.5563 0.8015 0.2196
vn -0.6140 0.7849 0.0832
vn -0.6139 0.7850 0.0834
vn -0.6139 0.7850 0.0833
vn -0.2890 0.8652 0.4099
vn -0.2889 0.8652 0.4099
vn -0.3277 0.9230 -0.2015
vn -0.8467 0.1465 -0.5115
vn -0.8466 0.1467 -0.5115
vn -0.8468 0.1464 -0.5114
vn 0.2514 0.7243 -0.6420
vn 0.2522 0.7241 -0.6419
vn 0.2516 0.7242 -0.6420
vn 0.2517 0.7242 -0.6420
vn -0.2935 0.6312 0.7179
vn -0.2930 0.6310 0.7183
vn -0.2933 0.6312 0.7180
vn -0.8572 0.4919 0.1523
vn -0.8572 0.4921 0.1520
vn -0.9709 0.1341 0.1985
vn -0.9709 0.1338 0.1988
vn -0.9709 0.1340 0.1985
vn -0.3732 0.9260 -0.0563
vn -0.5426 0.5739 0.6134
vn -0.5427 0.5739 0.6133
vn -0.5425 0.5738 0.6136
vn -0.3726 0.9278 0.0176
vn -0.3726 0.9278 0.0177
vn -0.9739 0.1248 -0.1894
vn -0.9740 0.1248 -0.1893
vn -0.9739 0.1249 -0.1894
vn -0.0628 0.9963 0.0580
vn -0.0628 0.9963 0.0582
vn -0.0628 0.9963 0.0579
vn -0.0628 0.9963 0.0583
vn -0.4284 0.8329 0.3504
vn -0.4282 0.8330 0.3504
vn -0.4283 0.8329 0.3504
vn -0.4283 0.8330 0.3504
vn -0.8386 0.1712 0.5171
vn -0.8386 0.1711 0.5172
vn -0.8387 0.1713 0.5170
vn -0.2174 0.9745 0.0559
vn 0.2615 0.7540 0.6025
vn 0.2612 0.7541 0.6026
vn 0.2616 0.7540 0.6025
vn 0.2614 0.7541 0.6026
vn -0.5752 0.2363 0.7832
vn -0.5749 0.2361 0.7834
vn -0.5752 0.2363 0.7831
vn -0.5748 0.2359 0.7835
vn -0.3668 0.9282 0.0620
vn -0.3666 0.9283 0.0622
vn -0.3666 0.9283 0.0623
vn -0.0974 0.9080 0.4074
vn -0.0974 0.9081 0.4074
vn 0.2222 0.9723 0.0725
vn 0.2222 0.9723 0.0723
vn 0.0147 0.7001 0.7138
vn 0.0145 0.7002 0.7138
vn 0.0147 0.7002 0.7138
vn 0.0144 0.7002 0.7138
vn 0.1232 0.3957 0.9101
vn 0.1236 0.3955 0.9101
vn 0.5688 0.8116 0.1333
vn 0.5688 0.8116 0.1332
vn 0.5687 0.8117 0.1331
vn -0.2567 0.3105 0.9153
vn -0.2566 0.3103 0.9154
vn -0.2569 0.3105 0.9152
vn 0.4692 0.7955 0.3836
vn 0.4692 0.7957 0.3831
vn 0.4692 0.7955 0.3834
vn 0.4692 0.7954 0.3836
vn -0.1024 0.9735 -0.2044
vn 0.4392 0.4638 0.7694
vn 0.4387 0.4641 0.7695
vn 0.4390 0.4639 0.7695
vn 0.1634 0.9522 -0.2582
vn 0.1635 0.9522 -0.2580
vn 0.1636 0.9522 -0.2580
vn 0.1633 0.9522 -0.2582
vn 0.2208 0.9677 -0.1221
vn 0.2206 0.9677 -0.1223
vn 0.2207 0.9677 -0.1222
vn 0.4627 0.7761 -0.4285
vn 0.4632 0.7760 -0.4282
vn 0.4626 0.7761 -0.4285
vn 0.4628 0.7761 -0.4284
vn -0.0996 0.9822 0.1591
vn 0.6981 0.5159 0.4964
vn 0.6981 0.5160 0.4963
vn 0.6982 0.5161 0.4962
vn -0.2159 0.9516 -0.2188
vn -0.6350 0.5349 -0.5573
vn -0.6350 0.5349 -0.5574
vn 0.5665 0.8041 -0.1803
vn 0.5662 0.8042 -0.1807
vn 0.8223 0.5277 -0.2130
vn 0.8225 0.5275 -0.2127
vn 0.8221 0.5279 -0.2132
vn -0.0584 0.9982 0.0136
vn -0.0584 0.9982 0.0135
vn -0.2605 0.9400 -0.2203
vn -0.2604 0.9401 -0.2203
vn -0.2603 0.9401 -0.2203
vn -0.0590 0.9964 -0.0605
vn -0.0590 0.9964 -0.0604
vn 0.8253 0.5370 0.1746
vn 0.8252 0.5372 0.1743
vn 0.8254 0.5367 0.1749
vn -0.1710 0.9600 -0.2215
vn -0.1709 0.9601 -0.2215
vn -0.1709 0.9601 -0.2214
vn 0.0351 0.9204 -0.3893
vn 0.0352 0.9204 -0.3893
vn 0.0350 0.9204 -0.3893
vn 0.6901 0.4913 -0.5314
vn 0.6902 0.4912 -0.5313
vn 0.6904 0.4911 -0.5313
vn 0.4270 0.4262 -0.7975
vn 0.4276 0.4258 -0.7974
vn -0.5603 0.7901 -0.2486
vn -0.5602 0.7901 -0.2489
vn -0.5603 0.7901 -0.2485
vn 0.0409 0.9380 0.3442
vn 0.0408 0.9380 0.3443
vn 0.0408 0.9380 0.3442
vn 0.0409 0.9380 0.3441
vn -0.2597 0.9604 -0.1010
vn -0.2598 0.9604 -0.1010
vn -0.2711 0.2663 -0.9250
vn -0.2707 0.2661 -0.9251
vn -0.2714 0.2666 -0.9248
vn -0.2955 0.8447 -0.4464
vn -0.2956 0.8447 -0.4463
vn -0.2954 0.8447 -0.4464
vn -0.8596 0.4846 -0.1621
vn -0.8596 0.4846 -0.1620
vn -0.8597 0.4845 -0.1619
vn -0.6154 0.7804 -0.1111
vn -0.6154 0.7803 -0.1115
vn -0.6154 0.7803 -0.1112
vn -0.6154 0.7803 -0.1113
vn -0.2556 0.9648 -0.0618
vn -0.2559 0.9647 -0.0621
vn -0.2558 0.9647 -0.0620
vn -0.2558 0.9648 -0.0620
vn -0.2573 0.9496 0.1790
vn -0.2574 0.9496 0.1790
vn -0.3680 0.9244 -0.1006
vn -0.3680 0.9243 -0.1009
vn -0.1819 0.9813 -0.0631
vn -0.1816 0.9814 -0.0628
vn -0.1818 0.9813 -0.0629
vn -0.1817 0.9813 -0.0629
vn -0.1775 0.9788 -0.1018
vn -0.1772 0.9789 -0.1020
vn -0.1772 0.9789 -0.1021
vn -0.1773 0.9789 -0.1021
vn -0.2553 0.9667 0.0195
vn -0.2550 0.9667 0.0198
vn -0.2551 0.9667 0.0196
vn -0.2551 0.9667 0.0197
vn 0.1669 0.9634 0.2096
vn 0.1668 0.9633 0.2103
vn 0.1669 0.9635 0.2094
vn 0.1669 0.9634 0.2098
vn -0.1809 0.9833 0.0188
vn -0.1812 0.9833 0.0185
vn -0.1810 0.9833 0.0187
vn -0.1809 0.9833 0.0187
vn -0.2187 0.9755 -0.0217
vn -0.2187 0.9756 -0.0217
vn -0.2006 0.8695 -0.4513
vn -0.2006 0.8695 -0.4514
vn -0.0825 0.3144 -0.9457
vn -0.0826 0.3144 -0.9457
vn -0.8691 0.4945 -0.0050
vn -0.8691 0.4945 -0.0051
vn -0.6188 0.7854 -0.0140
vn -0.9913 0.1315 0.0046
vn -0.1412 0.6742 0.7250
vn -0.1938 0.8902 0.4123
vn -0.0679 0.3595 0.9307
vn 0.5745 0.8181 -0.0241
vn 0.2241 0.9743 -0.0251
vn 0.8400 0.5422 -0.0195
vn 0.0031 0.6652 -0.7467
vn 0.0031 0.6651 -0.7467
vn -0.2128 0.9610 0.1763
vn -0.2129 0.9610 0.1763
vn -0.3719 0.9281 -0.0193
vn -0.0600 0.9979 -0.0234
vn -0.0601 0.9979 -0.0234
vn -0.2540 0.9670 -0.0212
vn -0.1832 0.9828 -0.0221
vn -0.1833 0.9828 -0.0221
vn -0.2188 0.9737 -0.0640
vn -0.2182 0.9757 0.0207
vn -0.2583 0.9643 0.0592
vn -0.2584 0.9642 0.0590
vn -0.2586 0.9642 0.0589
vn -0.1040 0.8875 -0.4488
vn -0.1041 0.8875 -0.4488
vn -0.4898 0.8079 -0.3277
vn -0.4898 0.8079 -0.3276
vn -0.4899 0.8079 -0.3276
vn -0.6832 0.1845 -0.7066
vn -0.6833 0.1844 -0.7065
vn -0.6833 0.1844 -0.7064
vn -0.6268 0.5612 0.5406
vn -0.6267 0.5612 0.5406
vn -0.6269 0.5612 0.5405
vn -0.6268 0.5612 0.5405
vn -0.4851 0.8228 0.2960
vn -0.4850 0.8229 0.2961
vn -0.6726 0.2183 0.7071
vn -0.6727 0.2183 0.7070
vn -0.6725 0.2183 0.7071
vn 0.3409 0.7781 0.5276
vn 0.3409 0.7781 0.5275
vn 0.3408 0.7781 0.5276
vn 0.0950 0.9528 0.2883
vn 0.0951 0.9528 0.2882
vn 0.0951 0.9528 0.2883
vn 0.5329 0.4887 0.6908
vn 0.5328 0.4887 0.6909
vn 0.3321 0.7517 -0.5698
vn 0.3320 0.7517 -0.5698
vn 0.0901 0.9378 -0.3352
vn 0.0902 0.9378 -0.3352
vn 0.5214 0.4547 -0.7221
vn 0.5214 0.4546 -0.7221
vn -0.5524 0.5439 -0.6317
vn -0.5525 0.5440 -0.6315
vn -0.1741 0.9789 0.1066
vn -0.1740 0.9790 0.1066
vn -0.1742 0.9789 0.1065
vn -0.2591 0.9542 -0.1493
vn -0.2594 0.9541 -0.1497
vn -0.1762 0.9727 -0.1508
vn -0.1760 0.9728 -0.1506
vn -0.1761 0.9728 -0.1507
vn -0.3558 0.9239 -0.1406
vn -0.3559 0.9239 -0.1403
vn -0.3558 0.9239 -0.1407
vn -0.0740 0.9924 0.0980
vn -0.0739 0.9925 0.0977
vn -0.0739 0.9925 0.0976
vn -0.0757 0.9867 -0.1441
vn -0.0759 0.9866 -0.1443
vn -0.0757 0.9867 -0.1440
vn -0.0760 0.9866 -0.1444
vn -0.3541 0.9297 0.1014
vn -0.3539 0.9297 0.1017
vn -0.3539 0.9297 0.1018
vn -0.2180 0.9649 -0.1467
vn -0.2160 0.9709 0.1036
vn -0.2570 0.9603 0.1080
vn -0.2574 0.9603 0.1076
vn -0.2573 0.9603 0.1077
vn -0.4340 0.8153 -0.3833
vn -0.4341 0.8153 -0.3832
vn -0.4340 0.8153 -0.3832
vn -0.1528 0.6387 -0.7541
vn -0.0073 -0.0239 -0.9997
vt 0.425217 0.638297
vt 0.351261 0.530132
vt 0.427642 0.530132
vt 0.375501 0.638495
vt 0.602583 0.210244
vt 0.515737 0.308180
vt 0.515899 0.217393
vt 0.602583 0.289761
vt 0.128967 0.949925
vt 0.144548 0.919768
vt 0.147325 0.949924
vt 0.472444 0.924215
vt 0.489620 0.918513
vt 0.489620 0.955991
vt 0.479391 0.955213
vt 0.788548 0.000075
vt 0.855326 0.096513
vt 0.788548 0.096438
vt 0.855326 0.000000
vt 0.414614 0.196416
vt 0.423807 0.198865
vt 0.423807 0.209546
vt 0.414614 0.207128
vt 0.870054 0.957770
vt 0.859999 0.917490
vt 0.879777 0.914807
vt 0.879777 0.963600
vt 0.000000 0.000000
vt 0.087719 -0.000000
vt 0.071565 0.111128
vt 0.014328 0.110885
vt 0.699000 0.099705
vt 0.617124 0.200318
vt 0.617124 0.116107
vt 0.698602 0.195423
vt 0.262837 0.099242
vt 0.271041 0.100451
vt 0.269888 0.110409
vt 0.262925 0.110409
vt 0.626135 0.011188
vt 0.707363 -0.000000
vt 0.679137 0.087478
vt 0.626135 0.095033
vt 0.776857 0.099705
vt 0.844562 0.100817
vt 0.844562 0.200918
vt 0.777106 0.199811
vt 0.908203 0.200918
vt 0.901785 0.104706
vt 0.945672 0.104706
vt 0.926149 0.200826
vt 0.907014 0.313863
vt 0.886306 0.217992
vt 0.935260 0.217992
vt 0.926901 0.313619
vt 0.397006 0.943441
vt 0.397006 0.846317
vt 0.434092 0.862331
vt 0.411852 0.950222
vt 0.752971 0.509788
vt 0.730710 0.491398
vt 0.752971 0.479756
vt 0.597604 0.613038
vt 0.514572 0.618354
vt 0.514572 0.518253
vt 0.597888 0.525319
vt 0.168218 0.750177
vt 0.085040 0.826766
vt 0.085040 0.739587
vt 0.167961 0.808879
vt 0.711042 0.297301
vt 0.683868 0.206747
vt 0.761760 0.222914
vt 0.761760 0.307737
vt 0.365595 0.000176
vt 0.365595 0.096557
vt 0.272077 0.096733
vt 0.272077 0.000000
vt 0.597887 0.727697
vt 0.597887 0.619900
vt 0.673181 0.618657
vt 0.646832 0.726734
vt 0.514572 0.829002
vt 0.514572 0.740707
vt 0.587185 0.726814
vt 0.578227 0.816962
vt 0.684651 0.476156
vt 0.684651 0.422108
vt 0.705339 0.430893
vt 0.694266 0.477227
vt 0.173831 0.754924
vt 0.256750 0.737048
vt 0.256750 0.824315
vt 0.173559 0.813679
vt 0.446815 0.099780
vt 0.446815 0.196136
vt 0.355997 0.196211
vt 0.355997 0.099705
vt 0.826547 0.499611
vt 0.815998 0.448389
vt 0.835882 0.448816
vt 0.835882 0.502842
vt 0.174981 0.630369
vt 0.093538 0.624810
vt 0.093538 0.528658
vt 0.174894 0.546088
vt 0.931702 0.501472
vt 0.931702 0.455537
vt 0.953606 0.462312
vt 0.942345 0.498089
vt 0.952722 0.424356
vt 0.931896 0.338825
vt 0.969500 0.321107
vt 0.969500 0.416908
vt 0.340691 0.431281
vt 0.427642 0.436614
vt 0.427642 0.530132
vt 0.340971 0.513275
vt 0.235598 0.099302
vt 0.235598 0.109323
vt 0.225949 0.110511
vt 0.225980 0.100486
vt 0.338476 0.321192
vt 0.335300 0.429919
vt 0.282990 0.430411
vt 0.260800 0.321192
vt 0.427946 0.328645
vt 0.514615 0.321107
vt 0.514615 0.420263
vt 0.427642 0.415912
vt 0.851155 0.960981
vt 0.842235 0.918044
vt 0.859887 0.914807
vt 0.859887 0.967104
vt 0.735558 0.937774
vt 0.721538 0.840994
vt 0.766175 0.840994
vt 0.753653 0.937460
vt 0.841758 0.914591
vt 0.822840 0.822878
vt 0.879777 0.822878
vt 0.864993 0.914807
vt 0.772587 0.724832
vt 0.748948 0.618657
vt 0.816791 0.628533
vt 0.816791 0.731036
vt 0.824922 0.709086
vt 0.816791 0.618658
vt 0.881971 0.632870
vt 0.881971 0.721671
vt 0.073285 0.221957
vt 0.000383 0.111128
vt 0.087719 0.111128
vt 0.016348 0.221842
vt 0.825774 0.341002
vt 0.826012 0.436268
vt 0.761078 0.416300
vt 0.761078 0.321107
vt 0.456381 0.018439
vt 0.543214 -0.000000
vt 0.543081 0.090817
vt 0.456381 0.097990
vt 0.247287 0.321068
vt 0.174981 0.210244
vt 0.260800 0.210244
vt 0.191250 0.320818
vt 0.761760 0.306396
vt 0.828952 0.210096
vt 0.829068 0.309751
vt 0.761760 0.206747
vt 0.948483 0.919040
vt 0.948483 0.951201
vt 0.930041 0.924859
vt 0.887387 0.502842
vt 0.887387 0.599345
vt 0.820676 0.599255
vt 0.820676 0.502932
vt 0.256383 0.719765
vt 0.179578 0.737048
vt 0.179578 0.659372
vt 0.256750 0.631447
vt 0.419887 0.746276
vt 0.352216 0.846225
vt 0.352216 0.746184
vt 0.420146 0.846317
vt 0.907241 0.598955
vt 0.936196 0.502842
vt 0.927199 0.598865
vt 0.556759 0.922575
vt 0.533407 0.829002
vt 0.587185 0.829002
vt 0.578638 0.922348
vt 0.306189 0.746321
vt 0.257398 0.640517
vt 0.332028 0.638876
vt 0.257398 0.747619
vt 0.899206 0.947472
vt 0.899206 0.918335
vt 0.921499 0.924841
vt 0.597887 0.618658
vt 0.680099 0.518253
vt 0.680099 0.616146
vt 0.598179 0.532838
vt 0.780128 0.922506
vt 0.790579 0.920589
vt 0.790579 0.956901
vt 0.780085 0.958827
vt 0.650199 0.829884
vt 0.661485 0.942511
vt 0.650199 0.942181
vt 0.661349 0.830411
vt 0.407383 0.431149
vt 0.345011 0.321107
vt 0.427642 0.321107
vt 0.353605 0.431281
vt 0.088051 0.549153
vt 0.007741 0.622788
vt 0.007650 0.528459
vt 0.088051 0.631784
vt 0.726163 0.476958
vt 0.726163 0.426223
vt 0.748433 0.432857
vt 0.736542 0.477226
vt 0.889243 0.426113
vt 0.907774 0.418141
vt 0.907774 0.454461
vt 0.896703 0.455203
vt 0.766982 0.500454
vt 0.755359 0.453066
vt 0.777218 0.452121
vt 0.777218 0.502842
vt 0.626047 0.007892
vt 0.543214 0.099655
vt 0.543214 -0.000000
vt 0.626135 0.095227
vt 0.455247 0.918514
vt 0.472444 0.919908
vt 0.465655 0.951614
vt 0.455247 0.954825
vt 0.311999 0.943206
vt 0.308538 0.847971
vt 0.352127 0.847971
vt 0.331332 0.943596
vt 0.261591 0.448383
vt 0.174981 0.525016
vt 0.174981 0.431562
vt 0.261887 0.530329
vt 0.174981 0.433934
vt 0.088051 0.528658
vt 0.088051 0.429607
vt 0.174701 0.521113
vt 0.846798 0.309676
vt 0.829068 0.217992
vt 0.886306 0.217992
vt 0.870223 0.309751
vt 0.650199 0.829884
vt 0.625700 0.924556
vt 0.602480 0.924884
vt 0.597887 0.829884
vt 0.252694 0.108970
vt 0.245087 0.109732
vt 0.245087 0.099302
vt 0.254023 0.099550
vt 0.673181 0.725535
vt 0.748948 0.618658
vt 0.748948 0.705806
vt 0.673234 0.649154
vt 0.888024 0.822878
vt 0.881578 0.727375
vt 0.931294 0.727375
vt 0.908195 0.822591
vt 0.284216 0.210122
vt 0.271717 0.099705
vt 0.355997 0.099705
vt 0.339204 0.210244
vt 0.272077 -0.000000
vt 0.175571 0.099050
vt 0.175394 0.000000
vt 0.271901 0.099050
vt 0.137324 0.919546
vt 0.113229 0.826766
vt 0.168218 0.826766
vt 0.159798 0.919768
vt 0.444479 0.319789
vt 0.437135 0.321107
vt 0.437135 0.311433
vt 0.444660 0.310087
vt 0.113229 0.919768
vt 0.128967 0.924091
vt 0.122779 0.955639
vt 0.113229 0.957245
vt 0.889243 0.502842
vt 0.889243 0.455203
vt 0.910422 0.465215
vt 0.899463 0.500761
vt 0.555999 0.309971
vt 0.562579 0.308292
vt 0.562579 0.318778
vt 0.555832 0.320481
vt 0.525073 0.320917
vt 0.526420 0.309660
vt 0.533220 0.308180
vt 0.533220 0.317981
vt 0.555832 0.318124
vt 0.548742 0.320942
vt 0.548917 0.311065
vt 0.555832 0.308292
vt 0.184576 0.916771
vt 0.173559 0.824315
vt 0.229597 0.824315
vt 0.207503 0.916852
vt 0.446815 0.198918
vt 0.453764 0.198473
vt 0.453590 0.208869
vt 0.446815 0.209300
vt 0.830107 0.613631
vt 0.830107 0.601597
vt 0.838491 0.600097
vt 0.838480 0.612133
vt 0.957653 0.104706
vt 0.956293 0.202720
vt 0.945672 0.203024
vt 0.945672 0.105046
vt 0.083583 0.631784
vt 0.093378 0.722719
vt 0.083583 0.720598
vt 0.093538 0.633942
vt 0.012945 0.826132
vt 0.012945 0.937254
vt 0.000404 0.937915
vt 0.002368 0.826690
vt 0.948707 0.503098
vt 0.948707 0.598955
vt 0.937618 0.597994
vt 0.936196 0.502013
vt 0.994461 0.822878
vt 0.994461 0.904510
vt 0.984159 0.906972
vt 0.983991 0.825380
vt 0.350638 0.533827
vt 0.350638 0.637006
vt 0.340691 0.632622
vt 0.342249 0.530132
vt 0.970476 0.219150
vt 0.969253 0.316267
vt 0.959700 0.315001
vt 0.959700 0.217726
vt 0.991061 0.341642
vt 0.990901 0.430411
vt 0.981110 0.428286
vt 0.981110 0.339485
vt 0.334132 0.638941
vt 0.345453 0.750735
vt 0.332028 0.750812
vt 0.345453 0.638876
vt 0.345435 0.751517
vt 0.345435 0.845161
vt 0.333548 0.844537
vt 0.332028 0.750813
vt 0.972536 0.823962
vt 0.983806 0.905917
vt 0.972536 0.906984
vt 0.983991 0.822878
vt 0.214551 0.916852
vt 0.203276 0.986541
vt 0.203276 0.919148
vt 0.214551 0.984244
vt 0.726180 0.190282
vt 0.776858 0.115867
vt 0.776858 0.200696
vt 0.699000 0.099705
vt 0.813211 0.920987
vt 0.822840 0.920589
vt 0.822840 0.958065
vt 0.813171 0.958464
vt 0.083583 0.921330
vt 0.083583 0.975378
vt 0.072633 0.972883
vt 0.072730 0.918857
vt 0.226358 0.918361
vt 0.226467 0.969095
vt 0.214551 0.967573
vt 0.214551 0.916852
vt 0.590699 0.712140
vt 0.597848 0.710000
vt 0.597842 0.721253
vt 0.590699 0.723370
vt 0.707383 0.319771
vt 0.700683 0.320875
vt 0.700688 0.308862
vt 0.707383 0.307737
vt 0.395586 0.196754
vt 0.405064 0.198834
vt 0.405064 0.209546
vt 0.395586 0.206134
vt 0.225949 0.099231
vt 0.224750 0.109738
vt 0.216268 0.110511
vt 0.216268 0.100113
vt 0.692484 0.316757
vt 0.683868 0.320838
vt 0.685286 0.310267
vt 0.692484 0.307737
vt 0.931332 0.096045
vt 0.911735 0.000000
vt 0.954644 0.000000
vt 0.948583 0.096366
vt 0.971929 0.502013
vt 0.969509 0.595023
vt 0.960639 0.595217
vt 0.960639 0.502059
vt 0.969012 0.104706
vt 0.980746 0.189462
vt 0.969642 0.188318
vt 0.980746 0.105959
vt 0.365595 -0.000000
vt 0.456381 0.096421
vt 0.365595 0.096511
vt 0.456381 0.000091
vt 0.980795 0.822878
vt 0.980795 0.739010
vt 0.991916 0.737521
vt 0.991999 0.821366
vt 0.993221 0.727298
vt 0.991583 0.631512
vt 0.999554 0.629498
vt 0.999554 0.725924
vt 0.968938 0.822878
vt 0.968938 0.735796
vt 0.980795 0.735179
vt 0.980143 0.822290
vt 0.597576 0.727725
vt 0.597771 0.839175
vt 0.587185 0.838460
vt 0.587185 0.726814
vt 0.597782 0.839175
vt 0.595547 0.934260
vt 0.587185 0.934843
vt 0.587185 0.839705
vt 0.991583 0.632188
vt 0.991027 0.714255
vt 0.980903 0.711748
vt 0.980903 0.629498
vt 0.980950 0.492291
vt 0.969500 0.494629
vt 0.969500 0.426699
vt 0.980950 0.424357
vt 0.988966 0.095224
vt 0.977728 0.012887
vt 0.988902 0.011398
vt 0.977728 0.096736
vt 0.991061 0.430411
vt 0.991061 0.332551
vt 1.000000 0.332242
vt 0.998133 0.430366
vt 0.847140 0.502252
vt 0.835882 0.415804
vt 0.847798 0.415187
vt 0.835882 0.502842
vt 0.260800 0.210244
vt 0.333535 0.320691
vt 0.276832 0.321192
vt 0.345011 0.210244
vt 0.185861 0.099840
vt 0.196116 0.100109
vt 0.196116 0.111088
vt 0.187841 0.110553
vt 0.185861 0.099992
vt 0.185861 0.111088
vt 0.175394 0.109904
vt 0.175681 0.100969
vt 0.093538 0.726282
vt 0.093538 0.737175
vt 0.083891 0.731697
vt 0.083628 0.722719
vt 0.799079 0.923135
vt 0.799019 0.952010
vt 0.790579 0.957785
vt 0.790579 0.920589
vt 0.263914 0.923164
vt 0.263925 0.952300
vt 0.255634 0.959367
vt 0.255634 0.921859
vt 0.000519 0.657983
vt 0.000624 0.625822
vt 0.007650 0.625013
vt 0.007650 0.666529
vt 0.000519 0.702086
vt 0.000655 0.668143
vt 0.006932 0.666529
vt 0.006932 0.710383
vt 0.366258 0.198596
vt 0.366258 0.209266
vt 0.355998 0.206892
vt 0.355997 0.196211
vt 0.206631 0.100109
vt 0.216268 0.099231
vt 0.216268 0.110210
vt 0.206618 0.111088
vt 0.386128 0.198831
vt 0.395586 0.196754
vt 0.393857 0.207807
vt 0.386128 0.209810
vt 0.832893 0.413895
vt 0.826012 0.321107
vt 0.882717 0.321107
vt 0.858012 0.413584
vt 0.018451 0.826132
vt 0.028358 0.936692
vt 0.016611 0.934308
vt 0.028358 0.828146
vt 0.264396 0.747619
vt 0.332028 0.847971
vt 0.264396 0.846780
vt 0.331763 0.748805
vt 0.948707 0.502013
vt 0.960639 0.598693
vt 0.948707 0.598696
vt 0.960639 0.502015
vt 0.966516 0.000001
vt 0.966516 0.096735
vt 0.954644 0.096736
vt 0.954644 -0.000000
vt 0.982112 0.595217
vt 0.971929 0.595215
vt 0.971929 0.498712
vt 0.982112 0.498711
vt 0.007650 0.625013
vt 0.000771 0.625013
vt 0.000771 0.528459
vt 0.007650 0.528459
vt 0.673181 0.725535
vt 0.737825 0.744843
vt 0.737939 0.840994
vt 0.673181 0.821653
vt 0.822840 0.827506
vt 0.748948 0.731118
vt 0.822840 0.731036
vt 0.748948 0.827423
vt 0.203276 0.917730
vt 0.191355 0.984492
vt 0.191355 0.916852
vt 0.203276 0.985372
vt 0.081526 0.332930
vt 0.174981 0.429422
vt 0.081526 0.429607
vt 0.174981 0.333116
vt 0.175171 0.111088
vt 0.271527 0.111088
vt 0.271717 0.210244
vt 0.174981 0.210244
vt 0.508328 0.729168
vt 0.508328 0.825722
vt 0.434398 0.825635
vt 0.434398 0.729254
vt 0.246303 0.321237
vt 0.258745 0.431562
vt 0.191840 0.321068
vt 0.601460 0.419043
vt 0.514615 0.321107
vt 0.601298 0.328257
vt 0.514615 0.400624
vt 0.168218 0.949629
vt 0.149540 0.949629
vt 0.162321 0.919768
vt 0.926099 0.455204
vt 0.915172 0.418072
vt 0.926099 0.418725
vt 0.907774 0.447338
vt 0.834374 0.433963
vt 0.826012 0.424265
vt 0.834374 0.421993
vt 0.173559 0.965748
vt 0.191355 0.916852
vt 0.191355 0.968796
vt 0.182554 0.923010
vt 0.000383 0.332733
vt 0.011339 0.222196
vt 0.066560 0.221957
vt 0.085060 0.332733
vt 0.257751 0.545178
vt 0.340692 0.638876
vt 0.257398 0.632439
vt 0.340692 0.539715
vt 0.262837 0.109732
vt 0.254362 0.099242
vt 0.261825 0.100217
vt 0.254023 0.109732
vt 0.000298 0.416775
vt 0.000298 0.332930
vt 0.053300 0.340485
vt 0.081526 0.427963
vt 0.931314 0.697204
vt 0.968949 0.617591
vt 0.968949 0.714255
vt 0.953581 0.610524
vt 0.489930 0.925430
vt 0.514346 0.829274
vt 0.533407 0.925430
vt 0.496674 0.829002
vt 0.930042 0.919040
vt 0.967963 0.822878
vt 0.972536 0.919040
vt 0.950858 0.823204
vt 0.730710 0.481623
vt 0.730710 0.509788
vt 0.706620 0.500133
vt 0.514572 0.519313
vt 0.514572 0.603990
vt 0.432762 0.621080
vt 0.433080 0.524415
vt 0.083583 0.826132
vt 0.000405 0.749543
vt 0.083583 0.738953
vt 0.000661 0.808245
vt 0.710360 0.331544
vt 0.761078 0.321107
vt 0.761078 0.405931
vt 0.683186 0.422097
vt 0.755359 0.502842
vt 0.797759 0.512458
vt 0.820676 0.618658
vt 0.755359 0.604163
vt 0.597888 0.727697
vt 0.661543 0.739736
vt 0.670501 0.829884
vt 0.597888 0.815991
vt 0.777218 0.502842
vt 0.785904 0.443939
vt 0.795950 0.494331
vt 0.777218 0.444625
vt 0.684379 0.439985
vt 0.684651 0.498740
vt 0.601460 0.509376
vt 0.601460 0.422108
vt 0.871570 0.502842
vt 0.886399 0.444713
vt 0.889243 0.502842
vt 0.878241 0.448000
vt 0.083583 0.631784
vt 0.083508 0.708747
vt 0.007650 0.738953
vt 0.007650 0.651182
vt 0.910422 0.502842
vt 0.920698 0.457672
vt 0.931702 0.493051
vt 0.910422 0.455537
vt 0.931294 0.822878
vt 0.947746 0.717764
vt 0.968938 0.803706
vt 0.931294 0.726606
vt 0.088051 0.429607
vt 0.087771 0.511602
vt 0.001100 0.528459
vt 0.001100 0.434941
vt 0.423807 0.198947
vt 0.433064 0.207124
vt 0.423807 0.209546
vt 0.433064 0.196559
vt 0.428764 0.321107
vt 0.345011 0.321107
vt 0.361245 0.210244
vt 0.417652 0.210728
vt 0.515433 0.217782
vt 0.515737 0.305048
vt 0.428764 0.309399
vt 0.428764 0.210244
vt 0.953606 0.495444
vt 0.969411 0.446226
vt 0.969411 0.501472
vt 0.961550 0.451479
vt 0.882717 0.416747
vt 0.909140 0.321393
vt 0.931896 0.416747
vt 0.889201 0.321107
vt 0.028358 0.918857
vt 0.074819 0.826132
vt 0.083583 0.918857
vt 0.052244 0.826353
vt 0.457744 0.621080
vt 0.506923 0.621266
vt 0.508328 0.729168
vt 0.432762 0.729168
vt 0.680171 0.587062
vt 0.680099 0.511496
vt 0.755359 0.532448
vt 0.755359 0.618657
vt 0.090350 0.332930
vt 0.158597 0.222365
vt 0.174981 0.332930
vt 0.103372 0.222487
vt 0.601404 0.438701
vt 0.601404 0.518252
vt 0.514705 0.511080
vt 0.514572 0.420263
vt 0.087719 0.111088
vt 0.159388 0.000000
vt 0.175394 0.111088
vt 0.102166 0.000254
vt 0.048068 0.949507
vt 0.028358 0.949507
vt 0.034177 0.918857
vt 0.682809 0.326916
vt 0.683186 0.422108
vt 0.601460 0.404861
vt 0.601460 0.321107
vt 0.264396 0.944371
vt 0.290524 0.848068
vt 0.308538 0.944371
vt 0.272469 0.847971
vt 0.881971 0.714255
vt 0.923470 0.618902
vt 0.931314 0.714255
vt 0.903419 0.618658
vt 0.707363 0.083826
vt 0.760348 0.007541
vt 0.788548 0.094975
vt 0.707363 -0.000000
vt 0.948180 0.425017
vt 0.948180 0.455204
vt 0.926099 0.443483
vt 0.533720 0.099705
vt 0.617124 0.193475
vt 0.533720 0.199746
vt 0.616829 0.105800
vt 0.780085 0.957033
vt 0.768376 0.920589
vt 0.780085 0.923009
vt 0.768424 0.954624
vt 0.113229 0.826766
vt 0.101856 0.939226
vt 0.101856 0.826916
vt 0.113147 0.938879
vt 0.514572 0.726510
vt 0.563913 0.618709
vt 0.590451 0.726814
vt 0.352295 0.659536
vt 0.427642 0.714375
vt 0.352216 0.746184
vt 0.427642 0.638495
vt 0.705339 0.477227
vt 0.715021 0.422535
vt 0.726164 0.468509
vt 0.705339 0.423600
vt 0.706620 0.509788
vt 0.684651 0.479610
vt 0.696714 0.477226
vt 0.684651 0.507774
vt 0.795950 0.502842
vt 0.815998 0.448778
vt 0.815998 0.502382
vt 0.806586 0.451998
vt 0.174981 0.534902
vt 0.256665 0.614960
vt 0.174981 0.631447
vt 0.256750 0.530329
vt 0.899206 0.952360
vt 0.879870 0.918335
vt 0.891590 0.922106
vt 0.879777 0.952360
vt 0.352216 0.942382
vt 0.393466 0.846317
vt 0.397006 0.942382
vt 0.373760 0.846703
vt 0.533720 0.193160
vt 0.447111 0.116526
vt 0.533720 0.099705
vt 0.446815 0.198473
vt 0.514572 0.519313
vt 0.427642 0.424590
vt 0.514572 0.420263
vt 0.427922 0.511768
vt 0.434398 0.918514
vt 0.480669 0.825722
vt 0.489620 0.918514
vt 0.458055 0.825799
vt 0.886664 0.000304
vt 0.855326 0.092827
vt 0.861667 -0.000000
vt 0.911735 0.092827
vt 0.235598 0.109218
vt 0.244782 0.099302
vt 0.245087 0.109218
vt 0.236232 0.100766
vt 0.683868 0.308180
vt 0.602583 0.206747
vt 0.683868 0.212575
vt 0.602648 0.290511
vt 0.768376 0.920589
vt 0.798644 0.827770
vt 0.776584 0.827506
vt 0.266337 0.431430
vt 0.316602 0.431281
vt 0.340692 0.539715
vt 0.263729 0.539715
vt 0.879777 0.918336
vt 0.923452 0.822878
vt 0.930042 0.918336
vt 0.902878 0.823119
vt 0.428764 0.311062
vt 0.437135 0.321107
vt 0.428764 0.319775
vt 0.436940 0.312374
vt 0.455247 0.954834
vt 0.441455 0.918514
vt 0.451449 0.922576
vt 0.438139 0.954834
vt 0.822840 0.966190
vt 0.832138 0.916701
vt 0.842235 0.954561
vt 0.822840 0.914807
vt 0.541159 0.308292
vt 0.548742 0.320569
vt 0.541159 0.317449
vt 0.548591 0.311339
vt 0.515737 0.312518
vt 0.524040 0.318236
vt 0.515737 0.320718
vt 0.525073 0.308180
vt 0.085559 0.250989
vt 0.085559 0.236655
vt 0.090215 0.241931
vt 0.090350 0.222365
vt 0.090350 0.236655
vt 0.085559 0.229680
vt 0.885094 0.109286
vt 0.901785 0.200918
vt 0.861669 0.109365
vt 0.452073 0.321133
vt 0.444660 0.310087
vt 0.451891 0.311364
vt 0.444660 0.319827
vt 0.376557 0.199285
vt 0.386128 0.206721
vt 0.376557 0.209810
vt 0.386128 0.196211
vt 0.432010 0.747201
vt 0.420146 0.842105
vt 0.420146 0.746184
vt 0.433528 0.843249
vt 0.983541 0.906984
vt 0.972536 0.991163
vt 0.972536 0.909668
vt 0.983721 0.988433
vt 0.747224 0.836020
vt 0.737939 0.834179
vt 0.737939 0.725535
vt 0.748947 0.727718
vt 0.179578 0.631447
vt 0.168361 0.729775
vt 0.169636 0.631756
vt 0.179578 0.729425
vt 0.997608 0.096736
vt 0.988966 0.092508
vt 0.989105 0.014205
vt 0.997608 0.018365
vt 0.101856 0.935058
vt 0.092088 0.937176
vt 0.090274 0.829280
vt 0.101856 0.826766
vt 0.958355 0.218205
vt 0.947850 0.316023
vt 0.947850 0.217992
vt 0.959700 0.316267
vt 0.992063 0.587479
vt 0.982112 0.589636
vt 0.982112 0.500835
vt 0.991903 0.498711
vt 0.255634 0.824887
vt 0.244986 0.935613
vt 0.243008 0.824315
vt 0.255634 0.936096
vt 0.947850 0.217992
vt 0.935260 0.314639
vt 0.936687 0.218974
vt 0.947850 0.313530
vt 0.994294 0.909305
vt 0.983721 0.988843
vt 0.983891 0.906984
vt 0.994294 0.991202
vt 0.168218 0.737983
vt 0.119876 0.631598
vt 0.168218 0.630369
vt 0.093538 0.739587
vt 0.958872 0.957358
vt 0.948483 0.919040
vt 0.958872 0.920886
vt 0.948527 0.955519
vt 0.061600 0.918857
vt 0.051867 0.979127
vt 0.051780 0.920928
vt 0.061600 0.977074
vt 0.072633 0.918857
vt 0.061700 0.974948
vt 0.061600 0.921344
vt 0.072633 0.972484
vt 0.541159 0.320569
vt 0.533220 0.308180
vt 0.541152 0.310512
vt 0.533220 0.318216
vt 0.000519 0.710383
vt 0.007569 0.723767
vt 0.000525 0.721692
vt 0.007569 0.712439
vt 0.837622 0.216216
vt 0.829069 0.207482
vt 0.837622 0.204213
vt 0.829069 0.217992
vt 0.405064 0.200259
vt 0.414614 0.207482
vt 0.414614 0.196882
vt 0.700683 0.320773
vt 0.692484 0.307737
vt 0.699394 0.309676
vt 0.692484 0.317297
vt 0.673181 0.936952
vt 0.701275 0.840994
vt 0.721538 0.936952
vt 0.681847 0.841284
vt 0.969012 0.104706
vt 0.957653 0.198200
vt 0.960119 0.105010
vt 0.969012 0.197612
vt 0.980245 0.630715
vt 0.968949 0.714182
vt 0.968949 0.630606
vt 0.980903 0.714255
vt 0.980746 0.104105
vt 0.991950 0.105617
vt 0.991867 0.189462
vt 0.980746 0.187973
vt 0.590699 0.710000
vt 0.590699 0.618354
vt 0.597887 0.706048
vt 0.514167 0.623958
vt 0.508328 0.709511
vt 0.508328 0.621080
vt 0.859713 0.415143
vt 0.870918 0.415731
vt 0.871570 0.502842
vt 0.859713 0.502225
vt 0.672533 0.941930
vt 0.661486 0.942459
vt 0.661486 0.830224
vt 0.672693 0.829884
vt 0.975341 0.003723
vt 0.966516 0.096610
vt 0.966516 0.003470
vt 0.977728 0.096736
vt 0.981109 0.423011
vt 0.969500 0.424357
vt 0.970119 0.340720
vt 0.981109 0.339485
vt 0.980662 0.312750
vt 0.991901 0.230412
vt 0.991836 0.314239
vt 0.980662 0.228900
vt 0.255634 0.921859
vt 0.255634 0.824315
vt 0.263756 0.920051
vt 0.345011 0.322335
vt 0.338608 0.417337
vt 0.338608 0.321192
vt 0.847797 0.502224
vt 0.859055 0.415776
vt 0.859713 0.502842
vt 0.847797 0.415187
vt 0.160116 0.111586
vt 0.087719 0.222365
vt 0.101380 0.111088
vt 0.174981 0.222365
vt 0.206618 0.100142
vt 0.196404 0.110072
vt 0.196116 0.101262
vt 0.206618 0.111088
vt 0.442687 0.196559
vt 0.433314 0.207805
vt 0.433064 0.197887
vt 0.442687 0.208856
vt 0.757569 0.426223
vt 0.748433 0.441823
vt 0.748664 0.431717
vt 0.757569 0.438534
vt 0.929917 0.923407
vt 0.921964 0.957519
vt 0.921964 0.918335
vt 0.930042 0.953786
vt 0.813118 0.926435
vt 0.804681 0.957640
vt 0.804681 0.920589
vt 0.813171 0.955219
vt 0.345890 0.680659
vt 0.352216 0.638495
vt 0.352216 0.682169
vt 0.345754 0.646872
vt 0.346445 0.723837
vt 0.352216 0.682169
vt 0.352216 0.726847
vt 0.346290 0.689307
vt 0.830107 0.599345
vt 0.820676 0.613631
vt 0.820676 0.601661
vt 0.830107 0.611302
vt 0.376557 0.196211
vt 0.366258 0.209104
vt 0.366258 0.198539
vt 0.376556 0.206762
vt 0.771027 0.436268
vt 0.761078 0.450593
vt 0.761339 0.441692
vt 0.771027 0.447057
vt 0.822840 0.822878
vt 0.862810 0.731337
vt 0.881578 0.822878
vt 0.836859 0.731036
vt 0.243008 0.824315
vt 0.229597 0.936068
vt 0.229597 0.825044
vt 0.240907 0.935450
vt 0.980662 0.217727
vt 0.970476 0.314239
vt 0.970476 0.217726
vt 0.980662 0.314238
s 1
usemtl Material.041
f 2/1/1 4/2/2 1/3/3
f 4/2/2 2/1/1 3/4/4
f 6/5/5 8/6/5 5/7/6
f 8/6/5 6/5/5 7/8/7
f 9/9/8 10/10/8 11/11/8
f 14/12/9 15/13/10 12/14/11
f 12/14/11 13/15/11 14/12/9
f 17/16/12 19/17/12 16/18/12
f 19/17/12 17/16/12 18/19/12
f 22/20/13 23/21/13 20/22/13
f 20/22/13 21/23/13 22/20/13
f 26/24/14 27/25/15 24/26/15
f 24/26/15 25/27/14 26/24/14
f 30/28/16 31/29/17 28/30/18
f 28/30/18 29/31/19 30/28/16
f 33/32/20 35/33/20 32/34/21
f 35/33/20 33/32/20 34/35/20
f 38/36/22 39/37/23 36/38/24
f 36/38/24 37/39/23 38/36/22
f 42/40/25 43/41/26 40/42/27
f 40/42/27 41/43/28 42/40/25
f 46/44/29 47/45/29 44/46/29
f 44/46/29 45/47/29 46/44/29
f 50/48/30 51/49/31 48/50/32
f 48/50/32 49/51/33 50/48/30
f 54/52/34 55/53/34 52/54/35
f 52/54/35 53/55/36 54/52/34
f 58/56/37 59/57/38 56/58/38
f 56/58/38 57/59/39 58/56/37
f 60/60/40 61/61/40 62/62/40
f 65/63/41 66/64/42 63/65/41
f 63/65/41 64/66/43 65/63/41
f 68/67/44 70/68/45 67/69/46
f 70/68/45 68/67/44 69/70/47
f 73/71/48 74/72/49 71/73/50
f 71/73/50 72/74/49 73/71/48
f 77/75/51 78/76/51 75/77/51
f 75/77/51 76/78/51 77/75/51
f 81/79/52 82/80/53 79/81/54
f 79/81/54 80/82/53 81/79/52
f 85/83/55 86/84/56 83/85/55
f 83/85/55 84/86/57 85/83/55
f 89/87/58 90/88/58 87/89/59
f 87/89/59 88/90/59 89/87/58
f 93/91/60 94/92/61 91/93/62
f 91/93/62 92/94/61 93/91/60
f 97/95/63 98/96/63 95/97/63
f 95/97/63 96/98/63 97/95/63
f 101/99/64 102/100/65 99/101/65
f 99/101/65 100/102/66 101/99/64
f 105/103/67 106/104/68 103/105/67
f 103/105/67 104/106/67 105/103/67
f 109/107/69 110/108/70 107/109/70
f 107/109/70 108/110/71 109/107/69
f 113/111/72 114/112/72 111/113/73
f 111/113/73 112/114/72 113/111/72
f 117/115/74 118/116/75 115/117/74
f 115/117/74 116/118/76 117/115/74
f 121/119/77 122/120/77 119/121/77
f 119/121/77 120/122/77 121/119/77
f 125/123/78 126/124/78 123/125/78
f 123/125/78 124/126/79 125/123/78
f 129/127/80 130/128/81 127/129/80
f 127/129/80 128/130/82 129/127/80
f 133/131/83 134/132/84 131/133/84
f 131/133/84 132/134/85 133/131/83
f 137/135/86 138/136/87 135/137/88
f 135/137/88 136/138/86 137/135/86
f 141/139/89 142/140/90 139/141/91
f 139/141/91 140/142/89 141/139/89
f 145/143/92 146/144/93 143/145/94
f 143/145/94 144/146/95 145/143/92
f 149/147/96 150/148/97 147/149/96
f 147/149/96 148/150/98 149/147/96
f 152/151/99 154/152/100 151/153/101
f 154/152/100 152/151/99 153/154/102
f 157/155/103 158/156/103 155/157/103
f 155/157/103 156/158/103 157/155/103
f 161/159/104 162/160/105 159/161/104
f 159/161/104 160/162/106 161/159/104
f 164/163/107 166/164/108 163/165/109
f 166/164/108 164/163/107 165/166/110
f 168/167/111 170/168/111 167/169/111
f 170/168/111 168/167/111 169/170/111
f 171/171/112 172/172/112 173/173/112
f 176/174/113 177/175/113 174/176/113
f 174/176/113 175/177/113 176/174/113
f 180/178/114 181/179/115 178/180/114
f 178/180/114 179/181/114 180/178/114
f 183/182/116 185/183/116 182/184/116
f 185/183/116 183/182/116 184/185/116
f 188/186/117 189/174/118 186/187/119
f 186/187/119 187/188/120 188/186/117
f 192/189/121 193/190/122 190/191/122
f 190/191/122 191/192/122 192/189/121
f 195/193/123 197/194/124 194/195/125
f 197/194/124 195/193/123 196/196/126
f 198/197/127 199/198/127 200/199/127
f 202/200/128 204/201/128 201/202/129
f 204/201/128 202/200/128 203/203/130
f 207/204/131 208/205/131 205/206/131
f 205/206/131 206/207/131 207/204/131
f 210/208/132 212/209/133 209/210/134
f 212/209/133 210/208/132 211/211/132
f 214/212/135 216/213/136 213/214/137
f 216/213/136 214/212/135 215/215/138
f 218/216/139 220/217/139 217/218/139
f 220/217/139 218/216/139 219/219/140
f 223/220/141 224/221/142 221/222/142
f 221/222/142 222/223/141 223/220/141
f 227/224/143 228/225/144 225/226/145
f 225/226/145 226/227/143 227/224/143
f 231/228/146 232/229/147 229/230/146
f 229/230/146 230/231/148 231/228/146
f 234/232/149 236/233/149 233/234/150
f 236/233/149 234/232/149 235/235/151
f 239/236/152 240/237/152 237/238/152
f 237/238/152 238/239/153 239/236/152
f 243/240/154 244/241/155 241/242/154
f 241/242/154 242/243/154 243/240/154
f 246/244/156 248/245/156 245/246/157
f 248/245/156 246/244/156 247/247/158
f 250/248/159 252/249/159 249/250/160
f 252/249/159 250/248/159 251/251/161
f 255/252/162 256/253/163 253/254/162
f 253/254/162 254/255/162 255/252/162
f 259/256/164 260/257/164 257/258/165
f 257/258/165 258/259/165 259/256/164
f 263/260/166 264/261/167 261/262/167
f 261/262/167 262/263/168 263/260/166
f 266/264/169 268/265/169 265/266/170
f 268/265/169 266/264/169 267/267/171
f 271/268/172 272/269/173 269/270/174
f 269/270/174 270/271/173 271/268/172
f 275/272/175 276/273/176 273/274/177
f 273/274/177 274/275/178 275/272/175
f 278/276/179 280/277/179 277/278/179
f 280/277/179 278/276/179 279/279/179
f 283/280/180 284/281/180 281/282/181
f 281/282/181 282/283/182 283/280/180
f 287/284/183 288/285/184 285/286/185
f 285/286/185 286/287/183 287/284/183
f 291/288/186 292/289/186 289/290/187
f 289/290/187 290/291/187 291/288/186
f 295/292/188 296/293/189 293/294/189
f 293/294/189 294/295/190 295/292/188
f 299/296/191 300/297/192 297/298/192
f 297/298/192 298/299/193 299/296/191
f 303/300/194 304/301/195 301/302/196
f 301/302/196 302/303/197 303/300/194
f 307/304/198 308/305/199 305/306/200
f 305/306/200 306/307/201 307/304/198
f 311/308/202 312/309/203 309/310/204
f 309/310/204 310/311/205 311/308/202
f 315/312/206 316/313/207 313/314/208
f 313/314/208 314/315/209 315/312/206
f 319/316/210 320/317/210 317/318/210
f 317/318/210 318/319/210 319/316/210
f 323/320/211 324/321/211 321/322/211
f 321/322/211 322/323/211 323/320/211
f 326/324/212 328/325/212 325/326/212
f 328/325/212 326/324/212 327/327/212
f 331/328/213 332/329/213 329/330/213
f 329/330/213 330/331/213 331/328/213
f 335/332/214 336/333/214 333/334/214
f 333/334/214 334/335/214 335/332/214
f 339/336/215 340/337/215 337/338/215
f 337/338/215 338/339/215 339/336/215
f 343/340/216 344/341/216 341/342/216
f 341/342/216 342/343/216 343/340/216
f 347/344/217 348/345/217 345/346/217
f 345/346/217 346/347/217 347/344/217
f 351/348/218 352/349/218 349/350/218
f 349/350/218 350/351/218 351/348/218
f 354/352/219 356/353/219 353/354/219
f 356/353/219 354/352/219 355/355/219
f 359/356/220 360/357/220 357/358/220
f 357/358/220 358/359/220 359/356/220
f 362/360/221 364/361/221 361/362/221
f 364/361/221 362/360/221 363/363/221
f 366/364/222 368/365/222 365/366/222
f 368/365/222 366/364/222 367/367/222
f 370/368/223 372/369/223 369/370/224
f 372/369/223 370/368/223 371/371/225
f 375/372/226 376/373/226 373/374/226
f 373/374/226 374/375/226 375/372/226
f 379/376/227 380/377/227 377/378/227
f 377/378/227 378/379/227 379/376/227
f 383/380/228 384/381/228 381/382/228
f 381/382/228 382/383/228 383/380/228
f 387/384/229 388/385/230 385/386/229
f 385/386/229 386/387/229 387/384/229
f 391/388/231 392/389/232 389/390/231
f 389/390/231 390/391/233 391/388/231
f 395/392/234 396/393/234 393/394/234
f 393/394/234 394/395/234 395/392/234
f 399/396/235 400/397/235 397/398/235
f 397/398/235 398/399/235 399/396/235
f 403/400/236 404/401/237 401/402/238
f 401/402/238 402/403/237 403/400/236
f 407/404/239 408/405/240 405/406/241
f 405/406/241 406/407/239 407/404/239
f 411/408/242 412/409/243 409/410/243
f 409/410/243 410/411/242 411/408/242
f 414/412/244 416/413/245 413/414/244
f 416/413/245 414/412/244 415/415/245
f 418/416/246 420/417/246 417/418/246
f 420/417/246 418/416/246 419/419/246
f 423/420/247 424/421/248 421/422/248
f 421/422/248 422/423/247 423/420/247
f 427/424/249 428/425/250 425/426/249
f 425/426/249 426/427/251 427/424/249
f 431/428/252 432/429/253 429/430/253
f 429/430/253 430/431/254 431/428/252
f 435/432/255 436/433/256 433/434/257
f 433/434/257 434/435/256 435/432/255
f 439/436/258 440/437/259 437/438/259
f 437/438/259 438/439/258 439/436/258
f 443/440/260 444/441/261 441/442/262
f 441/442/262 442/443/261 443/440/260
f 447/444/263 448/445/263 445/446/263
f 445/446/263 446/447/263 447/444/263
f 450/448/264 452/449/265 449/450/266
f 452/449/265 450/448/264 451/451/264
f 455/452/267 456/453/268 453/454/268
f 453/454/268 454/455/267 455/452/267
f 458/456/269 460/457/270 457/458/270
f 460/457/270 458/456/269 459/459/269
f 462/460/271 464/461/272 461/462/273
f 464/461/272 462/460/271 463/463/273
f 467/464/274 468/465/275 465/466/276
f 465/466/276 466/467/274 467/464/274
f 471/468/277 472/469/278 469/470/279
f 469/470/279 470/471/280 471/468/277
f 475/472/281 476/473/282 473/474/283
f 473/474/283 474/475/281 475/472/281
f 479/476/284 480/477/285 477/478/286
f 477/478/286 478/479/284 479/476/284
f 483/480/287 484/481/288 481/482/289
f 481/482/289 482/483/290 483/480/287
f 487/484/291 488/485/292 485/486/293
f 485/486/293 486/487/294 487/484/291
f 491/488/295 492/489/296 489/490/297
f 489/490/297 490/491/298 491/488/295
f 495/492/299 496/493/299 493/494/299
f 493/494/299 494/495/299 495/492/299
f 499/496/300 500/497/300 497/498/300
f 497/498/300 498/499/301 499/496/300
f 503/500/302 504/501/303 501/502/304
f 501/502/304 502/503/305 503/500/302
f 507/504/306 508/505/307 505/506/308
f 505/506/308 506/507/307 507/504/306
f 510/508/309 512/509/309 509/510/309
f 512/509/309 510/508/309 511/511/309
f 514/512/310 516/513/310 513/514/310
f 516/513/310 514/512/310 515/515/310
f 518/516/311 520/517/311 517/518/311
f 520/517/311 518/516/311 519/519/311
f 523/520/312 524/521/312 521/522/312
f 521/522/312 522/523/312 523/520/312
f 527/524/313 528/525/313 525/526/313
f 525/526/313 526/527/313 527/524/313
f 531/528/314 532/529/314 529/530/314
f 529/530/314 530/531/314 531/528/314
f 535/532/315 536/533/315 533/534/315
f 533/534/315 534/535/315 535/532/315
f 538/536/316 540/537/316 537/538/316
f 540/537/316 538/536/316 539/539/316
f 542/540/317 544/541/317 541/542/317
f 544/541/317 542/540/317 543/543/317
f 546/544/318 548/545/318 545/546/318
f 548/545/318 546/544/318 547/547/318
f 551/548/319 552/549/319 549/550/319
f 549/550/319 550/551/319 551/548/319
f 555/552/320 556/553/320 553/554/320
f 553/554/320 554/555/320 555/552/320
f 558/246/321 560/556/322 557/557/323
f 560/556/322 558/246/321 559/558/324
f 562/559/325 564/560/325 561/561/326
f 564/560/325 562/559/325 563/562/327
f 565/563/328 566/564/328 567/565/328
f 569/566/329 571/567/330 568/568/329
f 571/567/330 569/566/329 570/569/330
f 573/570/331 575/571/331 572/572/331
f 575/571/331 573/570/331 574/156/332
f 577/573/333 579/574/334 576/575/335
f 579/574/334 577/573/333 578/576/336
f 582/577/337 583/578/338 580/579/338
f 580/579/338 581/580/339 582/577/337
f 585/581/340 587/582/340 584/583/341
f 587/582/340 585/581/340 586/584/342
f 589/585/343 591/586/344 588/587/345
f 591/586/344 589/585/343 590/588/346
f 594/589/347 595/590/348 592/591/349
f 592/591/349 593/592/350 594/589/347
f 597/593/351 599/594/352 596/595/353
f 599/594/352 597/593/351 598/596/354
f 601/597/355 603/598/356 600/599/357
f 603/598/356 601/597/355 602/600/357
f 605/601/358 607/602/359 604/603/359
f 607/602/359 605/601/358 606/604/359
f 608/605/360 609/606/360 610/607/360
f 613/608/361 614/609/362 611/610/361
f 611/610/361 612/611/363 613/608/361
f 616/612/364 618/613/365 615/614/366
f 618/613/365 616/612/364 617/615/367
f 621/616/368 622/617/368 619/618/369
f 619/618/369 620/619/370 621/616/368
f 625/620/371 626/621/372 623/622/372
f 623/622/372 624/623/372 625/620/371
f 629/624/373 630/625/374 627/626/373
f 627/626/373 628/627/375 629/624/373
f 632/628/376 634/629/376 631/630/376
f 634/629/376 632/628/376 633/631/376
f 637/632/377 638/633/378 635/634/379
f 635/634/379 636/635/378 637/632/377
f 640/636/380 642/637/381 639/638/380
f 642/637/381 640/636/380 641/639/381
f 645/640/382 646/641/383 643/642/382
f 643/642/382 644/643/384 645/640/382
f 648/644/385 650/645/386 647/646/387
f 650/645/386 648/644/385 649/647/388
f 652/648/389 654/649/390 651/650/391
f 654/649/390 652/648/389 653/651/392
f 657/652/393 658/653/394 655/654/393
f 655/654/393 656/655/395 657/652/393
f 660/656/396 662/657/396 659/658/396
f 662/657/396 660/656/396 661/659/396
f 665/660/397 666/661/398 663/662/399
f 663/662/399 664/663/400 665/660/397
f 669/664/401 670/665/402 667/666/403
f 667/666/403 668/667/404 669/664/401
f 672/668/405 674/669/406 671/670/405
f 674/669/406 672/668/405 673/671/407
f 676/672/408 678/673/409 675/674/408
f 678/673/409 676/672/408 677/675/408
f 680/676/410 682/677/411 679/678/411
f 682/677/411 680/676/410 681/679/411
f 685/680/412 686/681/413 683/682/414
f 683/682/414 684/683/415 685/680/412
f 689/684/416 690/685/416 687/686/416
f 687/686/416 688/687/417 689/684/416
f 692/688/418 694/689/419 691/690/420
f 694/689/419 692/688/418 693/691/420
f 697/692/421 698/693/422 695/694/421
f 695/694/421 696/695/423 697/692/421
f 700/696/424 702/697/425 699/698/426
f 702/697/425 700/696/424 701/699/427
f 703/700/428 704/701/428 705/702/428
f 708/703/429 709/704/430 706/705/429
f 706/705/429 707/706/431 708/703/429
f 711/707/432 713/708/433 710/709/434
f 713/708/433 711/707/432 712/710/435
f 715/711/436 717/712/437 714/713/438
f 717/712/437 715/711/436 716/714/438
f 719/715/439 721/716/440 718/717/441
f 721/716/440 719/715/439 720/718/442
f 722/719/443 723/720/443 724/721/443
f 726/722/444 728/723/444 725/724/445
f 728/723/444 726/722/444 727/725/446
f 730/726/447 732/727/447 729/728/447
f 732/727/447 730/726/447 731/729/447
f 734/730/448 736/731/448 733/732/449
f 736/731/448 734/730/448 735/733/448
f 738/734/450 740/735/451 737/736/451
f 740/735/451 738/734/450 739/64/451
f 742/737/452 744/738/452 741/739/453
f 744/738/452 742/737/452 743/740/454
f 746/741/455 748/742/455 745/743/456
f 748/742/455 746/741/455 747/744/455
f 750/745/457 752/746/458 749/747/457
f 752/746/458 750/745/457 751/748/459
f 754/749/460 756/750/461 753/751/460
f 756/750/461 754/749/460 755/752/460
f 758/753/462 760/754/462 757/755/463
f 760/754/462 758/753/462 759/756/464
f 762/757/465 764/758/466 761/759/467
f 764/758/466 762/757/465 763/760/465
f 766/761/468 768/762/469 765/763/470
f 768/762/469 766/761/468 767/764/468
f 770/765/471 772/766/471 769/767/472
f 772/766/471 770/765/471 771/768/473
f 774/769/474 776/770/474 773/771/474
f 776/770/474 774/769/474 775/772/475
f 778/773/476 780/774/476 777/775/477
f 780/774/476 778/773/476 779/776/478
f 782/777/479 784/778/480 781/779/481
f 784/778/480 782/777/479 783/780/482
f 786/781/483 788/782/483 785/783/484
f 788/782/483 786/781/483 787/784/483
f 790/785/485 792/786/485 789/787/486
f 792/786/485 790/785/485 791/788/487
f 794/789/488 796/790/489 793/373/490
f 796/790/489 794/789/488 795/791/489
f 799/792/491 800/793/492 797/794/492
f 797/794/492 798/795/493 799/792/491
f 802/796/494 804/797/495 801/798/496
f 804/797/495 802/796/494 803/799/497
f 806/800/498 808/801/499 805/802/500
f 808/801/499 806/800/498 807/803/501
f 810/804/502 812/805/502 809/806/503
f 812/805/502 810/804/502 811/807/502
f 814/808/504 816/809/505 813/810/504
f 816/809/505 814/808/504 815/811/505
f 818/812/506 820/813/507 817/814/508
f 820/813/507 818/812/506 819/815/509
f 822/816/510 824/817/511 821/818/512
f 824/817/511 822/816/510 823/819/513
f 826/820/514 828/821/515 825/822/516
f 828/823/515 826/824/514 827/825/517
f 830/46/518 832/826/519 829/827/520
f 832/826/519 830/46/518 831/828/521
f 834/829/522 836/830/523 833/831/524
f 836/830/523 834/829/522 835/832/525
f 838/833/526 840/834/526 837/835/527
f 840/834/526 838/833/526 839/836/526
f 842/837/528 844/838/529 841/839/528
f 844/838/529 842/837/528 843/840/529
f 846/841/530 848/842/530 845/843/530
f 848/842/530 846/841/530 847/844/531
f 851/845/532 852/846/532 849/847/533
f 849/847/533 850/848/533 851/845/532
f 854/849/534 856/850/534 853/851/534
f 856/850/534 854/849/534 855/852/534
f 859/853/535 860/854/535 857/855/535
f 857/855/535 858/856/535 859/853/535
f 863/857/536 864/858/536 861/859/536
f 861/859/536 862/860/536 863/857/536
f 866/861/537 868/862/537 865/863/537
f 868/862/537 866/861/537 867/864/537
f 871/865/538 872/866/538 869/867/538
f 869/867/538 870/868/538 871/865/538
f 874/869/539 876/870/539 873/871/539
f 876/870/539 874/869/539 875/872/539
f 878/873/540 880/874/540 877/875/540
f 880/874/540 878/873/540 879/876/540
f 882/877/541 884/878/541 881/879/541
f 884/878/541 882/877/541 883/880/541
f 886/881/542 888/882/543 885/883/542
f 888/882/543 886/881/542 887/884/543
f 890/885/544 892/886/545 889/887/545
f 892/886/545 890/885/544 891/888/544
f 894/889/546 896/890/546 893/891/546
f 896/890/546 894/889/546 895/892/546
f 898/893/547 900/894/548 897/895/547
f 900/894/548 898/893/547 899/896/548
f 902/897/549 904/898/549 901/899/549
f 904/898/549 902/897/549 903/900/549
f 906/901/550 908/902/550 905/903/550
f 908/902/550 906/901/550 907/904/551
f 910/905/552 912/906/552 909/907/552
f 912/906/552 910/905/552 911/908/552
f 914/909/553 916/910/553 913/394/553
f 916/910/553 914/909/553 915/911/553
f 918/912/554 920/913/555 917/914/556
f 920/913/555 918/912/554 919/915/555
f 922/916/557 924/917/558 921/918/558
f 924/917/558 922/916/557 923/919/558
f 926/920/559 928/921/560 925/922/559
f 928/921/560 926/920/559 927/923/561
f 930/924/562 932/925/563 929/926/562
f 932/925/563 930/924/562 931/927/564
f 935/928/565 936/929/566 933/930/567
f 933/930/567 934/931/568 935/928/565
f 938/932/569 940/933/570 937/934/569
f 940/935/570 938/936/569 939/937/570
f 943/938/571 944/939/571 941/940/572
f 941/940/572 942/941/573 943/938/571
f 947/942/574 948/943/575 945/944/576
f 945/944/576 946/945/576 947/942/574
f 950/946/577 952/947/578 949/948/579
f 952/947/578 950/946/577 951/949/579
f 955/950/580 956/951/581 953/952/580
f 953/952/580 954/953/581 955/950/580
f 958/954/582 960/955/583 957/956/582
f 960/955/583 958/954/582 959/957/583
f 962/958/584 964/959/584 961/960/585
f 964/961/584 962/962/584 963/963/584
f 966/964/586 968/965/586 965/966/586
f 968/965/586 966/964/586 967/967/587
f 970/968/588 972/969/589 969/970/588
f 972/969/589 970/968/588 971/971/588
f 974/972/590 976/973/591 973/974/590
f 976/973/591 974/972/590 975/975/592
f 978/976/593 980/977/594 977/978/594
f 980/977/594 978/976/593 979/979/594
f 982/980/595 984/981/596 981/982/597
f 984/981/596 982/980/595 983/983/595
f 986/984/598 988/985/599 985/986/600
f 988/985/599 986/984/598 987/987/599
f 990/988/601 992/989/602 989/990/601
f 992/989/602 990/988/601 991/991/603
f 994/992/604 996/993/605 993/994/606
f 996/993/605 994/992/604 995/995/607
f 998/996/608 1000/997/609 997/998/608
f 1000/997/609 998/996/608 999/999/610
f 1002/1000/611 1004/1001/611 1001/1002/611
f 1004/1001/611 1002/1000/611 1003/1003/611
f 1006/1004/612 1008/1005/612 1005/1006/612
f 1008/1005/612 1006/1004/612 1007/1007/612
f 1010/1008/613 1012/1009/614 1009/1010/614
f 1012/1009/614 1010/1008/613 1011/1011/615
f 1014/1012/616 1016/1013/616 1013/1014/617
f 1016/1013/616 1014/1012/616 1015/1015/618
f 1018/1016/619 1020/1017/619 1017/1018/619
f 1020/1017/619 1018/1016/619 1019/1019/619
f 1022/1020/620 1024/1021/620 1021/1022/620
f 1024/1021/620 1022/1020/620 1023/1023/620
