# Blender 5.0.1
# www.blender.org
mtllib BaseS2.mtl
o BaseS2
v -8.012245 0.508248 -7.896629
v -8.012245 0.010853 -7.896629
v -8.012245 0.508253 7.992879
v -8.012245 0.010858 7.992879
v 8.008577 0.508248 -7.896629
v 8.008577 0.010853 -7.896629
v 8.008577 0.508253 7.992879
v 8.008577 0.010858 7.992879
v -8.012245 0.508250 0.048125
v -8.012245 0.010856 0.048125
v 8.008577 0.508250 0.048125
v 8.008577 0.010856 0.048125
v -8.012245 0.508250 -3.924252
v 8.008577 0.010855 -3.924252
v -8.012245 0.010855 -3.924252
v 8.008577 0.508250 -3.924252
v -8.012245 0.508250 -5.910440
v 8.008577 0.010855 -5.910440
v -8.012245 0.010855 -5.910440
v 8.008577 0.508250 -5.910440
v -8.012245 0.508248 -6.903535
v 8.008577 0.010853 -6.903535
v -8.012245 0.010853 -6.903535
v 8.008577 0.508248 -6.903535
v -0.001834 0.508253 7.992879
v -0.001834 0.010858 7.992879
v -0.001834 0.508248 -7.896629
v -0.001834 0.010853 -7.896629
v -0.001834 0.010856 0.048125
v -0.001834 0.508250 0.048125
v -0.001834 0.010855 -3.924252
v -0.001834 0.508250 -3.924252
v -0.001834 0.010855 -5.910440
v -0.001834 0.508250 -5.910440
v -0.001834 0.010853 -6.903535
v -0.001834 0.508248 -6.903535
v -4.007040 0.508253 7.992879
v -4.007040 0.010853 -7.896629
v -4.007040 0.508250 0.048125
v -4.007040 0.508250 -3.924252
v -4.007040 0.508250 -5.910440
v -4.007040 0.508248 -6.903535
v -4.007040 0.010858 7.992879
v -4.007040 0.508248 -7.896629
v -4.007040 0.010856 0.048125
v -4.007040 0.010855 -3.924252
v -4.007040 0.010855 -5.910440
v -4.007040 0.010853 -6.903535
v -6.009643 0.508253 7.992879
v -6.009643 0.010853 -7.896629
v -6.009643 0.508250 0.048125
v -6.009643 0.508250 -3.924252
v -6.009643 0.508250 -5.910440
v -6.009643 0.508248 -6.903535
v -6.009643 0.010858 7.992879
v -6.009643 0.508248 -7.896629
v -6.009643 0.010856 0.048125
v -6.009643 0.010855 -3.924252
v -6.009643 0.010855 -5.910440
v -6.009643 0.010853 -6.903535
v -7.010944 0.508253 7.992879
v -7.010944 0.010853 -7.896629
v -7.010944 0.508250 0.048125
v -7.010944 0.508250 -3.924252
v -7.010944 0.508250 -5.910440
v -7.010944 0.508248 -6.903535
v -7.010944 0.010858 7.992879
v -7.010944 0.508248 -7.896629
v -7.010944 0.010856 0.048125
v -7.010944 0.010855 -3.924252
v -7.010944 0.010855 -5.910440
v -7.010944 0.010853 -6.903535
v -8.012245 0.010855 -6.406988
v 8.008577 0.508250 -6.406988
v -8.012245 0.508250 -6.406988
v 8.008577 0.010855 -6.406988
v -0.001834 0.010855 -6.406988
v -4.007040 0.010855 -6.406988
v -6.009643 0.010855 -6.406988
v -7.010944 0.010855 -6.406988
v -8.012245 0.508250 -6.655261
v 8.008577 0.010853 -6.655261
v -0.001834 0.508250 -6.655261
v -0.001834 0.010853 -6.655261
v -4.007040 0.508250 -6.655261
v -4.007040 0.010853 -6.655261
v -6.009643 0.508250 -6.655261
v -6.009643 0.010853 -6.655261
v -7.010944 0.508250 -6.655261
v -7.010944 0.010853 -6.655261
v -8.012245 0.010853 -6.655261
v 8.008577 0.508250 -6.655261
v -8.012245 0.508248 -7.400082
v 8.008577 0.010853 -7.400082
v -8.012245 0.010853 -7.400082
v 8.008577 0.508248 -7.400082
v -0.001834 0.010853 -7.400082
v -0.001834 0.508248 -7.400082
v -4.007040 0.508248 -7.400082
v -4.007040 0.010853 -7.400082
v -6.009643 0.508248 -7.400082
v -6.009643 0.010853 -7.400082
v -7.010944 0.508248 -7.400082
v -7.010944 0.010853 -7.400082
v 4.003372 0.010858 7.992879
v 4.003372 0.508248 -7.896629
v 4.003372 0.010856 0.048125
v 4.003372 0.010855 -3.924252
v 4.003372 0.010855 -5.910440
v 4.003372 0.010853 -6.903535
v 4.003372 0.508253 7.992879
v 4.003372 0.010853 -7.896629
v 4.003372 0.508250 0.048125
v 4.003372 0.508250 -3.924252
v 4.003372 0.508248 -6.903535
v 4.003372 0.010855 -6.406988
v 4.003372 0.010853 -6.655261
v 4.003372 0.508250 -6.655261
v 4.003372 0.010853 -7.400082
v 4.003372 0.508248 -7.400082
v 2.000769 0.508253 7.992879
v 2.000769 0.010853 -7.896629
v 2.000769 0.508250 0.048125
v 2.000769 0.508250 -3.924252
v 2.000769 0.508248 -6.903535
v 2.000769 0.508250 -6.655261
v 2.000769 0.508248 -7.400082
v 2.000769 0.010858 7.992879
v 2.000769 0.508248 -7.896629
v 2.000769 0.010856 0.048125
v 2.000769 0.010855 -3.924252
v 2.000769 0.010855 -5.910440
v 2.000769 0.010853 -6.903535
v 2.000769 0.010855 -6.406988
v 2.000769 0.010853 -6.655261
v 2.000769 0.010853 -7.400082
v -5.008341 0.010858 7.992879
v -5.008341 0.508248 -7.896629
v -5.008341 0.010856 0.048125
v -5.008341 0.010855 -3.924252
v -5.008341 0.010855 -5.910440
v -5.008341 0.010853 -6.903535
v -5.008341 0.508253 7.992879
v -5.008341 0.010853 -7.896629
v -5.008341 0.508250 0.048125
v -5.008341 0.508250 -3.924252
v -5.008341 0.508250 -5.910440
v -5.008341 0.508248 -6.903535
v -5.008341 0.010855 -6.406988
v -5.008341 0.010853 -6.655261
v -5.008341 0.508250 -6.655261
v -5.008341 0.010853 -7.400082
v -5.008341 0.508248 -7.400082
v -7.969075 0.028415 8.041697
v -7.288544 0.028412 2.004269
v -7.259596 0.028415 8.041697
v -7.969075 0.028413 5.022983
v -7.274070 0.028413 5.022983
v -7.969075 0.028413 6.532340
v -7.266833 0.028413 6.532340
v -7.969075 0.028413 3.513626
v -7.281307 0.028413 3.513626
v -8.012245 0.010855 -4.917346
v 8.008577 0.508250 -4.917346
v -8.012245 0.508250 -4.917346
v 8.008577 0.010855 -4.917346
v -0.001834 0.508250 -4.917346
v -0.001834 0.010855 -4.917346
v -4.007040 0.508250 -4.917346
v -4.007040 0.010855 -4.917346
v -6.009643 0.508250 -4.917346
v -6.009643 0.010855 -4.917346
v -7.010944 0.508250 -4.917346
v -7.010944 0.010855 -4.917346
v 4.003372 0.010855 -4.917346
v 4.003372 0.508250 -4.917346
v 2.000769 0.508250 -4.917346
v 2.000769 0.010855 -4.917346
v -5.008341 0.010855 -4.917346
v -5.008341 0.508250 -4.917346
v -8.012245 0.508250 -5.413893
v 8.008577 0.010855 -5.413893
v -0.001834 0.010855 -5.413893
v -4.007040 0.010855 -5.413893
v -6.009643 0.010855 -5.413893
v -7.010944 0.508250 -5.413893
v -7.010944 0.010855 -5.413893
v 4.003372 0.010855 -5.413893
v 4.003372 0.508250 -5.413893
v 2.000769 0.508250 -5.413893
v 2.000769 0.010855 -5.413893
v -5.008341 0.010855 -5.413893
v -8.012245 0.010855 -5.413893
v 8.008577 0.508250 -5.413893
v -8.012245 0.010855 -4.420799
v 8.008577 0.508250 -4.420799
v -8.012245 0.508250 -4.420799
v 8.008577 0.010855 -4.420799
v -0.001834 0.508250 -4.420799
v -0.001834 0.010855 -4.420799
v -4.007040 0.508250 -4.420799
v -4.007040 0.010855 -4.420799
v -6.009643 0.508250 -4.420799
v -6.009643 0.010855 -4.420799
v -7.010944 0.508250 -4.420799
v -7.010944 0.010855 -4.420799
v 4.003372 0.010855 -4.420799
v 4.003372 0.508250 -4.420799
v 2.000769 0.508250 -4.420799
v 2.000769 0.010855 -4.420799
v -5.008341 0.010855 -4.420799
v -5.008341 0.508250 -4.420799
v -8.012245 0.508250 -5.662167
v 8.008577 0.010855 -5.662167
v -0.001834 0.508250 -5.662167
v -0.001834 0.010855 -5.662167
v -4.007040 0.508250 -5.662167
v -4.007040 0.010855 -5.662167
v -6.009643 0.508250 -5.662167
v -6.009643 0.010855 -5.662167
v -7.010944 0.508250 -5.662167
v -7.010944 0.010855 -5.662167
v 4.003372 0.010855 -5.662167
v 4.003372 0.508250 -5.662167
v 2.000769 0.508250 -5.662167
v 2.000769 0.010855 -5.662167
v -5.008341 0.010855 -5.662167
v -5.008341 0.508250 -5.662167
v -8.012245 0.010855 -5.662167
v 8.008577 0.508250 -5.662167
v -8.012245 0.010855 -5.165620
v 8.008577 0.508250 -5.165620
v -8.012245 0.508250 -5.165620
v 8.008577 0.010855 -5.165620
v -0.001834 0.508250 -5.165620
v -0.001834 0.010855 -5.165620
v -4.007040 0.010855 -5.165620
v -6.009643 0.010855 -5.165620
v -7.010944 0.508250 -5.165620
v -7.010944 0.010855 -5.165620
v 4.003372 0.010855 -5.165620
v 4.003372 0.508250 -5.165620
v 2.000769 0.508250 -5.165620
v 2.000769 0.010855 -5.165620
v -5.008341 0.010855 -5.165620
v -8.012245 0.508250 -4.669072
v 8.008577 0.010855 -4.669072
v -0.001834 0.010855 -4.669072
v -4.007040 0.508250 -4.669072
v -4.007040 0.010855 -4.669072
v -6.009643 0.508250 -4.669072
v -6.009643 0.010855 -4.669072
v -7.010944 0.508250 -4.669072
v -7.010944 0.010855 -4.669072
v 4.003372 0.010855 -4.669072
v 4.003372 0.508250 -4.669072
v 2.000769 0.010855 -4.669072
v -5.008341 0.010855 -4.669072
v -5.008341 0.508250 -4.669072
v -8.012245 0.010855 -4.669072
v 8.008577 0.508250 -4.669072
vn -1.0000 -0.0000 -0.0000
vn -0.0000 -0.0000 1.0000
vn 1.0000 -0.0000 -0.0000
vn -0.0000 -0.0000 -1.0000
vn -0.0000 1.0000 -0.0000
vn -0.0000 -1.0000 -0.0000
vt 0.625000 0.125000
vt 0.375000 0.250000
vt 0.375000 0.125000
vt 0.625000 0.437500
vt 0.375000 0.500000
vt 0.375000 0.437500
vt 0.625000 0.742188
vt 0.375000 0.750000
vt 0.375000 0.742188
vt 0.625000 0.984375
vt 0.375000 1.000000
vt 0.375000 0.984375
vt 0.312500 0.750000
vt 0.312500 0.742188
vt 0.875000 0.742188
vt 0.859375 0.750000
vt 0.859375 0.742188
vt 0.875000 0.500000
vt 0.859375 0.625000
vt 0.859375 0.500000
vt 0.891385 0.366883
vt 0.699789 0.672330
vt 0.699789 0.366883
vt 0.625000 0.500000
vt 0.375000 0.625000
vt 0.625000 0.062500
vt 0.375000 0.062500
vt 0.625000 0.054688
vt 0.375000 0.054688
vt 0.875000 0.625000
vt 0.859375 0.687500
vt 0.625000 0.625000
vt 0.375000 0.687500
vt 0.625000 0.023438
vt 0.375000 0.031250
vt 0.375000 0.023438
vt 0.875000 0.714844
vt 0.859375 0.718750
vt 0.859375 0.714844
vt 0.625000 0.714844
vt 0.375000 0.718750
vt 0.375000 0.714844
vt 0.625000 0.007812
vt 0.375000 0.015625
vt 0.375000 0.007812
vt 0.875000 0.730469
vt 0.859375 0.734375
vt 0.859375 0.730469
vt 0.375000 0.730469
vt 0.312500 0.734375
vt 0.312500 0.730469
vt 0.625000 0.730469
vt 0.375000 0.734375
vt 0.250000 0.730469
vt 0.187500 0.734375
vt 0.187500 0.730469
vt 0.750000 0.730469
vt 0.718750 0.734375
vt 0.718750 0.730469
vt 0.250000 0.714844
vt 0.187500 0.718750
vt 0.187500 0.714844
vt 0.750000 0.714844
vt 0.718750 0.718750
vt 0.718750 0.714844
vt 0.508193 0.672330
vt 0.316596 0.825053
vt 0.316596 0.672330
vt 0.750000 0.625000
vt 0.718750 0.687500
vt 0.718750 0.625000
vt 0.508193 0.366883
vt 0.316596 0.366883
vt 0.750000 0.500000
vt 0.718750 0.500000
vt 0.750000 0.742188
vt 0.718750 0.750000
vt 0.718750 0.742188
vt 0.625000 0.843750
vt 0.375000 0.875000
vt 0.375000 0.843750
vt 0.625000 0.312500
vt 0.375000 0.375000
vt 0.375000 0.312500
vt 0.625000 0.296875
vt 0.375000 0.296875
vt 0.187500 0.742188
vt 0.171875 0.750000
vt 0.171875 0.742188
vt 0.268697 0.672330
vt 0.268697 0.366883
vt 0.268697 0.825053
vt 0.171875 0.718750
vt 0.171875 0.714844
vt 0.171875 0.734375
vt 0.171875 0.730469
vt 0.812500 0.730469
vt 0.750000 0.734375
vt 0.812500 0.714844
vt 0.750000 0.718750
vt 0.812500 0.625000
vt 0.750000 0.687500
vt 0.812500 0.500000
vt 0.812500 0.742188
vt 0.750000 0.750000
vt 0.625000 0.875000
vt 0.375000 0.937500
vt 0.156250 0.730469
vt 0.140625 0.734375
vt 0.140625 0.730469
vt 0.156250 0.714844
vt 0.140625 0.718750
vt 0.140625 0.714844
vt 0.220798 0.672330
vt 0.172899 0.825053
vt 0.172899 0.672330
vt 0.220798 0.366883
vt 0.172899 0.366883
vt 0.156250 0.742188
vt 0.140625 0.750000
vt 0.140625 0.742188
vt 0.625000 0.265625
vt 0.375000 0.281250
vt 0.375000 0.265625
vt 0.843750 0.730469
vt 0.828125 0.734375
vt 0.828125 0.730469
vt 0.843750 0.714844
vt 0.828125 0.718750
vt 0.828125 0.714844
vt 0.843750 0.625000
vt 0.828125 0.687500
vt 0.828125 0.625000
vt 0.843750 0.500000
vt 0.828125 0.500000
vt 0.843750 0.742188
vt 0.828125 0.750000
vt 0.828125 0.742188
vt 0.625000 0.953125
vt 0.375000 0.968750
vt 0.375000 0.953125
vt 0.125000 0.750000
vt 0.125000 0.742188
vt 0.125000 0.672330
vt 0.125000 0.366883
vt 0.125000 0.825053
vt 0.125000 0.718750
vt 0.125000 0.714844
vt 0.125000 0.734375
vt 0.125000 0.730469
vt 0.843750 0.734375
vt 0.843750 0.718750
vt 0.843750 0.687500
vt 0.843750 0.750000
vt 0.625000 0.968750
vt 0.843750 0.726562
vt 0.828125 0.726562
vt 0.812500 0.718750
vt 0.750000 0.726562
vt 0.718750 0.726562
vt 0.625000 0.718750
vt 0.375000 0.726562
vt 0.875000 0.718750
vt 0.859375 0.726562
vt 0.625000 0.019531
vt 0.375000 0.019531
vt 0.625000 0.015625
vt 0.812500 0.726562
vt 0.625000 0.726562
vt 0.875000 0.726562
vt 0.156250 0.734375
vt 0.812500 0.734375
vt 0.250000 0.734375
vt 0.625000 0.000000
vt 0.375000 0.000000
vt 0.875000 0.734375
vt 0.625000 0.734375
vt 0.281250 0.742188
vt 0.281250 0.734375
vt 0.687500 0.734375
vt 0.687500 0.726562
vt 0.687500 0.718750
vt 0.625000 0.750000
vt 0.375000 0.812500
vt 0.687500 0.742188
vt 0.687500 0.500000
vt 0.687500 0.625000
vt 0.625000 0.687500
vt 0.687500 0.714844
vt 0.687500 0.730469
vt 0.281250 0.730469
vt 0.603991 0.825053
vt 0.603991 0.672330
vt 0.603991 0.366883
vt 0.281250 0.750000
vt 0.625000 0.406250
vt 0.375000 0.406250
vt 0.625000 0.375000
vt 0.508193 0.825053
vt 0.281250 0.714844
vt 0.250000 0.718750
vt 0.250000 0.742188
vt 0.625000 0.812500
vt 0.687500 0.750000
vt 0.687500 0.687500
vt 0.625000 0.937500
vt 0.812500 0.750000
vt 0.812500 0.687500
vt 0.156250 0.718750
vt 0.220798 0.825053
vt 0.156250 0.750000
vt 0.625000 0.281250
vt 0.171875 0.699219
vt 0.156250 0.703125
vt 0.156250 0.699219
vt 0.828125 0.699219
vt 0.812500 0.703125
vt 0.812500 0.699219
vt 0.718750 0.699219
vt 0.687500 0.703125
vt 0.687500 0.699219
vt 0.625000 0.703125
vt 0.625000 0.699219
vt 0.859375 0.699219
vt 0.843750 0.703125
vt 0.843750 0.699219
vt 0.140625 0.699219
vt 0.125000 0.703125
vt 0.125000 0.699219
vt 0.828125 0.703125
vt 0.140625 0.703125
vt 0.750000 0.703125
vt 0.750000 0.699219
vt 0.187500 0.699219
vt 0.171875 0.703125
vt 0.718750 0.703125
vt 0.375000 0.703125
vt 0.375000 0.699219
vt 0.875000 0.699219
vt 0.859375 0.703125
vt 0.625000 0.042969
vt 0.375000 0.046875
vt 0.375000 0.042969
vt 0.625000 0.035156
vt 0.375000 0.039062
vt 0.375000 0.035156
vt 0.828125 0.707031
vt 0.812500 0.710938
vt 0.812500 0.707031
vt 0.718750 0.707031
vt 0.687500 0.710938
vt 0.687500 0.707031
vt 0.312500 0.707031
vt 0.281250 0.710938
vt 0.281250 0.707031
vt 0.625000 0.710938
vt 0.625000 0.707031
vt 0.859375 0.707031
vt 0.843750 0.710938
vt 0.843750 0.707031
vt 0.140625 0.707031
vt 0.125000 0.710938
vt 0.125000 0.707031
vt 0.828125 0.710938
vt 0.750000 0.710938
vt 0.750000 0.707031
vt 0.718750 0.710938
vt 0.375000 0.710938
vt 0.375000 0.707031
vt 0.875000 0.707031
vt 0.859375 0.710938
vt 0.875000 0.687500
vt 0.859375 0.695312
vt 0.699789 0.844143
vt 0.699789 0.825053
vt 0.891385 0.825053
vt 0.375000 0.695312
vt 0.316596 0.844143
vt 0.718750 0.695312
vt 0.268697 0.844143
vt 0.750000 0.695312
vt 0.172899 0.844143
vt 0.828125 0.695312
vt 0.125000 0.844143
vt 0.843750 0.695312
vt 0.625000 0.695312
vt 0.312500 0.687500
vt 0.281250 0.695312
vt 0.281250 0.687500
vt 0.250000 0.695312
vt 0.250000 0.687500
vt 0.687500 0.695312
vt 0.812500 0.695312
vt 0.220798 0.844143
vt 0.625000 0.050781
vt 0.375000 0.050781
vt 0.625000 0.031250
vt 0.312500 0.710938
vt 0.140625 0.710938
vt 0.312500 0.714844
vt 0.875000 0.710938
vt 0.875000 0.703125
vt 0.187500 0.703125
vt 0.250000 0.703125
vt 0.250000 0.707031
vt 0.312500 0.703125
vt 0.281250 0.703125
vt 0.625000 0.039062
vt 0.625000 0.046875
vt 0.875000 0.695312
vt 0.187500 0.695312
vt 0.171875 0.695312
vt 0.156250 0.695312
vt 0.140625 0.695312
vt 0.125000 0.695312
vt 0.312500 0.695312
vt 0.312500 0.699219
vt 0.625000 0.250000
vt 0.625000 1.000000
vt 0.875000 0.750000
vt 0.891385 0.672330
vt 0.187500 0.750000
vt 0.891385 0.872779
vt 0.891385 0.882324
vt 0.699789 0.882324
vt 0.699789 0.872779
vt 0.891385 0.863234
vt 0.699789 0.863234
vt 0.891385 0.853689
vt 0.699789 0.853689
vt 0.891385 0.844143
vt 0.508193 0.844143
vt 0.170033 0.984624
vt 0.127659 0.984749
vt 0.002886 0.999942
s 1
usemtl pta_madera
f 10/1/1 3/2/1 9/3/1
f 105/4/2 7/5/2 111/6/2
f 94/7/3 5/8/3 96/9/3
f 62/10/4 1/11/4 68/12/4
f 96/9/5 106/13/5 120/14/5
f 95/15/6 62/16/6 104/17/6
f 4/18/6 69/19/6 67/20/6
f 7/21/5 113/22/5 111/23/5
f 8/24/3 11/25/3 7/5/3
f 15/26/1 9/3/1 13/27/1
f 195/28/1 13/27/1 197/29/1
f 10/30/6 70/31/6 69/19/6
f 12/32/3 16/33/3 11/25/3
f 73/34/1 17/35/1 75/36/1
f 229/37/6 71/38/6 222/39/6
f 214/40/3 20/41/3 230/42/3
f 95/43/1 21/44/1 93/45/1
f 91/46/6 72/47/6 90/48/6
f 92/49/5 115/50/5 118/51/5
f 82/52/3 24/53/3 92/49/3
f 83/54/5 42/55/5 85/56/5
f 84/57/6 133/58/6 135/59/6
f 215/60/5 41/61/5 217/62/5
f 216/63/6 132/64/6 226/65/6
f 30/66/5 40/67/5 39/68/5
f 29/69/6 131/70/6 130/71/6
f 25/72/5 39/68/5 37/73/5
f 26/74/6 130/71/6 128/75/6
f 97/76/6 122/77/6 136/78/6
f 122/79/4 27/80/4 129/81/4
f 43/82/2 25/83/2 37/84/2
f 137/85/2 37/84/2 143/86/2
f 99/87/5 138/88/5 153/89/5
f 37/73/5 145/90/5 143/91/5
f 39/68/5 146/92/5 145/90/5
f 217/62/5 147/93/5 228/94/5
f 85/56/5 148/95/5 151/96/5
f 86/97/6 35/98/6 84/57/6
f 218/99/6 33/100/6 216/63/6
f 45/101/6 31/102/6 29/69/6
f 43/103/6 29/69/6 26/74/6
f 100/104/6 28/105/6 97/76/6
f 28/106/4 44/107/4 27/80/4
f 87/108/5 66/109/5 89/110/5
f 219/111/5 65/112/5 221/113/5
f 51/114/5 64/115/5 63/116/5
f 49/117/5 63/116/5 61/118/5
f 101/119/5 68/120/5 103/121/5
f 67/122/2 49/123/2 61/124/2
f 88/125/6 142/126/6 150/127/6
f 220/128/6 141/129/6 227/130/6
f 57/131/6 140/132/6 139/133/6
f 55/134/6 139/133/6 137/135/6
f 102/136/6 144/137/6 152/138/6
f 144/139/4 56/140/4 138/141/4
f 103/121/5 1/142/5 93/143/5
f 61/118/5 9/144/5 3/145/5
f 63/116/5 13/146/5 9/144/5
f 221/113/5 17/147/5 213/148/5
f 89/110/5 21/149/5 81/150/5
f 90/48/6 60/151/6 88/125/6
f 222/39/6 59/152/6 220/128/6
f 69/19/6 58/153/6 57/131/6
f 67/20/6 57/131/6 55/134/6
f 104/17/6 50/154/6 102/136/6
f 50/155/4 68/12/4 56/140/4
f 71/38/6 79/156/6 59/152/6
f 59/152/6 149/157/6 141/129/6
f 47/158/6 77/159/6 33/100/6
f 33/100/6 134/160/6 132/64/6
f 18/161/3 74/162/3 20/41/3
f 19/163/6 80/164/6 71/38/6
f 91/165/1 75/36/1 81/166/1
f 23/167/1 81/166/1 21/44/1
f 80/164/6 88/125/6 79/156/6
f 79/156/6 150/127/6 149/157/6
f 78/168/6 84/57/6 77/159/6
f 77/159/6 135/59/6 134/160/6
f 76/169/3 92/49/3 74/162/3
f 73/170/6 90/48/6 80/164/6
f 72/47/6 102/136/6 60/151/6
f 66/109/5 93/143/5 21/149/5
f 60/151/6 152/138/6 142/126/6
f 54/171/5 103/121/5 66/109/5
f 48/172/6 97/76/6 35/98/6
f 42/55/5 153/89/5 148/95/5
f 36/173/5 99/87/5 42/55/5
f 35/98/6 136/78/6 133/58/6
f 2/174/1 93/45/1 1/175/1
f 23/176/6 104/17/6 72/47/6
f 24/53/5 120/14/5 115/50/5
f 22/177/3 96/9/3 24/53/3
f 115/50/5 127/178/5 125/179/5
f 110/180/6 94/7/6 22/177/6
f 116/181/6 82/52/6 76/169/6
f 109/182/6 76/169/6 18/161/6
f 6/183/4 106/184/4 5/8/4
f 119/185/6 6/183/6 94/7/6
f 105/186/6 12/32/6 8/24/6
f 107/187/6 14/188/6 12/32/6
f 223/189/6 18/161/6 214/40/6
f 117/190/6 22/177/6 82/52/6
f 118/51/5 125/179/5 126/191/5
f 113/22/5 124/192/5 123/193/5
f 111/23/5 123/193/5 121/194/5
f 120/14/5 129/195/5 127/178/5
f 128/196/2 111/6/2 121/197/2
f 26/198/2 121/197/2 25/83/2
f 121/194/5 30/66/5 25/72/5
f 123/193/5 32/199/5 30/66/5
f 215/60/5 225/200/5 34/201/5
f 126/191/5 36/173/5 83/54/5
f 125/179/5 98/202/5 36/173/5
f 133/58/6 119/185/6 110/180/6
f 134/160/6 117/190/6 116/181/6
f 132/64/6 116/181/6 109/182/6
f 112/203/4 129/81/4 106/184/4
f 136/78/6 112/204/6 119/185/6
f 128/75/6 107/187/6 105/186/6
f 130/71/6 108/205/6 107/187/6
f 226/65/6 109/182/6 223/189/6
f 135/59/6 110/180/6 117/190/6
f 148/95/5 101/119/5 54/171/5
f 142/126/6 100/104/6 48/172/6
f 149/157/6 86/97/6 78/168/6
f 141/129/6 78/168/6 47/158/6
f 38/206/4 138/141/4 44/107/4
f 152/138/6 38/207/6 100/104/6
f 137/135/6 45/101/6 43/103/6
f 139/133/6 46/208/6 45/101/6
f 227/130/6 47/158/6 218/99/6
f 150/127/6 48/172/6 86/97/6
f 151/96/5 54/171/5 87/108/5
f 228/94/5 53/209/5 219/111/5
f 145/90/5 52/210/5 51/114/5
f 143/91/5 51/114/5 49/117/5
f 153/89/5 56/211/5 101/119/5
f 55/212/2 143/86/2 49/123/2
f 160/87/6 154/87/6 159/87/6
f 158/87/6 159/87/6 157/87/6
f 259/213/5 171/214/5 251/215/5
f 258/216/6 170/217/6 250/218/6
f 257/219/6 175/220/6 255/221/6
f 255/221/6 166/222/6 247/223/6
f 254/224/6 172/225/6 252/226/6
f 253/227/5 165/228/5 246/229/5
f 252/226/6 179/230/6 258/216/6
f 251/215/5 173/231/5 253/227/5
f 250/218/6 168/232/6 248/233/6
f 249/234/5 180/235/5 259/213/5
f 248/233/6 178/236/6 257/219/6
f 247/223/3 164/237/3 261/238/3
f 260/239/6 174/240/6 254/224/6
f 231/241/1 165/242/1 233/243/1
f 229/244/1 181/245/1 213/246/1
f 245/247/6 184/248/6 237/249/6
f 244/250/6 188/251/6 241/252/6
f 242/253/5 190/254/5 243/255/5
f 241/252/6 182/256/6 234/257/6
f 240/258/6 185/259/6 238/260/6
f 239/261/5 181/262/5 233/263/5
f 238/260/6 192/264/6 245/247/6
f 237/249/6 183/265/6 236/266/6
f 236/266/6 191/267/6 244/250/6
f 234/257/3 194/268/3 232/269/3
f 231/270/6 187/271/6 240/258/6
f 15/272/6 206/273/6 70/31/6
f 208/274/5 114/275/5 16/276/5
f 14/188/3 196/277/3 16/33/3
f 32/199/5 201/278/5 40/67/5
f 31/102/6 210/279/6 131/70/6
f 40/67/5 212/280/5 146/92/5
f 46/208/6 200/281/6 31/102/6
f 52/210/5 205/282/5 64/115/5
f 58/153/6 211/283/6 140/132/6
f 64/115/5 197/284/5 13/146/5
f 70/31/6 204/285/6 58/153/6
f 108/205/6 198/286/6 14/188/6
f 114/287/5 209/288/5 124/289/5
f 124/289/5 199/290/5 32/291/5
f 131/70/6 207/292/6 108/205/6
f 140/132/6 202/293/6 46/208/6
f 146/92/5 203/294/5 52/210/5
f 260/295/1 197/29/1 246/296/1
f 19/297/1 213/246/1 17/35/1
f 192/264/6 218/99/6 184/248/6
f 191/267/6 223/189/6 188/251/6
f 189/298/5 225/200/5 190/254/5
f 188/251/6 214/40/6 182/256/6
f 187/271/6 220/128/6 185/259/6
f 186/299/5 213/148/5 181/262/5
f 185/259/6 227/130/6 192/264/6
f 184/248/6 216/63/6 183/265/6
f 183/265/6 226/65/6 191/267/6
f 182/256/3 230/42/3 194/268/3
f 194/268/5 224/300/5 189/298/5
f 193/301/6 222/39/6 187/271/6
f 163/302/6 240/258/6 174/240/6
f 166/222/3 232/269/3 164/237/3
f 169/303/5 167/304/5 235/305/5
f 168/232/6 244/250/6 178/236/6
f 170/217/6 236/266/6 168/232/6
f 172/225/6 245/247/6 179/230/6
f 173/231/5 233/263/5 165/228/5
f 174/240/6 238/260/6 172/225/6
f 175/220/6 234/257/6 166/222/6
f 176/306/5 243/255/5 177/307/5
f 177/307/5 235/305/5 167/304/5
f 178/236/6 241/252/6 175/220/6
f 179/230/6 237/249/6 170/217/6
f 193/308/1 233/243/1 181/245/1
f 163/309/1 246/296/1 165/242/1
f 195/310/6 254/224/6 206/273/6
f 198/286/3 261/238/3 196/277/3
f 201/311/5 199/290/5 249/234/5
f 200/281/6 257/219/6 210/279/6
f 201/311/5 259/213/5 212/312/5
f 202/293/6 248/233/6 200/281/6
f 203/313/5 253/227/5 205/314/5
f 204/285/6 258/216/6 211/283/6
f 205/314/5 246/229/5 197/315/5
f 206/273/6 252/226/6 204/285/6
f 207/292/6 247/223/6 198/286/6
f 209/288/5 208/316/5 256/317/5
f 210/279/6 255/221/6 207/292/6
f 211/283/6 250/218/6 202/293/6
f 212/312/5 251/215/5 203/313/5
f 10/1/1 4/318/1 3/2/1
f 105/4/2 8/24/2 7/5/2
f 94/7/3 6/183/3 5/8/3
f 62/10/4 2/319/4 1/11/4
f 96/9/5 5/8/5 106/13/5
f 95/15/6 2/320/6 62/16/6
f 4/18/6 10/30/6 69/19/6
f 7/21/5 11/321/5 113/22/5
f 8/24/3 12/32/3 11/25/3
f 15/26/1 10/1/1 9/3/1
f 195/28/1 15/26/1 13/27/1
f 10/30/6 15/272/6 70/31/6
f 12/32/3 14/188/3 16/33/3
f 73/34/1 19/297/1 17/35/1
f 229/37/6 19/163/6 71/38/6
f 214/40/3 18/161/3 20/41/3
f 95/43/1 23/167/1 21/44/1
f 91/46/6 23/176/6 72/47/6
f 92/49/5 24/53/5 115/50/5
f 82/52/3 22/177/3 24/53/3
f 83/54/5 36/173/5 42/55/5
f 84/57/6 35/98/6 133/58/6
f 215/60/5 34/201/5 41/61/5
f 216/63/6 33/100/6 132/64/6
f 30/66/5 32/199/5 40/67/5
f 29/69/6 31/102/6 131/70/6
f 25/72/5 30/66/5 39/68/5
f 26/74/6 29/69/6 130/71/6
f 97/76/6 28/105/6 122/77/6
f 122/79/4 28/106/4 27/80/4
f 43/82/2 26/198/2 25/83/2
f 137/85/2 43/82/2 37/84/2
f 99/87/5 44/322/5 138/88/5
f 37/73/5 39/68/5 145/90/5
f 39/68/5 40/67/5 146/92/5
f 217/62/5 41/61/5 147/93/5
f 85/56/5 42/55/5 148/95/5
f 86/97/6 48/172/6 35/98/6
f 218/99/6 47/158/6 33/100/6
f 45/101/6 46/208/6 31/102/6
f 43/103/6 45/101/6 29/69/6
f 100/104/6 38/207/6 28/105/6
f 28/106/4 38/206/4 44/107/4
f 87/108/5 54/171/5 66/109/5
f 219/111/5 53/209/5 65/112/5
f 51/114/5 52/210/5 64/115/5
f 49/117/5 51/114/5 63/116/5
f 101/119/5 56/211/5 68/120/5
f 67/122/2 55/212/2 49/123/2
f 88/125/6 60/151/6 142/126/6
f 220/128/6 59/152/6 141/129/6
f 57/131/6 58/153/6 140/132/6
f 55/134/6 57/131/6 139/133/6
f 102/136/6 50/154/6 144/137/6
f 144/139/4 50/155/4 56/140/4
f 4/318/2 67/122/2 61/124/2
f 103/121/5 68/120/5 1/142/5
f 61/118/5 63/116/5 9/144/5
f 63/116/5 64/115/5 13/146/5
f 221/113/5 65/112/5 17/147/5
f 89/110/5 66/109/5 21/149/5
f 90/48/6 72/47/6 60/151/6
f 222/39/6 71/38/6 59/152/6
f 69/19/6 70/31/6 58/153/6
f 67/20/6 69/19/6 57/131/6
f 104/17/6 62/16/6 50/154/6
f 50/155/4 62/10/4 68/12/4
f 71/38/6 80/164/6 79/156/6
f 59/152/6 79/156/6 149/157/6
f 47/158/6 78/168/6 77/159/6
f 33/100/6 77/159/6 134/160/6
f 18/161/3 76/169/3 74/162/3
f 19/163/6 73/170/6 80/164/6
f 91/165/1 73/34/1 75/36/1
f 23/167/1 91/165/1 81/166/1
f 80/164/6 90/48/6 88/125/6
f 79/156/6 88/125/6 150/127/6
f 78/168/6 86/97/6 84/57/6
f 77/159/6 84/57/6 135/59/6
f 76/169/3 82/52/3 92/49/3
f 73/170/6 91/46/6 90/48/6
f 72/47/6 104/17/6 102/136/6
f 66/109/5 103/121/5 93/143/5
f 60/151/6 102/136/6 152/138/6
f 54/171/5 101/119/5 103/121/5
f 48/172/6 100/104/6 97/76/6
f 42/55/5 99/87/5 153/89/5
f 36/173/5 98/202/5 99/87/5
f 35/98/6 97/76/6 136/78/6
f 2/174/1 95/43/1 93/45/1
f 23/176/6 95/15/6 104/17/6
f 24/53/5 96/9/5 120/14/5
f 22/177/3 94/7/3 96/9/3
f 115/50/5 120/14/5 127/178/5
f 110/180/6 119/185/6 94/7/6
f 116/181/6 117/190/6 82/52/6
f 109/182/6 116/181/6 76/169/6
f 6/183/4 112/203/4 106/184/4
f 119/185/6 112/204/6 6/183/6
f 105/186/6 107/187/6 12/32/6
f 107/187/6 108/205/6 14/188/6
f 223/189/6 109/182/6 18/161/6
f 117/190/6 110/180/6 22/177/6
f 118/51/5 115/50/5 125/179/5
f 113/22/5 114/275/5 124/192/5
f 111/23/5 113/22/5 123/193/5
f 120/14/5 106/13/5 129/195/5
f 128/196/2 105/4/2 111/6/2
f 26/198/2 128/196/2 121/197/2
f 121/194/5 123/193/5 30/66/5
f 123/193/5 124/192/5 32/199/5
f 126/191/5 125/179/5 36/173/5
f 125/179/5 127/178/5 98/202/5
f 133/58/6 136/78/6 119/185/6
f 134/160/6 135/59/6 117/190/6
f 132/64/6 134/160/6 116/181/6
f 112/203/4 122/79/4 129/81/4
f 136/78/6 122/77/6 112/204/6
f 128/75/6 130/71/6 107/187/6
f 130/71/6 131/70/6 108/205/6
f 226/65/6 132/64/6 109/182/6
f 135/59/6 133/58/6 110/180/6
f 148/95/5 153/89/5 101/119/5
f 142/126/6 152/138/6 100/104/6
f 149/157/6 150/127/6 86/97/6
f 141/129/6 149/157/6 78/168/6
f 38/206/4 144/139/4 138/141/4
f 152/138/6 144/137/6 38/207/6
f 137/135/6 139/133/6 45/101/6
f 139/133/6 140/132/6 46/208/6
f 227/130/6 141/129/6 47/158/6
f 150/127/6 142/126/6 48/172/6
f 151/96/5 148/95/5 54/171/5
f 228/94/5 147/93/5 53/209/5
f 145/90/5 146/92/5 52/210/5
f 143/91/5 145/90/5 51/114/5
f 153/89/5 138/88/5 56/211/5
f 55/212/2 137/85/2 143/86/2
f 160/87/6 156/87/6 154/87/6
f 162/87/6 158/87/6 157/87/6
f 158/87/6 160/87/6 159/87/6
f 155/87/6 162/87/6 161/87/6
f 259/213/5 180/235/5 171/214/5
f 258/216/6 179/230/6 170/217/6
f 257/219/6 178/236/6 175/220/6
f 255/221/6 175/220/6 166/222/6
f 254/224/6 174/240/6 172/225/6
f 253/227/5 173/231/5 165/228/5
f 252/226/6 172/225/6 179/230/6
f 251/215/5 171/214/5 173/231/5
f 250/218/6 170/217/6 168/232/6
f 249/234/5 169/303/5 180/235/5
f 248/233/6 168/232/6 178/236/6
f 247/223/3 166/222/3 164/237/3
f 260/239/6 163/302/6 174/240/6
f 231/241/1 163/309/1 165/242/1
f 229/244/1 193/308/1 181/245/1
f 245/247/6 192/264/6 184/248/6
f 244/250/6 191/267/6 188/251/6
f 242/253/5 189/298/5 190/254/5
f 241/252/6 188/251/6 182/256/6
f 240/258/6 187/271/6 185/259/6
f 239/261/5 186/299/5 181/262/5
f 238/260/6 185/259/6 192/264/6
f 237/249/6 184/248/6 183/265/6
f 236/266/6 183/265/6 191/267/6
f 234/257/3 182/256/3 194/268/3
f 231/270/6 193/301/6 187/271/6
f 15/272/6 195/310/6 206/273/6
f 232/323/5 194/324/5 189/325/5
f 232/323/5 189/325/5 242/326/5
f 164/327/5 232/323/5 242/326/5
f 164/327/5 242/326/5 176/328/5
f 261/329/5 164/327/5 176/328/5
f 261/329/5 176/328/5 256/330/5
f 196/331/5 261/329/5 256/330/5
f 196/331/5 256/330/5 208/274/5
f 113/22/5 11/321/5 16/276/5
f 16/276/5 196/331/5 208/274/5
f 114/275/5 113/22/5 16/276/5
f 14/188/3 198/286/3 196/277/3
f 32/199/5 199/332/5 201/278/5
f 31/102/6 200/281/6 210/279/6
f 40/67/5 201/278/5 212/280/5
f 46/208/6 202/293/6 200/281/6
f 52/210/5 203/294/5 205/282/5
f 58/153/6 204/285/6 211/283/6
f 64/115/5 205/282/5 197/284/5
f 70/31/6 206/273/6 204/285/6
f 108/205/6 207/292/6 198/286/6
f 114/287/5 208/316/5 209/288/5
f 124/289/5 209/288/5 199/290/5
f 131/70/6 210/279/6 207/292/6
f 140/132/6 211/283/6 202/293/6
f 146/92/5 212/280/5 203/294/5
f 260/295/1 195/28/1 197/29/1
f 19/297/1 229/244/1 213/246/1
f 192/264/6 227/130/6 218/99/6
f 191/267/6 226/65/6 223/189/6
f 189/298/5 224/300/5 225/200/5
f 188/251/6 223/189/6 214/40/6
f 187/271/6 222/39/6 220/128/6
f 186/299/5 221/113/5 213/148/5
f 185/259/6 220/128/6 227/130/6
f 184/248/6 218/99/6 216/63/6
f 183/265/6 216/63/6 226/65/6
f 182/256/3 214/40/3 230/42/3
f 194/268/5 230/42/5 224/300/5
f 193/301/6 229/37/6 222/39/6
f 163/302/6 231/270/6 240/258/6
f 166/222/3 234/257/3 232/269/3
f 168/232/6 236/266/6 244/250/6
f 170/217/6 237/249/6 236/266/6
f 172/225/6 238/260/6 245/247/6
f 173/231/5 239/261/5 233/263/5
f 174/240/6 240/258/6 238/260/6
f 175/220/6 241/252/6 234/257/6
f 176/306/5 242/253/5 243/255/5
f 177/307/5 243/255/5 235/305/5
f 178/236/6 244/250/6 241/252/6
f 179/230/6 245/247/6 237/249/6
f 193/308/1 231/241/1 233/243/1
f 163/309/1 260/295/1 246/296/1
f 195/310/6 260/239/6 254/224/6
f 198/286/3 247/223/3 261/238/3
f 200/281/6 248/233/6 257/219/6
f 201/311/5 249/234/5 259/213/5
f 202/293/6 250/218/6 248/233/6
f 203/313/5 251/215/5 253/227/5
f 204/285/6 252/226/6 258/216/6
f 205/314/5 253/227/5 246/229/5
f 206/273/6 254/224/6 252/226/6
f 207/292/6 255/221/6 247/223/6
f 210/279/6 257/219/6 255/221/6
f 211/283/6 258/216/6 250/218/6
f 212/312/5 259/213/5 251/215/5
f 239/261/5 173/231/5 171/214/5
usemtl fucking_pared_gris
f 34/333/5 225/334/5 230/335/5
