# Blender 5.0.1
# www.blender.org
mtllib MostradorS2.mtl
o MostradorS2
v 0.486077 4.931975 7.253124
v 0.486077 1.371738 7.253124
v 5.753787 4.931976 7.253124
v 5.753787 1.371739 7.253124
v -0.527832 0.101722 7.239958
v -0.527832 5.508626 7.239956
v -0.527832 0.101720 4.864303
v -0.527832 5.508626 4.864303
v 7.289008 0.101722 7.239958
v 7.289008 5.508626 7.239956
v 7.289008 0.101720 4.864303
v 7.289008 5.508626 4.864303
v -1.086698 0.403956 7.382276
v -1.086698 6.018538 7.382276
v -1.086698 0.403954 4.437541
v -1.086698 6.018538 4.437541
v -0.804756 0.403956 7.382276
v -0.804756 6.018538 7.382276
v -0.804756 0.403954 4.437541
v -0.804756 6.018538 4.437541
v -0.804756 5.674891 4.437541
v -0.804756 5.674327 7.382276
v 1.485110 6.018538 4.437541
v 1.485110 6.018538 7.382276
v 1.485110 5.674891 4.437541
v 1.485110 5.674327 7.382276
v 1.802899 6.018538 4.437541
v 1.802899 6.018538 7.382276
v 1.802899 5.674891 4.437541
v 1.802899 5.674327 7.382276
v 1.485110 5.674839 4.717296
v -0.804756 5.674837 4.730799
v -0.804756 4.226056 4.437541
v 1.802899 5.674839 4.715421
v -0.116135 5.674838 4.726737
v -0.108919 5.674891 4.437541
v 1.485110 3.224894 4.716825
v 1.485110 3.224948 4.437070
v -0.108919 3.224948 4.437070
v 1.802899 3.224895 4.714952
v 1.802899 3.224948 4.437070
v -0.116136 3.224893 4.726267
v 1.485110 0.160707 4.716240
v 1.485110 0.160761 4.436485
v -0.108920 0.160761 4.436485
v 1.802899 0.160708 4.714365
v 1.802899 0.160761 4.436485
v -0.116136 0.160706 4.725682
vn -0.0000 -0.0000 1.0000
vn -1.0000 -0.0000 -0.0000
vn -0.0000 -0.0000 -1.0000
vn 1.0000 -0.0000 -0.0000
vn -0.0000 -1.0000 -0.0000
vn -0.0000 1.0000 -0.0000
vn -0.0000 -1.0000 -0.0002
vn -0.0000 0.0001 -1.0000
vn 0.0059 -0.0002 1.0000
vn -0.9997 -0.0000 -0.0249
vn -0.0000 0.0002 -1.0000
vn -0.1205 0.0001 0.9927
vn -0.1204 0.0001 0.9927
vt -0.003159 1.000000
vt 0.994367 0.000000
vt 0.994367 1.000000
vt -0.003159 0.000000
vt 0.625000 0.000000
vt 0.375000 0.250000
vt 0.375000 0.000000
vt 0.625000 0.250000
vt 0.375000 0.500000
vt 0.625000 0.500000
vt 0.375000 0.750000
vt 0.247640 0.000050
vt 0.000050 0.999950
vt 0.000050 0.000050
vt 0.125000 0.750000
vt 0.125000 0.500000
vt 0.625000 0.750000
vt 0.247640 0.999950
vt 0.875000 0.500000
vt 0.875000 0.750000
vt 0.500000 0.000087
vt 0.250043 0.250043
vt 0.250043 0.000087
vt 0.500000 0.250043
vt 0.484701 0.500000
vt 0.420200 0.500000
vt 0.484676 0.749957
vt 0.250043 0.749957
vt 0.500000 0.999913
vt 0.250043 0.999913
vt 0.250043 0.500000
vt 0.000087 0.749957
vt 0.000087 0.500000
vt 0.749957 0.500000
vt 0.500000 0.749957
vt 0.500000 0.500000
vt 0.484699 0.524893
vt 0.484699 0.523746
vt 0.000000 0.000000
vt 0.777614 1.000000
vt 0.000000 1.000000
vt 0.484699 0.523587
vt 0.777614 0.000000
vt 0.885532 1.000000
vt 0.484699 0.524548
vt 0.749957 0.749957
vt 0.885532 0.000000
s 1
usemtl Material.003
f 1/1/1 4/2/1 3/3/1
f 1/1/1 2/4/1 4/2/1
usemtl Negro_chapopote
f 6/5/2 7/6/2 5/7/2
f 8/8/3 11/9/3 7/6/3
f 12/10/4 9/11/4 11/9/4
f 10/12/1 5/13/1 9/14/1
f 11/9/5 5/15/5 7/16/5
f 6/5/2 8/8/2 7/6/2
f 8/8/3 12/10/3 11/9/3
f 12/10/4 10/17/4 9/11/4
f 10/12/1 6/18/1 5/13/1
f 11/9/5 9/11/5 5/15/5
f 8/19/6 10/17/6 12/10/6
f 8/19/6 6/20/6 10/17/6
usemtl blanco_
f 14/21/2 15/22/2 13/23/2
f 16/24/3 21/25/3 33/26/3
f 33/26/4 22/27/4 17/28/4
f 22/27/1 14/29/1 13/30/1
f 19/31/5 13/32/5 15/33/5
f 16/34/6 18/35/6 20/36/6
f 32/37/7 31/38/7 26/27/7
f 31/38/7 30/27/7 26/27/7
f 20/36/3 25/25/8 36/25/8
f 18/39/6 23/40/6 20/41/6
f 22/27/1 24/35/1 18/35/1
f 34/42/4 27/36/4 28/35/4
f 23/36/3 29/25/8 25/25/8
f 26/27/1 28/35/1 24/35/1
f 24/43/6 27/44/6 23/40/6
f 40/42/9 43/38/9 46/42/9
f 31/38/9 42/45/9 37/38/9
f 32/37/4 33/26/4 21/25/4
f 36/25/10 42/45/10 35/45/10
f 35/45/7 21/25/7 36/25/7
f 39/25/10 48/45/10 42/45/10
f 29/25/8 38/25/11 25/25/8
f 36/25/8 38/25/11 39/25/11
f 29/25/4 40/42/4 41/25/4
f 34/42/9 37/38/9 40/42/9
f 46/42/7 44/25/7 47/25/7
f 43/38/7 45/25/7 44/25/7
f 41/25/4 46/42/4 47/25/4
f 37/38/9 48/45/9 43/38/9
f 41/25/11 44/25/11 38/25/11
f 38/25/11 45/25/11 39/25/11
f 14/21/2 16/24/2 15/22/2
f 19/31/3 15/22/3 16/24/3
f 16/24/3 20/36/3 21/25/3
f 33/26/3 19/31/3 16/24/3
f 17/28/4 19/31/4 33/26/4
f 33/26/4 32/37/4 22/27/4
f 13/30/1 17/28/1 22/27/1
f 22/27/1 18/35/1 14/29/1
f 19/31/5 17/28/5 13/32/5
f 16/34/6 14/46/6 18/35/6
f 26/27/7 22/27/7 32/37/7
f 32/37/12 35/45/12 31/38/13
f 31/38/7 34/42/7 30/27/7
f 36/25/8 21/25/3 20/36/3
f 20/36/3 23/36/3 25/25/8
f 18/39/6 24/43/6 23/40/6
f 22/27/1 26/27/1 24/35/1
f 28/35/4 30/27/4 34/42/4
f 34/42/4 29/25/4 27/36/4
f 23/36/3 27/36/3 29/25/8
f 26/27/1 30/27/1 28/35/1
f 24/43/6 28/47/6 27/44/6
f 40/42/9 37/38/9 43/38/9
f 31/38/9 35/45/9 42/45/9
f 36/25/10 39/25/10 42/45/10
f 35/45/7 32/37/7 21/25/7
f 39/25/10 45/25/10 48/45/10
f 29/25/8 41/25/11 38/25/11
f 36/25/8 25/25/8 38/25/11
f 29/25/4 34/42/4 40/42/4
f 34/42/9 31/38/9 37/38/9
f 46/42/7 43/38/7 44/25/7
f 43/38/7 48/45/7 45/25/7
f 41/25/4 40/42/4 46/42/4
f 37/38/9 42/45/9 48/45/9
f 41/25/11 47/25/11 44/25/11
f 38/25/11 44/25/11 45/25/11
