# Blender 5.0.1
# www.blender.org
mtllib ParedDerS2.mtl
o ParedDerS2
v -7.907373 4.583708 6.560966
v -7.907373 4.679937 6.560966
v -7.907373 4.583708 3.494579
v -7.907373 4.679937 3.494579
v -7.291838 4.583708 6.560966
v -7.291838 4.679937 6.560966
v -7.291838 4.583708 3.494579
v -7.291838 4.679937 3.494579
v -7.907373 9.592580 6.560964
v -7.907373 9.688807 6.560964
v -7.907373 9.592578 3.494577
v -7.907373 9.688807 3.494577
v -7.291838 9.592580 6.560964
v -7.291838 9.688807 6.560964
v -7.291838 9.592578 3.494577
v -7.291838 9.688807 3.494577
v -7.907373 8.568754 6.560966
v -7.907373 8.664984 6.560966
v -7.907373 8.568752 3.494577
v -7.907373 8.664982 3.494577
v -7.291838 8.568754 6.560966
v -7.291838 8.664984 6.560966
v -7.291838 8.568752 3.494577
v -7.291838 8.664982 3.494577
v -7.907373 7.576429 6.560966
v -7.907373 7.672658 6.560966
v -7.907373 7.576429 3.494579
v -7.907373 7.672658 3.494579
v -7.291838 7.576429 6.560966
v -7.291838 7.672658 6.560966
v -7.291838 7.576429 3.494579
v -7.291838 7.672658 3.494579
v -7.907373 6.576231 6.560966
v -7.907373 6.672462 6.560966
v -7.907373 6.576231 3.494579
v -7.907373 6.672462 3.494579
v -7.291838 6.576231 6.560966
v -7.291838 6.672462 6.560966
v -7.291838 6.576231 3.494579
v -7.291838 6.672462 3.494579
v -7.907373 5.583909 6.560966
v -7.907373 5.680138 6.560966
v -7.907373 5.583909 3.494579
v -7.907373 5.680138 3.494579
v -7.291838 5.583909 6.560966
v -7.291838 5.680138 6.560966
v -7.291838 5.583909 3.494579
v -7.291838 5.680138 3.494579
v -8.012245 0.508253 7.992879
v -8.012245 0.010858 7.992879
v -7.010944 0.508253 7.992879
v -7.969075 14.375439 8.041693
v -7.969075 14.375436 2.004265
v -7.288544 14.375436 2.004265
v -7.259596 14.375439 8.041693
v -7.969075 0.028412 2.004269
v -7.969075 0.028415 8.041697
v -7.288544 0.028412 2.004269
v -7.259596 0.028415 8.041697
v -7.969075 7.201924 2.004267
v -7.969075 7.201925 8.041695
v -7.259596 7.201925 8.041695
v -7.288544 7.201924 2.004267
v -7.969075 14.375436 5.022979
v -7.274070 14.375436 5.022979
v -7.969075 0.028413 5.022983
v -7.274070 0.028413 5.022983
v -7.969075 10.788684 8.041694
v -7.288544 10.788681 2.004266
v -7.969075 10.788681 2.004266
v -7.259596 10.788684 8.041694
v -7.969075 10.788681 5.022980
v -7.274070 10.788681 5.022980
v -7.969075 3.615168 2.004268
v -7.259596 3.615171 8.041697
v -7.969075 3.615171 8.041697
v -7.288544 3.615168 2.004268
v -7.274070 3.615170 5.022982
v -7.969075 3.615170 5.022982
v -7.969075 14.375439 6.532336
v -7.266833 14.375439 6.532336
v -7.969075 0.028413 6.532340
v -7.266833 0.028413 6.532340
v -7.969075 7.201925 6.532339
v -7.266833 7.201925 6.532339
v -7.969075 10.788684 6.532337
v -7.266833 10.788684 6.532337
v -7.969075 3.615170 6.532339
v -7.266833 3.615170 6.532339
v -7.281307 7.201925 3.513623
v -7.969075 14.375436 3.513622
v -7.281307 14.375436 3.513622
v -7.969075 0.028413 3.513626
v -7.281307 0.028413 3.513626
v -7.969075 7.201925 3.513623
v -7.281307 10.788681 3.513623
v -7.969075 10.788681 3.513623
v -7.281307 3.615168 3.513625
v -7.969075 3.615168 3.513625
v -7.266833 10.788684 6.532337
v -7.274070 10.788681 5.022980
v -7.266833 3.615170 6.532339
v -7.274070 3.615170 5.022982
v -7.266833 7.201925 6.532339
v -7.281307 10.788681 3.513623
v -7.281307 3.615168 3.513625
v -7.281307 7.201925 3.513623
v -7.321465 3.620532 3.513625
v -7.259783 3.621043 6.532339
v -7.290651 3.620787 5.022982
v -7.281870 7.190544 3.513623
v -7.302038 10.777632 3.513623
v -7.261695 3.603451 3.513625
v -7.281004 10.788681 3.576780
v -7.281004 10.788681 3.576780
v -7.276970 7.174480 6.546806
v -7.267726 10.766088 6.548321
v -7.266730 3.627409 6.532339
v -7.265602 10.779187 5.022980
v -7.250216 10.778982 6.532337
v -7.233418 10.778752 3.513623
vn -1.0000 -0.0000 -0.0000
vn -0.0000 -0.0000 -1.0000
vn 1.0000 -0.0000 -0.0000
vn -0.0000 -0.0000 1.0000
vn -0.0000 -1.0000 -0.0000
vn -0.0000 1.0000 -0.0000
vn -0.0000 -0.0000 -0.0000
vn 0.0001 -1.0000 -0.0000
vn -0.0083 1.0000 -0.0000
vn -0.0001 0.0041 -1.0000
vn 0.0222 0.0001 -0.9998
vn 0.0214 0.0003 -0.9998
vn 0.0209 0.0004 -0.9998
vn -0.0135 -0.9999 -0.0000
vn 0.0209 -0.0000 -0.9998
vn 0.0228 -0.0000 -0.9997
vn 1.0000 -0.0000 -0.0048
vt 0.625000 0.000000
vt 0.375000 0.250000
vt 0.375000 0.000000
vt 0.625000 0.250000
vt 0.375000 0.500000
vt 0.625000 0.500000
vt 0.375000 0.750000
vt 0.625000 0.750000
vt 0.375000 1.000000
vt 0.125000 0.750000
vt 0.125000 0.500000
vt 0.875000 0.500000
vt 0.625000 1.000000
vt 0.875000 0.750000
vt 0.375000 0.265625
vt 0.187500 0.742188
s 1
usemtl blanco_
f 2/1/1 3/2/1 1/3/1
f 4/4/2 7/5/2 3/2/2
f 8/6/3 5/7/3 7/5/3
f 6/8/4 1/9/4 5/7/4
f 7/5/5 1/10/5 3/11/5
f 4/12/6 6/8/6 8/6/6
f 2/1/1 4/4/1 3/2/1
f 4/4/2 8/6/2 7/5/2
f 8/6/3 6/8/3 5/7/3
f 6/8/4 2/13/4 1/9/4
f 7/5/5 5/7/5 1/10/5
f 4/12/6 2/14/6 6/8/6
f 10/1/1 11/2/1 9/3/1
f 12/4/2 15/5/2 11/2/2
f 16/6/3 13/7/3 15/5/3
f 14/8/4 9/9/4 13/7/4
f 15/5/5 9/10/5 11/11/5
f 12/12/6 14/8/6 16/6/6
f 10/1/1 12/4/1 11/2/1
f 12/4/2 16/6/2 15/5/2
f 16/6/3 14/8/3 13/7/3
f 14/8/4 10/13/4 9/9/4
f 15/5/5 13/7/5 9/10/5
f 12/12/6 10/14/6 14/8/6
f 18/1/1 19/2/1 17/3/1
f 20/4/2 23/5/2 19/2/2
f 24/6/3 21/7/3 23/5/3
f 22/8/4 17/9/4 21/7/4
f 23/5/5 17/10/5 19/11/5
f 20/12/6 22/8/6 24/6/6
f 18/1/1 20/4/1 19/2/1
f 20/4/2 24/6/2 23/5/2
f 24/6/3 22/8/3 21/7/3
f 22/8/4 18/13/4 17/9/4
f 23/5/5 21/7/5 17/10/5
f 20/12/6 18/14/6 22/8/6
f 26/1/1 27/2/1 25/3/1
f 28/4/2 31/5/2 27/2/2
f 32/6/3 29/7/3 31/5/3
f 30/8/4 25/9/4 29/7/4
f 31/5/5 25/10/5 27/11/5
f 28/12/6 30/8/6 32/6/6
f 26/1/1 28/4/1 27/2/1
f 28/4/2 32/6/2 31/5/2
f 32/6/3 30/8/3 29/7/3
f 30/8/4 26/13/4 25/9/4
f 31/5/5 29/7/5 25/10/5
f 28/12/6 26/14/6 30/8/6
f 34/1/1 35/2/1 33/3/1
f 36/4/2 39/5/2 35/2/2
f 40/6/3 37/7/3 39/5/3
f 38/8/4 33/9/4 37/7/4
f 39/5/5 33/10/5 35/11/5
f 36/12/6 38/8/6 40/6/6
f 34/1/1 36/4/1 35/2/1
f 36/4/2 40/6/2 39/5/2
f 40/6/3 38/8/3 37/7/3
f 38/8/4 34/13/4 33/9/4
f 39/5/5 37/7/5 33/10/5
f 36/12/6 34/14/6 38/8/6
f 42/1/1 43/2/1 41/3/1
f 44/4/2 47/5/2 43/2/2
f 48/6/3 45/7/3 47/5/3
f 46/8/4 41/9/4 45/7/4
f 47/5/5 41/10/5 43/11/5
f 44/12/6 46/8/6 48/6/6
f 42/1/1 44/4/1 43/2/1
f 44/4/2 48/6/2 47/5/2
f 48/6/3 46/8/3 45/7/3
f 46/8/4 42/13/4 41/9/4
f 47/5/5 45/7/5 41/10/5
f 44/12/6 42/14/6 46/8/6
f 77/16/2 56/16/2 74/16/2
f 69/16/2 60/16/2 70/16/2
f 54/16/2 70/16/2 53/16/2
f 63/16/2 74/16/2 60/16/2
f 77/16/2 58/16/2 56/16/2
f 69/16/2 63/16/2 60/16/2
f 54/16/2 69/16/2 70/16/2
f 63/16/2 77/16/2 74/16/2
usemtl pta_madera
f 50/4/4 51/15/4 49/2/4
f 94/16/5 66/16/5 93/16/5
f 58/16/5 93/16/5 56/16/5
s 0
f 87/16/7 73/16/7 100/16/7
f 78/16/7 102/16/7 103/16/7
f 89/16/5 85/16/5 102/16/2
f 104/16/5 100/16/5 85/16/2
f 115/16/7 105/16/7 114/16/7
f 98/16/7 103/16/7 106/16/7
f 90/16/5 106/16/8 107/16/2
f 96/16/5 107/16/8 105/16/2
s 1
f 88/16/9 110/16/9 79/16/9
f 79/16/9 108/16/9 99/16/9
f 95/16/4 112/16/4 97/16/4
f 99/16/4 111/16/4 95/16/4
f 88/16/10 116/16/10 118/16/10
f 84/16/11 117/16/12 116/16/13
f 86/16/14 119/16/14 120/16/14
f 97/16/14 119/16/14 72/16/14
s 0
f 87/16/7 101/16/7 73/16/7
f 78/16/7 89/16/7 102/16/7
f 89/16/8 104/16/2 85/16/5
f 104/16/8 87/16/2 100/16/5
f 73/16/7 101/16/7 115/16/7
f 115/16/7 96/16/7 105/16/7
f 114/16/7 73/16/7 115/16/7
f 98/16/7 78/16/7 103/16/7
f 90/16/5 98/16/2 106/16/5
f 96/16/5 90/16/2 107/16/5
s 1
f 88/16/9 109/16/9 110/16/9
f 79/16/9 110/16/9 108/16/9
f 95/16/4 111/16/4 112/16/4
f 99/16/4 113/16/4 111/16/4
f 88/16/15 84/16/15 116/16/15
f 84/16/11 86/16/16 117/16/12
f 86/16/14 72/16/14 119/16/14
f 97/16/14 121/16/14 119/16/14
usemtl Negro_chapopote
f 74/16/1 93/16/1 99/16/1
f 75/16/17 83/16/17 102/16/17
f 76/16/4 59/16/4 75/16/4
f 68/16/4 62/16/4 71/16/4
f 71/16/17 85/16/17 100/16/17
f 70/16/1 95/16/1 97/16/1
f 103/16/17 94/16/17 106/16/17
f 79/16/1 82/16/1 88/16/1
f 65/16/17 114/16/17 105/16/17
f 64/16/1 86/16/1 80/16/1
f 53/16/1 97/16/1 91/16/1
f 55/16/17 100/16/17 81/16/17
f 52/16/4 71/16/4 55/16/4
f 61/16/4 75/16/4 62/16/4
f 62/16/17 102/16/17 85/16/17
f 60/16/1 99/16/1 95/16/1
f 84/16/1 76/16/1 61/16/1
f 81/16/17 73/16/17 65/16/17
f 80/16/1 68/16/1 52/16/1
f 88/16/1 57/16/1 76/16/1
f 86/16/1 61/16/1 68/16/1
f 102/16/17 67/16/17 103/16/17
f 107/16/17 77/16/17 63/16/17
f 91/16/1 72/16/1 64/16/1
f 92/16/17 69/16/17 54/16/17
f 106/16/17 58/16/17 77/16/17
f 105/16/17 63/16/17 69/16/17
f 99/16/1 66/16/1 79/16/1
f 74/16/1 56/16/1 93/16/1
f 75/16/17 59/16/17 83/16/17
f 76/16/4 57/16/4 59/16/4
f 68/16/4 61/16/4 62/16/4
f 71/16/17 62/16/17 85/16/17
f 70/16/1 60/16/1 95/16/1
f 103/16/17 67/16/17 94/16/17
f 79/16/1 66/16/1 82/16/1
f 105/16/17 92/16/17 65/16/17
f 65/16/17 73/16/17 114/16/17
f 64/16/1 72/16/1 86/16/1
f 53/16/1 70/16/1 97/16/1
f 55/16/17 71/16/17 100/16/17
f 52/16/4 68/16/4 71/16/4
f 61/16/4 76/16/4 75/16/4
f 62/16/17 75/16/17 102/16/17
f 60/16/1 74/16/1 99/16/1
f 84/16/1 88/16/1 76/16/1
f 81/16/17 100/16/17 73/16/17
f 80/16/1 86/16/1 68/16/1
f 88/16/1 82/16/1 57/16/1
f 86/16/1 84/16/1 61/16/1
f 102/16/17 83/16/17 67/16/17
f 107/16/17 106/16/17 77/16/17
f 91/16/1 97/16/1 72/16/1
f 92/16/17 105/16/17 69/16/17
f 106/16/17 94/16/17 58/16/17
f 105/16/17 107/16/17 63/16/17
f 99/16/1 93/16/1 66/16/1
