# Blender 5.0.1
# www.blender.org
mtllib ParedTraseraS2.mtl
o ParedTraseraS2
v -8.012245 0.508250 -5.910440
v 8.008577 0.508250 -5.910440
v -0.001834 0.508248 -7.896629
v -0.001834 0.508250 -5.910440
v -4.007040 0.508250 -5.910440
v -4.007040 0.508248 -7.896629
v -6.009643 0.508250 -5.910440
v -7.010944 0.508250 -5.910440
v 8.008577 0.508250 -6.406988
v -8.012245 0.508250 -6.406988
v -8.012245 0.508250 -6.655261
v -0.001834 0.508250 -6.655261
v -4.007040 0.508250 -6.655261
v -6.009643 0.508250 -6.655261
v -7.010944 0.508250 -6.655261
v 8.008577 0.508250 -6.655261
v 8.008577 11.389335 -6.406991
v 8.008577 11.389335 -6.655264
v -8.012245 11.389335 -6.406991
v -8.012245 11.389335 -6.655264
v -0.001834 11.389335 -6.655264
v -4.007040 11.389335 -6.655264
v -6.009643 11.389335 -6.655264
v -7.010944 11.389335 -6.655264
v -0.001834 0.508248 -7.400082
v -4.007040 0.508248 -7.400082
v 4.003372 0.508250 -6.655261
v 4.003372 11.389335 -6.655264
v 2.000769 0.508250 -6.655261
v 2.000769 11.389335 -6.655264
v 2.000769 0.508248 -7.400082
v 2.000769 0.508248 -7.896629
v -5.008341 0.508250 -5.910440
v -5.008341 0.508250 -6.655261
v -5.008341 11.389335 -6.655264
v -4.007040 15.035711 -7.896632
v -0.001834 15.035711 -7.896632
v 2.000769 15.035711 -7.400085
v 2.000769 15.035711 -7.896632
v -4.007040 14.375433 -7.400085
v 2.000769 14.375433 -7.400085
v -0.001834 14.375433 -7.400085
v -0.001834 0.508250 -4.917346
v -4.007040 0.508250 -4.917346
v -6.009643 0.508250 -4.917346
v 4.003372 0.508250 -4.917346
v 2.000769 0.508250 -4.917346
v -5.008341 0.508250 -4.917346
v -4.007040 11.330216 -5.413896
v -0.001834 11.330216 -5.413896
v -7.010944 0.508250 -5.413893
v 2.000769 0.508250 -5.413893
v -0.001834 0.508250 -4.420799
v 2.000769 0.508250 -4.420799
v 8.008577 12.893006 -6.406991
v 8.008577 12.893006 -6.655264
v -8.012245 12.893006 -6.406991
v -0.001834 12.893006 -6.406991
v -4.007040 12.893006 -6.406991
v -6.009643 12.893006 -6.406991
v -7.010944 12.893006 -6.406991
v -5.008341 12.893006 -6.406991
v 2.000769 12.893006 -6.406991
v -8.012245 12.893006 -6.655264
v -0.001834 12.893006 -6.655264
v -4.007040 12.893006 -6.655264
v -6.009643 12.893006 -6.655264
v -7.010944 12.893006 -6.655264
v -5.008341 12.893006 -6.655264
v 2.000769 12.893006 -6.655264
v 4.003372 12.893006 -6.406991
v 4.003372 12.893006 -6.655264
v -0.001834 0.508250 -5.662167
v -4.007040 0.508250 -5.662167
v -6.009643 0.508250 -5.662167
v -7.010944 0.508250 -5.662167
v 4.003372 0.508250 -5.662167
v 2.000769 0.508250 -5.662167
v -5.008341 0.508250 -5.662167
v 8.008577 0.508250 -5.662167
v -0.001834 0.508250 -5.165620
v -7.010944 0.508250 -5.165620
v 2.000769 0.508250 -5.165620
v -4.007040 0.508250 -4.669072
v 4.003372 0.508250 -4.669072
v -7.010944 7.291462 -5.413896
v 2.000769 7.291462 -5.413896
v -0.001834 7.291462 -5.662169
v -4.007040 7.291462 -5.662169
v -6.009643 7.291462 -5.662169
v -7.010944 7.291462 -5.662169
v 2.000769 7.291462 -5.662169
v -5.008341 7.291462 -5.662169
v -6.009643 11.330216 -5.413896
v -7.010944 11.330216 -5.413896
v 2.000769 11.330216 -5.413896
v -5.008341 11.330216 -5.413896
v -0.001834 11.330216 -5.662170
v -4.007040 11.330216 -5.662170
v -6.009643 11.330216 -5.662170
v -7.010944 11.330216 -5.662170
v 2.000769 11.330216 -5.662170
v -5.008341 11.330216 -5.662170
v -0.001834 9.965024 -4.669075
v -0.001834 9.965024 -4.917349
v -4.007040 9.965024 -4.669075
v -4.007040 9.965024 -4.917349
v 4.003372 9.965024 -4.669075
v 4.003372 9.965024 -4.917349
v 2.000769 9.965024 -4.669075
v 2.000769 9.965024 -4.917349
v -2.763488 10.163047 -4.620584
v -2.874707 10.163047 -4.509365
v -2.763488 10.274265 -4.509365
v -2.874707 10.163047 -4.534185
v -2.763488 10.163047 -4.422967
v -2.763488 10.274265 -4.534185
v 3.007278 10.163047 -4.620583
v 3.007278 10.274265 -4.509365
v 3.118496 10.163047 -4.509365
v 3.007278 10.163047 -4.422966
v 3.118496 10.163047 -4.534185
v 3.007278 10.274265 -4.534185
v -2.763488 7.404408 -4.620584
v -2.763488 7.293190 -4.509365
v -2.874707 7.404408 -4.509365
v -2.763488 7.404408 -4.422966
v -2.874707 7.404408 -4.534184
v -2.763488 7.293190 -4.534184
v 3.007278 7.404408 -4.620583
v 3.118496 7.404408 -4.509365
v 3.007278 7.293190 -4.509365
v 3.007278 7.404408 -4.422966
v 3.007278 7.293190 -4.534184
v 3.118496 7.404408 -4.534184
v -2.763488 10.163047 -4.422967
v 3.007278 10.163047 -4.422966
v 3.007278 7.404408 -4.422966
v -2.763488 7.404408 -4.422966
v -2.763488 10.163047 -4.559969
v 3.007278 10.163047 -4.559969
v 3.007278 7.404408 -4.559968
v -2.763488 7.404408 -4.559968
vn -1.0000 -0.0000 -0.0000
vn -0.0000 -0.0000 -1.0000
vn 1.0000 -0.0000 -0.0000
vn -0.0000 0.0730 0.9973
vn -0.0000 1.0000 -0.0000
vn -0.0000 0.0366 0.9993
vn -0.0000 -0.0000 1.0000
vn -0.0000 -1.0000 -0.0000
vn 0.0619 0.0183 0.9979
vn -0.2405 0.0355 0.9700
vn -0.0000 0.0401 0.9992
vn 0.0128 0.0683 0.9976
vn -0.0000 0.0600 0.9982
vn -0.0310 0.0250 0.9992
vn -0.0342 0.0456 0.9984
vn 0.0618 0.0262 0.9977
vn -0.0619 -0.0000 0.9981
vn -0.0000 0.0262 0.9997
vn -0.5774 0.5774 -0.5774
vn -0.5773 0.5774 0.5774
vn 0.5773 0.5773 -0.5774
vn 0.5773 0.5773 0.5774
vn -0.5773 -0.5774 -0.5774
vn -0.5773 -0.5774 0.5774
vn 0.5773 -0.5774 -0.5774
vn 0.5774 -0.5774 0.5774
vn -0.0000 0.7071 -0.7071
vn 0.7071 -0.7071 -0.0000
vn -0.0000 0.7071 0.7071
vn -0.7071 -0.7071 -0.0000
vn 0.7071 -0.0000 -0.7071
vn 0.7071 -0.0000 0.7071
vn -0.7071 0.7071 -0.0000
vn -0.0000 -0.7071 -0.7071
vn -0.0000 -0.7071 0.7071
vn 0.7071 0.7071 -0.0000
vn -0.7071 -0.0000 -0.7071
vn -0.7071 -0.0000 0.7071
vt 0.187500 0.742188
vt 0.187500 0.750000
vt 0.250000 0.703125
vt 0.281250 0.703125
vt 0.187500 0.714844
vt 0.250000 0.714844
vt 0.281250 0.707031
vt 0.281250 0.710938
vt 0.140625 0.710938
vt 0.140625 0.714844
vt 0.171875 0.714844
vt 0.281250 0.714844
vt 0.156250 0.714844
vt 0.156250 0.703125
vt 0.171875 0.710938
vt 0.156250 0.710938
vt 0.250000 0.710938
vt 0.187500 0.710938
vt 0.312500 0.703125
vt 0.187500 0.703125
vt 0.250000 0.707031
vt 0.171875 0.703125
vt 0.140625 0.707031
vt 0.000000 0.500000
vt 0.679184 0.625000
vt 0.000000 0.625000
vt 0.000000 0.000000
vt 0.679184 0.062500
vt 0.000000 0.062500
vt 0.000000 0.250000
vt 0.679184 0.500000
vt 0.000000 0.125000
vt 0.679184 0.187500
vt 0.000000 0.187500
vt 0.679184 0.125000
vt 0.679184 0.000000
vt 0.773041 0.062500
vt 0.773041 0.750000
vt 0.679184 0.750000
vt 0.773041 0.625000
vt 0.850526 0.000000
vt 0.881520 0.000000
vt 0.850526 0.679184
vt 0.679184 0.250000
vt 0.773041 0.500000
vt 0.000000 0.750000
vt 0.679184 1.000000
vt 0.000000 1.000000
vt 0.773041 1.000000
vt 0.773041 0.187500
vt 0.773041 0.125000
vt 0.773041 0.250000
vt 0.773041 0.000000
vt 0.773041 0.773041
vt 0.788538 0.093857
vt 0.788538 0.773041
vt 0.773041 0.093857
vt 0.788538 -0.000000
vt 0.835029 0.679184
vt 0.835029 0.000000
vt 0.375000 0.023438
vt 0.375000 0.019531
vt 0.140625 0.726562
vt 0.125000 0.730469
vt 0.125000 0.726562
vt 0.156250 0.726562
vt 0.140625 0.730469
vt 0.187500 0.726562
vt 0.171875 0.730469
vt 0.171875 0.726562
vt 0.250000 0.726562
vt 0.187500 0.730469
vt 0.375000 0.726562
vt 0.312500 0.730469
vt 0.312500 0.726562
vt 0.281250 0.730469
vt 0.281250 0.726562
vt 0.296192 0.000058
vt 0.296192 0.984624
vt 0.254139 0.984624
vt 0.250000 0.730469
vt 0.156250 0.730469
vt 0.773041 -0.000000
vt 0.375000 0.730469
vt 0.819532 0.773041
vt 0.001822 0.119590
vt 0.001822 0.000058
vt 0.085927 0.000058
vt 0.127980 0.000058
vt 0.170033 0.000058
vt 0.254139 0.000058
vt 0.275166 0.000058
vt 0.317219 0.000058
vt 0.338245 0.000058
vt 0.835029 0.773041
vt 0.127659 0.984749
vt 0.085606 0.984734
vt 0.002886 0.999942
vt 0.338245 0.119590
vt 0.170033 0.984624
vt 0.338245 0.984624
vt 0.317219 0.984624
vt 0.275166 0.984624
vt 0.187500 0.699219
vt 0.281250 0.699219
vt 0.250000 0.699219
vt 0.312500 0.699219
vt 0.112340 0.999953
vt 0.000047 0.999905
vt 0.112340 0.000071
vt 0.224204 0.000047
vt 0.224419 0.999905
vt 0.056408 0.999953
vt 0.000476 0.000047
vt 0.056408 0.000071
vt 0.281250 0.750000
vt 0.281250 0.742188
vt 0.072858 0.999967
vt 0.109270 0.000033
vt 0.109270 0.999967
vt 0.000033 0.999967
vt 0.072858 0.000033
vt 0.114446 0.000000
vt 0.076297 1.000000
vt 0.076297 0.000000
vt 0.000033 0.000033
vt 0.114446 1.000000
vt 0.484300 0.759327
vt 0.515700 0.990673
vt 0.515700 0.759327
vt 0.484300 0.504639
vt 0.515700 0.745361
vt 0.515700 0.504639
vt 0.865673 0.745361
vt 0.865673 0.504639
vt 0.484300 0.004639
vt 0.515700 0.245361
vt 0.515700 0.004639
vt 0.484300 0.259327
vt 0.515700 0.490673
vt 0.515700 0.259327
vt 0.134327 0.745361
vt 0.134327 0.750000
vt 0.125000 0.745361
vt 0.484300 0.000000
vt 0.625000 0.004639
vt 0.134327 0.504639
vt 0.125000 0.504639
vt 0.134327 0.500000
vt 0.625000 0.245361
vt 0.484300 0.250000
vt 0.484300 0.245361
vt 0.365673 0.745361
vt 0.375000 0.745361
vt 0.365673 0.750000
vt 0.625000 0.759327
vt 0.484300 0.750000
vt 0.365673 0.504639
vt 0.365673 0.500000
vt 0.375000 0.504639
vt 0.625000 0.490673
vt 0.484300 0.500000
vt 0.484300 0.490673
vt 0.515700 0.000000
vt 0.625000 0.259327
vt 0.634327 0.745361
vt 0.634327 0.504639
vt 0.484300 0.745361
vt 0.625000 0.990673
vt 0.484300 0.990673
vt 1.009182 0.986834
vt 0.008764 0.006652
vt 1.006567 -0.004319
vt 0.011379 0.997805
s 1
usemtl pta_madera
f 26/1/1 40/1/1 36/2/1
f 43/3/2 111/4/2 47/4/2
f 74/5/2 88/6/2 73/6/2
f 83/7/3 52/8/3 87/8/3
f 51/9/1 91/10/1 76/10/1
f 79/11/2 89/5/2 74/5/2
f 73/6/2 92/12/2 78/12/2
f 76/10/2 90/13/2 75/13/2
f 89/5/2 98/6/2 88/6/2
f 93/11/2 99/5/2 89/5/2
f 91/10/2 100/13/2 90/13/2
f 88/6/2 102/12/2 92/12/2
f 90/13/2 103/11/2 93/11/2
f 75/13/2 93/11/2 79/11/2
f 78/12/3 87/8/3 52/8/3
f 87/8/4 86/9/4 45/14/4
f 97/15/5 100/13/5 94/16/5
f 96/8/5 98/6/5 50/17/5
f 94/16/5 101/10/5 95/9/5
f 49/18/5 103/11/5 97/15/5
f 50/17/5 99/5/5 49/18/5
f 86/9/1 101/10/1 91/10/1
f 92/12/3 96/8/3 87/8/3
f 47/4/2 109/19/2 46/19/2
f 44/20/2 105/3/2 43/3/2
f 36/2/1 6/2/1 26/1/1
f 43/3/2 105/3/2 111/4/2
f 74/5/2 89/5/2 88/6/2
f 51/9/1 86/9/1 91/10/1
f 79/11/2 93/11/2 89/5/2
f 73/6/2 88/6/2 92/12/2
f 76/10/2 91/10/2 90/13/2
f 89/5/2 99/5/2 98/6/2
f 93/11/2 103/11/2 99/5/2
f 91/10/2 101/10/2 100/13/2
f 88/6/2 98/6/2 102/12/2
f 90/13/2 100/13/2 103/11/2
f 75/13/2 90/13/2 93/11/2
f 78/12/3 92/12/3 87/8/3
f 81/21/6 83/7/6 87/8/6
f 87/8/7 96/8/7 50/17/7
s 0
f 49/18/8 97/15/8 94/16/8
s 1
f 87/8/7 50/17/7 49/18/7
f 44/20/9 81/21/9 87/8/9
s 0
f 45/14/8 48/22/8 44/20/8
s 1
f 86/9/1 51/9/1 82/23/1
f 94/16/7 95/9/7 86/9/7
f 87/8/7 49/18/7 94/16/7
f 45/14/4 44/20/4 87/8/4
f 86/9/10 82/23/10 45/14/10
f 87/8/7 94/16/7 86/9/7
f 97/15/5 103/11/5 100/13/5
f 96/8/5 102/12/5 98/6/5
f 94/16/5 100/13/5 101/10/5
f 49/18/5 99/5/5 103/11/5
f 50/17/5 98/6/5 99/5/5
f 86/9/1 95/9/1 101/10/1
f 92/12/3 102/12/3 96/8/3
f 47/4/2 111/4/2 109/19/2
f 44/20/2 107/20/2 105/3/2
usemtl fucking_pared_gris
f 12/24/2 30/25/2 29/26/2
f 11/27/2 24/28/2 15/29/2
f 13/30/2 21/31/2 12/24/2
f 14/32/2 35/33/2 34/34/2
f 15/29/2 23/35/2 14/32/2
f 20/36/2 68/37/2 24/28/2
f 30/25/2 72/38/2 28/39/2
f 21/31/2 70/40/2 30/25/2
f 10/41/1 1/42/1 19/43/1
f 22/44/2 65/45/2 21/31/2
f 27/46/2 18/47/2 16/48/2
f 28/39/2 56/49/2 18/47/2
f 29/26/2 28/39/2 27/46/2
f 23/35/2 69/50/2 35/33/2
f 34/34/2 22/44/2 13/30/2
f 24/28/2 67/51/2 23/35/2
f 35/33/2 66/52/2 22/44/2
f 12/24/2 21/31/2 30/25/2
f 11/27/2 20/36/2 24/28/2
f 13/30/2 22/44/2 21/31/2
f 14/32/2 23/35/2 35/33/2
f 15/29/2 24/28/2 23/35/2
f 20/36/2 64/53/2 68/37/2
f 30/25/2 70/40/2 72/38/2
f 21/31/2 65/45/2 70/40/2
f 22/44/2 66/52/2 65/45/2
f 27/46/2 28/39/2 18/47/2
f 28/39/2 72/38/2 56/49/2
f 29/26/2 30/25/2 28/39/2
f 23/35/2 67/51/2 69/50/2
f 34/34/2 35/33/2 22/44/2
f 24/28/2 68/37/2 67/51/2
f 35/33/2 69/50/2 66/52/2
f 16/54/3 17/55/3 9/56/3
f 18/57/3 55/58/3 17/55/3
f 10/41/1 20/59/1 11/60/1
f 19/61/1 64/62/1 20/62/1
f 61/63/5 64/64/5 57/65/5
f 60/66/5 68/67/5 61/63/5
f 59/68/5 69/69/5 62/70/5
f 58/71/5 66/72/5 59/68/5
f 55/73/5 72/74/5 71/75/5
f 71/75/5 70/76/5 63/77/5
f 60/78/11 7/79/11 5/80/11
f 63/77/5 65/81/5 58/71/5
f 62/70/5 67/82/5 60/66/5
f 16/54/3 18/57/3 17/55/3
f 18/57/3 56/83/3 55/58/3
f 10/41/1 19/43/1 20/59/1
f 19/61/1 57/61/1 64/62/1
f 61/63/5 68/67/5 64/64/5
f 60/66/5 67/82/5 68/67/5
f 59/68/5 66/72/5 69/69/5
f 58/71/5 65/81/5 66/72/5
f 55/73/5 56/84/5 72/74/5
f 71/75/5 72/74/5 70/76/5
f 2/85/3 9/56/3 17/55/3
f 17/86/7 55/87/7 71/88/7
s 0
f 71/88/8 63/89/8 58/90/8
f 58/90/5 59/91/5 62/92/5
f 60/78/8 61/93/8 57/94/8
f 58/90/8 62/92/8 60/78/8
s 1
f 17/86/7 71/88/7 58/90/7
f 80/95/3 2/85/3 17/55/3
s 0
f 78/96/8 77/97/8 80/98/8
s 1
f 80/98/12 17/86/12 58/90/12
f 60/78/7 57/94/7 19/99/7
f 80/98/13 58/90/13 60/78/13
f 4/100/14 80/98/14 60/78/14
f 60/78/15 19/99/15 1/101/15
s 0
f 1/101/8 8/102/8 7/79/8
f 7/79/8 33/103/8 5/80/8
s 1
f 5/80/11 4/100/11 60/78/11
f 60/78/11 1/101/11 7/79/11
f 63/77/5 70/76/5 65/81/5
f 62/70/5 69/69/5 67/82/5
usemtl Negro_chapopote
f 84/104/1 107/20/1 44/20/1
f 110/105/5 105/3/5 104/106/5
f 108/107/5 111/4/5 110/105/5
f 104/106/5 107/20/5 106/104/5
f 46/19/3 108/107/3 85/107/3
f 53/108/16 85/109/16 104/110/16
f 84/104/1 106/104/1 107/20/1
f 110/105/5 111/4/5 105/3/5
f 108/107/5 109/19/5 111/4/5
f 104/106/5 105/3/5 107/20/5
f 46/19/3 109/19/3 108/107/3
f 106/111/17 84/112/17 53/108/17
f 53/108/5 54/113/5 85/109/5
f 85/109/7 108/114/7 110/115/7
f 104/110/18 106/111/18 53/108/18
f 85/109/7 110/115/7 104/110/7
usemtl blanco_
f 32/116/3 38/117/3 41/117/3
f 3/118/2 39/119/2 32/120/2
f 6/121/2 37/122/2 3/118/2
f 31/123/7 42/124/7 25/125/7
f 25/125/7 40/48/7 26/27/7
f 41/117/3 31/117/3 32/116/3
f 32/116/3 39/116/3 38/117/3
f 3/118/2 37/122/2 39/119/2
f 6/121/2 36/126/2 37/122/2
f 31/123/7 41/127/7 42/124/7
f 25/125/7 42/124/7 40/48/7
usemtl Material.001
f 128/128/3 113/129/3 126/130/3
f 134/131/5 125/132/5 132/133/5
f 116/134/8 141/135/8 121/135/8
f 117/136/8 119/137/8 114/138/8
f 122/139/1 131/140/1 120/141/1
f 112/142/19 113/143/19 114/144/19
f 115/145/20 136/146/20 117/136/20
f 118/147/21 119/148/21 120/149/21
f 137/150/22 122/151/22 123/152/22
f 124/153/23 125/154/23 126/155/23
f 139/156/24 128/128/24 129/157/24
f 130/158/25 131/159/25 132/160/25
f 138/161/26 134/162/26 135/163/26
f 112/142/27 119/148/27 118/147/27
f 115/145/28 114/138/28 113/164/28
f 137/150/29 117/136/29 136/146/29
f 120/141/30 123/152/30 122/139/30
f 118/147/31 131/159/31 130/158/31
f 138/161/32 122/139/32 137/165/32
f 132/133/33 135/163/33 134/131/33
f 130/158/34 125/132/34 124/153/34
f 139/166/35 134/131/35 138/167/35
f 126/130/36 129/168/36 128/128/36
f 124/153/37 113/143/37 112/142/37
f 136/169/38 128/128/38 139/156/38
f 130/158/2 112/142/2 118/147/2
s 0
f 116/134/7 137/135/7 136/134/7
f 121/135/7 138/167/7 137/135/7
f 133/167/7 139/166/7 138/167/7
f 127/166/7 136/134/7 139/166/7
s 1
f 127/166/3 140/134/3 116/134/3
f 121/135/1 142/167/1 133/167/1
f 133/167/5 143/166/5 127/166/5
f 128/128/3 115/170/3 113/129/3
f 134/131/5 129/168/5 125/132/5
f 116/134/8 140/134/8 141/135/8
f 117/136/8 123/152/8 119/137/8
f 122/139/1 135/163/1 131/140/1
f 112/142/27 114/144/27 119/148/27
f 115/145/28 117/136/28 114/138/28
f 137/150/29 123/152/29 117/136/29
f 120/141/30 119/137/30 123/152/30
f 118/147/31 120/149/31 131/159/31
f 138/161/32 135/163/32 122/139/32
f 132/133/33 131/140/33 135/163/33
f 130/158/34 132/133/34 125/132/34
f 139/166/35 129/168/35 134/131/35
f 126/130/36 125/132/36 129/168/36
f 124/153/37 126/155/37 113/143/37
f 136/169/38 115/170/38 128/128/38
f 130/158/2 124/153/2 112/142/2
s 0
f 116/134/7 121/135/7 137/135/7
f 121/135/7 133/167/7 138/167/7
f 133/167/7 127/166/7 139/166/7
f 127/166/7 116/134/7 136/134/7
s 1
f 127/166/3 143/166/3 140/134/3
f 121/135/1 141/135/1 142/167/1
f 133/167/5 142/167/5 143/166/5
usemtl Material.002
f 141/171/7 143/172/7 142/173/7
f 141/171/7 140/174/7 143/172/7
