# Blender 5.0.1
# www.blender.org
mtllib BancoS5.mtl
o BancoS5
v 5.750545 2.169819 1.792183
v 6.583733 2.352741 2.444352
v 5.432296 2.352741 2.847418
v 4.720666 2.352741 1.792183
v 5.432296 2.352741 0.736949
v 6.583733 2.352741 1.140015
v 6.068791 2.648717 2.847418
v 4.917355 2.648717 2.444352
v 4.917355 2.648717 1.140015
v 6.068791 2.648717 0.736949
v 6.780421 2.648717 1.792183
v 5.750542 2.831639 1.792183
v 5.569632 2.228493 2.392045
v 6.224182 2.228492 2.162918
v 6.043270 2.332477 2.762781
v 6.697819 2.332477 1.792183
v 6.224182 2.228492 1.421449
v 5.165098 2.228493 1.792183
v 4.984183 2.332478 2.392046
v 5.569632 2.228493 1.192322
v 4.984183 2.332478 1.192321
v 6.043270 2.332477 0.821585
v 6.809629 2.500729 2.162919
v 6.809629 2.500729 1.421447
v 5.750544 2.500729 2.991910
v 6.405095 2.500729 2.762781
v 4.691458 2.500729 2.162919
v 5.095992 2.500729 2.762781
v 5.095992 2.500729 0.821586
v 4.691458 2.500729 1.421447
v 6.405095 2.500729 0.821586
v 5.750544 2.500729 0.592456
v 6.516904 2.668980 2.392046
v 5.457818 2.668981 2.762781
v 4.803268 2.668981 1.792183
v 5.457818 2.668981 0.821585
v 6.516904 2.668980 1.192321
v 5.931455 2.772965 2.392045
v 6.335989 2.772965 1.792183
v 5.276905 2.772966 2.162918
v 5.276905 2.772966 1.421449
v 5.931455 2.772965 1.192322
v 5.811960 0.417074 0.855022
v 5.811960 2.343714 1.069277
v 6.023449 0.417074 0.875606
v 5.981151 2.343714 1.085744
v 6.226811 0.417074 0.936568
v 6.143841 2.343714 1.134513
v 6.414231 0.417074 1.035564
v 6.293777 2.343714 1.213711
v 6.578506 0.417074 1.168791
v 6.425196 2.343714 1.320292
v 6.713322 0.417074 1.331128
v 6.533050 2.343714 1.450162
v 6.813500 0.417074 1.516337
v 6.613192 2.343714 1.598329
v 6.875189 0.417074 1.717301
v 6.662543 2.343714 1.759100
v 6.896019 0.417074 1.926296
v 6.679207 2.343714 1.926296
v 6.875189 0.417074 2.135292
v 6.662543 2.343714 2.093493
v 6.813500 0.417074 2.336256
v 6.613192 2.343714 2.254264
v 6.713322 0.417074 2.521465
v 6.533050 2.343714 2.402431
v 6.578506 0.417074 2.683802
v 6.425196 2.343714 2.532301
v 6.414231 0.417074 2.817029
v 6.293777 2.343714 2.638882
v 6.226811 0.417074 2.916025
v 6.143841 2.343714 2.718080
v 6.023449 0.417074 2.976987
v 5.981151 2.343714 2.766849
v 5.811960 0.417074 2.997571
v 5.811960 2.343714 2.783316
v 5.600470 0.417074 2.976987
v 5.642768 2.343714 2.766849
v 5.397108 0.417074 2.916025
v 5.480079 2.343714 2.718080
v 5.209689 0.417074 2.817029
v 5.330143 2.343714 2.638882
v 5.045414 0.417074 2.683802
v 5.198723 2.343714 2.532301
v 4.910597 0.417074 2.521465
v 5.090870 2.343714 2.402431
v 4.810420 0.417074 2.336256
v 5.010728 2.343714 2.254264
v 4.748731 0.417074 2.135292
v 4.961376 2.343714 2.093493
v 4.727901 0.417074 1.926296
v 4.944712 2.343714 1.926296
v 4.748731 0.417074 1.717301
v 4.961376 2.343714 1.759100
v 4.810420 0.417074 1.516337
v 5.010728 2.343714 1.598329
v 4.910597 0.417074 1.331128
v 5.090870 2.343714 1.450162
v 5.045414 0.417074 1.168791
v 5.198723 2.343714 1.320292
v 5.209689 0.417074 1.035564
v 5.330143 2.343714 1.213711
v 5.397108 0.417074 0.936568
v 5.480079 2.343714 1.134513
v 5.600470 0.417074 0.875606
v 5.642768 2.343714 1.085744
vn -0.0000 -1.0000 -0.0000
vn 0.1535 -0.9827 0.1036
vn -0.0586 -0.9842 0.1669
vn 0.3443 -0.9125 0.2210
vn 0.5608 -0.8280 -0.0000
vn -0.1894 -0.9819 -0.0000
vn -0.0586 -0.9842 -0.1669
vn 0.1535 -0.9827 -0.1036
vn 0.7080 -0.6986 0.1035
vn -0.1311 -0.9247 0.3574
vn 0.1740 -0.8522 0.4934
vn 0.1081 -0.7303 0.6745
vn -0.4269 -0.9043 -0.0000
vn -0.4542 -0.8374 0.3040
vn -0.6407 -0.7070 0.2994
vn -0.1311 -0.9247 -0.3574
vn -0.4542 -0.8374 -0.3040
vn -0.5126 -0.7131 -0.4782
vn 0.3443 -0.9125 -0.2210
vn 0.1740 -0.8522 -0.4934
vn 0.3376 -0.7260 -0.5991
vn 0.8126 -0.1983 0.5480
vn -0.3233 -0.2065 0.9235
vn -0.9811 -0.1936 -0.0000
vn -0.3233 -0.2065 -0.9235
vn 0.8126 -0.1982 -0.5480
vn 0.1311 0.9247 0.3574
vn 0.4542 0.8374 0.3040
vn 0.0586 0.9842 0.1671
vn -0.3443 0.9125 0.2210
vn -0.1740 0.8522 0.4934
vn -0.1535 0.9827 0.1036
vn -0.3443 0.9125 -0.2210
vn -0.5606 0.8281 -0.0000
vn -0.1535 0.9827 -0.1036
vn 0.1311 0.9247 -0.3574
vn -0.1740 0.8522 -0.4934
vn 0.0586 0.9842 -0.1671
vn 0.4269 0.9043 -0.0000
vn 0.4542 0.8374 -0.3040
vn 0.1898 0.9818 -0.0000
vn -0.0000 1.0000 -0.0000
vn 0.6407 0.7070 -0.2994
vn 0.5126 0.7131 -0.4782
vn -0.1081 0.7303 -0.6745
vn -0.3376 0.7260 -0.5991
vn -0.7080 0.6986 -0.1035
vn -0.7080 0.6986 0.1035
vn -0.3376 0.7260 0.5991
vn -0.1081 0.7303 0.6745
vn 0.5126 0.7131 0.4782
vn 0.6407 0.7070 0.2994
vn 0.3233 0.2065 -0.9235
vn 0.1081 -0.7303 -0.6745
vn -0.8126 0.1983 -0.5480
vn -0.6407 -0.7070 -0.2994
vn -0.8126 0.1983 0.5480
vn -0.5126 -0.7131 0.4782
vn 0.3233 0.2065 0.9235
vn 0.3376 -0.7260 0.5991
vn 0.9811 0.1936 -0.0000
vn 0.7080 -0.6986 -0.1035
vn 0.0963 0.1100 -0.9893
vn 0.2854 0.1101 -0.9521
vn 0.4642 0.1103 -0.8788
vn 0.6260 0.1105 -0.7719
vn 0.7646 0.1108 -0.6350
vn 0.8741 0.1110 -0.4728
vn 0.9500 0.1112 -0.2916
vn 0.9889 0.1113 -0.0986
vn 0.9889 0.1113 0.0986
vn 0.9500 0.1112 0.2916
vn 0.8741 0.1110 0.4728
vn 0.7646 0.1108 0.6350
vn 0.6260 0.1105 0.7719
vn 0.4642 0.1103 0.8788
vn 0.2854 0.1101 0.9521
vn 0.0963 0.1100 0.9893
vn -0.0963 0.1100 0.9893
vn -0.2854 0.1101 0.9521
vn -0.4642 0.1103 0.8788
vn -0.6260 0.1105 0.7719
vn -0.7646 0.1108 0.6350
vn -0.8741 0.1110 0.4728
vn -0.9500 0.1112 0.2916
vn -0.9889 0.1113 0.0986
vn -0.9889 0.1113 -0.0986
vn -0.9500 0.1112 -0.2916
vn -0.8741 0.1110 -0.4728
vn -0.7646 0.1108 -0.6350
vn -0.6260 0.1105 -0.7719
vn -0.4642 0.1103 -0.8788
vn -0.2854 0.1101 -0.9521
vn -0.0963 0.1100 -0.9893
vt 0.181819 0.000000
vt 0.227273 0.078731
vt 0.136365 0.078731
vt 0.272728 0.157461
vt 0.318182 0.078731
vt 0.363637 0.157461
vt 0.909091 0.000000
vt 0.954545 0.078731
vt 0.863636 0.078731
vt 0.727273 0.000000
vt 0.772727 0.078731
vt 0.681818 0.078731
vt 0.545455 0.000000
vt 0.590909 0.078731
vt 0.500000 0.078731
vt 0.318182 0.236191
vt 0.090910 0.157461
vt 0.181819 0.157461
vt 0.136365 0.236191
vt 0.818182 0.157461
vt 0.909091 0.157461
vt 0.863636 0.236191
vt 0.636364 0.157461
vt 0.727273 0.157461
vt 0.681818 0.236191
vt 0.454546 0.157461
vt 0.545455 0.157461
vt 0.500000 0.236191
vt 0.227273 0.236191
vt 0.045455 0.236191
vt 0.772727 0.236191
vt 0.590909 0.236191
vt 0.409092 0.236191
vt 0.181819 0.314921
vt 0.272728 0.314921
vt 0.227273 0.393651
vt 0.000000 0.314921
vt 0.090910 0.314921
vt 0.045455 0.393651
vt 0.727273 0.314921
vt 0.818182 0.314921
vt 0.772727 0.393651
vt 0.545455 0.314921
vt 0.636364 0.314921
vt 0.590909 0.393651
vt 0.363637 0.314921
vt 0.454546 0.314921
vt 0.409092 0.393651
vt 0.500000 0.393651
vt 0.454546 0.472382
vt 0.681818 0.393651
vt 0.636364 0.472382
vt 0.863636 0.393651
vt 0.818182 0.472382
vt 0.909091 0.314921
vt 0.136365 0.393651
vt 0.090910 0.472382
vt 0.318182 0.393651
vt 0.272728 0.472382
vt 0.954545 0.236191
vt 1.000000 0.157461
vt 0.409092 0.078731
vt 0.363637 0.000000
vt 1.000000 0.500000
vt 0.968750 1.000000
vt 0.968750 0.500000
vt 0.937500 1.000000
vt 0.937500 0.500000
vt 0.906250 1.000000
vt 0.906250 0.500000
vt 0.875000 1.000000
vt 0.875000 0.500000
vt 0.843750 1.000000
vt 0.843750 0.500000
vt 0.812500 1.000000
vt 0.812500 0.500000
vt 0.781250 1.000000
vt 0.781250 0.500000
vt 0.750000 1.000000
vt 0.750000 0.500000
vt 0.718750 0.500000
vt 0.718750 1.000000
vt 0.687500 0.500000
vt 0.687500 1.000000
vt 0.656250 0.500000
vt 0.656250 1.000000
vt 0.625000 0.500000
vt 0.625000 1.000000
vt 0.593750 0.500000
vt 0.593750 1.000000
vt 0.562500 0.500000
vt 0.562500 1.000000
vt 0.531250 0.500000
vt 0.531250 1.000000
vt 0.500000 0.500000
vt 0.468750 1.000000
vt 0.468750 0.500000
vt 0.437500 1.000000
vt 0.437500 0.500000
vt 0.406250 1.000000
vt 0.406250 0.500000
vt 0.375000 1.000000
vt 0.375000 0.500000
vt 0.343750 1.000000
vt 0.343750 0.500000
vt 0.312500 1.000000
vt 0.312500 0.500000
vt 0.281250 1.000000
vt 0.281250 0.500000
vt 0.250000 1.000000
vt 0.250000 0.500000
vt 0.218750 0.500000
vt 0.218750 1.000000
vt 0.187500 0.500000
vt 0.187500 1.000000
vt 0.156250 0.500000
vt 0.156250 1.000000
vt 0.125000 0.500000
vt 0.125000 1.000000
vt 0.093750 0.500000
vt 0.093750 1.000000
vt 0.062500 0.500000
vt 0.158156 0.028269
vt 0.471731 0.158156
vt 0.341844 0.471731
vt 0.062500 1.000000
vt 0.031250 0.500000
vt 0.031250 1.000000
vt 0.000000 0.500000
vt 0.796822 0.014612
vt 0.514612 0.203178
vt 0.703178 0.485388
vt 1.000000 1.000000
vt 0.500000 1.000000
vt 0.296822 0.485388
vt 0.250000 0.490000
vt 0.203178 0.485388
vt 0.158156 0.471731
vt 0.116663 0.449553
vt 0.080294 0.419706
vt 0.050447 0.383337
vt 0.028269 0.341844
vt 0.014612 0.296822
vt 0.010000 0.250000
vt 0.014612 0.203178
vt 0.028269 0.158156
vt 0.050447 0.116663
vt 0.080294 0.080294
vt 0.116663 0.050447
vt 0.203178 0.014612
vt 0.250000 0.010000
vt 0.296822 0.014612
vt 0.341844 0.028269
vt 0.383337 0.050447
vt 0.419706 0.080294
vt 0.449553 0.116663
vt 0.485388 0.203178
vt 0.490000 0.250000
vt 0.485388 0.296822
vt 0.471731 0.341844
vt 0.449553 0.383337
vt 0.419706 0.419706
vt 0.383337 0.449553
vt 0.000000 1.000000
vt 0.750000 0.490000
vt 0.796822 0.485388
vt 0.841844 0.471731
vt 0.883337 0.449553
vt 0.919706 0.419706
vt 0.949553 0.383337
vt 0.971731 0.341844
vt 0.985388 0.296822
vt 0.990000 0.250000
vt 0.985388 0.203178
vt 0.971731 0.158156
vt 0.949553 0.116663
vt 0.919706 0.080294
vt 0.883337 0.050447
vt 0.841844 0.028269
vt 0.750000 0.010000
vt 0.703178 0.014612
vt 0.658156 0.028269
vt 0.616663 0.050447
vt 0.580294 0.080294
vt 0.550447 0.116663
vt 0.528269 0.158156
vt 0.510000 0.250000
vt 0.514612 0.296822
vt 0.528269 0.341844
vt 0.550447 0.383337
vt 0.580294 0.419706
vt 0.616663 0.449553
vt 0.658156 0.471731
s 1
usemtl modern_coffee_table_02_wood
f 1/1/1 14/2/2 13/3/3
f 2/4/4 14/5/2 16/6/5
f 1/7/1 13/8/3 18/9/6
f 1/10/1 18/11/6 20/12/7
f 1/13/1 20/14/7 17/15/8
f 2/4/4 16/6/5 23/16/9
f 3/17/10 15/18/11 25/19/12
f 4/20/13 19/21/14 27/22/15
f 5/23/16 21/24/17 29/25/18
f 6/26/19 22/27/20 31/28/21
f 2/4/22 23/16/22 26/29/22
f 3/17/23 25/19/23 28/30/23
f 4/20/24 27/22/24 30/31/24
f 5/23/25 29/25/25 32/32/25
f 6/26/26 31/28/26 24/33/26
f 7/34/27 33/35/28 38/36/29
f 8/37/30 34/38/31 40/39/32
f 9/40/33 35/41/34 41/42/35
f 10/43/36 36/44/37 42/45/38
f 11/46/39 37/47/40 39/48/41
f 39/48/41 42/49/38 12/50/42
f 39/48/41 37/47/40 42/49/38
f 37/47/40 10/43/36 42/49/38
f 42/45/38 41/51/35 12/52/42
f 42/45/38 36/44/37 41/51/35
f 36/44/37 9/40/33 41/51/35
f 41/42/35 40/53/32 12/54/42
f 41/42/35 35/41/34 40/53/32
f 35/41/34 8/55/30 40/53/32
f 40/39/32 38/56/29 12/57/42
f 40/39/32 34/38/31 38/56/29
f 34/38/31 7/34/27 38/56/29
f 38/36/29 39/58/41 12/59/42
f 38/36/29 33/35/28 39/58/41
f 33/35/28 11/46/39 39/58/41
f 24/33/43 37/47/40 11/46/39
f 24/33/43 31/28/44 37/47/40
f 31/28/44 10/43/36 37/47/40
f 32/32/45 36/44/37 10/43/36
f 32/32/45 29/25/46 36/44/37
f 29/25/46 9/40/33 36/44/37
f 30/31/47 35/41/34 9/40/33
f 30/31/47 27/22/48 35/41/34
f 27/22/48 8/55/30 35/41/34
f 28/30/49 34/38/31 8/37/30
f 28/30/49 25/19/50 34/38/31
f 25/19/50 7/34/27 34/38/31
f 26/29/51 33/35/28 7/34/27
f 26/29/51 23/16/52 33/35/28
f 23/16/52 11/46/39 33/35/28
f 31/28/53 32/32/53 10/43/53
f 31/28/21 22/27/20 32/32/54
f 22/27/20 5/23/16 32/32/54
f 29/25/55 30/31/55 9/40/55
f 29/25/18 21/24/17 30/31/56
f 21/24/17 4/20/13 30/31/56
f 27/22/57 28/60/57 8/55/57
f 27/22/15 19/21/14 28/60/58
f 19/21/14 3/61/10 28/60/58
f 25/19/59 26/29/59 7/34/59
f 25/19/12 15/18/11 26/29/60
f 15/18/11 2/4/4 26/29/60
f 23/16/61 24/33/61 11/46/61
f 23/16/9 16/6/5 24/33/62
f 16/6/5 6/26/19 24/33/62
f 17/15/8 22/27/20 6/26/19
f 17/15/8 20/14/7 22/27/20
f 20/14/7 5/23/16 22/27/20
f 20/12/7 21/24/17 5/23/16
f 20/12/7 18/11/6 21/24/17
f 18/11/6 4/20/13 21/24/17
f 18/9/6 19/21/14 4/20/13
f 18/9/6 13/8/3 19/21/14
f 13/8/3 3/61/10 19/21/14
f 16/6/5 17/62/8 6/26/19
f 16/6/5 14/5/2 17/62/8
f 14/5/2 1/63/1 17/62/8
f 13/3/3 15/18/11 3/17/10
f 13/3/3 14/2/2 15/18/11
f 14/2/2 2/4/4 15/18/11
usemtl Material.013
f 43/64/63 46/65/63 45/66/63
f 45/66/64 48/67/64 47/68/64
f 47/68/65 50/69/65 49/70/65
f 49/70/66 52/71/66 51/72/66
f 51/72/67 54/73/67 53/74/67
f 53/74/68 56/75/68 55/76/68
f 55/76/69 58/77/69 57/78/69
f 57/78/70 60/79/70 59/80/70
f 60/79/71 61/81/71 59/80/71
f 62/82/72 63/83/72 61/81/72
f 64/84/73 65/85/73 63/83/73
f 66/86/74 67/87/74 65/85/74
f 68/88/75 69/89/75 67/87/75
f 70/90/76 71/91/76 69/89/76
f 72/92/77 73/93/77 71/91/77
f 74/94/78 75/95/78 73/93/78
f 75/95/79 78/96/79 77/97/79
f 77/97/80 80/98/80 79/99/80
f 79/99/81 82/100/81 81/101/81
f 81/101/82 84/102/82 83/103/82
f 83/103/83 86/104/83 85/105/83
f 85/105/84 88/106/84 87/107/84
f 87/107/85 90/108/85 89/109/85
f 89/109/86 92/110/86 91/111/86
f 92/110/87 93/112/87 91/111/87
f 94/113/88 95/114/88 93/112/88
f 96/115/89 97/116/89 95/114/89
f 98/117/90 99/118/90 97/116/90
f 100/119/91 101/120/91 99/118/91
f 102/121/92 103/122/92 101/120/92
f 80/123/42 64/124/42 48/125/42
f 104/126/93 105/127/93 103/122/93
f 106/128/94 43/129/94 105/127/94
f 73/130/1 89/131/1 105/132/1
f 43/64/63 44/133/63 46/65/63
f 45/66/64 46/65/64 48/67/64
f 47/68/65 48/67/65 50/69/65
f 49/70/66 50/69/66 52/71/66
f 51/72/67 52/71/67 54/73/67
f 53/74/68 54/73/68 56/75/68
f 55/76/69 56/75/69 58/77/69
f 57/78/70 58/77/70 60/79/70
f 60/79/71 62/82/71 61/81/71
f 62/82/72 64/84/72 63/83/72
f 64/84/73 66/86/73 65/85/73
f 66/86/74 68/88/74 67/87/74
f 68/88/75 70/90/75 69/89/75
f 70/90/76 72/92/76 71/91/76
f 72/92/77 74/94/77 73/93/77
f 74/94/78 76/134/78 75/95/78
f 75/95/79 76/134/79 78/96/79
f 77/97/80 78/96/80 80/98/80
f 79/99/81 80/98/81 82/100/81
f 81/101/82 82/100/82 84/102/82
f 83/103/83 84/102/83 86/104/83
f 85/105/84 86/104/84 88/106/84
f 87/107/85 88/106/85 90/108/85
f 89/109/86 90/108/86 92/110/86
f 92/110/87 94/113/87 93/112/87
f 94/113/88 96/115/88 95/114/88
f 96/115/89 98/117/89 97/116/89
f 98/117/90 100/119/90 99/118/90
f 100/119/91 102/121/91 101/120/91
f 102/121/92 104/126/92 103/122/92
f 48/125/42 46/135/42 44/136/42
f 44/136/42 106/137/42 104/138/42
f 104/138/42 102/139/42 100/140/42
f 100/140/42 98/141/42 96/142/42
f 96/142/42 94/143/42 92/144/42
f 92/144/42 90/145/42 88/146/42
f 88/146/42 86/147/42 84/148/42
f 84/148/42 82/149/42 80/123/42
f 80/123/42 78/150/42 76/151/42
f 76/151/42 74/152/42 72/153/42
f 72/153/42 70/154/42 68/155/42
f 68/155/42 66/156/42 64/124/42
f 64/124/42 62/157/42 60/158/42
f 60/158/42 58/159/42 56/160/42
f 56/160/42 54/161/42 52/162/42
f 52/162/42 50/163/42 48/125/42
f 48/125/42 44/136/42 104/138/42
f 104/138/42 100/140/42 96/142/42
f 96/142/42 92/144/42 88/146/42
f 88/146/42 84/148/42 80/123/42
f 80/123/42 76/151/42 72/153/42
f 72/153/42 68/155/42 64/124/42
f 64/124/42 60/158/42 56/160/42
f 56/160/42 52/162/42 48/125/42
f 48/125/42 104/138/42 96/142/42
f 96/142/42 88/146/42 80/123/42
f 80/123/42 72/153/42 64/124/42
f 64/124/42 56/160/42 48/125/42
f 48/125/42 96/142/42 80/123/42
f 104/126/93 106/128/93 105/127/93
f 106/128/94 44/164/94 43/129/94
f 105/132/1 43/165/1 45/166/1
f 45/166/1 47/167/1 49/168/1
f 49/168/1 51/169/1 53/170/1
f 53/170/1 55/171/1 57/172/1
f 57/172/1 59/173/1 61/174/1
f 61/174/1 63/175/1 65/176/1
f 65/176/1 67/177/1 69/178/1
f 69/178/1 71/179/1 73/130/1
f 73/130/1 75/180/1 77/181/1
f 77/181/1 79/182/1 81/183/1
f 81/183/1 83/184/1 85/185/1
f 85/185/1 87/186/1 89/131/1
f 89/131/1 91/187/1 93/188/1
f 93/188/1 95/189/1 97/190/1
f 97/190/1 99/191/1 101/192/1
f 101/192/1 103/193/1 105/132/1
f 105/132/1 45/166/1 49/168/1
f 49/168/1 53/170/1 57/172/1
f 57/172/1 61/174/1 65/176/1
f 65/176/1 69/178/1 73/130/1
f 73/130/1 77/181/1 81/183/1
f 81/183/1 85/185/1 89/131/1
f 89/131/1 93/188/1 97/190/1
f 97/190/1 101/192/1 105/132/1
f 105/132/1 49/168/1 57/172/1
f 57/172/1 65/176/1 73/130/1
f 73/130/1 81/183/1 89/131/1
f 89/131/1 97/190/1 105/132/1
f 105/132/1 57/172/1 73/130/1
