# Blender 5.0.1
# www.blender.org
mtllib BaseS5.mtl
o BaseS5
v -8.005344 -0.065917 -7.964708
v -8.005344 0.468191 -7.964708
v 7.964709 -0.065913 8.045980
v 7.964709 0.468195 8.045980
v 7.964709 -0.065917 -7.964708
v 7.964709 0.468191 -7.964708
v -8.005344 -0.065917 -7.362967
v -8.005344 0.468191 -7.362967
v 7.964709 -0.065917 -7.362967
v 7.964709 0.468191 -7.362967
v -7.384017 -0.065917 -7.964708
v -7.384017 0.468191 -7.964708
v -7.384017 -0.065913 8.045980
v -7.384017 0.468195 8.045980
v -7.384017 0.468191 -7.362967
v -7.384017 -0.065917 -7.362967
v 7.964709 0.468193 6.493777
v 7.964709 -0.065915 6.493777
v -7.384017 0.468193 6.493777
v -7.384017 -0.065915 6.493777
v 5.924900 0.468191 -7.964708
v 5.924900 -0.065913 8.045980
v 5.924900 0.468191 -7.362967
v 5.924900 -0.065917 -7.964708
v 5.924900 0.468195 8.045980
v 5.924900 -0.065917 -7.362967
v 5.924900 0.468193 6.493777
v 5.924900 -0.065915 6.493777
v 4.526510 -0.065917 -7.964708
v 4.526510 0.468195 8.045980
v 4.526510 -0.065917 -7.362967
v 4.526510 -0.065915 6.493777
v 4.526510 0.468191 -7.964708
v 4.526510 -0.065913 8.045980
v 4.526510 0.468191 -7.362967
v 4.526510 0.468193 6.493777
v 3.434517 -0.065917 -7.964708
v 3.434517 0.468195 8.045980
v 3.434517 -0.065917 -7.362967
v 3.434517 -0.065915 6.493777
v 3.434517 0.468191 -7.964708
v 3.434517 -0.065913 8.045980
v 3.434517 0.468191 -7.362967
v 3.434517 0.468193 6.493777
v 2.027380 -0.065917 -7.964708
v 2.027380 0.468195 8.045980
v 2.027380 -0.065917 -7.362967
v 2.027380 -0.065915 6.493777
v 2.027380 0.468191 -7.964708
v 2.027380 -0.065913 8.045980
v 2.027380 0.468191 -7.362967
v 2.027380 0.468193 6.493777
v 1.008403 -0.065917 -7.964708
v 1.008403 0.468195 8.045980
v 1.008403 -0.065917 -7.362967
v 1.008403 -0.065915 6.493777
v 1.008403 0.468191 -7.964708
v 1.008403 -0.065913 8.045980
v 1.008403 0.468191 -7.362967
v 1.008403 0.468193 6.493777
v -0.504289 -0.065917 -7.964708
v -0.504289 0.468195 8.045980
v -0.504289 -0.065917 -7.362967
v -0.504289 -0.065915 6.493777
v -0.504289 0.468191 -7.964708
v -0.504289 -0.065913 8.045980
v -0.504289 0.468191 -7.362967
v -0.504289 0.468193 6.493777
v 7.964709 0.468195 7.664338
v -7.384017 0.468195 7.664338
v -7.384017 -0.065913 7.664338
v 7.964709 -0.065913 7.664338
v 5.924900 0.468195 7.664338
v 5.924900 -0.065913 7.664338
v 4.526510 -0.065913 7.664338
v 4.526510 0.468195 7.664338
v 3.434517 -0.065913 7.664338
v 3.434517 0.468195 7.664338
v 2.027380 -0.065913 7.664338
v 2.027380 0.468195 7.664338
v 1.008403 -0.065913 7.664338
v 1.008403 0.468195 7.664338
v -0.504289 -0.065913 7.664338
v -0.504289 0.468195 7.664338
v 7.964709 -0.065913 7.079058
v 7.964709 0.468195 7.079058
v -7.384017 0.468195 7.079058
v -7.384017 -0.065913 7.079058
v 5.924900 0.468195 7.079058
v 5.924900 -0.065913 7.079058
v 4.526510 -0.065913 7.079058
v 4.526510 0.468195 7.079058
v 3.434517 -0.065913 7.079058
v 3.434517 0.468195 7.079058
v 2.027380 -0.065913 7.079058
v 2.027380 0.468195 7.079058
v 1.008403 -0.065913 7.079058
v 1.008403 0.468195 7.079058
v -0.504289 -0.065913 7.079058
v -0.504289 0.468195 7.079058
v 7.964709 0.468195 7.326676
v -7.384017 0.468195 7.326676
v -7.384017 -0.065913 7.326676
v 5.924900 0.468195 7.326676
v 5.924900 -0.065913 7.326676
v 4.526510 -0.065913 7.326676
v 4.526510 0.468195 7.326676
v 3.434517 -0.065913 7.326676
v 3.434517 0.468195 7.326676
v 2.027380 -0.065913 7.326676
v 2.027380 0.468195 7.326676
v 1.008403 -0.065913 7.326676
v 1.008403 0.468195 7.326676
v -0.504289 -0.065913 7.326676
v -0.504289 0.468195 7.326676
v 7.964709 -0.065913 7.326676
v -8.005344 0.468193 5.011893
v 7.964709 -0.065915 5.011893
v -8.005344 -0.065915 5.011893
v 7.964709 0.468193 5.011893
v -7.384017 0.468193 5.011893
v -7.384017 -0.065915 5.011893
v 5.924900 -0.065915 5.011893
v 5.924900 0.468193 5.011893
v 4.526510 -0.065915 5.011893
v 4.526510 0.468193 5.011893
v 3.434517 -0.065915 5.011893
v 3.434517 0.468193 5.011893
v 2.027380 -0.065915 5.011893
v 2.027380 0.468193 5.011893
v 1.008403 -0.065915 5.011893
v 1.008403 0.468193 5.011893
v -0.504289 -0.065915 5.011893
v -0.504289 0.468193 5.011893
v -8.005344 0.468193 -1.175536
v 7.964709 -0.065915 -1.175536
v -8.005344 -0.065915 -1.175536
v 7.964709 0.468193 -1.175536
v -7.384017 0.468193 -1.175536
v -7.384017 -0.065915 -1.175536
v 5.924900 -0.065915 -1.175536
v 5.924900 0.468193 -1.175536
v 4.526510 -0.065915 -1.175536
v 4.526510 0.468193 -1.175536
v 3.434517 -0.065915 -1.175536
v 3.434517 0.468193 -1.175536
v 2.027380 -0.065915 -1.175536
v 2.027380 0.468193 -1.175536
v 1.008403 -0.065915 -1.175536
v 1.008403 0.468193 -1.175536
v -0.504289 -0.065915 -1.175536
v -0.504289 0.468193 -1.175536
v -8.005344 0.468193 -1.691156
v 7.964709 -0.065915 -1.691156
v -8.005344 -0.065915 -1.691156
v 7.964709 0.468193 -1.691156
v -7.384017 0.468193 -1.691156
v -7.384017 -0.065915 -1.691156
v 5.924900 -0.065915 -1.691156
v 5.924900 0.468193 -1.691156
v 4.526510 -0.065915 -1.691156
v 4.526510 0.468193 -1.691156
v 3.434517 -0.065915 -1.691156
v 3.434517 0.468193 -1.691156
v 2.027380 -0.065915 -1.691156
v 2.027380 0.468193 -1.691156
v 1.008403 -0.065915 -1.691156
v 1.008403 0.468193 -1.691156
v -0.504289 -0.065915 -1.691156
v -0.504289 0.468193 -1.691156
v -7.384017 0.445046 -7.362967
v -8.005344 0.445046 -7.362967
v -8.005344 0.445048 -1.175536
v -8.005344 0.445048 5.011893
v -7.384017 0.445048 -1.175536
v -7.384017 0.445048 5.011893
v -8.005344 0.445048 -1.691156
v -7.384017 0.445048 -1.691156
vn -1.0000 -0.0000 -0.0000
vn -0.0000 -0.0000 -1.0000
vn 1.0000 -0.0000 -0.0000
vn -0.0000 -1.0000 -0.0000
vn -0.0000 1.0000 -0.0000
vn -0.0000 -0.0000 1.0000
vt 0.625000 0.240604
vt 0.375000 0.250000
vt 0.375000 0.240604
vt 0.625000 0.468068
vt 0.375000 0.500000
vt 0.375000 0.468068
vt 0.625000 0.744041
vt 0.375000 0.750000
vt 0.375000 0.744041
vt 0.343068 0.750000
vt 0.343068 0.744041
vt 0.343068 0.509396
vt 0.343068 0.500000
vt 0.625000 0.500000
vt 0.375000 0.509396
vt 0.625000 0.152041
vt 0.375000 0.152041
vt 0.134726 0.500000
vt 0.125000 0.509396
vt 0.125000 0.500000
vt 0.865273 0.744041
vt 0.757576 0.750000
vt 0.757576 0.744041
vt 0.625000 0.882576
vt 0.375000 0.990274
vt 0.375000 0.882576
vt 0.625000 0.250000
vt 0.375000 0.259726
vt 0.865274 0.702624
vt 0.757576 0.725763
vt 0.757576 0.702624
vt 0.375000 0.702624
vt 0.343068 0.725763
vt 0.343068 0.702624
vt 0.625000 0.702624
vt 0.375000 0.725763
vt 0.321177 0.725763
vt 0.321177 0.702624
vt 0.656932 0.702624
vt 0.625000 0.725763
vt 0.625000 0.750000
vt 0.375000 0.781932
vt 0.656932 0.744041
vt 0.321177 0.509396
vt 0.321177 0.500000
vt 0.321177 0.750000
vt 0.321177 0.744041
vt 0.625000 0.446177
vt 0.375000 0.446177
vt 0.625000 0.429083
vt 0.375000 0.429083
vt 0.304083 0.750000
vt 0.304083 0.744041
vt 0.304083 0.509396
vt 0.304083 0.500000
vt 0.304083 0.725763
vt 0.304083 0.702624
vt 0.678823 0.702624
vt 0.656932 0.725763
vt 0.625000 0.781932
vt 0.375000 0.803823
vt 0.678823 0.744041
vt 0.656932 0.750000
vt 0.282055 0.725763
vt 0.282055 0.702624
vt 0.282055 0.509396
vt 0.282055 0.500000
vt 0.282055 0.750000
vt 0.282055 0.744041
vt 0.625000 0.407055
vt 0.375000 0.407055
vt 0.695917 0.702624
vt 0.678823 0.725763
vt 0.625000 0.803823
vt 0.375000 0.820917
vt 0.695917 0.744041
vt 0.678823 0.750000
vt 0.625000 0.391104
vt 0.375000 0.391104
vt 0.266104 0.750000
vt 0.266104 0.744041
vt 0.266104 0.509396
vt 0.266104 0.500000
vt 0.266104 0.725763
vt 0.266104 0.702624
vt 0.717945 0.702624
vt 0.695917 0.725763
vt 0.625000 0.820917
vt 0.375000 0.842945
vt 0.717945 0.744041
vt 0.695917 0.750000
vt 0.242424 0.725763
vt 0.242424 0.702624
vt 0.242424 0.509396
vt 0.242424 0.500000
vt 0.242424 0.750000
vt 0.242424 0.744041
vt 0.625000 0.367424
vt 0.375000 0.367424
vt 0.733896 0.702624
vt 0.717945 0.725763
vt 0.625000 0.842945
vt 0.375000 0.858896
vt 0.733896 0.744041
vt 0.717945 0.750000
vt 0.625000 0.259726
vt 0.134726 0.750000
vt 0.134726 0.744041
vt 0.134726 0.509396
vt 0.134726 0.725763
vt 0.134726 0.702624
vt 0.733896 0.725763
vt 0.625000 0.858896
vt 0.733896 0.750000
vt 0.242424 0.738768
vt 0.134726 0.738768
vt 0.733896 0.738768
vt 0.717945 0.738768
vt 0.266104 0.738768
vt 0.282055 0.738768
vt 0.695917 0.738768
vt 0.678823 0.738768
vt 0.304083 0.738768
vt 0.321177 0.738768
vt 0.343068 0.738768
vt 0.656932 0.738768
vt 0.625000 0.738768
vt 0.865273 0.738768
vt 0.757576 0.738768
vt 0.375000 0.738768
vt 0.375000 0.734902
vt 0.343068 0.734902
vt 0.865274 0.725763
vt 0.757576 0.734902
vt 0.625000 0.734902
vt 0.321177 0.734902
vt 0.304083 0.734902
vt 0.656932 0.734902
vt 0.282055 0.734902
vt 0.678823 0.734902
vt 0.266104 0.734902
vt 0.695917 0.734902
vt 0.242424 0.734902
vt 0.717945 0.734902
vt 0.134726 0.734902
vt 0.733896 0.734902
vt 0.865273 0.734902
vt 0.757576 0.606010
vt 0.733896 0.606010
vt 0.242424 0.606010
vt 0.134726 0.606010
vt 0.717945 0.606010
vt 0.266104 0.606010
vt 0.695917 0.606010
vt 0.282055 0.606010
vt 0.678823 0.606010
vt 0.304083 0.606010
vt 0.656932 0.606010
vt 0.321177 0.606010
vt 0.625000 0.606010
vt 0.343068 0.606010
vt 0.375000 0.606010
vt 0.865274 0.606010
vt 0.375000 0.143990
vt 0.865274 0.597959
vt 0.757576 0.597959
vt 0.375000 0.597959
vt 0.343068 0.597959
vt 0.625000 0.597959
vt 0.321177 0.597959
vt 0.656932 0.597959
vt 0.304083 0.597959
vt 0.678823 0.597959
vt 0.282055 0.597959
vt 0.695917 0.597959
vt 0.266104 0.597959
vt 0.717945 0.597959
vt 0.242424 0.597959
vt 0.733896 0.597959
vt 0.134726 0.597959
vt 0.625000 0.047376
vt 0.375000 0.047376
vt 0.757576 0.509396
vt 0.733896 0.509396
vt 0.717945 0.509396
vt 0.695917 0.509396
vt 0.678823 0.509396
vt 0.656932 0.509396
vt 0.625000 0.509396
vt 0.865274 0.509396
vt 0.625000 0.143990
vt 0.125000 0.702624
vt 0.125000 0.606010
vt 0.125000 0.597959
vt 0.865274 0.750000
vt 0.625000 0.990274
s 1
usemtl Material.015
f 8/1/1 1/2/1 7/3/1
f 21/4/2 5/5/2 24/6/2
f 69/7/3 3/8/3 72/9/3
f 72/9/4 22/10/4 74/11/4
f 5/5/4 26/12/4 24/13/4
f 6/14/3 9/15/3 5/5/3
f 153/16/1 7/3/1 155/17/1
f 11/18/4 7/19/4 1/20/4
f 70/21/5 62/22/5 84/23/5
f 62/24/6 13/25/6 66/26/6
f 2/27/2 11/28/2 1/2/2
f 121/29/5 68/30/5 134/31/5
f 118/32/4 28/33/4 123/34/4
f 120/35/3 18/36/3 118/32/3
f 123/34/4 32/37/4 125/38/4
f 124/39/5 17/40/5 120/35/5
f 4/41/6 22/42/6 3/8/6
f 73/43/5 4/41/5 69/7/5
f 24/13/4 31/44/4 29/45/4
f 74/11/4 34/46/4 75/47/4
f 33/48/2 24/6/2 29/49/2
f 41/50/2 29/49/2 37/51/2
f 75/47/4 42/52/4 77/53/4
f 29/45/4 39/54/4 37/55/4
f 125/38/4 40/56/4 127/57/4
f 126/58/5 27/59/5 124/39/5
f 25/60/6 34/61/6 22/42/6
f 76/62/5 25/63/5 73/43/5
f 127/57/4 48/64/4 129/65/4
f 37/55/4 47/66/4 45/67/4
f 77/53/4 50/68/4 79/69/4
f 49/70/2 37/51/2 45/71/2
f 128/72/5 36/73/5 126/58/5
f 30/74/6 42/75/6 34/61/6
f 78/76/5 30/77/5 76/62/5
f 57/78/2 45/71/2 53/79/2
f 79/69/4 58/80/4 81/81/4
f 45/67/4 55/82/4 53/83/4
f 129/65/4 56/84/4 131/85/4
f 130/86/5 44/87/5 128/72/5
f 38/88/6 50/89/6 42/75/6
f 80/90/5 38/91/5 78/76/5
f 131/85/4 64/92/4 133/93/4
f 53/83/4 63/94/4 61/95/4
f 81/81/4 66/96/4 83/97/4
f 65/98/2 53/79/2 61/99/2
f 132/100/5 52/101/5 130/86/5
f 46/102/6 58/103/6 50/89/6
f 82/104/5 46/105/5 80/90/5
f 12/106/2 61/99/2 11/28/2
f 83/97/4 13/107/4 71/108/4
f 61/95/4 16/109/4 11/18/4
f 133/93/4 20/110/4 122/111/4
f 134/31/5 60/112/5 132/100/5
f 54/113/6 66/26/6 58/103/6
f 84/23/5 54/114/5 82/104/5
f 114/115/4 71/108/4 103/116/4
f 113/117/5 80/90/5 111/118/5
f 112/119/4 83/97/4 114/115/4
f 110/120/4 81/81/4 112/119/4
f 109/121/5 76/62/5 107/122/5
f 108/123/4 79/69/4 110/120/4
f 106/124/4 77/53/4 108/123/4
f 105/125/4 75/47/4 106/124/4
f 104/126/5 69/7/5 101/127/5
f 102/128/5 84/23/5 115/129/5
f 116/130/4 74/11/4 105/125/4
f 101/127/3 72/9/3 116/130/3
f 17/40/3 85/131/3 18/36/3
f 18/36/4 90/132/4 28/33/4
f 19/133/5 100/134/5 68/30/5
f 27/59/5 86/135/5 17/40/5
f 28/33/4 91/136/4 32/37/4
f 32/37/4 93/137/4 40/56/4
f 36/73/5 89/138/5 27/59/5
f 40/56/4 95/139/4 48/64/4
f 44/87/5 92/140/5 36/73/5
f 48/64/4 97/141/4 56/84/4
f 52/101/5 94/142/5 44/87/5
f 56/84/4 99/143/4 64/92/4
f 60/112/5 96/144/5 52/101/5
f 64/92/4 88/145/4 20/110/4
f 68/30/5 98/146/5 60/112/5
f 86/135/3 116/130/3 85/131/3
f 85/131/4 105/125/4 90/132/4
f 87/147/5 115/129/5 100/134/5
f 89/138/5 101/127/5 86/135/5
f 90/132/4 106/124/4 91/136/4
f 91/136/4 108/123/4 93/137/4
f 92/140/5 104/126/5 89/138/5
f 93/137/4 110/120/4 95/139/4
f 94/142/5 107/122/5 92/140/5
f 95/139/4 112/119/4 97/141/4
f 96/144/5 109/121/5 94/142/5
f 97/141/4 114/115/4 99/143/4
f 98/146/5 111/118/5 96/144/5
f 99/143/4 103/116/4 88/145/4
f 100/134/5 113/117/5 98/146/5
f 152/148/5 132/100/5 150/149/5
f 151/150/4 122/111/4 140/151/4
f 150/149/5 130/86/5 148/152/5
f 149/153/4 133/93/4 151/150/4
f 148/152/5 128/72/5 146/154/5
f 147/155/4 131/85/4 149/153/4
f 146/154/5 126/58/5 144/156/5
f 145/157/4 129/65/4 147/155/4
f 144/156/5 124/39/5 142/158/5
f 143/159/4 127/57/4 145/157/4
f 142/158/5 120/35/5 138/160/5
f 141/161/4 125/38/4 143/159/4
f 138/160/3 118/32/3 136/162/3
f 136/162/4 123/34/4 141/161/4
f 139/163/5 134/31/5 152/148/5
f 155/17/3 173/164/3 137/164/3
f 7/3/3 177/17/3 155/17/3
f 157/165/5 152/148/5 170/166/5
f 154/167/4 141/161/4 159/168/4
f 156/169/3 136/162/3 154/167/3
f 159/168/4 143/159/4 161/170/4
f 160/171/5 138/160/5 156/169/5
f 161/170/4 145/157/4 163/172/4
f 162/173/5 142/158/5 160/171/5
f 163/172/4 147/155/4 165/174/4
f 164/175/5 144/156/5 162/173/5
f 165/174/4 149/153/4 167/176/4
f 166/177/5 146/154/5 164/175/5
f 167/176/4 151/150/4 169/178/4
f 168/179/5 148/152/5 166/177/5
f 169/178/4 140/151/4 158/180/4
f 170/166/5 150/149/5 168/179/5
f 117/181/1 137/164/1 119/182/1
f 67/183/5 168/179/5 59/184/5
f 63/94/4 158/180/4 16/109/4
f 59/184/5 166/177/5 51/185/5
f 55/82/4 169/178/4 63/94/4
f 51/185/5 164/175/5 43/186/5
f 47/66/4 167/176/4 55/82/4
f 43/186/5 162/173/5 35/187/5
f 39/54/4 165/174/4 47/66/4
f 35/187/5 160/171/5 23/188/5
f 31/44/4 163/172/4 39/54/4
f 23/188/5 156/169/5 10/189/5
f 26/12/4 161/170/4 31/44/4
f 10/189/3 154/167/3 9/15/3
f 9/15/4 159/168/4 26/12/4
f 15/190/5 170/166/5 67/183/5
f 122/111/1 175/151/1 140/151/1
f 135/191/1 155/17/1 137/164/1
f 175/151/4 174/192/4 173/193/4
f 171/109/4 177/194/4 172/19/4
f 158/180/1 171/109/1 16/109/1
f 140/151/1 178/180/1 158/180/1
f 137/164/3 174/182/3 119/182/3
f 16/109/6 172/19/6 7/19/6
f 119/192/2 176/111/2 122/111/2
f 8/1/1 2/27/1 1/2/1
f 21/4/2 6/14/2 5/5/2
f 69/7/3 4/41/3 3/8/3
f 72/9/4 3/8/4 22/10/4
f 5/5/4 9/15/4 26/12/4
f 6/14/3 10/189/3 9/15/3
f 153/16/1 8/1/1 7/3/1
f 11/18/4 16/109/4 7/19/4
f 70/21/5 14/195/5 62/22/5
f 62/24/6 14/196/6 13/25/6
f 2/27/2 12/106/2 11/28/2
f 121/29/5 19/133/5 68/30/5
f 118/32/4 18/36/4 28/33/4
f 120/35/3 17/40/3 18/36/3
f 123/34/4 28/33/4 32/37/4
f 124/39/5 27/59/5 17/40/5
f 4/41/6 25/60/6 22/42/6
f 73/43/5 25/63/5 4/41/5
f 24/13/4 26/12/4 31/44/4
f 74/11/4 22/10/4 34/46/4
f 33/48/2 21/4/2 24/6/2
f 41/50/2 33/48/2 29/49/2
f 75/47/4 34/46/4 42/52/4
f 29/45/4 31/44/4 39/54/4
f 125/38/4 32/37/4 40/56/4
f 126/58/5 36/73/5 27/59/5
f 25/60/6 30/74/6 34/61/6
f 76/62/5 30/77/5 25/63/5
f 127/57/4 40/56/4 48/64/4
f 37/55/4 39/54/4 47/66/4
f 77/53/4 42/52/4 50/68/4
f 49/70/2 41/50/2 37/51/2
f 128/72/5 44/87/5 36/73/5
f 30/74/6 38/88/6 42/75/6
f 78/76/5 38/91/5 30/77/5
f 57/78/2 49/70/2 45/71/2
f 79/69/4 50/68/4 58/80/4
f 45/67/4 47/66/4 55/82/4
f 129/65/4 48/64/4 56/84/4
f 130/86/5 52/101/5 44/87/5
f 38/88/6 46/102/6 50/89/6
f 80/90/5 46/105/5 38/91/5
f 131/85/4 56/84/4 64/92/4
f 53/83/4 55/82/4 63/94/4
f 81/81/4 58/80/4 66/96/4
f 65/98/2 57/78/2 53/79/2
f 132/100/5 60/112/5 52/101/5
f 46/102/6 54/113/6 58/103/6
f 82/104/5 54/114/5 46/105/5
f 12/106/2 65/98/2 61/99/2
f 83/97/4 66/96/4 13/107/4
f 61/95/4 63/94/4 16/109/4
f 133/93/4 64/92/4 20/110/4
f 134/31/5 68/30/5 60/112/5
f 54/113/6 62/24/6 66/26/6
f 84/23/5 62/22/5 54/114/5
f 114/115/4 83/97/4 71/108/4
f 113/117/5 82/104/5 80/90/5
f 112/119/4 81/81/4 83/97/4
f 110/120/4 79/69/4 81/81/4
f 109/121/5 78/76/5 76/62/5
f 108/123/4 77/53/4 79/69/4
f 106/124/4 75/47/4 77/53/4
f 105/125/4 74/11/4 75/47/4
f 104/126/5 73/43/5 69/7/5
f 102/128/5 70/21/5 84/23/5
f 116/130/4 72/9/4 74/11/4
f 101/127/3 69/7/3 72/9/3
f 17/40/3 86/135/3 85/131/3
f 18/36/4 85/131/4 90/132/4
f 19/133/5 87/147/5 100/134/5
f 27/59/5 89/138/5 86/135/5
f 28/33/4 90/132/4 91/136/4
f 32/37/4 91/136/4 93/137/4
f 36/73/5 92/140/5 89/138/5
f 40/56/4 93/137/4 95/139/4
f 44/87/5 94/142/5 92/140/5
f 48/64/4 95/139/4 97/141/4
f 52/101/5 96/144/5 94/142/5
f 56/84/4 97/141/4 99/143/4
f 60/112/5 98/146/5 96/144/5
f 64/92/4 99/143/4 88/145/4
f 68/30/5 100/134/5 98/146/5
f 86/135/3 101/127/3 116/130/3
f 85/131/4 116/130/4 105/125/4
f 87/147/5 102/128/5 115/129/5
f 89/138/5 104/126/5 101/127/5
f 90/132/4 105/125/4 106/124/4
f 91/136/4 106/124/4 108/123/4
f 92/140/5 107/122/5 104/126/5
f 93/137/4 108/123/4 110/120/4
f 94/142/5 109/121/5 107/122/5
f 95/139/4 110/120/4 112/119/4
f 96/144/5 111/118/5 109/121/5
f 97/141/4 112/119/4 114/115/4
f 98/146/5 113/117/5 111/118/5
f 99/143/4 114/115/4 103/116/4
f 100/134/5 115/129/5 113/117/5
f 152/148/5 134/31/5 132/100/5
f 151/150/4 133/93/4 122/111/4
f 150/149/5 132/100/5 130/86/5
f 149/153/4 131/85/4 133/93/4
f 148/152/5 130/86/5 128/72/5
f 147/155/4 129/65/4 131/85/4
f 146/154/5 128/72/5 126/58/5
f 145/157/4 127/57/4 129/65/4
f 144/156/5 126/58/5 124/39/5
f 143/159/4 125/38/4 127/57/4
f 142/158/5 124/39/5 120/35/5
f 141/161/4 123/34/4 125/38/4
f 138/160/3 120/35/3 118/32/3
f 136/162/4 118/32/4 123/34/4
f 139/163/5 121/29/5 134/31/5
f 155/17/3 177/17/3 173/164/3
f 7/3/3 172/3/3 177/17/3
f 157/165/5 139/163/5 152/148/5
f 154/167/4 136/162/4 141/161/4
f 156/169/3 138/160/3 136/162/3
f 159/168/4 141/161/4 143/159/4
f 160/171/5 142/158/5 138/160/5
f 161/170/4 143/159/4 145/157/4
f 162/173/5 144/156/5 142/158/5
f 163/172/4 145/157/4 147/155/4
f 164/175/5 146/154/5 144/156/5
f 165/174/4 147/155/4 149/153/4
f 166/177/5 148/152/5 146/154/5
f 167/176/4 149/153/4 151/150/4
f 168/179/5 150/149/5 148/152/5
f 169/178/4 151/150/4 140/151/4
f 170/166/5 152/148/5 150/149/5
f 117/181/1 135/191/1 137/164/1
f 67/183/5 170/166/5 168/179/5
f 63/94/4 169/178/4 158/180/4
f 59/184/5 168/179/5 166/177/5
f 55/82/4 167/176/4 169/178/4
f 51/185/5 166/177/5 164/175/5
f 47/66/4 165/174/4 167/176/4
f 43/186/5 164/175/5 162/173/5
f 39/54/4 163/172/4 165/174/4
f 35/187/5 162/173/5 160/171/5
f 31/44/4 161/170/4 163/172/4
f 23/188/5 160/171/5 156/169/5
f 26/12/4 159/168/4 161/170/4
f 10/189/3 156/169/3 154/167/3
f 9/15/4 154/167/4 159/168/4
f 15/190/5 157/165/5 170/166/5
f 122/111/1 176/111/1 175/151/1
f 135/191/1 153/16/1 155/17/1
f 175/151/4 176/111/4 174/192/4
f 171/109/4 178/180/4 177/194/4
f 158/180/1 178/180/1 171/109/1
f 140/151/1 175/151/1 178/180/1
f 137/164/3 173/164/3 174/182/3
f 16/109/6 171/109/6 172/19/6
f 119/192/2 174/192/2 176/111/2
