# Blender 5.0.1
# www.blender.org
mtllib MostradorS5.mtl
o MostradorS5
v -1.170938 5.250219 5.741565
v -1.163280 5.991465 5.741565
v -1.145969 5.249961 5.744678
v -1.138311 5.991207 5.744678
v -1.121959 5.249713 5.753901
v -1.114301 5.990957 5.753901
v -1.099831 5.249485 5.768879
v -1.092173 5.990728 5.768879
v -1.080436 5.249284 5.789038
v -1.072778 5.990530 5.789038
v -1.064519 5.249122 5.813599
v -1.056861 5.990365 5.813599
v -1.052692 5.249000 5.841619
v -1.045034 5.990242 5.841619
v -1.045408 5.248922 5.872025
v -1.037750 5.990168 5.872025
v -1.042949 5.248899 5.903646
v -1.035291 5.990140 5.903646
v -1.045408 5.248922 5.935266
v -1.037750 5.990168 5.935266
v -1.052692 5.249000 5.965672
v -1.045034 5.990242 5.965672
v -1.064519 5.249122 5.993693
v -1.056861 5.990365 5.993693
v -1.080436 5.249284 6.018256
v -1.072778 5.990530 6.018256
v -1.099831 5.249485 6.038413
v -1.092173 5.990728 6.038413
v -1.121959 5.249713 6.053391
v -1.114301 5.990957 6.053391
v -1.145969 5.249961 6.062613
v -1.138311 5.991207 6.062613
v -1.170938 5.250219 6.065729
v -1.163280 5.991465 6.065729
v -1.195907 5.250477 6.062613
v -1.188249 5.991723 6.062613
v -1.219917 5.250725 6.053391
v -1.212259 5.991971 6.053391
v -1.242045 5.250956 6.038413
v -1.234387 5.992198 6.038413
v -1.261440 5.251154 6.018256
v -1.253782 5.992398 6.018256
v -1.277357 5.251319 5.993693
v -1.269699 5.992562 5.993693
v -1.289184 5.251441 5.965672
v -1.281526 5.992684 5.965672
v -1.296468 5.251516 5.935266
v -1.288810 5.992762 5.935266
v -1.298927 5.251544 5.903646
v -1.291269 5.992785 5.903646
v -1.296468 5.251516 5.872025
v -1.288810 5.992762 5.872025
v -1.289184 5.251441 5.841619
v -1.281526 5.992684 5.841619
v -1.277357 5.251319 5.813599
v -1.269699 5.992562 5.813599
v -1.261440 5.251154 5.789038
v -1.253782 5.992398 5.789038
v -1.242045 5.250956 5.768879
v -1.234387 5.992198 5.768879
v -1.219917 5.250725 5.753901
v -1.212259 5.991971 5.753901
v -1.195907 5.250477 5.744678
v -1.188249 5.991723 5.744678
v -6.527971 0.468194 7.840319
v -6.527971 0.857525 7.840319
v -6.527971 0.468192 5.460878
v -6.527971 0.857523 5.460878
v -1.669374 0.468194 7.840319
v -1.669374 0.857525 7.840319
v -1.669374 0.468192 5.460878
v -1.669374 0.857523 5.460878
v -7.145886 0.729331 8.007450
v -7.145886 0.729329 5.293747
v -1.051459 0.729331 8.007450
v -1.051459 0.729329 5.293747
v -6.093456 2.916148 7.591228
v -7.145885 0.770644 8.007450
v -6.667547 2.731400 5.675044
v -7.145885 0.770642 5.293747
v -1.529687 2.731400 7.626153
v -1.051457 0.770644 8.007450
v -1.529687 2.731400 5.675044
v -1.051457 0.770642 5.293747
v -7.055400 5.069604 7.845046
v -7.490940 5.447334 5.053596
v -0.895132 5.981418 5.464518
v -0.152240 5.725554 7.921559
v -4.506005 0.782296 5.293747
v -4.506005 0.782298 8.007450
v -4.442016 2.784366 5.675044
v -4.506004 0.823609 5.293747
v -4.442016 2.784366 7.626153
v -4.506004 0.823611 8.007450
v -4.426585 4.601573 5.520227
v -4.526839 4.597274 7.836679
v -7.217649 5.973587 7.708840
v -7.217649 6.010831 7.708840
v -7.217649 5.973587 5.405815
v -7.217649 6.010831 5.405815
v -0.952449 5.973587 7.708840
v -0.952449 6.010831 7.708840
v -0.952449 5.973587 5.405815
v -0.952449 6.010831 5.405815
v -6.894406 4.554723 5.741565
v -6.879679 5.980228 5.741565
v -6.869436 4.554465 5.744678
v -6.854708 5.979970 5.744678
v -6.845425 4.554217 5.753901
v -6.830697 5.979722 5.753901
v -6.823296 4.553988 5.768879
v -6.808568 5.979496 5.768879
v -6.803900 4.553790 5.789038
v -6.789173 5.979293 5.789038
v -6.787982 4.553625 5.813599
v -6.773255 5.979129 5.813599
v -6.776154 4.553503 5.841619
v -6.761426 5.979007 5.841619
v -6.768870 4.553426 5.872025
v -6.754143 5.978931 5.872025
v -6.766411 4.553401 5.903646
v -6.751684 5.978908 5.903646
v -6.768870 4.553426 5.935266
v -6.754143 5.978931 5.935266
v -6.776154 4.553503 5.965672
v -6.761426 5.979007 5.965672
v -6.787982 4.553625 5.993693
v -6.773255 5.979129 5.993693
v -6.803900 4.553790 6.018256
v -6.789173 5.979293 6.018256
v -6.823296 4.553988 6.038413
v -6.808568 5.979496 6.038413
v -6.845425 4.554217 6.053391
v -6.830697 5.979722 6.053391
v -6.869436 4.554465 6.062613
v -6.854708 5.979970 6.062613
v -6.894406 4.554723 6.065729
v -6.879679 5.980228 6.065729
v -6.919377 4.554983 6.062613
v -6.904649 5.980486 6.062613
v -6.943388 4.555231 6.053391
v -6.928660 5.980734 6.053391
v -6.965517 4.555459 6.038413
v -6.950789 5.980965 6.038413
v -6.984912 4.555658 6.018256
v -6.970185 5.981164 6.018256
v -7.000830 4.555822 5.993693
v -6.986103 5.981328 5.993693
v -7.012659 4.555944 5.965672
v -6.997931 5.981452 5.965672
v -7.019942 4.556020 5.935266
v -7.005215 5.981525 5.935266
v -7.022401 4.556046 5.903646
v -7.007674 5.981553 5.903646
v -7.019942 4.556020 5.872025
v -7.005215 5.981525 5.872025
v -7.012659 4.555944 5.841619
v -6.997931 5.981452 5.841619
v -7.000830 4.555822 5.813599
v -6.986103 5.981328 5.813599
v -6.984912 4.555658 5.789038
v -6.970185 5.981164 5.789038
v -6.965517 4.555459 5.768879
v -6.950789 5.980965 5.768879
v -6.943388 4.555231 5.753901
v -6.928660 5.980734 5.753901
v -6.919377 4.554983 5.744678
v -6.904649 5.980486 5.744678
v -6.894406 4.560071 7.241303
v -6.879679 5.985577 7.241303
v -6.869436 4.559813 7.244420
v -6.854708 5.985319 7.244420
v -6.845425 4.559565 7.253643
v -6.830697 5.985069 7.253643
v -6.823296 4.559334 7.268620
v -6.808568 5.984840 7.268620
v -6.803900 4.559134 7.288776
v -6.789173 5.984642 7.288776
v -6.787982 4.558969 7.313339
v -6.773255 5.984477 7.313339
v -6.776154 4.558847 7.341361
v -6.761426 5.984354 7.341361
v -6.768870 4.558774 7.371767
v -6.754143 5.984280 7.371767
v -6.766411 4.558747 7.403387
v -6.751684 5.984252 7.403387
v -6.768870 4.558774 7.435008
v -6.754143 5.984280 7.435008
v -6.776154 4.558847 7.465413
v -6.761426 5.984354 7.465413
v -6.787982 4.558969 7.493433
v -6.773255 5.984477 7.493433
v -6.803900 4.559134 7.517994
v -6.789173 5.984642 7.517994
v -6.823296 4.559334 7.538153
v -6.808568 5.984840 7.538153
v -6.845425 4.559565 7.553131
v -6.830697 5.985069 7.553131
v -6.869436 4.559813 7.562355
v -6.854708 5.985319 7.562355
v -6.894406 4.560071 7.565467
v -6.879679 5.985577 7.565467
v -6.919377 4.560328 7.562355
v -6.904649 5.985835 7.562355
v -6.943388 4.560575 7.553131
v -6.928660 5.986083 7.553131
v -6.965517 4.560804 7.538153
v -6.950789 5.986310 7.538153
v -6.984912 4.561006 7.517994
v -6.970185 5.986510 7.517994
v -7.000830 4.561171 7.493433
v -6.986103 5.986674 7.493433
v -7.012659 4.561293 7.465413
v -6.997931 5.986796 7.465413
v -7.019942 4.561368 7.435008
v -7.005215 5.986874 7.435008
v -7.022401 4.561391 7.403387
v -7.007674 5.986897 7.403387
v -7.019942 4.561368 7.371767
v -7.005215 5.986874 7.371767
v -7.012659 4.561293 7.341361
v -6.997931 5.986796 7.341361
v -7.000830 4.561171 7.313339
v -6.986103 5.986674 7.313339
v -6.984912 4.561006 7.288776
v -6.970185 5.986510 7.288776
v -6.965517 4.560804 7.268620
v -6.950789 5.986310 7.268620
v -6.943388 4.560575 7.253643
v -6.928660 5.986083 7.253643
v -6.919377 4.560328 7.244420
v -6.904649 5.985835 7.244420
v -1.250696 4.563202 7.241303
v -1.235968 5.988708 7.241303
v -1.225725 4.562944 7.244420
v -1.210998 5.988451 7.244420
v -1.201714 4.562696 7.253643
v -1.186987 5.988204 7.253643
v -1.179585 4.562469 7.268620
v -1.164858 5.987975 7.268620
v -1.160189 4.562267 7.288776
v -1.145462 5.987773 7.288776
v -1.144271 4.562103 7.313339
v -1.129544 5.987608 7.313339
v -1.132443 4.561983 7.341361
v -1.117716 5.987486 7.341361
v -1.125160 4.561905 7.371767
v -1.110432 5.987411 7.371767
v -1.122700 4.561882 7.403387
v -1.107973 5.987388 7.403387
v -1.125160 4.561905 7.435008
v -1.110432 5.987411 7.435008
v -1.132443 4.561983 7.465413
v -1.117716 5.987486 7.465413
v -1.144271 4.562103 7.493433
v -1.129544 5.987608 7.493433
v -1.160189 4.562267 7.517994
v -1.145462 5.987773 7.517994
v -1.179585 4.562469 7.538153
v -1.164858 5.987975 7.538153
v -1.201714 4.562696 7.553131
v -1.186987 5.988204 7.553131
v -1.225725 4.562944 7.562355
v -1.210998 5.988451 7.562355
v -1.250696 4.563202 7.565467
v -1.235968 5.988708 7.565467
v -1.275666 4.563460 7.562355
v -1.260939 5.988966 7.562355
v -1.299677 4.563708 7.553131
v -1.284950 5.989214 7.553131
v -1.321806 4.563939 7.538153
v -1.307079 5.989443 7.538153
v -1.341202 4.564137 7.517994
v -1.326475 5.989645 7.517994
v -1.357120 4.564302 7.493433
v -1.342392 5.989810 7.493433
v -1.368948 4.564425 7.465413
v -1.354220 5.989932 7.465413
v -1.376231 4.564499 7.435008
v -1.361504 5.990005 7.435008
v -1.378691 4.564527 7.403387
v -1.363963 5.990030 7.403387
v -1.376231 4.564499 7.371767
v -1.361504 5.990005 7.371767
v -1.368948 4.564425 7.341361
v -1.354220 5.989932 7.341361
v -1.357120 4.564302 7.313339
v -1.342392 5.989810 7.313339
v -1.341202 4.564137 7.288776
v -1.326475 5.989645 7.288776
v -1.321806 4.563939 7.268620
v -1.307079 5.989443 7.268620
v -1.299677 4.563708 7.253643
v -1.284950 5.989214 7.253643
v -1.275666 4.563460 7.244420
v -1.260939 5.988966 7.244420
vn 0.1237 -0.0013 -0.9923
vn 0.3586 -0.0037 -0.9335
vn 0.5605 -0.0058 -0.8282
vn 0.5605 -0.0058 -0.8281
vn 0.7205 -0.0074 -0.6934
vn 0.7206 -0.0074 -0.6933
vn 0.8391 -0.0087 -0.5439
vn 0.9212 -0.0095 -0.3889
vn 0.9724 -0.0100 -0.2330
vn 0.9969 -0.0103 -0.0775
vn 0.9969 -0.0103 0.0775
vn 0.9724 -0.0100 0.2330
vn 0.9212 -0.0095 0.3889
vn 0.8391 -0.0087 0.5438
vn 0.7205 -0.0074 0.6934
vn 0.5605 -0.0058 0.8282
vn 0.5605 -0.0058 0.8281
vn 0.3585 -0.0037 0.9335
vn 0.1238 -0.0013 0.9923
vn -0.1238 0.0013 0.9923
vn -0.3585 0.0037 0.9335
vn -0.5605 0.0058 0.8281
vn -0.5605 0.0058 0.8282
vn -0.7205 0.0074 0.6934
vn -0.8391 0.0087 0.5438
vn -0.9212 0.0095 0.3889
vn -0.9724 0.0100 0.2330
vn -0.9969 0.0103 0.0775
vn -0.9969 0.0103 -0.0775
vn -0.9724 0.0100 -0.2330
vn -0.9212 0.0095 -0.3889
vn -0.8391 0.0087 -0.5439
vn -0.7206 0.0074 -0.6933
vn -0.7206 0.0074 -0.6934
vn -0.5605 0.0058 -0.8282
vn -0.5605 0.0058 -0.8281
vn 0.0103 0.9999 -0.0000
vn -0.3586 0.0037 -0.9335
vn -0.1237 0.0013 -0.9923
vn -0.0103 -0.9999 -0.0000
vn -0.0104 -0.9999 -0.0000
vn 0.0103 0.9999 -0.0002
vn 0.0103 0.9999 0.0001
vn 0.0103 0.9999 0.0003
vn 0.0107 0.9999 -0.0000
vn 0.0104 0.9999 -0.0000
vn 0.0106 0.9999 -0.0000
vn 0.0103 0.9999 -0.0001
vn 0.0103 0.9999 -0.0003
vn 0.0105 0.9999 0.0002
vn 0.0104 0.9999 -0.0001
vn 0.0104 0.9999 0.0001
vn 0.0105 0.9999 -0.0002
vn -0.0103 -0.9999 0.0002
vn -0.0104 -0.9999 0.0001
vn -0.0106 -0.9999 0.0004
vn -0.0102 -0.9999 -0.0000
vn -0.0099 -1.0000 -0.0001
vn -0.0099 -1.0000 0.0001
vn -0.0105 -0.9999 -0.0005
vn -0.0103 -0.9999 -0.0001
vn -0.0104 -0.9999 -0.0002
vn -0.0103 -0.9999 -0.0002
vn -0.0100 -0.9999 -0.0001
vn -0.0107 -0.9999 -0.0000
vn -0.0100 -0.9999 0.0001
vn -0.0104 -0.9999 -0.0001
vn -0.0102 -0.9999 0.0004
vn -1.0000 -0.0000 -0.0000
vn -0.0000 -0.0000 -1.0000
vn 1.0000 -0.0000 -0.0000
vn -0.0000 -0.0000 1.0000
vn -0.0000 -1.0000 -0.0000
vn -0.0000 1.0000 -0.0000
vn 0.0611 -0.1549 -0.9860
vn 0.0516 -0.1436 -0.9883
vn 0.0020 -0.0849 -0.9964
vn -0.0153 -0.9999 -0.0000
vn -0.9326 0.3467 0.1002
vn -0.9288 0.3546 0.1076
vn -0.8602 0.4633 0.2131
vn 0.0031 0.1913 -0.9815
vn -0.0006 0.1912 -0.9815
vn -0.0004 0.1909 -0.9816
vn 0.9715 0.2370 -0.0000
vn -0.0046 0.1917 0.9814
vn -0.0007 0.1914 0.9815
vn -0.0011 0.1909 0.9816
vn 0.2193 0.9743 0.0518
vn 0.2244 0.9728 0.0579
vn 0.1836 0.9829 0.0098
vn 0.9538 -0.2716 -0.1284
vn 0.9270 -0.3157 -0.2025
vn 0.8765 -0.3733 -0.3039
vn -0.9195 -0.3383 0.2002
vn -0.9250 -0.3293 0.1895
vn -0.9577 -0.2643 0.1137
vn 0.0044 -0.1052 0.9944
vn 0.0020 -0.1090 0.9940
vn -0.0021 -0.1154 0.9933
vn -0.0246 -0.1219 0.9922
vn -0.0247 -0.1219 0.9922
vn -0.0202 -0.1259 0.9918
vn -0.2846 0.9512 0.1193
vn -0.3234 0.9446 0.0561
vn -0.2491 0.9526 0.1745
vn 0.0031 0.1913 0.9815
vn 0.0029 0.1916 0.9815
vn -0.0041 0.1915 -0.9815
vn -0.0038 0.1918 -0.9814
vn 0.0201 -0.9998 -0.0000
vn 0.0065 -0.0725 -0.9974
vn 0.0042 -0.0760 -0.9971
vn 0.0103 -0.0666 -0.9977
vn 0.0950 -0.1946 -0.9763
vn -0.9715 0.2370 -0.0000
vn 0.0029 0.1916 -0.9815
vn -0.0039 0.1923 0.9813
vn 0.2520 0.9634 0.0910
vn 0.9815 -0.1916 -0.0000
vn -0.8582 -0.4184 0.2975
vn 0.0068 -0.1013 0.9948
vn -0.0303 -0.1167 0.9927
vn -0.3641 0.9313 -0.0140
vn -0.0015 -0.0849 -0.9964
vn 0.3585 -0.0037 -0.9335
vn 0.9724 -0.0100 -0.2329
vn 0.9724 -0.0100 0.2329
vn 0.8391 -0.0087 0.5439
vn 0.1239 -0.0013 0.9923
vn -0.8391 0.0087 0.5439
vn -0.9724 0.0100 0.2329
vn -0.9724 0.0100 -0.2329
vn -0.3585 0.0037 -0.9335
vn 0.0103 0.9999 0.0002
vn 0.0106 0.9999 0.0002
vn 0.0102 0.9999 -0.0000
vn 0.0106 0.9999 -0.0002
vn 0.0099 1.0000 -0.0006
vn 0.0108 0.9999 0.0001
vn 0.0108 0.9999 -0.0001
vn 0.0101 0.9999 0.0003
vn -0.0100 -0.9999 -0.0000
vn -0.0101 -0.9999 -0.0000
vn -0.0101 -0.9999 0.0001
vn -0.0105 -0.9999 -0.0001
vn -0.0102 -0.9999 -0.0001
vn 0.1238 -0.0013 -0.9923
vn 0.5604 -0.0058 -0.8282
vn 0.8391 -0.0087 -0.5438
vn 0.7206 -0.0074 0.6934
vn 0.5604 -0.0058 0.8282
vn 0.3586 -0.0037 0.9335
vn 0.1237 -0.0013 0.9923
vn -0.1237 0.0013 0.9923
vn -0.3586 0.0037 0.9335
vn -0.5604 0.0058 0.8282
vn -0.7206 0.0074 0.6933
vn -0.7206 0.0074 0.6934
vn -0.7205 0.0074 -0.6934
vn -0.5604 0.0058 -0.8282
vn -0.1238 0.0013 -0.9923
vn -0.1239 0.0013 -0.9923
vn 0.0105 0.9999 0.0003
vn 0.0102 0.9999 -0.0001
vn 0.0099 1.0000 0.0001
vn 0.0105 0.9999 -0.0000
vn 0.0105 0.9999 -0.0004
vn -0.0102 -0.9999 0.0003
vn -0.0102 -0.9999 -0.0003
vn -0.0102 -0.9999 0.0001
vn -0.0105 -0.9999 0.0002
vn -0.0105 -0.9999 -0.0002
vn -0.0102 -0.9999 -0.0002
vn -0.0103 -0.9999 0.0001
vn -0.0102 -0.9999 0.0002
vn 0.9969 -0.0103 -0.0776
vn 0.9969 -0.0103 0.0776
vn -0.9969 0.0103 0.0776
vn -0.9969 0.0103 -0.0776
vn -0.8392 0.0087 -0.5438
vn 0.0101 0.9999 -0.0000
vn 0.0104 0.9999 0.0002
vn 0.0105 0.9999 -0.0005
vn -0.0104 -0.9999 0.0003
vn -0.0107 -0.9999 0.0002
vn -0.0097 -1.0000 -0.0001
vn -0.0097 -1.0000 0.0001
vn -0.0107 -0.9999 -0.0002
vn -0.0104 -0.9999 -0.0003
vn -0.0107 -0.9999 0.0001
vn -0.0107 -0.9999 -0.0001
vt 1.000000 1.000000
vt 0.968750 0.500000
vt 1.000000 0.500000
vt 0.968750 1.000000
vt 0.937500 0.500000
vt 0.937500 1.000000
vt 0.906250 0.500000
vt 0.875000 1.000000
vt 0.875000 0.500000
vt 0.843750 0.500000
vt 0.843750 1.000000
vt 0.812500 0.500000
vt 0.781250 1.000000
vt 0.781250 0.500000
vt 0.750000 1.000000
vt 0.750000 0.500000
vt 0.718750 0.500000
vt 0.718750 1.000000
vt 0.687500 0.500000
vt 0.687500 1.000000
vt 0.656250 0.500000
vt 0.625000 1.000000
vt 0.625000 0.500000
vt 0.593750 0.500000
vt 0.593750 1.000000
vt 0.562500 0.500000
vt 0.531250 1.000000
vt 0.531250 0.500000
vt 0.500000 0.500000
vt 0.500000 1.000000
vt 0.468750 0.500000
vt 0.437500 1.000000
vt 0.437500 0.500000
vt 0.406250 0.500000
vt 0.375000 1.000000
vt 0.375000 0.500000
vt 0.343750 1.000000
vt 0.343750 0.500000
vt 0.312500 1.000000
vt 0.312500 0.500000
vt 0.281250 0.500000
vt 0.281250 1.000000
vt 0.250000 0.500000
vt 0.250000 1.000000
vt 0.218750 0.500000
vt 0.187500 1.000000
vt 0.187500 0.500000
vt 0.156250 0.500000
vt 0.156250 1.000000
vt 0.125000 0.500000
vt 0.125000 1.000000
vt 0.093750 0.500000
vt 0.062500 1.000000
vt 0.062500 0.500000
vt 0.158156 0.028269
vt 0.471731 0.158156
vt 0.341844 0.471731
vt 0.031250 0.500000
vt 0.000000 1.000000
vt 0.000000 0.500000
vt 0.796822 0.014612
vt 0.514612 0.203178
vt 0.703178 0.485388
vt 0.906250 1.000000
vt 0.812500 1.000000
vt 0.656250 1.000000
vt 0.562500 1.000000
vt 0.468750 1.000000
vt 0.406250 1.000000
vt 0.218750 1.000000
vt 0.093750 1.000000
vt 0.296822 0.485388
vt 0.250000 0.490000
vt 0.203178 0.485388
vt 0.158156 0.471731
vt 0.116663 0.449553
vt 0.080294 0.419706
vt 0.050447 0.383337
vt 0.028269 0.341844
vt 0.014612 0.296822
vt 0.010000 0.250000
vt 0.014612 0.203178
vt 0.028269 0.158156
vt 0.050447 0.116663
vt 0.080294 0.080294
vt 0.116663 0.050447
vt 0.203178 0.014612
vt 0.250000 0.010000
vt 0.296822 0.014612
vt 0.341844 0.028269
vt 0.383337 0.050447
vt 0.419706 0.080294
vt 0.449553 0.116663
vt 0.485388 0.203178
vt 0.490000 0.250000
vt 0.485388 0.296822
vt 0.471731 0.341844
vt 0.449553 0.383337
vt 0.419706 0.419706
vt 0.383337 0.449553
vt 0.031250 1.000000
vt 0.750000 0.490000
vt 0.796822 0.485388
vt 0.841844 0.471731
vt 0.883337 0.449553
vt 0.919706 0.419706
vt 0.949553 0.383337
vt 0.971731 0.341844
vt 0.985388 0.296822
vt 0.990000 0.250000
vt 0.985388 0.203178
vt 0.971731 0.158156
vt 0.949553 0.116663
vt 0.919706 0.080294
vt 0.883337 0.050447
vt 0.841844 0.028269
vt 0.750000 0.010000
vt 0.703178 0.014612
vt 0.658156 0.028269
vt 0.616663 0.050447
vt 0.580294 0.080294
vt 0.550447 0.116663
vt 0.528269 0.158156
vt 0.510000 0.250000
vt 0.514612 0.296822
vt 0.528269 0.341844
vt 0.550447 0.383337
vt 0.580294 0.419706
vt 0.616663 0.449553
vt 0.658156 0.471731
vt 0.625000 0.000000
vt 0.375000 0.250000
vt 0.375000 0.000000
vt 0.625000 0.250000
vt 0.375000 0.750000
vt 0.625000 0.750000
vt 0.125000 0.750000
vt 0.875000 0.750000
vt 0.855380 0.535127
vt 0.764087 0.535127
vt 0.764086 0.535127
vt 0.380159 0.500000
vt 0.380159 0.000000
vt 0.233291 0.750000
vt 0.233291 0.500000
vt 0.375000 0.358291
vt 0.855380 0.714873
vt 0.644620 0.535127
vt 0.766710 0.500000
vt 0.380159 0.750000
vt 0.766710 0.750000
vt 0.764087 0.714873
vt 0.375000 0.891709
vt 0.380159 1.000000
vt 0.764086 0.714873
vt 0.644620 0.714873
vt 0.625002 0.750000
vt 0.380159 0.250000
vt 0.380159 0.358291
vt 0.625002 0.500000
vt 0.380159 0.891709
s 1
usemtl Material.017
f 2/1/1 3/2/1 1/3/1
f 4/4/2 5/5/2 3/2/2
f 6/6/3 7/7/4 5/5/4
f 7/7/5 10/8/6 9/9/5
f 10/8/7 11/10/7 9/9/7
f 12/11/8 13/12/8 11/10/8
f 13/12/9 16/13/9 15/14/9
f 15/14/10 18/15/10 17/16/10
f 18/15/11 19/17/11 17/16/11
f 20/18/12 21/19/12 19/17/12
f 22/20/13 23/21/13 21/19/13
f 23/21/14 26/22/14 25/23/14
f 26/22/15 27/24/15 25/23/15
f 28/25/16 29/26/17 27/24/17
f 29/26/18 32/27/18 31/28/18
f 32/27/19 33/29/19 31/28/19
f 34/30/20 35/31/20 33/29/20
f 35/31/21 38/32/21 37/33/21
f 38/32/22 39/34/23 37/33/23
f 39/34/24 42/35/24 41/36/24
f 41/36/25 44/37/25 43/38/25
f 43/38/26 46/39/26 45/40/26
f 46/39/27 47/41/27 45/40/27
f 48/42/28 49/43/28 47/41/28
f 50/44/29 51/45/29 49/43/29
f 51/45/30 54/46/30 53/47/30
f 54/46/31 55/48/31 53/47/31
f 56/49/32 57/50/32 55/48/32
f 58/51/33 59/52/34 57/50/34
f 59/52/35 62/53/36 61/54/35
f 38/55/37 22/56/37 6/57/37
f 62/53/38 63/58/38 61/54/38
f 63/58/39 2/59/39 1/60/39
f 31/61/40 47/62/41 63/63/40
f 2/1/1 4/4/1 3/2/1
f 4/4/2 6/6/2 5/5/2
f 6/6/3 8/64/3 7/7/4
f 7/7/5 8/64/6 10/8/6
f 10/8/7 12/11/7 11/10/7
f 12/11/8 14/65/8 13/12/8
f 13/12/9 14/65/9 16/13/9
f 15/14/10 16/13/10 18/15/10
f 18/15/11 20/18/11 19/17/11
f 20/18/12 22/20/12 21/19/12
f 22/20/13 24/66/13 23/21/13
f 23/21/14 24/66/14 26/22/14
f 26/22/15 28/25/15 27/24/15
f 28/25/16 30/67/16 29/26/17
f 29/26/18 30/67/18 32/27/18
f 32/27/19 34/30/19 33/29/19
f 34/30/20 36/68/20 35/31/20
f 35/31/21 36/68/21 38/32/21
f 38/32/22 40/69/22 39/34/23
f 39/34/24 40/69/24 42/35/24
f 41/36/25 42/35/25 44/37/25
f 43/38/26 44/37/26 46/39/26
f 46/39/27 48/42/27 47/41/27
f 48/42/28 50/44/28 49/43/28
f 50/44/29 52/70/29 51/45/29
f 51/45/30 52/70/30 54/46/30
f 54/46/31 56/49/31 55/48/31
f 56/49/32 58/51/32 57/50/32
f 58/51/33 60/71/33 59/52/34
f 59/52/35 60/71/36 62/53/36
f 6/57/37 4/72/42 2/73/37
f 2/73/37 64/74/43 62/75/37
f 62/75/37 60/76/44 58/77/37
f 58/77/37 56/78/37 54/79/37
f 54/79/37 52/80/45 50/81/46
f 50/81/46 48/82/47 46/83/37
f 46/83/37 44/84/37 42/85/37
f 42/85/37 40/86/42 38/55/37
f 38/55/37 36/87/48 34/88/37
f 34/88/37 32/89/49 30/90/37
f 30/90/37 28/91/50 26/92/37
f 26/92/37 24/93/46 22/56/37
f 22/56/37 20/94/51 18/95/46
f 18/95/46 16/96/52 14/97/37
f 14/97/37 12/98/46 10/99/37
f 10/99/37 8/100/53 6/57/37
f 6/57/37 2/73/37 62/75/37
f 62/75/37 58/77/37 54/79/37
f 54/79/37 50/81/46 46/83/37
f 46/83/37 42/85/37 38/55/37
f 38/55/37 34/88/37 30/90/37
f 30/90/37 26/92/37 22/56/37
f 22/56/37 18/95/46 14/97/37
f 14/97/37 10/99/37 6/57/37
f 6/57/37 62/75/37 54/79/37
f 54/79/37 46/83/37 38/55/37
f 38/55/37 30/90/37 22/56/37
f 22/56/37 14/97/37 6/57/37
f 6/57/37 54/79/37 38/55/37
f 62/53/38 64/101/38 63/58/38
f 63/58/39 64/101/39 2/59/39
f 63/63/40 1/102/54 3/103/40
f 3/103/40 5/104/55 7/105/40
f 7/105/40 9/106/56 11/107/57
f 11/107/57 13/108/58 15/109/40
f 15/109/40 17/110/57 19/111/41
f 19/111/41 21/112/59 23/113/40
f 23/113/40 25/114/60 27/115/61
f 27/115/61 29/116/62 31/61/40
f 31/61/40 33/117/63 35/118/40
f 35/118/40 37/119/63 39/120/40
f 39/120/40 41/121/64 43/122/40
f 43/122/40 45/123/41 47/62/41
f 47/62/41 49/124/65 51/125/40
f 51/125/40 53/126/41 55/127/40
f 55/127/40 57/128/66 59/129/67
f 59/129/67 61/130/68 63/63/40
f 63/63/40 3/103/40 7/105/40
f 7/105/40 11/107/57 15/109/40
f 15/109/40 19/111/41 23/113/40
f 23/113/40 27/115/61 31/61/40
f 31/61/40 35/118/40 39/120/40
f 39/120/40 43/122/40 47/62/41
f 47/62/41 51/125/40 55/127/40
f 55/127/40 59/129/67 63/63/40
f 63/63/40 7/105/40 15/109/40
f 15/109/40 23/113/40 31/61/40
f 31/61/40 39/120/40 47/62/41
f 47/62/41 55/127/40 63/63/40
f 63/63/40 15/109/40 31/61/40
f 98/131/69 99/132/69 97/133/69
f 100/134/70 103/36/70 99/132/70
f 104/23/71 101/135/71 103/36/71
f 102/136/72 97/35/72 101/135/72
f 103/36/73 97/137/73 99/50/73
f 100/9/74 102/136/74 104/23/74
f 98/131/69 100/134/69 99/132/69
f 100/134/70 104/23/70 103/36/70
f 104/23/71 102/136/71 101/135/71
f 102/136/72 98/22/72 97/35/72
f 103/36/73 101/135/73 97/137/73
f 100/9/74 98/138/74 102/136/74
f 106/1/1 107/2/1 105/3/1
f 108/4/126 109/5/126 107/2/126
f 110/6/4 111/7/4 109/5/4
f 111/7/5 114/8/6 113/9/5
f 114/8/7 115/10/7 113/9/7
f 116/11/8 117/12/8 115/10/8
f 117/12/9 120/13/127 119/14/9
f 120/13/10 121/16/10 119/14/10
f 121/16/11 124/18/11 123/17/11
f 124/18/128 125/19/12 123/17/12
f 126/20/13 127/21/13 125/19/13
f 128/66/129 129/23/129 127/21/129
f 130/22/15 131/24/15 129/23/15
f 131/24/16 134/67/16 133/26/16
f 133/26/18 136/27/18 135/28/18
f 136/27/130 137/29/19 135/28/19
f 138/30/20 139/31/20 137/29/20
f 140/68/21 141/33/21 139/31/21
f 142/32/23 143/34/23 141/33/23
f 143/34/24 146/35/24 145/36/24
f 145/36/131 148/37/131 147/38/131
f 148/37/26 149/40/26 147/38/26
f 150/39/27 151/41/132 149/40/132
f 152/42/28 153/43/28 151/41/28
f 153/43/29 156/70/29 155/45/29
f 155/45/133 158/46/30 157/47/133
f 158/46/31 159/48/31 157/47/31
f 160/49/32 161/50/32 159/48/32
f 162/51/34 163/52/33 161/50/33
f 163/52/36 166/53/36 165/54/36
f 142/55/37 126/56/37 110/57/37
f 166/53/134 167/58/134 165/54/134
f 167/58/39 106/59/39 105/60/39
f 135/61/40 151/62/40 167/63/40
f 106/1/1 108/4/1 107/2/1
f 108/4/126 110/6/126 109/5/126
f 110/6/4 112/64/4 111/7/4
f 111/7/5 112/64/6 114/8/6
f 114/8/7 116/11/7 115/10/7
f 116/11/8 118/65/8 117/12/8
f 117/12/9 118/65/127 120/13/127
f 120/13/10 122/15/10 121/16/10
f 121/16/11 122/15/11 124/18/11
f 124/18/128 126/20/128 125/19/12
f 126/20/13 128/66/13 127/21/13
f 128/66/129 130/22/129 129/23/129
f 130/22/15 132/25/15 131/24/15
f 131/24/16 132/25/16 134/67/16
f 133/26/18 134/67/18 136/27/18
f 136/27/130 138/30/130 137/29/19
f 138/30/20 140/68/20 139/31/20
f 140/68/21 142/32/21 141/33/21
f 142/32/23 144/69/23 143/34/23
f 143/34/24 144/69/24 146/35/24
f 145/36/131 146/35/131 148/37/131
f 148/37/26 150/39/26 149/40/26
f 150/39/27 152/42/27 151/41/132
f 152/42/28 154/44/28 153/43/28
f 153/43/29 154/44/29 156/70/29
f 155/45/133 156/70/30 158/46/30
f 158/46/31 160/49/31 159/48/31
f 160/49/32 162/51/32 161/50/32
f 162/51/34 164/71/34 163/52/33
f 163/52/36 164/71/36 166/53/36
f 110/57/37 108/72/135 106/73/37
f 106/73/37 168/74/135 166/75/37
f 166/75/37 164/76/136 162/77/46
f 162/77/46 160/78/135 158/79/37
f 158/79/37 156/80/137 154/81/37
f 154/81/37 152/82/137 150/83/37
f 150/83/37 148/84/42 146/85/46
f 146/85/46 144/86/138 142/55/37
f 142/55/37 140/87/42 138/88/37
f 138/88/37 136/89/42 134/90/37
f 134/90/37 132/91/139 130/92/37
f 130/92/37 128/93/48 126/56/37
f 126/56/37 124/94/140 122/95/37
f 122/95/37 120/96/141 118/97/37
f 118/97/37 116/98/43 114/99/37
f 114/99/37 112/100/142 110/57/37
f 110/57/37 106/73/37 166/75/37
f 166/75/37 162/77/46 158/79/37
f 158/79/37 154/81/37 150/83/37
f 150/83/37 146/85/46 142/55/37
f 142/55/37 138/88/37 134/90/37
f 134/90/37 130/92/37 126/56/37
f 126/56/37 122/95/37 118/97/37
f 118/97/37 114/99/37 110/57/37
f 110/57/37 166/75/37 158/79/37
f 158/79/37 150/83/37 142/55/37
f 142/55/37 134/90/37 126/56/37
f 126/56/37 118/97/37 110/57/37
f 110/57/37 158/79/37 142/55/37
f 166/53/134 168/101/134 167/58/134
f 167/58/39 168/101/39 106/59/39
f 167/63/40 105/102/40 107/103/55
f 107/103/55 109/104/40 111/105/40
f 111/105/40 113/106/143 115/107/57
f 115/107/57 117/108/55 119/109/40
f 119/109/40 121/110/144 123/111/41
f 123/111/41 125/112/145 127/113/40
f 127/113/40 129/114/143 131/115/61
f 131/115/61 133/116/40 135/61/40
f 135/61/40 137/117/40 139/118/41
f 139/118/41 141/119/40 143/120/40
f 143/120/40 145/121/146 147/122/147
f 147/122/147 149/123/57 151/62/40
f 151/62/40 153/124/57 155/125/41
f 155/125/41 157/126/57 159/127/40
f 159/127/40 161/128/145 163/129/67
f 163/129/67 165/130/40 167/63/40
f 167/63/40 107/103/55 111/105/40
f 111/105/40 115/107/57 119/109/40
f 119/109/40 123/111/41 127/113/40
f 127/113/40 131/115/61 135/61/40
f 135/61/40 139/118/41 143/120/40
f 143/120/40 147/122/147 151/62/40
f 151/62/40 155/125/41 159/127/40
f 159/127/40 163/129/67 167/63/40
f 167/63/40 111/105/40 119/109/40
f 119/109/40 127/113/40 135/61/40
f 135/61/40 143/120/40 151/62/40
f 151/62/40 159/127/40 167/63/40
f 167/63/40 119/109/40 135/61/40
f 170/1/148 171/2/148 169/3/148
f 171/2/126 174/6/126 173/5/126
f 173/5/3 176/64/149 175/7/3
f 176/64/5 177/9/5 175/7/5
f 177/9/150 180/11/7 179/10/150
f 180/11/8 181/12/8 179/10/8
f 182/65/127 183/14/9 181/12/9
f 184/13/10 185/16/10 183/14/10
f 186/15/11 187/17/11 185/16/11
f 187/17/12 190/20/128 189/19/12
f 189/19/13 192/66/13 191/21/13
f 192/66/129 193/23/129 191/21/129
f 193/23/15 196/25/151 195/24/15
f 196/25/17 197/26/152 195/24/152
f 198/67/153 199/28/18 197/26/18
f 200/27/154 201/29/154 199/28/154
f 202/30/155 203/31/155 201/29/155
f 204/68/21 205/33/156 203/31/156
f 206/32/157 207/34/22 205/33/22
f 207/34/158 210/35/159 209/36/158
f 210/35/131 211/38/131 209/36/131
f 212/37/26 213/40/26 211/38/26
f 214/39/27 215/41/132 213/40/132
f 215/41/28 218/44/28 217/43/28
f 218/44/29 219/45/29 217/43/29
f 219/45/133 222/46/30 221/47/133
f 222/46/31 223/48/31 221/47/31
f 224/49/32 225/50/32 223/48/32
f 226/51/160 227/52/160 225/50/160
f 227/52/161 230/53/36 229/54/161
f 206/55/37 190/56/37 174/57/37
f 230/53/134 231/58/134 229/54/134
f 231/58/162 170/59/163 169/60/162
f 199/61/40 215/62/40 231/63/40
f 170/1/148 172/4/148 171/2/148
f 171/2/126 172/4/126 174/6/126
f 173/5/3 174/6/149 176/64/149
f 176/64/5 178/8/5 177/9/5
f 177/9/150 178/8/7 180/11/7
f 180/11/8 182/65/8 181/12/8
f 182/65/127 184/13/127 183/14/9
f 184/13/10 186/15/10 185/16/10
f 186/15/11 188/18/11 187/17/11
f 187/17/12 188/18/128 190/20/128
f 189/19/13 190/20/13 192/66/13
f 192/66/129 194/22/129 193/23/129
f 193/23/15 194/22/151 196/25/151
f 196/25/17 198/67/17 197/26/152
f 198/67/153 200/27/153 199/28/18
f 200/27/154 202/30/154 201/29/154
f 202/30/155 204/68/155 203/31/155
f 204/68/21 206/32/21 205/33/156
f 206/32/157 208/69/157 207/34/22
f 207/34/158 208/69/159 210/35/159
f 210/35/131 212/37/131 211/38/131
f 212/37/26 214/39/26 213/40/26
f 214/39/27 216/42/27 215/41/132
f 215/41/28 216/42/28 218/44/28
f 218/44/29 220/70/29 219/45/29
f 219/45/133 220/70/30 222/46/30
f 222/46/31 224/49/31 223/48/31
f 224/49/32 226/51/32 225/50/32
f 226/51/160 228/71/160 227/52/160
f 227/52/161 228/71/36 230/53/36
f 174/57/37 172/72/135 170/73/37
f 170/73/37 232/74/49 230/75/37
f 230/75/37 228/76/135 226/77/37
f 226/77/37 224/78/37 222/79/37
f 222/79/37 220/80/45 218/81/46
f 218/81/46 216/82/45 214/83/37
f 214/83/37 212/84/37 210/85/37
f 210/85/37 208/86/42 206/55/37
f 206/55/37 204/87/37 202/88/37
f 202/88/37 200/89/42 198/90/37
f 198/90/37 196/91/164 194/92/37
f 194/92/37 192/93/46 190/56/37
f 190/56/37 188/94/165 186/95/46
f 186/95/46 184/96/166 182/97/37
f 182/97/37 180/98/167 178/99/37
f 178/99/37 176/100/168 174/57/37
f 174/57/37 170/73/37 230/75/37
f 230/75/37 226/77/37 222/79/37
f 222/79/37 218/81/46 214/83/37
f 214/83/37 210/85/37 206/55/37
f 206/55/37 202/88/37 198/90/37
f 198/90/37 194/92/37 190/56/37
f 190/56/37 186/95/46 182/97/37
f 182/97/37 178/99/37 174/57/37
f 174/57/37 230/75/37 222/79/37
f 222/79/37 214/83/37 206/55/37
f 206/55/37 198/90/37 190/56/37
f 190/56/37 182/97/37 174/57/37
f 174/57/37 222/79/37 206/55/37
f 230/53/134 232/101/134 231/58/134
f 231/58/162 232/101/163 170/59/163
f 231/63/40 169/102/169 171/103/61
f 171/103/61 173/104/170 175/105/40
f 175/105/40 177/106/171 179/107/41
f 179/107/41 181/108/172 183/109/41
f 183/109/41 185/110/57 187/111/40
f 187/111/40 189/112/173 191/113/41
f 191/113/41 193/114/147 195/115/41
f 195/115/41 197/116/169 199/61/40
f 199/61/40 201/117/40 203/118/40
f 203/118/40 205/119/174 207/120/40
f 207/120/40 209/121/55 211/122/41
f 211/122/41 213/123/41 215/62/40
f 215/62/40 217/124/143 219/125/40
f 219/125/40 221/126/41 223/127/40
f 223/127/40 225/128/171 227/129/175
f 227/129/175 229/130/176 231/63/40
f 231/63/40 171/103/61 175/105/40
f 175/105/40 179/107/41 183/109/41
f 183/109/41 187/111/40 191/113/41
f 191/113/41 195/115/41 199/61/40
f 199/61/40 203/118/40 207/120/40
f 207/120/40 211/122/41 215/62/40
f 215/62/40 219/125/40 223/127/40
f 223/127/40 227/129/175 231/63/40
f 231/63/40 175/105/40 183/109/41
f 183/109/41 191/113/41 199/61/40
f 199/61/40 207/120/40 215/62/40
f 215/62/40 223/127/40 231/63/40
f 231/63/40 183/109/41 199/61/40
f 234/1/148 235/2/148 233/3/148
f 236/4/126 237/5/126 235/2/126
f 238/6/3 239/7/149 237/5/149
f 239/7/5 242/8/5 241/9/5
f 242/8/7 243/10/7 241/9/7
f 244/11/8 245/12/8 243/10/8
f 245/12/127 248/13/9 247/14/127
f 248/13/10 249/16/177 247/14/177
f 249/16/178 252/18/11 251/17/178
f 252/18/12 253/19/12 251/17/128
f 253/19/13 256/66/13 255/21/13
f 256/66/129 257/23/129 255/21/129
f 258/22/15 259/24/15 257/23/15
f 259/24/17 262/67/16 261/26/17
f 262/67/153 263/28/18 261/26/18
f 264/27/154 265/29/154 263/28/154
f 266/30/155 267/31/155 265/29/155
f 268/68/156 269/33/156 267/31/156
f 270/32/23 271/34/22 269/33/22
f 271/34/24 274/35/24 273/36/24
f 274/35/131 275/38/131 273/36/131
f 275/38/26 278/39/26 277/40/26
f 277/40/132 280/42/27 279/41/132
f 280/42/28 281/43/179 279/41/179
f 282/44/29 283/45/180 281/43/180
f 284/70/30 285/47/133 283/45/133
f 286/46/31 287/48/31 285/47/31
f 287/48/32 290/51/181 289/50/32
f 290/51/160 291/52/160 289/50/160
f 291/52/161 294/53/36 293/54/161
f 270/55/37 254/56/37 238/57/37
f 294/53/134 295/58/134 293/54/134
f 296/101/162 233/60/162 295/58/162
f 263/61/40 279/62/41 295/63/40
f 234/1/148 236/4/148 235/2/148
f 236/4/126 238/6/126 237/5/126
f 238/6/3 240/64/3 239/7/149
f 239/7/5 240/64/5 242/8/5
f 242/8/7 244/11/7 243/10/7
f 244/11/8 246/65/8 245/12/8
f 245/12/127 246/65/9 248/13/9
f 248/13/10 250/15/10 249/16/177
f 249/16/178 250/15/11 252/18/11
f 252/18/12 254/20/12 253/19/12
f 253/19/13 254/20/13 256/66/13
f 256/66/129 258/22/129 257/23/129
f 258/22/15 260/25/15 259/24/15
f 259/24/17 260/25/16 262/67/16
f 262/67/153 264/27/153 263/28/18
f 264/27/154 266/30/154 265/29/154
f 266/30/155 268/68/155 267/31/155
f 268/68/156 270/32/156 269/33/156
f 270/32/23 272/69/23 271/34/22
f 271/34/24 272/69/24 274/35/24
f 274/35/131 276/37/131 275/38/131
f 275/38/26 276/37/26 278/39/26
f 277/40/132 278/39/27 280/42/27
f 280/42/28 282/44/28 281/43/179
f 282/44/29 284/70/29 283/45/180
f 284/70/30 286/46/30 285/47/133
f 286/46/31 288/49/31 287/48/31
f 287/48/32 288/49/181 290/51/181
f 290/51/160 292/71/160 291/52/160
f 291/52/161 292/71/36 294/53/36
f 238/57/37 236/72/37 234/73/37
f 234/73/37 296/74/37 294/75/37
f 294/75/37 292/76/52 290/77/46
f 290/77/46 288/78/167 286/79/37
f 286/79/37 284/80/137 282/81/182
f 282/81/182 280/82/137 278/83/37
f 278/83/37 276/84/46 274/85/46
f 274/85/46 272/86/135 270/55/37
f 270/55/37 268/87/37 266/88/37
f 266/88/37 264/89/37 262/90/37
f 262/90/37 260/91/183 258/92/46
f 258/92/46 256/93/52 254/56/37
f 254/56/37 252/94/47 250/95/137
f 250/95/137 248/96/47 246/97/37
f 246/97/37 244/98/51 242/99/46
f 242/99/46 240/100/184 238/57/37
f 238/57/37 234/73/37 294/75/37
f 294/75/37 290/77/46 286/79/37
f 286/79/37 282/81/182 278/83/37
f 278/83/37 274/85/46 270/55/37
f 270/55/37 266/88/37 262/90/37
f 262/90/37 258/92/46 254/56/37
f 254/56/37 250/95/137 246/97/37
f 246/97/37 242/99/46 238/57/37
f 238/57/37 294/75/37 286/79/37
f 286/79/37 278/83/37 270/55/37
f 270/55/37 262/90/37 254/56/37
f 254/56/37 246/97/37 238/57/37
f 238/57/37 286/79/37 270/55/37
f 294/53/134 296/101/134 295/58/134
f 296/101/162 234/59/162 233/60/162
f 295/63/40 233/102/40 235/103/175
f 235/103/175 237/104/185 239/105/40
f 239/105/40 241/106/186 243/107/41
f 243/107/41 245/108/187 247/109/40
f 247/109/40 249/110/57 251/111/40
f 251/111/40 253/112/188 255/113/40
f 255/113/40 257/114/189 259/115/175
f 259/115/175 261/116/190 263/61/40
f 263/61/40 265/117/40 267/118/61
f 267/118/61 269/119/174 271/120/40
f 271/120/40 273/121/147 275/122/40
f 275/122/40 277/123/191 279/62/41
f 279/62/41 281/124/65 283/125/40
f 283/125/40 285/126/192 287/127/40
f 287/127/40 289/128/171 291/129/41
f 291/129/41 293/130/176 295/63/40
f 295/63/40 235/103/175 239/105/40
f 239/105/40 243/107/41 247/109/40
f 247/109/40 251/111/40 255/113/40
f 255/113/40 259/115/175 263/61/40
f 263/61/40 267/118/61 271/120/40
f 271/120/40 275/122/40 279/62/41
f 279/62/41 283/125/40 287/127/40
f 287/127/40 291/129/41 295/63/40
f 295/63/40 239/105/40 247/109/40
f 247/109/40 255/113/40 263/61/40
f 263/61/40 271/120/40 279/62/41
f 279/62/41 287/127/40 295/63/40
f 295/63/40 247/109/40 263/61/40
usemtl Material.015
f 66/131/69 67/132/69 65/133/69
f 68/134/70 71/36/70 67/132/70
f 72/23/71 69/135/71 71/36/71
f 70/136/72 65/35/72 69/135/72
f 71/36/73 65/137/73 67/50/73
f 68/9/74 70/136/74 72/23/74
f 66/131/69 68/134/69 67/132/69
f 68/134/70 72/23/70 71/36/70
f 72/23/71 70/136/71 69/135/71
f 70/136/72 66/22/72 65/35/72
f 71/36/73 69/135/73 65/137/73
f 68/9/74 66/138/74 70/136/74
usemtl Material.016
f 79/139/75 95/140/76 91/141/77
f 84/142/71 75/135/71 76/36/71
f 78/143/69 74/132/69 73/133/69
f 76/36/78 90/144/78 89/145/78
f 89/146/70 84/142/70 76/36/70
f 79/139/79 78/138/80 77/147/81
f 83/148/82 92/149/83 91/141/84
f 83/148/85 82/150/85 84/142/85
f 77/147/86 94/151/87 93/152/88
f 90/153/72 78/154/72 73/35/72
f 95/140/89 85/147/90 96/155/91
f 81/156/92 87/148/93 88/156/94
f 79/139/95 85/147/96 86/139/97
f 81/156/98 96/155/99 93/152/100
f 77/147/101 96/155/102 85/147/103
f 87/148/104 96/155/105 88/156/106
f 82/150/72 90/153/72 75/135/72
f 81/156/107 94/151/87 82/157/108
f 79/139/109 92/149/83 80/9/110
f 80/158/70 89/146/70 74/132/70
f 89/145/111 73/137/111 74/50/111
f 83/148/112 95/140/113 87/148/114
f 79/139/75 86/139/115 95/140/76
f 84/142/71 82/150/71 75/135/71
f 78/143/69 80/158/69 74/132/69
f 76/36/78 75/135/78 90/144/78
f 89/146/70 92/159/70 84/142/70
f 79/139/79 80/9/116 78/138/80
f 83/148/82 84/160/117 92/149/83
f 83/148/85 81/156/85 82/150/85
f 77/147/86 78/138/118 94/151/87
f 90/153/72 94/161/72 78/154/72
f 95/140/89 86/139/119 85/147/90
f 81/156/92 83/148/120 87/148/93
f 79/139/95 77/147/121 85/147/96
f 81/156/98 88/156/122 96/155/99
f 77/147/101 93/152/123 96/155/102
f 87/148/104 95/140/124 96/155/105
f 82/150/72 94/161/72 90/153/72
f 81/156/107 93/152/88 94/151/87
f 79/139/109 91/141/84 92/149/83
f 80/158/70 92/159/70 89/146/70
f 89/145/111 90/144/111 73/137/111
f 83/148/112 91/141/125 95/140/113
