# Blender 5.0.1
# www.blender.org
mtllib ParedLateralS5.mtl
o ParedLateralS5
v -8.005344 8.310781 -7.887772
v -8.129669 8.310781 -7.887772
v -8.005344 10.861696 -7.887772
v -8.129669 10.861696 -7.887772
v -8.005344 8.310783 -2.702553
v -8.129669 8.310783 -2.702553
v -8.005344 10.861698 -2.702553
v -8.129669 10.861698 -2.702553
v -8.005344 -0.065913 8.045980
v -8.005344 0.468195 8.045980
v -8.005344 0.468191 -7.964708
v -8.005344 0.468191 -7.362967
v -7.384017 0.468191 -7.964708
v -7.384017 -0.065913 8.045980
v -7.384017 0.468195 8.045980
v -8.005344 -0.065915 6.493777
v -8.005344 0.468193 6.493777
v -7.384017 0.468193 6.493777
v -7.384017 -0.065915 6.493777
v -8.005344 14.000066 -7.362969
v -8.005344 14.000066 -7.964710
v -7.384017 14.000070 8.045978
v -8.005344 14.000070 8.045978
v -8.005344 14.000070 6.493775
v -7.384017 14.000066 -7.964710
v -7.384017 14.000066 -7.362969
v -7.384017 14.000070 6.493775
v -7.384017 13.383646 -7.964710
v -8.005344 13.383646 -7.964710
v -8.005344 13.383646 -7.362969
v -7.384017 13.383650 8.045978
v -8.005344 13.383650 8.045978
v -8.005344 13.383650 6.493775
v -7.384017 13.383650 6.493775
v -7.384017 14.000068 -4.157142
v -7.384017 13.383648 -5.112096
v -8.005344 -0.065913 7.664338
v -7.384017 0.468195 7.664338
v -7.384017 -0.065913 7.664338
v -8.005344 0.468195 7.664338
v -7.384017 14.000070 7.664336
v -8.005344 14.000070 7.664336
v -7.384017 13.383650 7.664336
v -8.005344 13.383650 7.664336
v -8.005344 0.468195 7.079058
v -8.005344 14.000070 7.079056
v -8.005344 13.383650 7.079056
v -8.005344 -0.065913 7.079058
v -7.384017 0.468195 7.079058
v -7.384017 -0.065913 7.079058
v -7.384017 14.000070 7.079056
v -7.384017 13.383650 7.079056
v -8.005344 -0.065913 7.326676
v -7.384017 0.468195 7.326676
v -7.384017 -0.065913 7.326676
v -7.384017 14.000070 7.326674
v -7.384017 13.383650 7.326674
v -8.005344 0.468195 7.326676
v -8.005344 14.000070 7.326674
v -8.005344 13.383650 7.326674
v -8.005344 0.468193 5.011893
v -8.005344 -0.065915 5.011893
v -7.384017 -0.065915 5.011893
v -8.005344 13.974491 5.011891
v -8.005344 13.974493 6.493775
v -7.384017 13.974491 5.011891
v -7.384017 13.974493 6.493775
v -8.005344 0.445048 -1.175536
v -7.384017 0.445048 -1.175536
v -8.005344 0.445048 -1.691156
v -7.384017 0.445048 -1.691156
v -8.005344 13.485402 -5.443038
v -8.005344 13.485402 -4.927419
v -7.384017 13.485402 -5.443038
v -7.384017 13.485402 -4.927419
v -8.005344 0.468191 -7.154832
v -7.384017 0.468191 -7.154832
v -8.005344 13.383646 -7.154834
v -7.384017 13.383646 -7.154834
v -8.005344 6.081877 -7.964708
v -8.005344 6.081877 -7.362967
v -8.005344 6.081877 -7.154832
v -7.384017 6.081877 -7.154832
v -8.005344 6.205451 -7.362967
v -7.384017 6.205451 -7.154832
v -8.005344 6.205451 -7.964708
v -8.005344 6.205451 -7.154832
v -8.005344 4.625607 -7.964708
v -8.005344 4.625607 -7.154832
v -8.005344 4.625606 -7.362967
v -7.384017 4.625606 -7.154832
v -8.005344 4.505555 -7.964708
v -8.005344 4.505555 -7.154832
v -8.005344 4.505555 -7.362967
v -7.384017 4.505555 -7.154832
v -8.005344 3.036427 -7.964708
v -8.005344 3.036427 -7.154832
v -8.005344 3.036427 -7.362967
v -7.384017 3.036427 -7.154832
v -8.005344 2.933702 -7.964708
v -8.005344 2.933702 -7.154832
v -8.005344 2.933702 -7.362967
v -7.384017 2.933702 -7.154832
v -8.005344 6.205453 -3.117507
v -8.005344 6.081877 -3.117507
v -7.384017 6.081877 -3.117507
v -7.384017 6.205453 -3.117507
v -7.384017 4.505555 -2.656856
v -7.384017 4.625606 -2.656856
v -8.005344 4.625607 -2.656856
v -8.005344 4.505555 -2.656856
v -7.384017 2.933704 -2.177582
v -7.384017 3.036429 -2.177582
v -8.005344 3.036429 -2.177582
v -8.005344 2.933704 -2.177582
vn -0.0000 -0.0000 -1.0000
vn -0.0000 1.0000 -0.0000
vn -0.0000 -0.0000 1.0000
vn -0.0000 -1.0000 -0.0000
vn 1.0000 -0.0000 -0.0000
vn -1.0000 -0.0000 -0.0000
vn -0.0000 0.2765 0.9610
vn -0.0000 -0.2765 -0.9610
vt 0.625000 0.000000
vt 0.375000 0.250000
vt 0.375000 0.000000
vt 0.625000 0.250000
vt 0.375000 0.500000
vt 0.625000 0.500000
vt 0.375000 0.750000
vt 0.625000 0.750000
vt 0.375000 1.000000
vt 0.125000 0.750000
vt 0.125000 0.500000
vt 0.875000 0.500000
vt 0.625000 1.000000
vt 0.875000 0.750000
vt 0.865274 0.725763
vt 0.865273 0.734902
vt 0.865273 0.744041
vt 0.865274 0.750000
vt 0.865273 0.738768
vt 0.134726 0.702624
vt 0.125000 0.702624
vt 0.134726 0.725763
vt 0.134726 0.597959
vt 0.125000 0.597959
vt 0.125000 0.606010
vt 0.134726 0.606010
vt 0.625000 0.259726
vt 0.625000 0.990274
vt 0.375000 0.990274
vt 0.625000 0.005959
vt 0.134726 0.744041
vt 0.125000 0.744041
vt 0.125000 0.725763
vt 0.625000 0.015098
vt 0.375000 0.024237
vt 0.375000 0.015098
vt 0.625000 0.240604
vt 0.875000 0.744041
vt 0.865274 0.509396
vt 0.865274 0.500000
vt 0.875000 0.509396
vt 0.625000 0.024237
vt 0.625000 0.011232
vt 0.875000 0.738768
vt 0.375000 0.005959
vt 0.134726 0.738768
vt 0.125000 0.738768
vt 0.125000 0.734902
vt 0.875000 0.725763
vt 0.375000 0.011232
vt 0.134726 0.734902
vt 0.875000 0.734902
vt 0.375000 0.047376
vt 0.375000 0.152041
vt 0.375000 0.143990
vt 0.134726 0.750000
vt 0.625000 0.047376
s 1
usemtl Material.005
f 2/1/1 3/2/1 1/3/1
f 4/4/2 7/5/2 3/2/2
f 8/6/3 5/7/3 7/5/3
f 6/8/4 1/9/4 5/7/4
f 7/5/5 1/10/5 3/11/5
f 4/12/6 6/8/6 8/6/6
f 2/1/1 4/4/1 3/2/1
f 4/4/2 8/6/2 7/5/2
f 8/6/3 6/8/3 5/7/3
f 6/8/4 2/13/4 1/9/4
f 7/5/5 5/7/5 1/10/5
f 4/12/6 2/14/6 6/8/6
usemtl Material.014
f 18/15/5 52/16/5 49/16/5
f 38/17/5 31/18/5 15/18/5
f 49/16/5 57/19/5 54/19/5
f 54/19/5 43/17/5 38/17/5
f 63/20/3 64/21/3 62/21/3
f 19/22/6 66/20/6 63/20/6
f 71/23/7 72/24/7 70/24/7
f 68/25/8 75/26/8 69/26/8
f 83/27/6 107/27/6 85/27/6
f 89/4/5 111/4/5 93/4/5
f 99/27/4 114/4/4 97/4/4
f 85/27/4 104/4/4 87/4/4
f 82/4/2 106/27/2 83/27/2
f 87/4/5 105/4/5 82/4/5
f 93/4/2 108/27/2 95/27/2
f 91/27/4 110/4/4 89/4/4
f 95/27/6 109/27/6 91/27/6
f 103/27/6 113/27/6 99/27/6
f 97/4/5 115/4/5 101/4/5
f 101/4/2 112/27/2 103/27/2
f 18/15/5 34/15/5 52/16/5
f 38/17/5 43/17/5 31/18/5
f 49/16/5 52/16/5 57/19/5
f 54/19/5 57/19/5 43/17/5
f 63/20/3 66/20/3 64/21/3
f 19/22/6 67/22/6 66/20/6
f 71/23/7 74/23/7 72/24/7
f 68/25/8 73/25/8 75/26/8
f 83/27/6 106/27/6 107/27/6
f 89/4/5 110/4/5 111/4/5
f 99/27/4 113/27/4 114/4/4
f 85/27/4 107/27/4 104/4/4
f 82/4/2 105/4/2 106/27/2
f 87/4/5 104/4/5 105/4/5
f 93/4/2 111/4/2 108/27/2
f 91/27/4 109/27/4 110/4/4
f 95/27/6 108/27/6 109/27/6
f 103/27/6 112/27/6 113/27/6
f 97/4/5 114/4/5 115/4/5
f 101/4/2 115/4/2 112/27/2
usemtl Material.015
f 15/28/3 9/9/3 14/29/3
f 32/1/6 42/30/6 44/30/6
f 39/31/4 9/10/4 37/32/4
f 16/33/1 67/22/1 19/22/1
f 45/34/6 16/35/6 48/36/6
f 31/28/3 23/13/3 32/13/3
f 30/37/6 21/4/6 29/4/6
f 42/38/2 22/18/2 41/17/2
f 21/12/2 26/39/2 25/40/2
f 20/41/2 27/15/2 26/39/2
f 33/42/6 20/37/6 30/37/6
f 29/4/1 25/27/1 28/27/1
f 26/39/6 36/39/6 35/39/6
f 28/27/4 78/4/4 29/4/4
f 84/37/6 29/4/6 86/4/6
f 15/28/3 32/13/3 10/13/3
f 10/1/6 44/30/6 40/30/6
f 40/30/6 60/43/6 58/43/6
f 59/44/2 41/17/2 56/19/2
f 10/1/6 37/45/6 9/3/6
f 55/46/4 37/32/4 53/47/4
f 44/30/6 59/43/6 60/43/6
f 47/34/6 24/42/6 33/42/6
f 19/22/4 48/48/4 16/33/4
f 24/49/2 51/16/2 27/15/2
f 45/34/6 33/42/6 17/42/6
f 58/43/6 48/36/6 53/50/6
f 40/30/6 53/50/6 37/45/6
f 60/43/6 46/34/6 47/34/6
f 50/51/4 53/47/4 48/48/4
f 46/52/2 56/19/2 51/16/2
f 58/43/6 47/34/6 45/34/6
f 17/42/6 62/53/6 16/35/6
f 66/20/4 65/33/4 64/21/4
f 62/53/5 65/35/5 16/35/5
f 70/54/5 73/55/5 68/55/5
f 74/23/4 73/25/4 72/24/4
f 71/23/6 75/26/6 74/23/6
f 87/4/1 79/27/1 85/27/1
f 29/4/5 87/4/5 86/4/5
f 11/4/2 77/27/2 13/27/2
f 80/4/5 89/4/5 88/4/5
f 89/4/1 83/27/1 91/27/1
f 88/4/6 81/37/6 80/4/6
f 86/4/5 82/4/5 80/4/5
f 81/37/6 86/4/6 80/4/6
f 92/4/6 90/37/6 88/4/6
f 88/4/5 93/4/5 92/4/5
f 92/4/5 97/4/5 96/4/5
f 97/4/1 95/27/1 99/27/1
f 98/37/6 92/4/6 96/4/6
f 102/37/6 96/4/6 100/4/6
f 96/4/5 101/4/5 100/4/5
f 100/4/5 76/4/5 11/4/5
f 76/4/1 103/27/1 77/27/1
f 12/37/6 100/4/6 11/4/6
f 105/4/1 107/27/1 106/27/1
f 111/4/1 109/27/1 108/27/1
f 115/4/1 113/27/1 112/27/1
f 15/28/3 10/13/3 9/9/3
f 32/1/6 23/1/6 42/30/6
f 39/31/4 14/56/4 9/10/4
f 16/33/1 65/33/1 67/22/1
f 45/34/6 17/42/6 16/35/6
f 31/28/3 22/28/3 23/13/3
f 30/37/6 20/37/6 21/4/6
f 42/38/2 23/14/2 22/18/2
f 21/12/2 20/41/2 26/39/2
f 20/41/2 24/49/2 27/15/2
f 33/42/6 24/42/6 20/37/6
f 29/4/1 21/4/1 25/27/1
f 28/27/4 79/27/4 78/4/4
f 84/37/6 30/37/6 29/4/6
f 15/28/3 31/28/3 32/13/3
f 10/1/6 32/1/6 44/30/6
f 40/30/6 44/30/6 60/43/6
f 59/44/2 42/38/2 41/17/2
f 10/1/6 40/30/6 37/45/6
f 55/46/4 39/31/4 37/32/4
f 44/30/6 42/30/6 59/43/6
f 47/34/6 46/34/6 24/42/6
f 19/22/4 50/51/4 48/48/4
f 24/49/2 46/52/2 51/16/2
f 45/34/6 47/34/6 33/42/6
f 58/43/6 45/34/6 48/36/6
f 40/30/6 58/43/6 53/50/6
f 60/43/6 59/43/6 46/34/6
f 50/51/4 55/46/4 53/47/4
f 46/52/2 59/44/2 56/19/2
f 58/43/6 60/43/6 47/34/6
f 17/42/6 61/57/6 62/53/6
f 66/20/4 67/22/4 65/33/4
f 62/53/5 64/53/5 65/35/5
f 70/54/5 72/54/5 73/55/5
f 71/23/6 69/26/6 75/26/6
f 87/4/1 78/4/1 79/27/1
f 29/4/5 78/4/5 87/4/5
f 11/4/2 76/4/2 77/27/2
f 80/4/5 82/4/5 89/4/5
f 89/4/1 82/4/1 83/27/1
f 88/4/6 90/37/6 81/37/6
f 86/4/5 87/4/5 82/4/5
f 81/37/6 84/37/6 86/4/6
f 92/4/6 94/37/6 90/37/6
f 88/4/5 89/4/5 93/4/5
f 92/4/5 93/4/5 97/4/5
f 97/4/1 93/4/1 95/27/1
f 98/37/6 94/37/6 92/4/6
f 102/37/6 98/37/6 96/4/6
f 96/4/5 97/4/5 101/4/5
f 100/4/5 101/4/5 76/4/5
f 76/4/1 101/4/1 103/27/1
f 12/37/6 102/37/6 100/4/6
f 105/4/1 104/4/1 107/27/1
f 111/4/1 110/4/1 109/27/1
f 115/4/1 114/4/1 113/27/1
