# Blender 5.0.1
# www.blender.org
mtllib ParedTraseraS5.mtl
o ParedTraseraS5
v -7.384017 3.036427 -7.964708
v -7.384017 3.036427 -7.154832
v -7.384017 2.933702 -7.964708
v -7.384017 2.933702 -7.154832
v -2.243741 2.932725 -7.997375
v -2.243741 2.932727 -6.050242
v -7.507125 2.932725 -7.997375
v -7.507125 2.932727 -6.050242
v -2.243741 3.044881 -7.997375
v -2.243741 3.044883 -6.050242
v -7.507125 3.044881 -7.997375
v -7.507125 3.044883 -6.050242
v -3.583612 8.409294 -6.371931
v -3.222833 8.409294 -6.387104
v -3.583612 10.371111 -6.371931
v -3.222834 10.371111 -6.387104
v -3.626692 8.409294 -7.396266
v -3.265914 8.409294 -7.411438
v -3.626693 10.371111 -7.396267
v -3.265914 10.371111 -7.411440
v -3.993397 7.451253 -5.938904
v -4.187635 7.241302 -6.227596
v 4.142641 7.451254 -5.937582
v 4.337416 7.241302 -6.227596
v -3.993283 11.098143 -5.938637
v -4.187635 11.308085 -6.227598
v 4.142568 11.098143 -5.937410
v 4.337416 11.308086 -6.227598
v 0.074911 7.451238 -7.031475
v 0.074890 7.241302 -7.285327
v 0.074859 11.098181 -7.132939
v 0.074890 11.308084 -7.389762
v 4.142703 9.274694 -5.937739
v 4.337416 9.274694 -6.227596
v -3.993444 9.274694 -5.939023
v -4.187635 9.274694 -6.227596
v 0.074890 9.274692 -7.334670
v -2.068427 7.451253 -6.708416
v -2.067991 11.308084 -7.039298
v -2.067991 7.241302 -6.987059
v -2.067244 11.098144 -6.757611
v -2.067991 9.274692 -7.011237
v 2.297438 7.241302 -6.985949
v 2.297438 11.308084 -6.711255
v 2.297886 7.451253 -6.660847
v 2.297438 11.308084 -7.035396
v 2.297438 9.274692 -7.010209
v 4.337416 7.241302 -5.859182
v 2.297438 7.241302 -6.658782
v 4.337416 11.308086 -5.859184
v 4.337416 9.274694 -5.859182
v -4.187635 11.308085 -5.859184
v -2.067991 11.308084 -6.760828
v -4.187635 7.241302 -5.859182
v -4.187635 9.274694 -5.859182
v 0.074890 11.308084 -7.137880
v 2.296675 11.098143 -6.708106
v 0.074890 7.241302 -7.028238
v -2.067991 7.241302 -6.706306
v -3.993156 9.273055 -6.058558
v -2.067703 9.273053 -6.847332
v -2.066956 11.096504 -6.877147
v 0.075178 9.273053 -7.190992
v 2.297726 9.273053 -6.799000
v 2.296963 11.096503 -6.827642
v 0.075147 11.096541 -7.252475
v 2.298174 7.449615 -6.780384
v 0.075200 7.449597 -7.151011
v -2.068139 7.449615 -6.827951
v 4.142991 9.273055 -6.057276
v 4.142929 7.449615 -6.057119
v 4.142856 11.096503 -6.056946
v -3.992995 11.096503 -6.058173
v -3.993109 7.449615 -6.058442
v 3.605523 8.409294 -6.371931
v 3.966301 8.409294 -6.387104
v 3.605522 10.371111 -6.371931
v 3.966301 10.371111 -6.387104
v 3.562442 8.409294 -7.396266
v 3.923220 8.409294 -7.411438
v 3.562442 10.371111 -7.396267
v 3.923220 10.371111 -7.411440
v -2.174015 4.605536 -7.694278
v -2.165301 4.593719 -5.986592
v -7.436662 4.532218 -7.667933
v -7.427948 4.520401 -5.960248
v -2.175380 4.703792 -7.693593
v -2.166667 4.691975 -5.985908
v -7.438027 4.630474 -7.667245
v -7.429314 4.618656 -5.959559
v -2.201834 6.085944 -7.680799
v -2.201834 6.085944 -5.973040
v -7.465218 6.085944 -7.680799
v -7.465218 6.085944 -5.973040
v -2.201834 6.203429 -7.680799
v -2.201834 6.203429 -5.973040
v -7.465218 6.203429 -7.680799
v -7.465218 6.203429 -5.973040
v 7.964709 0.468191 -7.964708
v 7.964709 0.468191 -7.362967
v -7.384017 0.468191 -7.964708
v -7.384017 0.468191 -7.362967
v 5.924900 0.468191 -7.964708
v 5.924900 0.468191 -7.362967
v 4.526510 0.468191 -7.964708
v 4.526510 0.468191 -7.362967
v 3.434517 0.468191 -7.964708
v 3.434517 0.468191 -7.362967
v 2.027380 0.468191 -7.964708
v 2.027380 0.468191 -7.362967
v 1.008403 0.468191 -7.964708
v 1.008403 0.468191 -7.362967
v -0.504289 0.468191 -7.964708
v -0.504289 0.468191 -7.362967
v 5.924900 14.000066 -7.964710
v 7.964709 14.000066 -7.964710
v 7.964709 14.000066 -7.362969
v 5.924900 14.000066 -7.362969
v -7.384017 14.000066 -7.964710
v -7.384017 14.000066 -7.362969
v 4.526510 14.000066 -7.964710
v 4.526510 14.000066 -7.362969
v 3.434517 14.000066 -7.964710
v 3.434517 14.000066 -7.362969
v 2.027380 14.000066 -7.964710
v 2.027380 14.000066 -7.362969
v 1.008403 14.000066 -7.964710
v 1.008403 14.000066 -7.362969
v -0.504289 14.000066 -7.964710
v -0.504289 14.000066 -7.362969
v -0.504289 13.383646 -7.362969
v -0.504289 13.383646 -7.964710
v -7.384017 13.383646 -7.964710
v 1.008403 13.383646 -7.362969
v 2.027380 13.383646 -7.362969
v 4.526510 13.383646 -7.362969
v 5.924900 13.383646 -7.362969
v -7.384017 13.383646 -7.362969
v 3.434517 13.383646 -7.964710
v 4.526510 13.383646 -7.964710
v 5.924900 13.383646 -7.964710
v 7.964709 13.383646 -7.964710
v 2.027380 13.383646 -7.964710
v 3.434517 13.383646 -7.362969
v 1.008403 13.383646 -7.964710
v 7.964709 13.383646 -7.362969
v -7.384017 0.468191 -7.154832
v -7.384017 13.383646 -7.154834
v -0.504289 6.081877 -7.362967
v -0.504289 6.081877 -7.964708
v 1.008403 6.081877 -7.362967
v 4.526510 6.081877 -7.362967
v -7.384017 6.081877 -7.362967
v 4.526510 6.081877 -7.964708
v 7.964709 6.081877 -7.964708
v 3.434517 6.081877 -7.362967
v 7.964709 6.081877 -7.362967
v -7.384017 6.081877 -7.964708
v 2.027380 6.081877 -7.362967
v 5.924900 6.081877 -7.362967
v 3.434517 6.081877 -7.964708
v 5.924900 6.081877 -7.964708
v 2.027380 6.081877 -7.964708
v 1.008403 6.081877 -7.964708
v -7.384017 6.081877 -7.154832
v -7.384017 6.205451 -7.964708
v 2.027380 6.205451 -7.362967
v 5.924900 6.205451 -7.362967
v 3.434517 6.205451 -7.964708
v 5.924900 6.205451 -7.964708
v 2.027380 6.205451 -7.964708
v 1.008403 6.205451 -7.964708
v -7.384017 6.205451 -7.154832
v -0.504289 6.205451 -7.362967
v -0.504289 6.205451 -7.964708
v 1.008403 6.205451 -7.362967
v 4.526510 6.205451 -7.362967
v -7.384017 6.205451 -7.362967
v 4.526510 6.205451 -7.964708
v 7.964709 6.205451 -7.964708
v 3.434517 6.205451 -7.362967
v 7.964709 6.205451 -7.362967
v -0.504289 4.625607 -7.362967
v -0.504289 4.625607 -7.964708
v 1.008403 4.625607 -7.362967
v 4.526510 4.625607 -7.362967
v -7.384017 4.625607 -7.362967
v 4.526510 4.625607 -7.964708
v 7.964709 4.625607 -7.964708
v 3.434517 4.625607 -7.362967
v 7.964709 4.625607 -7.362967
v -7.384017 4.625606 -7.964708
v 2.027380 4.625606 -7.362967
v 5.924900 4.625606 -7.362967
v 3.434517 4.625606 -7.964708
v 5.924900 4.625606 -7.964708
v 2.027380 4.625606 -7.964708
v 1.008403 4.625606 -7.964708
v -7.384017 4.625606 -7.154832
v -0.504289 4.505555 -7.362967
v -0.504289 4.505555 -7.964708
v 1.008403 4.505555 -7.362967
v 4.526510 4.505555 -7.362967
v -7.384017 4.505555 -7.362967
v 4.526510 4.505555 -7.964708
v 7.964709 4.505555 -7.964708
v 3.434517 4.505555 -7.362967
v 7.964709 4.505555 -7.362967
v -7.384017 4.505555 -7.964708
v 2.027380 4.505555 -7.362967
v 5.924900 4.505555 -7.362967
v 3.434517 4.505555 -7.964708
v 5.924900 4.505555 -7.964708
v 2.027380 4.505555 -7.964708
v 1.008403 4.505555 -7.964708
v -7.384017 4.505555 -7.154832
v -0.504289 3.036427 -7.362967
v -0.504289 3.036427 -7.964708
v 1.008403 3.036427 -7.362967
v 4.526510 3.036427 -7.362967
v -7.384017 3.036427 -7.362967
v 4.526510 3.036427 -7.964708
v 7.964709 3.036427 -7.964708
v 3.434517 3.036427 -7.362967
v 7.964709 3.036427 -7.362967
v -7.384017 3.036427 -7.964708
v 2.027380 3.036427 -7.362967
v 5.924900 3.036427 -7.362967
v 3.434517 3.036427 -7.964708
v 5.924900 3.036427 -7.964708
v 2.027380 3.036427 -7.964708
v 1.008403 3.036427 -7.964708
v -7.384017 3.036427 -7.154832
v -0.504289 2.933702 -7.362967
v -0.504289 2.933702 -7.964708
v 1.008403 2.933702 -7.362967
v 4.526510 2.933702 -7.362967
v -7.384017 2.933702 -7.362967
v 4.526510 2.933702 -7.964708
v 7.964709 2.933702 -7.964708
v 3.434517 2.933702 -7.362967
v 7.964709 2.933702 -7.362967
v -7.384017 2.933702 -7.964708
v 2.027380 2.933702 -7.362967
v 5.924900 2.933702 -7.362967
v 3.434517 2.933702 -7.964708
v 5.924900 2.933702 -7.964708
v 2.027380 2.933702 -7.964708
v 1.008403 2.933702 -7.964708
v -7.384017 2.933702 -7.154832
vn -1.0000 -0.0000 -0.0000
vn -0.0000 -1.0000 -0.0000
vn -0.0000 1.0000 -0.0000
vn 1.0000 -0.0000 -0.0000
vn -0.0000 -0.0000 -1.0000
vn -0.0000 -0.0000 1.0000
vn 0.0420 -0.0000 0.9991
vn -0.0420 -0.0000 -0.9991
vn -0.9991 -0.0000 0.0420
vn 0.9991 -0.0000 -0.0420
vn -0.5791 -0.7278 0.3674
vn 0.5286 -0.4896 -0.6935
vn -0.0011 -0.0548 0.9985
vn 0.6210 0.0405 -0.7828
vn 0.0017 0.0684 0.9977
vn 0.0644 0.0058 0.9979
vn 0.5750 0.7345 0.3604
vn -0.5275 0.4823 -0.6994
vn 0.0008 0.0656 0.9978
vn -0.6080 -0.0479 -0.7925
vn -0.0011 -0.0576 0.9983
vn -0.0640 0.0060 0.9979
vn -0.0923 0.9739 0.2073
vn 0.3330 0.8339 0.4402
vn -0.3128 0.7717 0.5538
vn 0.0765 -0.3075 -0.9485
vn -0.2190 -0.0143 -0.9756
vn 0.2275 0.0136 -0.9737
vn -0.0022 -0.0883 -0.9961
vn -0.0011 -0.0225 -0.9997
vn -0.1146 0.3271 0.9380
vn -0.7725 0.3544 0.5269
vn -0.8126 0.3049 0.4967
vn 0.1780 0.2171 -0.9598
vn 0.4041 0.6530 0.6406
vn -0.6159 0.5378 0.5757
vn -0.0034 -0.3252 0.9457
vn 0.2223 -0.3085 0.9249
vn 0.6437 -0.5527 0.5293
vn 0.6039 -0.7724 0.1968
vn 0.3461 -0.8160 0.4630
vn -0.6054 0.4786 -0.6359
vn 0.3339 0.6363 -0.6955
vn 0.3896 -0.6515 0.6510
vn -0.4981 -0.5478 0.6722
vn -0.1124 -0.9622 0.2482
vn 0.3738 0.7111 0.5955
vn 0.7867 -0.2182 0.5775
vn -0.8447 -0.4555 -0.2809
vn -0.7139 -0.4846 0.5055
vn -0.6828 -0.7131 0.1590
vn 0.7186 0.6709 -0.1833
vn -0.7857 0.2347 0.5723
vn 0.7160 -0.4814 0.5056
vn 0.1195 -0.2837 0.9514
vn -0.3375 -0.6442 -0.6864
vn 0.2948 0.7923 0.5342
vn 0.5796 -0.0027 0.8149
vn -0.0049 -0.4309 0.9024
vn -0.1431 0.4377 0.8877
vn -0.0046 0.4246 0.9054
vn 0.2468 -0.0134 0.9690
vn -0.0031 0.0243 0.9997
vn -0.2471 0.0136 0.9689
vn 0.0139 -0.9999 -0.0070
vn -0.9999 -0.0139 0.0050
vn -0.0139 0.9999 0.0070
vn 0.9999 0.0139 -0.0050
vn -0.0051 0.0069 -1.0000
vn 0.0051 -0.0069 1.0000
vt 0.625000 0.259726
vt 0.625000 0.000000
vt 0.375000 0.250000
vt 0.375000 0.000000
vt 0.625000 0.250000
vt 0.375000 0.500000
vt 0.625000 0.500000
vt 0.375000 0.750000
vt 0.625000 0.750000
vt 0.375000 1.000000
vt 0.125000 0.750000
vt 0.125000 0.500000
vt 0.875000 0.500000
vt 0.625000 1.000000
vt 0.875000 0.750000
vt 0.375000 0.190177
vt 0.625000 0.375000
vt 0.375000 0.375000
vt 0.375000 0.687841
vt 0.625000 0.875000
vt 0.375000 0.875000
vt 0.137904 0.624993
vt 0.137907 0.687853
vt 0.875000 0.687841
vt 0.750000 0.750000
vt 0.750000 0.687841
vt 0.750000 0.559823
vt 0.875000 0.625000
vt 0.750000 0.625000
vt 0.137907 0.505728
vt 0.250000 0.505713
vt 0.625000 0.559823
vt 0.375000 0.625000
vt 0.375000 0.559823
vt 0.625000 0.062159
vt 0.375000 0.125000
vt 0.375000 0.062159
vt 0.362094 0.687819
vt 0.362093 0.744327
vt 0.625000 0.625000
vt 0.625000 0.687841
vt 0.362099 0.624992
vt 0.362094 0.559843
vt 0.137907 0.744287
vt 0.362093 0.505688
vt 0.250000 0.744303
vt 0.750000 0.500000
vt 0.875000 0.559823
vt 0.625000 0.190177
vt 0.125000 0.559823
vt 0.250000 0.500000
vt 0.250000 0.750000
vt 0.125000 0.625000
vt 0.137907 0.559810
vt 0.125000 0.687841
vt 0.625000 0.125000
vt 0.260401 0.462081
vt 0.105000 0.918397
vt 0.032850 0.459198
vt 0.860431 0.921212
vt 0.517218 0.463337
vt 0.788586 0.461907
vt 0.445359 0.003989
vt 0.716637 0.002640
vt 0.188349 0.002812
vt -0.039272 -0.000000
vt 0.332420 0.921391
vt 1.016672 0.459198
vt 0.944538 -0.000000
vt 1.088786 0.918397
vt 0.588933 0.922772
vt 0.625000 0.468068
vt 0.625000 0.429083
vt 0.625000 0.446177
vt 0.625000 0.367424
vt 0.865274 0.500000
vt 0.757576 0.509396
vt 0.757576 0.500000
vt 0.656932 0.500000
vt 0.625000 0.509396
vt 0.678823 0.500000
vt 0.656932 0.509396
vt 0.695917 0.500000
vt 0.678823 0.509396
vt 0.717945 0.500000
vt 0.695917 0.509396
vt 0.733896 0.500000
vt 0.717945 0.509396
vt 0.733896 0.509396
vt 0.625000 0.407055
vt 0.625000 0.391104
vt 0.865274 0.509396
vt 0.865273 0.509396
s 1
usemtl Material.015
f 3/1/1 2/1/1 1/1/1
f 3/1/1 4/1/1 2/1/1
f 141/72/5 116/7/5 142/7/5
f 139/73/5 121/74/5 140/74/5
f 133/1/5 129/75/5 132/75/5
f 119/76/3 130/77/3 129/78/3
f 115/79/3 117/80/3 116/7/3
f 121/81/3 118/82/3 115/79/3
f 123/83/3 122/84/3 121/81/3
f 125/85/3 124/86/3 123/83/3
f 127/87/3 126/88/3 125/85/3
f 129/78/3 128/89/3 127/87/3
f 143/90/5 123/73/5 139/73/5
f 140/74/5 115/72/5 141/72/5
f 145/91/5 125/90/5 143/90/5
f 132/75/5 127/91/5 145/91/5
f 182/80/6 137/82/6 168/82/6
f 175/75/5 145/91/5 172/91/5
f 181/86/6 135/88/6 167/88/6
f 180/7/4 146/80/4 182/80/4
f 172/91/5 143/90/5 171/90/5
f 179/74/5 141/72/5 170/72/5
f 177/84/6 144/86/6 181/86/6
f 171/90/5 139/73/5 169/73/5
f 168/82/6 136/84/6 177/84/6
f 167/88/6 134/89/6 176/89/6
f 166/1/5 132/75/5 175/75/5
f 176/89/6 131/77/6 174/77/6
f 174/77/6 138/92/6 178/92/6
f 169/73/5 140/74/5 179/74/5
f 170/72/5 142/7/5 180/7/5
f 101/1/1 250/1/1 243/1/1
f 158/1/1 173/1/1 166/1/1
f 189/7/5 162/72/5 155/7/5
f 188/74/5 161/73/5 154/74/5
f 183/77/6 153/92/6 187/92/6
f 185/89/6 149/77/6 183/77/6
f 192/1/5 150/75/5 184/75/5
f 185/89/6 159/88/6 151/89/6
f 186/84/6 160/82/6 152/84/6
f 197/90/5 161/73/5 195/73/5
f 186/84/6 156/86/6 190/86/6
f 188/74/5 162/72/5 196/72/5
f 198/91/5 163/90/5 197/90/5
f 189/7/4 157/80/4 191/80/4
f 190/86/6 159/88/6 193/88/6
f 184/75/5 164/91/5 198/91/5
f 191/80/6 160/82/6 194/82/6
f 166/1/1 148/1/1 133/1/1
f 162/72/5 180/7/5 155/7/5
f 161/73/5 179/74/5 154/74/5
f 149/77/6 178/92/6 153/92/6
f 151/89/6 174/77/6 149/77/6
f 158/1/5 175/75/5 150/75/5
f 159/88/6 176/89/6 151/89/6
f 160/82/6 177/84/6 152/84/6
f 163/90/5 169/73/5 161/73/5
f 152/84/6 181/86/6 156/86/6
f 154/74/5 170/72/5 162/72/5
f 164/91/5 171/90/5 163/90/5
f 155/7/4 182/80/4 157/80/4
f 156/86/6 167/88/6 159/88/6
f 150/75/5 172/91/5 164/91/5
f 157/80/6 168/82/6 160/82/6
f 208/80/6 194/82/6 211/82/6
f 201/75/5 198/91/5 215/91/5
f 207/86/6 193/88/6 210/88/6
f 206/7/4 191/80/4 208/80/4
f 215/91/5 197/90/5 214/90/5
f 205/74/5 196/72/5 213/72/5
f 203/84/6 190/86/6 207/86/6
f 214/90/5 195/73/5 212/73/5
f 211/82/6 186/84/6 203/84/6
f 202/89/6 193/88/6 185/89/6
f 209/1/5 184/75/5 201/75/5
f 202/89/6 183/77/6 200/77/6
f 200/77/6 187/92/6 204/92/6
f 205/74/5 195/73/5 188/74/5
f 213/72/5 189/7/5 206/7/5
f 192/1/1 165/1/1 158/1/1
f 230/72/5 206/7/5 223/7/5
f 229/73/5 205/74/5 222/74/5
f 217/77/6 204/92/6 221/93/6
f 219/89/6 200/77/6 217/77/6
f 226/1/5 201/75/5 218/75/5
f 227/88/6 202/89/6 219/89/6
f 228/82/6 203/84/6 220/84/6
f 231/90/5 212/73/5 229/73/5
f 220/84/6 207/86/6 224/86/6
f 222/74/5 213/72/5 230/72/5
f 232/91/5 214/90/5 231/90/5
f 223/7/4 208/80/4 225/80/4
f 224/86/6 210/88/6 227/88/6
f 218/75/5 215/91/5 232/91/5
f 225/80/6 211/82/6 228/82/6
f 209/1/1 199/1/1 192/1/1
f 242/80/6 228/82/6 245/82/6
f 235/75/5 232/91/5 249/91/5
f 241/86/6 227/88/6 244/88/6
f 240/7/4 225/80/4 242/80/4
f 249/91/5 231/90/5 248/90/5
f 239/74/5 230/72/5 247/72/5
f 237/84/6 224/86/6 241/86/6
f 248/90/5 229/73/5 246/73/5
f 245/82/6 220/84/6 237/84/6
f 244/88/6 219/89/6 236/89/6
f 243/1/5 218/75/5 235/75/5
f 236/89/6 217/77/6 234/77/6
f 234/77/6 221/93/6 238/93/6
f 246/73/5 222/74/5 239/74/5
f 247/72/5 223/7/5 240/7/5
f 226/1/1 216/1/1 209/1/1
f 103/72/5 240/7/5 99/7/5
f 107/73/5 239/74/5 105/74/5
f 114/77/6 238/93/6 102/92/6
f 112/89/6 234/77/6 114/77/6
f 101/1/5 235/75/5 113/75/5
f 110/88/6 236/89/6 112/89/6
f 104/82/6 237/84/6 106/84/6
f 109/90/5 246/73/5 107/73/5
f 106/84/6 241/86/6 108/86/6
f 105/74/5 247/72/5 103/72/5
f 111/91/5 248/90/5 109/90/5
f 99/7/4 242/80/4 100/80/4
f 108/86/6 244/88/6 110/88/6
f 113/75/5 249/91/5 111/91/5
f 100/80/6 245/82/6 104/82/6
f 141/72/5 115/72/5 116/7/5
f 139/73/5 123/73/5 121/74/5
f 133/1/5 119/1/5 129/75/5
f 119/76/3 120/92/3 130/77/3
f 115/79/3 118/82/3 117/80/3
f 121/81/3 122/84/3 118/82/3
f 123/83/3 124/86/3 122/84/3
f 125/85/3 126/88/3 124/86/3
f 127/87/3 128/89/3 126/88/3
f 129/78/3 130/77/3 128/89/3
f 143/90/5 125/90/5 123/73/5
f 140/74/5 121/74/5 115/72/5
f 145/91/5 127/91/5 125/90/5
f 142/7/4 116/7/4 117/80/4
f 132/75/5 129/75/5 127/91/5
f 182/80/6 146/80/6 137/82/6
f 175/75/5 132/75/5 145/91/5
f 181/86/6 144/86/6 135/88/6
f 180/7/4 142/7/4 146/80/4
f 172/91/5 145/91/5 143/90/5
f 179/74/5 140/74/5 141/72/5
f 177/84/6 136/84/6 144/86/6
f 171/90/5 143/90/5 139/73/5
f 168/82/6 137/82/6 136/84/6
f 167/88/6 135/88/6 134/89/6
f 166/1/5 133/1/5 132/75/5
f 176/89/6 134/89/6 131/77/6
f 174/77/6 131/77/6 138/92/6
f 169/73/5 139/73/5 140/74/5
f 170/72/5 141/72/5 142/7/5
f 101/1/1 147/1/1 250/1/1
f 158/1/1 165/1/1 173/1/1
f 189/7/5 196/72/5 162/72/5
f 188/74/5 195/73/5 161/73/5
f 183/77/6 149/77/6 153/92/6
f 185/89/6 151/89/6 149/77/6
f 192/1/5 158/1/5 150/75/5
f 185/89/6 193/88/6 159/88/6
f 186/84/6 194/82/6 160/82/6
f 197/90/5 163/90/5 161/73/5
f 186/84/6 152/84/6 156/86/6
f 188/74/5 154/74/5 162/72/5
f 198/91/5 164/91/5 163/90/5
f 189/7/4 155/7/4 157/80/4
f 190/86/6 156/86/6 159/88/6
f 184/75/5 150/75/5 164/91/5
f 191/80/6 157/80/6 160/82/6
f 166/1/1 173/1/1 148/1/1
f 162/72/5 170/72/5 180/7/5
f 161/73/5 169/73/5 179/74/5
f 149/77/6 174/77/6 178/92/6
f 151/89/6 176/89/6 174/77/6
f 158/1/5 166/1/5 175/75/5
f 159/88/6 167/88/6 176/89/6
f 160/82/6 168/82/6 177/84/6
f 163/90/5 171/90/5 169/73/5
f 152/84/6 177/84/6 181/86/6
f 154/74/5 179/74/5 170/72/5
f 164/91/5 172/91/5 171/90/5
f 155/7/4 180/7/4 182/80/4
f 156/86/6 181/86/6 167/88/6
f 150/75/5 175/75/5 172/91/5
f 157/80/6 182/80/6 168/82/6
f 208/80/6 191/80/6 194/82/6
f 201/75/5 184/75/5 198/91/5
f 207/86/6 190/86/6 193/88/6
f 206/7/4 189/7/4 191/80/4
f 215/91/5 198/91/5 197/90/5
f 205/74/5 188/74/5 196/72/5
f 203/84/6 186/84/6 190/86/6
f 214/90/5 197/90/5 195/73/5
f 211/82/6 194/82/6 186/84/6
f 202/89/6 210/88/6 193/88/6
f 209/1/5 192/1/5 184/75/5
f 202/89/6 185/89/6 183/77/6
f 200/77/6 183/77/6 187/92/6
f 205/74/5 212/73/5 195/73/5
f 213/72/5 196/72/5 189/7/5
f 192/1/1 199/1/1 165/1/1
f 230/72/5 213/72/5 206/7/5
f 229/73/5 212/73/5 205/74/5
f 217/77/6 200/77/6 204/92/6
f 219/89/6 202/89/6 200/77/6
f 226/1/5 209/1/5 201/75/5
f 227/88/6 210/88/6 202/89/6
f 228/82/6 211/82/6 203/84/6
f 231/90/5 214/90/5 212/73/5
f 220/84/6 203/84/6 207/86/6
f 222/74/5 205/74/5 213/72/5
f 232/91/5 215/91/5 214/90/5
f 223/7/4 206/7/4 208/80/4
f 224/86/6 207/86/6 210/88/6
f 218/75/5 201/75/5 215/91/5
f 225/80/6 208/80/6 211/82/6
f 209/1/1 216/1/1 199/1/1
f 242/80/6 225/80/6 228/82/6
f 235/75/5 218/75/5 232/91/5
f 241/86/6 224/86/6 227/88/6
f 240/7/4 223/7/4 225/80/4
f 249/91/5 232/91/5 231/90/5
f 239/74/5 222/74/5 230/72/5
f 237/84/6 220/84/6 224/86/6
f 248/90/5 231/90/5 229/73/5
f 245/82/6 228/82/6 220/84/6
f 244/88/6 227/88/6 219/89/6
f 243/1/5 226/1/5 218/75/5
f 236/89/6 219/89/6 217/77/6
f 234/77/6 217/77/6 221/93/6
f 246/73/5 229/73/5 222/74/5
f 247/72/5 230/72/5 223/7/5
f 226/1/1 233/1/1 216/1/1
f 103/72/5 247/72/5 240/7/5
f 107/73/5 246/73/5 239/74/5
f 114/77/6 234/77/6 238/93/6
f 112/89/6 236/89/6 234/77/6
f 101/1/5 243/1/5 235/75/5
f 110/88/6 244/88/6 236/89/6
f 104/82/6 245/82/6 237/84/6
f 109/90/5 248/90/5 246/73/5
f 106/84/6 237/84/6 241/86/6
f 105/74/5 239/74/5 247/72/5
f 111/91/5 249/91/5 248/90/5
f 99/7/4 240/7/4 242/80/4
f 108/86/6 241/86/6 244/88/6
f 113/75/5 235/75/5 249/91/5
f 100/80/6 242/80/6 245/82/6
usemtl Material.004
f 6/2/2 7/3/2 5/4/2
f 8/5/1 11/6/1 7/3/1
f 12/7/3 9/8/3 11/6/3
f 10/9/4 5/10/4 9/8/4
f 11/6/5 5/11/5 7/12/5
f 8/13/6 10/9/6 12/7/6
f 6/2/2 8/5/2 7/3/2
f 8/5/1 12/7/1 11/6/1
f 12/7/3 10/9/3 9/8/3
f 10/9/4 6/14/4 5/10/4
f 11/6/5 9/8/5 5/11/5
f 8/13/6 6/15/6 10/9/6
usemtl Material.007
f 14/2/7 15/3/7 13/4/7
f 15/3/3 20/7/3 19/6/3
f 20/7/8 17/8/8 19/6/8
f 18/9/2 13/10/2 17/8/2
f 19/6/9 13/11/9 15/12/9
f 16/13/10 18/9/10 20/7/10
f 14/2/7 16/5/7 15/3/7
f 15/3/3 16/5/3 20/7/3
f 20/7/8 18/9/8 17/8/8
f 18/9/2 14/14/2 13/10/2
f 19/6/9 17/8/9 13/11/9
f 16/13/10 14/15/10 18/9/10
usemtl Material.008
f 49/16/11 24/5/12 48/3/13
f 34/17/14 50/6/15 51/18/16
f 53/19/17 26/9/18 52/8/19
f 36/20/20 54/10/21 55/21/22
f 29/22/23 69/23/24 38/23/25
f 40/24/26 36/25/20 42/26/27
f 47/27/28 30/28/29 37/29/30
f 23/30/31 70/31/32 71/30/33
f 46/32/34 56/33/35 44/34/36
f 40/35/26 58/36/37 59/37/38
f 41/38/39 73/39/40 62/38/41
f 46/32/34 37/29/30 32/40/42
f 42/26/27 26/9/18 39/41/43
f 31/42/44 65/43/45 57/43/46
f 26/9/18 55/21/22 52/8/19
f 24/5/12 51/18/16 48/3/13
f 38/23/25 74/44/47 21/44/48
f 37/29/30 39/41/43 32/40/42
f 22/2/49 59/37/38 54/4/21
f 30/28/29 42/26/27 37/29/30
f 33/31/50 72/45/51 70/31/32
f 56/33/35 39/41/43 53/19/17
f 28/7/52 47/27/28 46/32/34
f 57/43/46 72/45/51 27/45/53
f 28/7/52 44/34/36 50/6/15
f 35/46/54 73/39/40 25/39/55
f 34/47/14 43/48/56 47/27/28
f 58/36/37 43/49/56 49/16/11
f 23/30/31 49/50/11 48/12/13
f 27/45/53 51/51/16 50/6/15
f 25/39/55 53/19/17 52/8/19
f 21/44/48 55/52/22 54/11/21
f 25/39/55 55/52/22 35/46/54
f 31/42/44 44/34/36 56/33/35
f 38/23/25 58/53/37 29/22/23
f 45/54/57 58/53/37 49/50/11
f 21/44/48 59/55/38 38/23/25
f 23/30/31 51/51/16 33/31/50
f 31/42/44 53/19/17 41/38/39
f 27/45/53 44/34/36 57/43/46
f 21/44/48 60/46/58 35/46/54
f 31/42/44 62/38/41 66/42/59
f 45/54/57 71/30/33 67/54/60
f 29/22/23 67/54/60 68/22/61
f 49/16/11 43/49/56 24/5/12
f 34/17/14 28/7/52 50/6/15
f 53/19/17 39/41/43 26/9/18
f 36/20/20 22/14/49 54/10/21
f 29/22/23 68/22/61 69/23/24
f 40/24/26 22/15/49 36/25/20
f 47/27/28 43/48/56 30/28/29
f 23/30/31 33/31/50 70/31/32
f 46/32/34 32/40/42 56/33/35
f 40/35/26 30/56/29 58/36/37
f 41/38/39 25/39/55 73/39/40
f 46/32/34 47/27/28 37/29/30
f 42/26/27 36/25/20 26/9/18
f 31/42/44 66/42/59 65/43/45
f 26/9/18 36/20/20 55/21/22
f 24/5/12 34/17/14 51/18/16
f 38/23/25 69/23/24 74/44/47
f 37/29/30 42/26/27 39/41/43
f 22/2/49 40/35/26 59/37/38
f 30/28/29 40/24/26 42/26/27
f 33/31/50 27/45/53 72/45/51
f 56/33/35 32/40/42 39/41/43
f 28/7/52 34/47/14 47/27/28
f 57/43/46 65/43/45 72/45/51
f 28/7/52 46/32/34 44/34/36
f 35/46/54 60/46/58 73/39/40
f 34/47/14 24/13/12 43/48/56
f 58/36/37 30/56/29 43/49/56
f 23/30/31 45/54/57 49/50/11
f 27/45/53 33/31/50 51/51/16
f 25/39/55 41/38/39 53/19/17
f 21/44/48 35/46/54 55/52/22
f 25/39/55 52/8/19 55/52/22
f 31/42/44 57/43/46 44/34/36
f 38/23/25 59/55/38 58/53/37
f 45/54/57 29/22/23 58/53/37
f 21/44/48 54/11/21 59/55/38
f 23/30/31 48/12/13 51/51/16
f 31/42/44 56/33/35 53/19/17
f 27/45/53 50/6/15 44/34/36
f 21/44/48 74/44/47 60/46/58
f 31/42/44 41/38/39 62/38/41
f 45/54/57 23/30/31 71/30/33
f 29/22/23 45/54/57 67/54/60
usemtl Material.019
f 61/57/62 73/58/40 60/59/58
f 65/60/45 63/61/63 64/62/64
f 64/62/64 68/63/61 67/64/60
f 69/65/24 60/59/58 74/66/47
f 68/63/61 61/57/62 69/65/24
f 63/61/63 62/67/41 61/57/62
f 70/68/32 67/64/60 71/69/33
f 72/70/51 64/62/64 70/68/32
f 61/57/62 62/67/41 73/58/40
f 65/60/45 66/71/59 63/61/63
f 64/62/64 63/61/63 68/63/61
f 69/65/24 61/57/62 60/59/58
f 68/63/61 63/61/63 61/57/62
f 63/61/63 66/71/59 62/67/41
f 70/68/32 64/62/64 67/64/60
f 72/70/51 65/60/45 64/62/64
usemtl Material.006
f 76/2/7 77/3/7 75/4/7
f 77/3/3 82/7/3 81/6/3
f 82/7/8 79/8/8 81/6/8
f 80/9/2 75/10/2 79/8/2
f 81/6/9 75/11/9 77/12/9
f 78/13/10 80/9/10 82/7/10
f 76/2/7 78/5/7 77/3/7
f 77/3/3 78/5/3 82/7/3
f 82/7/8 80/9/8 79/8/8
f 80/9/2 76/14/2 75/10/2
f 81/6/9 79/8/9 75/11/9
f 78/13/10 76/15/10 80/9/10
usemtl Material.003
f 84/2/65 85/3/65 83/4/65
f 86/5/66 89/6/66 85/3/66
f 89/6/67 88/9/67 87/8/67
f 88/9/68 83/10/68 87/8/68
f 85/12/69 87/8/69 83/11/69
f 86/13/70 88/9/70 90/7/70
f 84/2/65 86/5/65 85/3/65
f 86/5/66 90/7/66 89/6/66
f 89/6/67 90/7/67 88/9/67
f 88/9/68 84/14/68 83/10/68
f 85/12/69 89/6/69 87/8/69
f 86/13/70 84/15/70 88/9/70
usemtl Material.002
f 92/2/2 93/3/2 91/4/2
f 94/5/1 97/6/1 93/3/1
f 98/7/3 95/8/3 97/6/3
f 96/9/4 91/10/4 95/8/4
f 97/6/5 91/11/5 93/12/5
f 94/13/6 96/9/6 98/7/6
f 92/2/2 94/5/2 93/3/2
f 94/5/1 98/7/1 97/6/1
f 98/7/3 96/9/3 95/8/3
f 96/9/4 92/14/4 91/10/4
f 97/6/5 95/8/5 91/11/5
f 94/13/6 92/15/6 96/9/6
