# Blender 5.0.1
# www.blender.org
mtllib ColumIzqS1.mtl
o ColumIzqS1
v 3.825004 0.221046 1.000000
v 4.866893 6.129893 1.000000
v 3.825004 0.221046 -1.000000
v 4.866893 6.129893 -1.000000
v 4.218927 0.151587 1.000000
v 5.260816 6.060433 1.000000
v 4.218927 0.151587 -1.000000
v 5.260816 6.060433 -1.000000
v 4.150000 5.200679 -1.911209
v 4.150000 5.200679 1.911208
v 4.350000 5.289470 -2.000000
v 4.350000 5.289470 2.000000
v 4.150000 3.378261 -1.911209
v 4.150000 3.378262 1.911208
v 4.350000 3.289470 -2.000000
v 4.350000 3.289470 2.000000
v 4.150000 5.289470 -2.000000
v 4.150000 5.289470 2.000000
v 4.150000 3.289470 -2.000000
v 4.150000 3.289470 2.000000
v 4.167851 5.200679 -1.911209
v 4.167851 5.200679 1.911208
v 4.167851 3.378261 -1.911209
v 4.167851 3.378262 1.911208
vn -0.9848 0.1736 -0.0000
vn -0.0000 -0.0000 -1.0000
vn 0.9848 -0.1736 -0.0000
vn -0.0000 -0.0000 1.0000
vn -0.1736 -0.9848 -0.0000
vn 0.1736 0.9848 -0.0000
vn -0.0000 1.0000 -0.0000
vn 1.0000 -0.0000 -0.0000
vn -0.0000 -1.0000 -0.0000
vn -0.0000 -0.7071 -0.7071
vn -0.0000 0.7071 -0.7071
vn -1.0000 -0.0000 -0.0000
vn -0.0000 0.7071 0.7071
vn -0.0000 -0.7071 0.7071
vt 0.625000 0.000000
vt 0.375000 0.250000
vt 0.375000 0.000000
vt 0.625000 0.500000
vt 0.375000 0.500000
vt 0.375000 0.750000
vt 0.625000 0.750000
vt 0.375000 1.000000
vt 0.125000 0.750000
vt 0.125000 0.500000
vt 0.875000 0.500000
vt 0.625000 0.250000
vt 0.625000 1.000000
vt 0.875000 0.750000
vt 0.619451 0.988901
vt 1.001693 0.007407
vt 0.619451 0.761099
vt 0.380549 0.988901
vt 0.380549 0.761099
vt -0.001692 0.007407
vt -0.001692 0.989689
vt 1.001693 0.989690
s 1
usemtl Material.010
f 2/1/1 3/2/1 1/3/1
f 3/2/2 8/4/2 7/5/2
f 8/4/3 5/6/3 7/5/3
f 6/7/4 1/8/4 5/6/4
f 7/5/5 1/9/5 3/10/5
f 4/11/6 6/7/6 8/4/6
f 2/1/1 4/12/1 3/2/1
f 3/2/2 4/12/2 8/4/2
f 8/4/3 6/7/3 5/6/3
f 6/7/4 2/13/4 1/8/4
f 7/5/5 5/6/5 1/9/5
f 4/11/6 2/14/6 6/7/6
usemtl Material.005
f 18/1/7 11/2/7 17/3/7
f 12/12/8 15/5/8 11/2/8
f 16/4/9 19/6/9 15/5/9
f 10/15/10 24/16/11 14/17/11
f 15/5/2 17/9/2 11/10/2
f 12/11/4 20/7/4 16/4/4
f 10/15/12 17/8/12 9/18/12
f 13/19/12 20/7/12 14/17/12
f 9/18/12 19/6/12 13/19/12
f 14/17/12 18/13/12 10/15/12
f 14/17/11 23/20/13 13/19/13
f 13/19/13 21/21/14 9/18/14
f 9/18/14 22/22/10 10/15/10
f 18/1/7 12/12/7 11/2/7
f 12/12/8 16/4/8 15/5/8
f 16/4/9 20/7/9 19/6/9
f 10/15/10 22/22/10 24/16/11
f 15/5/2 19/6/2 17/9/2
f 12/11/4 18/14/4 20/7/4
f 10/15/12 18/13/12 17/8/12
f 13/19/12 19/6/12 20/7/12
f 9/18/12 17/8/12 19/6/12
f 14/17/12 20/7/12 18/13/12
f 14/17/11 24/16/11 23/20/13
f 13/19/13 23/20/13 21/21/14
f 9/18/14 21/21/14 22/22/10
usemtl Material.011
f 24/16/12 21/21/12 23/20/12
f 24/16/12 22/22/12 21/21/12
