# Blender 5.0.1
# www.blender.org
mtllib ColumDerS1.mtl
o ColumDerS1
v -4.350000 5.289470 -2.000000
v -4.350000 5.289470 2.000000
v -4.150000 5.219519 -1.930049
v -4.150000 5.219519 1.930048
v -4.350000 3.289470 -2.000000
v -4.350000 3.289470 2.000000
v -4.150000 3.359421 -1.930049
v -4.150000 3.359421 1.930048
v -4.150000 5.289470 -2.000000
v -4.150000 5.289470 2.000000
v -4.150000 3.289470 -2.000000
v -4.150000 3.289470 2.000000
v -4.208086 5.219519 -1.930049
v -4.208086 5.219519 1.930048
v -4.208086 3.359421 -1.930049
v -4.208086 3.359421 1.930048
v -4.218927 0.151587 1.000000
v -5.260816 6.060433 1.000000
v -4.218927 0.151587 -1.000000
v -5.260816 6.060433 -1.000000
v -3.825004 0.221046 1.000000
v -4.866893 6.129893 1.000000
v -3.825004 0.221046 -1.000000
v -4.866893 6.129893 -1.000000
vn -0.0000 1.0000 -0.0000
vn -0.0000 0.7071 -0.7071
vn -0.0000 -0.7071 -0.7071
vn -0.0000 -1.0000 -0.0000
vn -1.0000 -0.0000 -0.0000
vn -0.0000 -0.0000 -1.0000
vn -0.0000 -0.0000 1.0000
vn 1.0000 -0.0000 -0.0000
vn -0.0000 -0.7071 0.7071
vn -0.0000 0.7071 0.7071
vn -0.9848 -0.1736 -0.0000
vn 0.9848 0.1736 -0.0000
vn 0.1736 -0.9848 -0.0000
vn -0.1736 0.9848 -0.0000
vt 0.625000 0.000000
vt 0.375000 0.250000
vt 0.375000 0.000000
vt 0.620628 0.491256
vt 0.620628 0.258744
vt 0.625000 0.500000
vt 0.375000 0.750000
vt 0.375000 0.500000
vt 0.625000 0.750000
vt 0.375000 1.000000
vt 0.125000 0.750000
vt 0.125000 0.500000
vt 0.875000 0.500000
vt 0.379372 0.258744
vt 0.625000 0.250000
vt 0.379372 0.491256
vt 0.625000 1.000000
vt 0.875000 0.750000
vt 0.018236 1.000000
vt 1.005127 0.000000
vt 1.005127 1.000000
vt 0.018237 0.000000
s 1
usemtl Material.004
f 2/1/1 9/2/1 1/3/1
f 8/4/2 14/5/3 4/5/3
f 12/6/4 5/7/4 11/8/4
f 6/9/5 1/10/5 5/7/5
f 11/8/6 1/11/6 9/12/6
f 10/13/7 6/9/7 12/6/7
f 3/14/8 10/15/8 4/5/8
f 7/16/8 9/2/8 3/14/8
f 8/4/8 10/15/8 12/6/8
f 8/4/8 11/8/8 7/16/8
f 4/5/3 13/14/9 3/14/9
f 7/16/10 16/4/2 8/4/2
f 3/14/9 15/16/10 7/16/10
f 2/1/1 10/15/1 9/2/1
f 8/4/2 16/4/2 14/5/3
f 12/6/4 6/9/4 5/7/4
f 6/9/5 2/17/5 1/10/5
f 11/8/6 5/7/6 1/11/6
f 10/13/7 2/18/7 6/9/7
f 3/14/8 9/2/8 10/15/8
f 7/16/8 11/8/8 9/2/8
f 8/4/8 4/5/8 10/15/8
f 8/4/8 12/6/8 11/8/8
f 4/5/3 14/5/3 13/14/9
f 7/16/10 15/16/10 16/4/2
f 3/14/9 13/14/9 15/16/10
usemtl Material.008
f 14/19/8 15/20/8 13/21/8
f 14/19/8 16/22/8 15/20/8
usemtl Material.009
f 18/1/11 19/2/11 17/3/11
f 20/15/6 23/8/6 19/2/6
f 24/6/12 21/7/12 23/8/12
f 21/7/7 18/17/7 17/10/7
f 23/8/13 17/11/13 19/12/13
f 20/13/14 22/9/14 24/6/14
f 18/1/11 20/15/11 19/2/11
f 20/15/6 24/6/6 23/8/6
f 24/6/12 22/9/12 21/7/12
f 21/7/7 22/9/7 18/17/7
f 23/8/13 21/7/13 17/11/13
f 20/13/14 18/18/14 22/9/14
