# Blender 5.0.1
# www.blender.org
mtllib Stand1.mtl
o Cube.001
v -4.350000 5.289470 -2.000000
v -4.350000 5.289470 2.000000
v -4.150000 5.219519 -1.930049
v -4.150000 5.219519 1.930048
v -4.350000 3.289470 -2.000000
v -4.350000 3.289470 2.000000
v -4.150000 3.359421 -1.930049
v -4.150000 3.359421 1.930048
v -4.150000 5.289470 -2.000000
v -4.150000 5.289470 2.000000
v -4.150000 3.289470 -2.000000
v -4.150000 3.289470 2.000000
v -4.208086 5.219519 -1.930049
v -4.208086 5.219519 1.930048
v -4.208086 3.359421 -1.930049
v -4.208086 3.359421 1.930048
vn -0.0000 1.0000 -0.0000
vn -0.0000 0.7071 -0.7071
vn -0.0000 -0.7071 -0.7071
vn -0.0000 -1.0000 -0.0000
vn -1.0000 -0.0000 -0.0000
vn -0.0000 -0.0000 -1.0000
vn -0.0000 -0.0000 1.0000
vn 1.0000 -0.0000 -0.0000
vn -0.0000 -0.7071 0.7071
vn -0.0000 0.7071 0.7071
vt 0.625000 0.000000
vt 0.375000 0.250000
vt 0.375000 0.000000
vt 0.620628 0.491256
vt 0.620628 0.258744
vt 0.625000 0.500000
vt 0.375000 0.750000
vt 0.375000 0.500000
vt 0.625000 0.750000
vt 0.375000 1.000000
vt 0.125000 0.750000
vt 0.125000 0.500000
vt 0.875000 0.500000
vt 0.379372 0.258744
vt 0.625000 0.250000
vt 0.379372 0.491256
vt 0.625000 1.000000
vt 0.875000 0.750000
vt 0.018236 1.000000
vt 1.005127 0.000000
vt 1.005127 1.000000
vt 0.018237 0.000000
s 1
usemtl Material.004
f 2/1/1 9/2/1 1/3/1
f 8/4/2 14/5/3 4/5/3
f 12/6/4 5/7/4 11/8/4
f 6/9/5 1/10/5 5/7/5
f 11/8/6 1/11/6 9/12/6
f 10/13/7 6/9/7 12/6/7
f 3/14/8 10/15/8 4/5/8
f 7/16/8 9/2/8 3/14/8
f 8/4/8 10/15/8 12/6/8
f 8/4/8 11/8/8 7/16/8
f 4/5/3 13/14/9 3/14/9
f 7/16/10 16/4/2 8/4/2
f 3/14/9 15/16/10 7/16/10
f 2/1/1 10/15/1 9/2/1
f 8/4/2 16/4/2 14/5/3
f 12/6/4 6/9/4 5/7/4
f 6/9/5 2/17/5 1/10/5
f 11/8/6 5/7/6 1/11/6
f 10/13/7 2/18/7 6/9/7
f 3/14/8 9/2/8 10/15/8
f 7/16/8 11/8/8 9/2/8
f 8/4/8 4/5/8 10/15/8
f 8/4/8 12/6/8 11/8/8
f 4/5/3 14/5/3 13/14/9
f 7/16/10 15/16/10 16/4/2
f 3/14/9 13/14/9 15/16/10
usemtl Material.008
f 14/19/8 15/20/8 13/21/8
f 14/19/8 16/22/8 15/20/8
o Cube.002
v 3.825004 0.221046 1.000000
v 4.866893 6.129893 1.000000
v 3.825004 0.221046 -1.000000
v 4.866893 6.129893 -1.000000
v 4.218927 0.151587 1.000000
v 5.260816 6.060433 1.000000
v 4.218927 0.151587 -1.000000
v 5.260816 6.060433 -1.000000
vn -0.9848 0.1736 -0.0000
vn -0.0000 -0.0000 -1.0000
vn 0.9848 -0.1736 -0.0000
vn -0.0000 -0.0000 1.0000
vn -0.1736 -0.9848 -0.0000
vn 0.1736 0.9848 -0.0000
vt 0.625000 0.000000
vt 0.375000 0.250000
vt 0.375000 0.000000
vt 0.625000 0.500000
vt 0.375000 0.500000
vt 0.375000 0.750000
vt 0.625000 0.750000
vt 0.375000 1.000000
vt 0.125000 0.750000
vt 0.125000 0.500000
vt 0.875000 0.500000
vt 0.625000 0.250000
vt 0.625000 1.000000
vt 0.875000 0.750000
s 1
usemtl Material.010
f 18/23/11 19/24/11 17/25/11
f 19/24/12 24/26/12 23/27/12
f 24/26/13 21/28/13 23/27/13
f 22/29/14 17/30/14 21/28/14
f 23/27/15 17/31/15 19/32/15
f 20/33/16 22/29/16 24/26/16
f 18/23/11 20/34/11 19/24/11
f 19/24/12 20/34/12 24/26/12
f 24/26/13 22/29/13 21/28/13
f 22/29/14 18/35/14 17/30/14
f 23/27/15 21/28/15 17/31/15
f 20/33/16 18/36/16 22/29/16
o Cube.003
v -4.218927 0.151587 1.000000
v -5.260816 6.060433 1.000000
v -4.218927 0.151587 -1.000000
v -5.260816 6.060433 -1.000000
v -3.825004 0.221046 1.000000
v -4.866893 6.129893 1.000000
v -3.825004 0.221046 -1.000000
v -4.866893 6.129893 -1.000000
vn -0.9848 -0.1736 -0.0000
vn -0.0000 -0.0000 -1.0000
vn 0.9848 0.1736 -0.0000
vn -0.0000 -0.0000 1.0000
vn 0.1736 -0.9848 -0.0000
vn -0.1736 0.9848 -0.0000
vt 0.625000 0.000000
vt 0.375000 0.250000
vt 0.375000 0.000000
vt 0.625000 0.250000
vt 0.375000 0.500000
vt 0.625000 0.500000
vt 0.375000 0.750000
vt 0.625000 1.000000
vt 0.375000 1.000000
vt 0.125000 0.750000
vt 0.125000 0.500000
vt 0.875000 0.500000
vt 0.625000 0.750000
vt 0.875000 0.750000
s 1
usemtl Material.009
f 26/37/17 27/38/17 25/39/17
f 28/40/18 31/41/18 27/38/18
f 32/42/19 29/43/19 31/41/19
f 29/43/20 26/44/20 25/45/20
f 31/41/21 25/46/21 27/47/21
f 28/48/22 30/49/22 32/42/22
f 26/37/17 28/40/17 27/38/17
f 28/40/18 32/42/18 31/41/18
f 32/42/19 30/49/19 29/43/19
f 29/43/20 30/49/20 26/44/20
f 31/41/21 29/43/21 25/46/21
f 28/48/22 26/50/22 30/49/22
o Cube.004
v 4.150000 5.200679 -1.911209
v 4.150000 5.200679 1.911208
v 4.350000 5.289470 -2.000000
v 4.350000 5.289470 2.000000
v 4.150000 3.378261 -1.911209
v 4.150000 3.378262 1.911208
v 4.350000 3.289470 -2.000000
v 4.350000 3.289470 2.000000
v 4.150000 5.289470 -2.000000
v 4.150000 5.289470 2.000000
v 4.150000 3.289470 -2.000000
v 4.150000 3.289470 2.000000
v 4.167851 5.200679 -1.911209
v 4.167851 5.200679 1.911208
v 4.167851 3.378261 -1.911209
v 4.167851 3.378262 1.911208
vn -0.0000 1.0000 -0.0000
vn 1.0000 -0.0000 -0.0000
vn -0.0000 -1.0000 -0.0000
vn -0.0000 -0.7071 -0.7071
vn -0.0000 0.7071 -0.7071
vn -0.0000 -0.0000 -1.0000
vn -0.0000 -0.0000 1.0000
vn -1.0000 -0.0000 -0.0000
vn -0.0000 0.7071 0.7071
vn -0.0000 -0.7071 0.7071
vt 0.625000 0.000000
vt 0.375000 0.250000
vt 0.375000 0.000000
vt 0.625000 0.250000
vt 0.375000 0.500000
vt 0.625000 0.500000
vt 0.375000 0.750000
vt 0.619451 0.988901
vt 1.001693 0.007407
vt 0.619451 0.761099
vt 0.125000 0.750000
vt 0.125000 0.500000
vt 0.875000 0.500000
vt 0.625000 0.750000
vt 0.375000 1.000000
vt 0.380549 0.988901
vt 0.380549 0.761099
vt 0.625000 1.000000
vt -0.001692 0.007407
vt -0.001692 0.989689
vt 1.001693 0.989690
vt 0.875000 0.750000
s 1
usemtl Material.005
f 42/51/23 35/52/23 41/53/23
f 36/54/24 39/55/24 35/52/24
f 40/56/25 43/57/25 39/55/25
f 34/58/26 48/59/27 38/60/27
f 39/55/28 41/61/28 35/62/28
f 36/63/29 44/64/29 40/56/29
f 34/58/30 41/65/30 33/66/30
f 37/67/30 44/64/30 38/60/30
f 33/66/30 43/57/30 37/67/30
f 38/60/30 42/68/30 34/58/30
f 38/60/27 47/69/31 37/67/31
f 37/67/31 45/70/32 33/66/32
f 33/66/32 46/71/26 34/58/26
f 42/51/23 36/54/23 35/52/23
f 36/54/24 40/56/24 39/55/24
f 40/56/25 44/64/25 43/57/25
f 34/58/26 46/71/26 48/59/27
f 39/55/28 43/57/28 41/61/28
f 36/63/29 42/72/29 44/64/29
f 34/58/30 42/68/30 41/65/30
f 37/67/30 43/57/30 44/64/30
f 33/66/30 41/65/30 43/57/30
f 38/60/30 44/64/30 42/68/30
f 38/60/27 48/59/27 47/69/31
f 37/67/31 47/69/31 45/70/32
f 33/66/32 45/70/32 46/71/26
usemtl Material.011
f 48/59/30 45/70/30 47/69/30
f 48/59/30 46/71/30 45/70/30
o Cube.006
v 2.200000 0.200000 2.500000
v 2.200000 2.200000 2.500000
v 2.200000 0.200000 1.500000
v 2.200000 2.200000 1.500000
v 3.800000 0.200000 2.500000
v 3.800000 2.200000 2.500000
v 3.800000 0.200000 1.500000
v 3.800000 2.200000 1.500000
vn -1.0000 -0.0000 -0.0000
vn -0.0000 -0.0000 -1.0000
vn 1.0000 -0.0000 -0.0000
vn -0.0000 -0.0000 1.0000
vn -0.0000 -1.0000 -0.0000
vn -0.0000 1.0000 -0.0000
vt 0.625000 0.000000
vt 0.375000 0.250000
vt 0.375000 0.000000
vt 0.625000 0.250000
vt 0.375000 0.500000
vt 0.625000 0.500000
vt 0.375000 0.750000
vt 0.625000 0.750000
vt 0.375000 1.000000
vt 0.125000 0.750000
vt 0.125000 0.500000
vt 0.875000 0.500000
vt 0.625000 1.000000
vt 0.875000 0.750000
s 1
usemtl Material.007
f 50/73/33 51/74/33 49/75/33
f 52/76/34 55/77/34 51/74/34
f 56/78/35 53/79/35 55/77/35
f 54/80/36 49/81/36 53/79/36
f 55/77/37 49/82/37 51/83/37
f 52/84/38 54/80/38 56/78/38
f 50/73/33 52/76/33 51/74/33
f 52/76/34 56/78/34 55/77/34
f 56/78/35 54/80/35 53/79/35
f 54/80/36 50/85/36 49/81/36
f 55/77/37 53/79/37 49/82/37
f 52/84/38 50/86/38 54/80/38
o Cube.007
v -5.500000 6.000000 3.000000
v -5.500000 7.000000 3.000000
v -5.500000 6.000000 -3.000000
v -5.500000 7.000000 -3.000000
v 5.500000 6.000000 3.000000
v 5.500000 7.000000 3.000000
v 5.500000 6.000000 -3.000000
v 5.500000 7.000000 -3.000000
vn -1.0000 -0.0000 -0.0000
vn -0.0000 -0.0000 -1.0000
vn 1.0000 -0.0000 -0.0000
vn -0.0000 -0.0000 1.0000
vn -0.0000 -1.0000 -0.0000
vn -0.0000 1.0000 -0.0000
vt 3.000000 0.000000
vt -2.000000 0.250000
vt -2.000000 0.000000
vt 3.000000 0.250000
vt -2.000000 0.500000
vt 3.000000 0.500000
vt -2.000000 0.750000
vt 3.000000 0.750000
vt -2.000000 1.000000
vt -7.000000 0.750000
vt -7.000000 0.500000
vt 8.000000 0.500000
vt 3.000000 1.000000
vt 8.000000 0.750000
s 1
usemtl Material.003
f 58/87/39 59/88/39 57/89/39
f 60/90/40 63/91/40 59/88/40
f 64/92/41 61/93/41 63/91/41
f 62/94/42 57/95/42 61/93/42
f 63/91/43 57/96/43 59/97/43
f 60/98/44 62/94/44 64/92/44
f 58/87/39 60/90/39 59/88/39
f 60/90/40 64/92/40 63/91/40
f 64/92/41 62/94/41 61/93/41
f 62/94/42 58/99/42 57/95/42
f 63/91/43 61/93/43 57/96/43
f 60/98/44 58/100/44 62/94/44
o Cube.010
v -5.000000 -0.200000 3.000000
v -5.000000 0.200000 3.000000
v -5.000000 -0.200000 -3.000000
v -5.000000 0.200000 -3.000000
v 5.000000 -0.200000 3.000000
v 5.000000 0.200000 3.000000
v 5.000000 -0.200000 -3.000000
v 5.000000 0.200000 -3.000000
vn -1.0000 -0.0000 -0.0000
vn -0.0000 -0.0000 -1.0000
vn 1.0000 -0.0000 -0.0000
vn -0.0000 -0.0000 1.0000
vn -0.0000 -1.0000 -0.0000
vn -0.0000 1.0000 -0.0000
vt 0.625000 0.000000
vt 0.375000 0.250000
vt 0.375000 0.000000
vt 0.625000 0.250000
vt 0.375000 0.500000
vt 0.625000 0.500000
vt 0.375000 0.750000
vt 0.625000 0.750000
vt 0.375000 1.000000
vt 0.125000 0.750000
vt 0.125000 0.500000
vt 0.875000 0.500000
vt 0.625000 1.000000
vt 0.875000 0.750000
s 1
usemtl Material.002
f 66/101/45 67/102/45 65/103/45
f 68/104/46 71/105/46 67/102/46
f 72/106/47 69/107/47 71/105/47
f 70/108/48 65/109/48 69/107/48
f 71/105/49 65/110/49 67/111/49
f 68/112/50 70/108/50 72/106/50
f 66/101/45 68/104/45 67/102/45
f 68/104/46 72/106/46 71/105/46
f 72/106/47 70/108/47 69/107/47
f 70/108/48 66/113/48 65/109/48
f 71/105/49 69/107/49 65/110/49
f 68/112/50 66/114/50 70/108/50
o Cube.011
v -3.800000 0.200000 2.500000
v -3.800000 2.200000 2.500000
v -3.800000 0.200000 1.500000
v -3.800000 2.200000 1.500000
v -2.200000 0.200000 2.500000
v -2.200000 2.200000 2.500000
v -2.200000 0.200000 1.500000
v -2.200000 2.200000 1.500000
vn -1.0000 -0.0000 -0.0000
vn -0.0000 -0.0000 -1.0000
vn 1.0000 -0.0000 -0.0000
vn -0.0000 -0.0000 1.0000
vn -0.0000 -1.0000 -0.0000
vn -0.0000 1.0000 -0.0000
vt 0.625000 0.000000
vt 0.375000 0.250000
vt 0.375000 0.000000
vt 0.625000 0.250000
vt 0.375000 0.500000
vt 0.625000 0.500000
vt 0.375000 0.750000
vt 0.625000 0.750000
vt 0.375000 1.000000
vt 0.125000 0.750000
vt 0.125000 0.500000
vt 0.875000 0.500000
vt 0.625000 1.000000
vt 0.875000 0.750000
s 1
usemtl Material.006
f 74/115/51 75/116/51 73/117/51
f 76/118/52 79/119/52 75/116/52
f 80/120/53 77/121/53 79/119/53
f 78/122/54 73/123/54 77/121/54
f 79/119/55 73/124/55 75/125/55
f 76/126/56 78/122/56 80/120/56
f 74/115/51 76/118/51 75/116/51
f 76/118/52 80/120/52 79/119/52
f 80/120/53 78/122/53 77/121/53
f 78/122/54 74/127/54 73/123/54
f 79/119/55 77/121/55 73/124/55
f 76/126/56 74/128/56 78/122/56
o PanelTrasero
v -2.500000 0.200000 -2.800000
v -2.500000 6.000000 -2.800000
v -2.500000 0.200000 -3.000000
v -2.500000 6.000000 -3.000000
v 2.500000 0.200000 -2.800000
v 2.500000 6.000000 -2.800000
v 2.500000 0.200000 -3.000000
v 2.500000 6.000000 -3.000000
vn -1.0000 -0.0000 -0.0000
vn -0.0000 -0.0000 -1.0000
vn 1.0000 -0.0000 -0.0000
vn -0.0000 -1.0000 -0.0000
vn -0.0000 1.0000 -0.0000
vn -0.0000 -0.0000 1.0000
vt 0.625000 0.000000
vt 0.375000 0.250000
vt 0.375000 0.000000
vt 0.625000 0.250000
vt 0.375000 0.500000
vt 0.625000 0.500000
vt 0.375000 0.750000
vt 0.125000 0.750000
vt 0.125000 0.500000
vt 0.875000 0.500000
vt 0.625000 0.750000
vt 0.875000 0.750000
vt 1.000000 0.993510
vt 0.035526 0.025859
vt 0.952044 0.000000
vt 0.000000 1.000000
s 1
usemtl Material.001
f 82/129/57 83/130/57 81/131/57
f 84/132/58 87/133/58 83/130/58
f 88/134/59 85/135/59 87/133/59
f 87/133/60 81/136/60 83/137/60
f 84/138/61 86/139/61 88/134/61
f 82/129/57 84/132/57 83/130/57
f 84/132/58 88/134/58 87/133/58
f 88/134/59 86/139/59 85/135/59
f 87/133/60 85/135/60 81/136/60
f 84/138/61 82/140/61 86/139/61
usemtl ford
f 86/141/62 81/142/62 85/143/62
f 86/141/62 82/144/62 81/142/62
o Plano
v -1.500000 6.000000 3.016402
v 1.500000 6.000000 3.016402
v -1.500000 7.000000 3.016402
v 1.500000 7.000000 3.016402
vn -0.0000 -0.0000 1.0000
vt 1.000000 0.000000
vt 0.000000 1.000000
vt 0.000000 0.000000
vt 1.000000 1.000000
s 1
usemtl Material.012
f 90/145/63 91/146/63 89/147/63
f 90/145/63 92/148/63 91/146/63
